<?xml version="1.0" standalone="no"?>
<!DOCTYPE svg PUBLIC "-//W3C//DTD SVG 1.1//EN" "http://www.w3.org/Graphics/SVG/1.1/DTD/svg11.dtd" >
<svg xmlns="http://www.w3.org/2000/svg" xmlns:xlink="http://www.w3.org/1999/xlink" version="1.1">
<metadata>
Created by FontForge 20170731 at Sat Oct 30 10:41:11 2021
 By Aleksey,,,
(c) 2014 by Sergiy S. Tkachenko / 4th february (info@4thfebruary.com.ua).
All rights reserved. This font software is the property of Sergiy S. Tkachenko (Kremenchuk, Ukraine). You may not reproduce, modify, adapt, translate, alter nor create derivative works of the font software. You may not reverse engineer, decompile, decrypt, disassemble, nor seek to discover the source code of the font software.
</metadata>
<defs>
<font id="Motor4F" horiz-adv-x="1228" >
  <font-face 
    font-family="Motor4F"
    font-weight="400"
    font-stretch="normal"
    units-per-em="2048"
    panose-1="2 0 5 3 3 0 0 2 0 4"
    ascent="1681"
    descent="-367"
    x-height="1307"
    cap-height="1307"
    bbox="-860 -340 2335 1939"
    underline-thickness="102"
    underline-position="-204"
    unicode-range="U+0020-F0414"
  />
<missing-glyph horiz-adv-x="614" 
 />
    <glyph glyph-name=".notdef" horiz-adv-x="614" 
 />
    <glyph glyph-name=".null" horiz-adv-x="0" 
 />
    <glyph glyph-name="nonmarkingreturn" horiz-adv-x="682" 
 />
    <glyph glyph-name="space" unicode=" " horiz-adv-x="614" 
 />
    <glyph glyph-name="exclam" unicode="!" horiz-adv-x="569" 
d="M365 373q-5 -45 -43 -45h-74q-21 0 -31 14q-11 15 -12 31l-41 891q-1 16 10 29q12 14 33 14h155q17 0 32 -13q14 -12 12 -30zM385 45q0 -18 -12 -32q-12 -13 -31 -13h-115q-20 0 -31 14q-12 15 -12 31v119q0 16 12 30q12 13 31 13h115q19 0 31 -12t12 -31v-119z" />
    <glyph glyph-name="quotedbl" unicode="&#x22;" horiz-adv-x="819" 
d="M326 782q-4 -45 -43 -45h-74q-21 0 -31 15q-11 15 -12 30l-41 482q-1 16 10 29q12 14 33 14h156q17 0 31 -14q13 -13 12 -29zM653 782q-5 -45 -43 -45h-73q-21 0 -31 15q-11 15 -12 30l-41 482q-4 16 9 29q14 14 34 14h155q16 0 32 -14q15 -14 11 -29z" />
    <glyph glyph-name="numbersign" unicode="#" horiz-adv-x="1019" 
d="M305 938l45 326q4 14 17 29q12 14 32 14h74q16 0 29 -13q12 -12 8 -30l-45 -326h168l45 326q5 17 15 29q12 14 34 14h74q15 0 28 -13t9 -30l-45 -326h120q19 0 32 -12t13 -31v-74q0 -20 -14 -31q-15 -12 -31 -12h-143l-35 -250h137q21 0 33 -12t12 -31v-73q0 -21 -14 -32
t-31 -11h-159l-45 -324q-5 -19 -18 -32t-32 -13h-73q-21 0 -31 14q-10 15 -6 31l45 324h-168l-45 -324q-5 -20 -17 -32q-13 -13 -32 -13h-74q-24 0 -32 14q-9 15 -5 31l45 324h-121q-17 0 -29 11q-14 12 -14 32v73q0 15 13 30q12 13 30 13h144l35 250h-138q-15 0 -29 12
t-14 31v74q0 15 13 30q12 13 30 13h160zM408 528h167l35 250h-168z" />
    <glyph glyph-name="dollar" unicode="$" horiz-adv-x="1056" 
d="M526 553q-74 0 -144 29t-122 78q-54 51 -85 119q-32 70 -32 149q0 67 23 128q22 60 60 108q37 47 90 82q50 33 112 50v172q0 18 11 30q12 13 32 13h115q18 0 30 -12q13 -13 13 -31v-174q56 -18 103 -46q54 -32 88 -71q38 -43 62 -95q23 -50 23 -111q0 -17 -14 -31
t-31 -14h-112q-18 0 -29 10q-13 11 -17 27q-12 64 -62 105q-49 40 -114 40q-38 0 -69 -14q-35 -16 -58 -39t-39 -58q-14 -31 -14 -67q0 -40 14 -69q15 -31 39 -55q21 -21 58 -38q31 -14 69 -14q79 0 154 -29q71 -27 130 -79q54 -47 90 -119q34 -68 34 -148q0 -67 -25 -130
q-24 -61 -65 -109q-41 -49 -96 -83q-54 -33 -119 -49v-168q0 -16 -13 -31q-12 -14 -30 -14h-115q-20 0 -32 15q-11 14 -11 30v168q-59 15 -115 45q-53 29 -97 74q-43 45 -68 96t-25 115q0 17 14 30t31 13h113q16 0 30 -10q15 -11 15 -27q15 -66 71 -104q57 -39 129 -39
q45 0 80 14q38 15 65 39t44 56q16 31 16 67q0 75 -59 125q-60 51 -146 51z" />
    <glyph glyph-name="percent" unicode="%" 
d="M176 0q-20 0 -31 14q-12 15 -12 33q0 16 4 23l740 1218q13 19 36 19h93q16 0 32 -13q15 -12 15 -30q0 -11 -9 -25l-737 -1216q-7 -12 -17 -17q-12 -6 -22 -6h-92zM522 1104q0 86 -57 144q-57 59 -143 59q-84 0 -143 -59q-58 -58 -58 -144t58 -143q60 -58 143 -58
q85 0 143 58q57 57 57 143zM1057 201q0 84 -58 144q-57 58 -143 58q-84 0 -142 -58q-59 -59 -59 -144q0 -87 59 -144q58 -57 142 -57q86 0 143 57q58 58 58 144z" />
    <glyph glyph-name="ampersand" unicode="&#x26;" horiz-adv-x="1198" 
d="M885 350l-6 -33l215 -256q52 -61 -29 -61h-143q-40 0 -68 31l-76 92q-51 -56 -123 -90q-69 -33 -149 -33q-76 0 -145 30q-68 30 -121 81q-55 53 -85 121q-32 72 -32 153q0 71 25 137q26 68 77 121l62 70q-42 54 -62 112q-20 57 -20 123q0 79 30 145t79 115q50 50 116 77
q68 28 137 28q68 0 131 -26q62 -26 110 -69q49 -44 79 -106q32 -65 39 -131v-6q0 -16 -15 -31q-14 -14 -30 -14h-113q-30 0 -45 37q-10 60 -53 101q-44 42 -99 42q-64 0 -114 -44q-49 -43 -49 -116q0 -70 47 -123l264 -317q41 86 119 143t176 72h6q17 0 31 -14t14 -31v-113
q0 -35 -37 -45q-60 -10 -101 -59q-42 -49 -42 -113zM326 383q0 -41 15 -74q14 -30 41 -56q25 -23 58 -37q32 -13 70 -13q42 0 79 19q39 20 62 52l-235 283l-43 -51q-23 -28 -35 -59t-12 -64z" />
    <glyph glyph-name="quotesingle" unicode="'" horiz-adv-x="491" 
d="M326 782q-4 -45 -43 -45h-74q-21 0 -31 15q-11 15 -12 30l-41 482q-1 16 10 29q12 14 33 14h156q17 0 31 -14q13 -13 12 -29z" />
    <glyph glyph-name="parenleft" unicode="(" horiz-adv-x="770" 
d="M664 -338q-130 0 -230 78q-101 79 -170 213q-69 135 -105 315t-36 383t36 383q36 181 105 317q68 134 170 215q100 79 230 79q16 0 31 -13q14 -12 14 -30v-113q0 -16 -12 -31q-11 -14 -33 -14q-88 0 -152 -67q-63 -66 -105 -176q-42 -109 -63 -252q-20 -136 -20 -296
t20 -296q21 -140 62 -252q41 -110 105 -176q65 -66 153 -66q17 0 31 -14t14 -29v-113q0 -19 -12 -32t-33 -13z" />
    <glyph glyph-name="parenright" unicode=")" horiz-adv-x="770" 
d="M106 -338q-21 0 -33 13t-12 32v113q0 15 14 29t32 14q87 0 152 66q66 67 106 176q40 107 61 252q20 136 20 296t-20 296q-22 147 -62 252q-42 109 -106 176t-152 67q-22 0 -33 14q-12 15 -12 31v113q0 18 14 30q15 13 31 13q130 0 230 -79q102 -81 170 -215
q69 -136 105 -317q36 -180 36 -383t-36 -383t-105 -315q-69 -134 -170 -213q-100 -78 -230 -78z" />
    <glyph glyph-name="asterisk" unicode="*" horiz-adv-x="825" 
d="M96 1149q15 39 54 27l137 -46q39 -12 39 29v148q0 41 41 41h90q41 0 41 -41v-150q0 -41 39 -29l139 48q38 12 53 -27l29 -80q15 -39 -25 -51l-145 -49q-39 -12 -15 -45l91 -117q24 -32 -9 -59l-65 -54q-34 -25 -58 8l-96 127q-24 34 -49 0l-96 -129q-24 -34 -58 -6
l-65 54q-32 26 -8 59l86 117q23 32 -15 47l-139 47q-39 12 -24 51z" />
    <glyph glyph-name="plus" unicode="+" horiz-adv-x="983" 
d="M389 508q0 41 -41 41h-244q-18 0 -31 14q-14 16 -14 33v113q0 10 10 28q9 17 35 17h244q41 0 41 41v223q0 19 14 32t33 13h113q13 0 29 -10t16 -35v-223q0 -41 41 -41h244q17 0 31 -15q14 -16 14 -32v-113q0 -12 -11 -29q-10 -16 -34 -16h-244q-41 0 -41 -41v-223
q0 -19 -14 -32t-33 -13h-113q-12 0 -28 10q-17 11 -17 35v223z" />
    <glyph glyph-name="comma" unicode="," horiz-adv-x="561" 
d="M223 -293q-15 0 -27 9t-12 24q0 22 15 45q7 11 29 50q20 36 29 54q16 32 22 50q8 24 8 36q0 10 -6 14q-7 5 -13 5q-25 0 -48 11q-28 13 -47 31q-21 20 -36 48q-14 27 -14 66q0 33 13 62t35 51q21 21 50 35q27 13 62 13q63 0 109 -48q46 -47 46 -113q0 -127 -32 -232
q-33 -109 -105 -197q-14 -14 -35 -14h-43z" />
    <glyph glyph-name="hyphen" unicode="-" horiz-adv-x="864" 
d="M696 754q18 0 32 -15q13 -14 13 -32v-113q0 -13 -10 -29t-35 -16h-528q-19 0 -32 14t-13 33v113q0 12 10 28q11 17 35 17h528z" />
    <glyph glyph-name="period" unicode="." horiz-adv-x="561" 
d="M438 152q0 -66 -46 -112t-111 -46q-66 0 -112 46t-46 112t46 112q47 47 112 47q64 0 111 -47q46 -46 46 -112z" />
    <glyph glyph-name="slash" unicode="/" horiz-adv-x="776" 
d="M-39 -338q-20 0 -31 14q-12 15 -12 33q0 16 4 23l740 1894q13 19 36 19h113q17 0 33 -13q14 -11 14 -30q0 -12 -8 -25l-737 -1892q-12 -23 -39 -23h-113z" />
    <glyph glyph-name="zero" unicode="0" horiz-adv-x="983" 
d="M492 -2q-122 0 -202 60q-78 59 -124 156q-45 94 -63 212q-17 110 -17 227q0 116 17 225q18 117 63 211q45 95 124 156q80 62 202 62q121 0 201 -62q79 -61 124 -156q45 -94 63 -211q17 -109 17 -225q0 -117 -17 -227q-18 -118 -63 -212q-46 -97 -124 -156
q-79 -60 -201 -60zM492 199q66 0 107 47q39 45 61 116q22 73 28 149q6 79 6 140t-6 141q-6 74 -28 148q-22 71 -61 118q-41 48 -107 48q-68 0 -109 -48q-39 -47 -61 -118q-21 -69 -27 -148q-6 -80 -6 -141t6 -140q6 -78 27 -147q21 -70 61 -117q41 -48 109 -48z" />
    <glyph glyph-name="one" unicode="1" horiz-adv-x="983" 
d="M573 1292q8 13 31 13h141q18 0 31 -13q12 -12 12 -30v-1217q0 -18 -12 -32q-12 -13 -31 -13h-112q-21 0 -33 12q-14 14 -14 33v864q0 31 -27 41q-29 12 -49 -8l-240 -240q-12 -12 -30 -12q-22 0 -33 12l-82 80q-12 16 -12 31q0 17 12 33z" />
    <glyph glyph-name="two" unicode="2" horiz-adv-x="983" 
d="M625 807q47 53 47 123q0 36 -16 73q-14 31 -41 57q-25 23 -58 37q-32 13 -70 13q-63 0 -112 -42q-50 -42 -60 -101q-10 -37 -45 -37h-112q-17 0 -31 14t-14 31v6q7 68 41 131t84 106q51 44 115 69q66 26 139 26q75 0 144 -30q70 -30 122 -81q54 -52 85 -122
q31 -69 31 -152q0 -70 -27 -136q-26 -63 -75 -122l-336 -391q-14 -17 -14 -33q0 -18 15 -30q14 -11 32 -11h358q23 0 35 -15t12 -32v-113q0 -18 -12 -32q-12 -13 -35 -13h-671q-24 0 -35 14q-12 15 -12 31v141q0 14 12 31z" />
    <glyph glyph-name="three" unicode="3" horiz-adv-x="983" 
d="M600 1032q10 14 10 29q0 19 -15 32q-14 13 -32 13h-389q-20 0 -34 12q-13 12 -13 31v115q0 13 12 28t35 15h629q17 0 33 -13q14 -11 14 -30v-220q0 -4 -3 -11q-1 -3 -22 -34q-19 -28 -55 -76q-12 -15 -46 -62t-58 -79q-11 -16 -11 -28q0 -27 23 -39q91 -51 143 -142
q51 -90 51 -192q0 -84 -31 -153q-30 -68 -85 -121q-53 -52 -122 -80q-70 -29 -145 -29q-64 0 -133 26q-70 27 -122 71q-55 48 -89 109q-34 62 -34 136q0 17 14 30t31 13h112q18 0 29 -10q13 -11 14 -27q14 -64 65 -105q49 -40 113 -40q76 0 127 53q52 54 52 125
q0 77 -52 131q-51 53 -127 53h-45q-22 0 -34 14q-13 15 -13 29v144q0 8 3 15q2 5 8 11z" />
    <glyph glyph-name="four" unicode="4" horiz-adv-x="983" 
d="M651 690q0 17 13 33q11 14 32 14h111q24 0 35 -14q12 -15 12 -33v-645q0 -18 -12 -32q-12 -13 -35 -13h-111q-22 0 -33 14q-12 15 -12 31v270q0 19 -13 33t-32 14h-471q-17 0 -33 13q-14 11 -14 33v145q0 9 6 20l398 711q7 14 17 18q13 5 21 5h129q17 0 32 -13
q14 -12 14 -34q0 -11 -5 -19l-340 -610q-4 -7 -4 -23q0 -22 15 -33q14 -10 28 -10h207q17 0 32 13q13 12 13 30v82z" />
    <glyph glyph-name="five" unicode="5" horiz-adv-x="983" 
d="M113 315q0 16 12 31q11 14 33 14h118q34 0 41 -28q17 -77 73 -105t118 -28q47 0 82 17q36 17 63 46q27 28 42 66q16 40 16 78q0 86 -60 143t-143 57h-315q-16 0 -32 14t-16 33v611q0 19 15 31t33 12h628q18 0 33 -12q14 -11 14 -31v-115q0 -20 -14 -31q-15 -12 -33 -12
h-428q-21 0 -32 -14t-11 -31v-205q0 -18 12 -32q12 -13 31 -13h115q83 0 158 -32q74 -32 128 -87q55 -56 86 -129q31 -72 31 -160q0 -79 -30 -154q-29 -71 -85 -131q-51 -53 -127 -90q-71 -34 -159 -34q-71 0 -140 22q-70 22 -128 65q-60 44 -94 101q-35 58 -35 133z" />
    <glyph glyph-name="six" unicode="6" horiz-adv-x="983" 
d="M625 1307q16 0 32 -14q15 -13 15 -29q0 -17 -15 -35q-72 -68 -140 -164q-64 -91 -111 -197q-3 -12 -3 -16q0 -15 13 -31q11 -14 37 -14q4 0 26 2t39 2q74 0 146 -30q69 -29 128 -83q55 -51 91 -127q35 -75 35 -161t-33 -161q-33 -76 -89 -130q-57 -56 -130 -87
q-75 -32 -156 -32q-84 0 -158 33q-76 34 -128 89q-55 58 -86 130t-31 154v2q0 151 33 286q35 144 85 261t109 209q58 90 102 128q12 12 18 13q10 2 17 2h154zM307 406q0 -39 17 -78q17 -38 44 -65q28 -28 64 -44t80 -16q42 0 78 16t64 44t43 65q16 40 16 78q0 85 -59 144
q-58 58 -142 58q-86 0 -145 -58q-60 -58 -60 -144z" />
    <glyph glyph-name="seven" unicode="7" horiz-adv-x="983" 
d="M483 29q-5 -14 -16 -21q-13 -8 -25 -8h-120q-17 0 -31 13q-15 13 -15 30q0 5 5 18l356 983q2 6 2 15q0 18 -12 33q-11 14 -33 14h-438q-23 0 -35 13t-12 30v115q0 20 14 31q15 12 33 12h671q18 0 33 -12q14 -11 14 -31v-152q0 -5 -1 -7t-1 -7z" />
    <glyph glyph-name="eight" unicode="8" horiz-adv-x="983" 
d="M199 737q-35 48 -52 102q-16 52 -16 107q0 68 29 135t78 116q52 52 114 80q66 30 140 30q73 0 139 -30q64 -29 114 -79t78 -115q29 -67 29 -139q0 -54 -15 -106t-51 -101q-10 -10 -10 -26q0 -15 12 -31q56 -63 81 -130q28 -73 28 -144q0 -82 -33 -156t-88 -130
q-54 -55 -129 -89q-73 -33 -155 -33t-156 33q-75 34 -129 89q-55 56 -88 130t-33 156q0 71 28 144q25 67 81 130q12 16 12 33q0 13 -8 24zM649 946q0 67 -46 113q-47 47 -111 47q-65 0 -112 -47q-46 -46 -46 -113q0 -65 46 -111q47 -47 112 -47q64 0 111 47q46 46 46 111z
M692 406q0 86 -57 143t-143 57q-84 0 -143 -57q-58 -57 -58 -143q0 -87 58 -145t143 -58q86 0 143 58t57 145z" />
    <glyph glyph-name="nine" unicode="9" horiz-adv-x="983" 
d="M379 0q-19 0 -33 13t-14 30q0 18 14 35q72 68 140 164t112 196q2 8 2 17q0 15 -12 30t-37 15q-5 0 -27 -2t-39 -2q-75 0 -145 29q-69 29 -128 83q-55 51 -91 127q-35 75 -35 162q0 86 33 161q33 76 89 130q57 56 130 87q75 32 156 32q84 0 157 -33q76 -34 128 -89
q55 -58 86 -130q32 -75 32 -154v-2q0 -148 -34 -287q-35 -144 -85 -261q-52 -121 -108 -209t-103 -128q-11 -11 -17 -12q-10 -2 -18 -2h-153zM696 901q0 42 -16 78t-44 64q-28 27 -65 44q-39 17 -79 17q-39 0 -78 -17q-38 -17 -65 -44q-29 -29 -43 -64q-15 -37 -15 -78
q0 -86 58 -144q59 -59 143 -59t145 59q59 58 59 144z" />
    <glyph glyph-name="colon" unicode=":" horiz-adv-x="561" 
d="M438 152q0 -66 -46 -112t-111 -46q-66 0 -112 46t-46 112t46 112q47 47 112 47q64 0 111 -47q46 -46 46 -112zM438 766q0 -66 -46 -112t-111 -46q-66 0 -112 46t-46 112q0 67 46 113q47 47 112 47q64 0 111 -47q46 -46 46 -113z" />
    <glyph glyph-name="semicolon" unicode=";" horiz-adv-x="561" 
d="M223 -293q-15 0 -27 9t-12 24q0 22 15 45q7 11 29 50q20 36 29 54q16 32 22 50q8 24 8 36q0 10 -6 14q-7 5 -13 5q-25 0 -48 11q-28 13 -47 31q-21 20 -36 48q-14 27 -14 66q0 33 13 62t35 51q21 21 50 35q27 13 62 13q63 0 109 -48q46 -47 46 -113q0 -127 -32 -232
q-33 -109 -105 -197q-14 -14 -35 -14h-43zM438 766q0 -66 -46 -112t-111 -46q-66 0 -112 46t-46 112q0 67 46 113q47 47 112 47q64 0 111 -47q46 -46 46 -113z" />
    <glyph glyph-name="less" unicode="&#x3c;" horiz-adv-x="1099" 
d="M430 647q0 -25 21 -37l559 -350q5 -5 6 -11q2 -10 2 -13q0 -20 -14 -31q-15 -12 -33 -12h-158q-9 0 -23 6t-24 12l-637 399q-27 16 -27 37t27 37l637 399q18 11 24 13q14 6 23 6h158q18 0 33 -12q14 -11 14 -31q0 -3 -2 -13q-2 -8 -6 -12l-559 -350q-21 -12 -21 -37z" />
    <glyph glyph-name="equal" unicode="=" horiz-adv-x="983" 
d="M250 352q-22 0 -34 15q-11 14 -11 30v113q0 19 13 31q14 12 32 12h483q19 0 32 -12t13 -31v-113q0 -16 -11 -30q-12 -15 -34 -15h-483zM250 754q-23 0 -34 14t-11 31v112q0 19 13 31q14 12 32 12h483q19 0 32 -12t13 -31v-112q0 -17 -11 -31t-34 -14h-483z" />
    <glyph glyph-name="greater" unicode="&#x3e;" horiz-adv-x="1099" 
d="M670 647q0 25 -21 37l-559 350q-4 4 -6 12q-2 10 -2 13q0 20 14 31q15 12 33 12h158q9 0 23 -6q6 -2 24 -13l637 -399q26 -16 26 -37t-26 -37l-637 -399q-10 -6 -24 -12t-23 -6h-158q-18 0 -33 12q-14 11 -14 31q0 3 2 13q1 6 6 11l559 350q21 12 21 37z" />
    <glyph glyph-name="question" unicode="?" horiz-adv-x="1056" 
d="M522 754q39 0 70 14q35 16 57 38q24 24 39 55q14 29 14 69q0 36 -14 67q-16 35 -39 58q-24 24 -57 39q-31 14 -70 14q-64 0 -113 -40q-52 -42 -63 -105q-5 -17 -16 -27t-29 -10h-113q-16 0 -30 14q-15 15 -15 31q0 72 35 136q33 60 89 107q55 46 122 71q69 26 133 26
q75 0 145 -29q67 -28 121 -80t85 -122q32 -72 32 -152q0 -79 -32 -149q-31 -68 -85 -119q-53 -50 -121 -78q-70 -29 -145 -29q-23 0 -35 -13q-12 -14 -12 -32v-135q0 -16 -12 -31q-11 -14 -33 -14h-92q-18 0 -32 12q-13 12 -13 33l-21 338q0 18 14 30q15 13 31 13h205z
M481 164q0 19 -12 31t-31 12h-114q-20 0 -32 -13q-11 -12 -11 -30v-119q0 -17 11 -31t32 -14h114q19 0 31 13t12 32v119z" />
    <glyph glyph-name="at" unicode="@" horiz-adv-x="1490" 
d="M1077 514q55 -2 93 42t38 97q0 116 -26 203q-27 91 -81 155t-137 99q-84 35 -198 35q-123 0 -216 -41q-90 -40 -151 -110q-59 -68 -88 -157q-28 -87 -28 -184q0 -95 28 -182q28 -88 87 -157q58 -68 150 -109q93 -41 218 -41h405q24 0 35 -18q11 -19 11 -27v-72
q0 -17 -14 -33q-13 -14 -32 -14h-405q-151 0 -271 51t-203 140q-82 88 -126 208q-43 117 -43 252q0 137 43 254q44 120 126 208t203 141t271 53q145 0 255 -46t188 -133q79 -88 118 -206q41 -123 41 -271q0 -63 -23 -115q-24 -54 -65 -95q-37 -37 -95 -63q-54 -24 -116 -24
h-367q-57 0 -108 24q-53 25 -89 64q-39 42 -60 96t-21 115q0 62 21 116q20 50 60 94q36 39 89 64q49 23 108 23h291q16 0 31 -12q14 -11 14 -31v-346q0 -17 11 -33q10 -14 28 -14z" />
    <glyph glyph-name="A" unicode="A" horiz-adv-x="1132" 
d="M109 0q-23 0 -35 15q-13 16 -13 32q0 4 2 12l328 1215q7 33 43 33h266q14 0 27 -10q12 -9 16 -23l326 -1215q2 -8 2 -14q0 -17 -14 -31t-31 -14h-117q-32 0 -43 35l-61 225q-6 35 -43 35h-391q-35 0 -41 -35l-62 -225q-11 -35 -45 -35h-114zM686 496q20 0 31 14
q12 15 12 31q0 6 -2 12l-115 434q-11 35 -45 35t-45 -35l-114 -434q-2 -6 -2 -12q0 -16 12 -31q11 -14 31 -14h237z" />
    <glyph glyph-name="B" unicode="B" horiz-adv-x="1187" 
d="M967 684q-13 -13 -13 -31q0 -20 13 -28q45 -51 70 -118q24 -64 24 -134q0 -78 -31 -148q-29 -65 -81 -117q-50 -50 -118 -79q-69 -29 -141 -29h-483q-16 0 -31 12q-14 11 -14 35v1215q0 21 14 32q16 13 31 13h483q72 0 141 -29q67 -29 118 -79q51 -51 81 -118
q31 -70 31 -147q0 -68 -24 -132q-25 -67 -70 -118zM410 1102q-22 0 -34 -15q-11 -14 -11 -30v-256q0 -20 11 -32q12 -13 34 -13h280q71 0 121 53q49 52 49 127q0 73 -49 119q-50 47 -121 47h-280zM410 551q-23 0 -34 -14t-11 -31v-258q0 -18 11 -30q12 -13 34 -13h280
q72 0 121 49t49 119q0 77 -49 127q-49 51 -121 51h-280z" />
    <glyph glyph-name="C" unicode="C" horiz-adv-x="1187" 
d="M1094 1079q8 -18 8 -26q0 -21 -17 -33l-86 -74q-11 -12 -36 -12q-21 4 -31 22q-46 70 -117 110t-153 40q-89 0 -152 -39t-103 -103t-60 -146q-19 -79 -19 -165q0 -84 18 -165t58 -145q39 -62 104 -104q62 -40 154 -40q82 0 153 40q73 41 117 109q5 14 16 18q13 5 23 5
q17 0 28 -13l86 -73q17 -17 17 -35q0 -7 -8 -25q-74 -107 -188 -167t-242 -60q-131 0 -232 53q-98 51 -169 144q-69 90 -103 207q-35 120 -35 249t35 251q35 121 102 209q69 91 169 142q105 54 235 54q128 0 241 -59q115 -60 187 -169z" />
    <glyph glyph-name="D" unicode="D" 
d="M1065 428q0 -89 -34 -166q-35 -78 -91 -136q-56 -57 -136 -92q-78 -34 -167 -34h-428q-19 0 -32 13t-13 32v1219q0 22 14 32q16 11 31 11h428q88 0 166 -33t136 -91q57 -57 92 -136q34 -77 34 -166v-453zM862 881q0 45 -18 86q-18 40 -49 71t-72 49q-43 19 -86 19h-223
q-24 0 -35 -15q-10 -14 -10 -30v-813q0 -19 11 -33t34 -14h223q47 0 88 18t72 49q29 29 48 72q17 38 17 88v453z" />
    <glyph glyph-name="E" unicode="E" horiz-adv-x="1187" 
d="M1065 47q0 -19 -13 -33t-32 -14h-811q-13 0 -29 12t-16 35v1215q0 21 16 33q17 12 29 12h811q18 0 32 -14q13 -13 13 -31v-111q0 -23 -13 -35q-14 -12 -32 -12h-606q-23 0 -34 -14t-11 -31v-258q0 -19 11 -33t34 -14h524q17 0 32 -13q13 -12 13 -30v-113q0 -17 -11 -31
t-34 -14h-524q-19 0 -32 -14t-13 -31v-260q0 -18 11 -30q12 -13 34 -13h606q24 0 35 -17q10 -16 10 -28v-113z" />
    <glyph glyph-name="F" unicode="F" horiz-adv-x="1187" 
d="M369 47q0 -17 -14 -33q-13 -14 -31 -14h-115q-13 0 -29 12t-16 35v1215q0 21 16 33q17 12 29 12h811q18 0 32 -14q13 -13 13 -31v-111q0 -23 -13 -35q-14 -12 -32 -12h-606q-23 0 -34 -14t-11 -31v-258q0 -19 11 -33t34 -14h524q17 0 32 -13q13 -12 13 -30v-113
q0 -17 -11 -31t-34 -14h-524q-19 0 -32 -14t-13 -31v-461z" />
    <glyph glyph-name="G" unicode="G" 
d="M889 295q5 6 7 13q1 3 1 14v186q0 17 -13 31t-32 14h-150q-22 0 -32 14q-11 16 -11 31v113q0 16 13 32q12 15 30 15h355q10 0 28 -13q17 -12 17 -34v-461q0 -7 -8 -25q-74 -107 -188 -167t-242 -60q-131 0 -232 53q-98 51 -169 144q-69 90 -103 207q-35 120 -35 249
t35 251q35 121 102 209q69 91 169 142q105 54 235 54q128 0 241 -59q115 -60 187 -169q8 -18 8 -26q0 -21 -17 -33l-86 -74q-11 -12 -36 -12q-21 4 -31 22q-46 70 -117 110t-153 40q-89 0 -152 -39t-103 -103t-60 -146q-19 -79 -19 -165q0 -84 18 -165t58 -145
q39 -62 104 -104q62 -40 154 -40q64 0 124 24q57 23 103 72z" />
    <glyph glyph-name="H" unicode="H" 
d="M1065 45q0 -19 -13 -32t-32 -13h-113q-22 0 -33 14q-12 15 -12 31v461q0 18 -12 32q-12 13 -35 13h-405q-15 0 -29 -11t-14 -34v-461q0 -18 -14 -32q-13 -13 -31 -13h-113q-22 0 -33 14q-12 15 -12 31v1219q0 16 12 29q12 14 33 14h113q16 0 31 -13q14 -12 14 -30v-465
q0 -21 13 -33q14 -12 30 -12h405q19 0 33 13t14 32v465q0 16 12 29q12 14 33 14h113q17 0 32 -13q13 -12 13 -30v-1219z" />
    <glyph glyph-name="I" unicode="I" horiz-adv-x="569" 
d="M385 45q0 -18 -12 -32q-12 -13 -31 -13h-115q-20 0 -31 14q-12 15 -12 31v1219q0 16 12 29q12 14 31 14h115q18 0 31 -13q12 -12 12 -30v-1219z" />
    <glyph glyph-name="J" unicode="J" horiz-adv-x="966" 
d="M823 381q0 -84 -31 -153q-31 -70 -85 -122q-51 -50 -122 -79q-70 -29 -145 -29q-64 0 -133 26q-70 27 -122 71q-55 48 -89 109q-35 64 -35 136q0 16 15 30q14 13 30 13h113q18 0 29 -10q13 -11 14 -27q14 -64 65 -105q49 -40 113 -40q76 0 127 53q51 52 51 125v885
q0 14 13 29q12 14 33 14h114q17 0 32 -13q13 -12 13 -30v-883z" />
    <glyph glyph-name="K" unicode="K" horiz-adv-x="1153" 
d="M369 47q0 -17 -14 -33q-13 -14 -33 -14h-111q-19 0 -33 14t-14 33v1215q0 18 14 31q16 14 33 14h111q16 0 32 -14q15 -13 15 -31v-394q0 -22 13 -34q15 -13 32 -13q15 0 32 17l381 452q12 17 35 17h146q16 0 31 -13q14 -12 14 -30t-13 -31l-362 -434q-10 -11 -10 -29
q0 -11 4 -22l393 -678q6 -12 6 -25q0 -17 -13 -31t-32 -14h-129q-22 0 -41 25l-405 702q-12 23 -39 23q-19 0 -31 -14t-12 -31v-658z" />
    <glyph glyph-name="L" unicode="L" horiz-adv-x="1085" 
d="M367 248q0 -17 10 -30t33 -13h528q24 0 35 -17q10 -16 10 -28v-113q0 -19 -13 -33t-32 -14h-729q-13 0 -29 12t-16 35v1215q0 21 16 33q17 12 29 12h113q17 0 31 -14t14 -31v-1014z" />
    <glyph glyph-name="M" unicode="M" horiz-adv-x="1409" 
d="M164 1262q0 18 13 31q14 14 32 14h131q26 0 41 -21l285 -459q14 -20 39 -20t36 20l287 459q15 21 37 21h133q17 0 33 -13q14 -11 14 -32v-1215q0 -19 -14 -33t-33 -14h-113q-11 0 -28 12t-17 35v719q0 20 -11 32q-12 13 -32 13q-25 0 -39 -20l-217 -347q-16 -26 -36 -26
q-12 0 -22 8q-10 9 -17 18l-217 347q-14 20 -39 20q-19 0 -32 -13t-13 -32v-719q0 -17 -13 -33q-11 -14 -30 -14h-113q-16 0 -31 12q-14 11 -14 35v1215z" />
    <glyph glyph-name="N" unicode="N" horiz-adv-x="1310" 
d="M449 791q-14 20 -39 20q-19 0 -32 -13t-13 -32v-719q0 -17 -13 -33q-11 -14 -30 -14h-113q-16 0 -31 12q-14 11 -14 35v1215q0 18 13 31q14 14 32 14h131q26 0 41 -21l479 -770q14 -20 39 -20q20 0 32 13q11 12 11 32v721q0 21 16 33t29 12h113q17 0 33 -14
q14 -13 14 -31v-1215q0 -21 -14 -34t-33 -13h-133q-22 0 -37 23z" />
    <glyph glyph-name="O" unicode="O" 
d="M614 -2q-129 0 -229 52q-101 53 -170 141t-105 208q-36 119 -36 252q0 135 36 254q36 120 105 208t170 141t229 53q129 0 230 -53t170 -141t105 -208q36 -118 36 -254q0 -133 -36 -252q-36 -120 -105 -208t-170 -141q-100 -52 -230 -52zM614 201q88 0 152 38t105 100
q43 64 63 144q20 79 20 170t-20 170q-21 82 -63 145q-40 61 -105 99q-62 37 -152 37q-87 0 -151 -38q-65 -39 -106 -100t-62 -145q-21 -83 -21 -168t21 -168t61 -145q40 -63 106 -101q65 -38 152 -38z" />
    <glyph glyph-name="P" unicode="P" horiz-adv-x="1146" 
d="M416 588q-23 0 -35 -15t-12 -30v-498q0 -17 -13 -32q-12 -13 -30 -13h-117q-17 0 -31 11t-14 34v1219q0 19 14 30q16 13 31 13h496q73 0 141 -28q64 -26 115 -77q49 -49 76 -115q28 -68 28 -139t-28 -139q-27 -66 -76 -115q-50 -50 -115 -78t-141 -28h-289zM705 788
q30 0 61 13q28 12 50 34q23 23 34 51q12 30 12 62q0 66 -46 112t-111 46h-291q-23 0 -34 -14t-11 -33v-223q0 -19 11 -33q12 -15 34 -15h291z" />
    <glyph glyph-name="Q" unicode="Q" 
d="M614 -2q-129 0 -229 52q-101 53 -170 141t-105 208q-36 119 -36 252q0 135 36 254q36 120 105 208t170 141t229 53q129 0 230 -53t170 -141t105 -208q36 -118 36 -254q0 -179 -62 -324q-63 -146 -180 -235l5 2l141 -317q4 -11 4 -19q0 -19 -11 -31q-12 -14 -32 -14h-127
q-27 0 -39 27l-121 270q-60 -12 -119 -12zM614 201q88 0 152 38t105 100q43 64 63 144q20 79 20 170t-20 170q-21 82 -63 145q-40 61 -105 99q-62 37 -152 37q-87 0 -151 -38q-65 -39 -106 -100t-62 -145q-21 -83 -21 -168t21 -168t61 -145q40 -63 106 -101q65 -38 152 -38z
" />
    <glyph glyph-name="R" unicode="R" horiz-adv-x="1187" 
d="M705 788q30 0 61 13q28 12 50 34q23 23 34 51q12 30 12 62q0 66 -46 112t-111 46h-291q-23 0 -34 -14t-11 -33v-223q0 -19 11 -33q12 -15 34 -15h291zM1053 74l8 -13q4 -5 4 -16q0 -19 -14 -32t-33 -13h-146q-18 0 -34 16l-389 680q-13 19 -33 19q-22 0 -35 -16
q-12 -15 -12 -29v-625q0 -17 -13 -32q-12 -13 -30 -13h-117q-17 0 -31 11t-14 34v1219q0 19 14 30q16 13 31 13h496q73 0 141 -28q64 -26 115 -77q49 -49 76 -115q28 -68 28 -139q0 -63 -19 -117q-19 -55 -54 -100q-36 -47 -80 -78q-46 -33 -101 -49q-17 -5 -31 -16t-14 -31
q0 -11 7 -19q5 -6 13 -20z" />
    <glyph glyph-name="S" unicode="S" horiz-adv-x="1056" 
d="M526 553q-74 0 -144 29t-122 78q-54 51 -85 119q-32 70 -32 149q0 80 32 152q31 70 85 122q53 52 122 80q70 29 144 29q64 0 133 -26q67 -25 122 -71q56 -47 89 -107q35 -64 35 -136q0 -17 -14 -31t-31 -14h-112q-18 0 -29 10q-13 11 -17 27q-12 64 -62 105
q-49 40 -114 40q-38 0 -69 -14q-35 -16 -58 -39t-39 -58q-14 -31 -14 -67q0 -40 14 -69q15 -31 39 -55q21 -21 58 -38q31 -14 69 -14q79 0 154 -29q71 -27 130 -79q54 -47 90 -119q34 -68 34 -148q0 -84 -34 -153q-36 -74 -90 -122q-56 -50 -130 -79q-75 -29 -154 -29
q-68 0 -141 26t-130 71t-95 109q-37 62 -37 136q0 17 14 30t31 13h113q16 0 30 -10q15 -11 15 -27q15 -66 71 -104q57 -39 129 -39q45 0 80 14q38 15 65 39t44 56q16 31 16 67q0 75 -59 125q-60 51 -146 51z" />
    <glyph glyph-name="T" unicode="T" horiz-adv-x="1024" 
d="M106 1106q-22 0 -33 14q-12 15 -12 31v113q0 13 12 28t33 15h812q14 0 30 -13q15 -12 15 -30v-113q0 -18 -14 -32q-13 -13 -31 -13h-261q-16 0 -30 -13q-15 -13 -15 -34v-1014q0 -18 -12 -32q-12 -13 -31 -13h-114q-23 0 -34 14t-11 31v1014q0 20 -14 34q-13 13 -31 13
h-259z" />
    <glyph glyph-name="U" unicode="U" 
d="M864 1264q0 14 13 29q12 14 32 14h113q15 0 31 -13q14 -11 14 -30v-840q0 -87 -35 -166q-34 -77 -96 -136q-60 -57 -144 -92q-81 -34 -178 -34t-178 34q-83 35 -143 92q-62 59 -96 136q-35 79 -35 166v840q0 16 12 29q12 14 33 14h112q17 0 32 -13q14 -12 14 -30v-840
q0 -49 19 -88q21 -45 53 -72q37 -32 79 -49q45 -18 98 -18q52 0 98 18q43 17 80 49q32 27 53 72q19 39 19 88v840z" />
    <glyph glyph-name="V" unicode="V" horiz-adv-x="1132" 
d="M866 1274q10 33 43 33h117q15 0 31 -14q14 -13 14 -29q0 -9 -2 -15l-326 -1214q-5 -18 -16 -26q-12 -9 -27 -9h-266q-37 0 -43 35l-328 1214q-2 6 -2 13q0 14 13 30q12 15 35 15h114q35 0 45 -33l254 -955q10 -34 45 -34q30 0 45 34z" />
    <glyph glyph-name="W" unicode="W" horiz-adv-x="1470" 
d="M836 1094q38 0 45 -33l116 -742q10 -34 37 -34t37 34l131 955q1 13 16 23t29 10h115q23 0 35 -15t12 -30q0 -6 -1 -8t-1 -5l-184 -1214q-6 -35 -43 -35h-271q-14 0 -26 9t-17 26l-94 692q-5 18 -14 26q-10 9 -23 9q-26 0 -37 -35l-94 -692q-5 -18 -16 -26q-12 -9 -27 -9
h-270q-37 0 -43 35l-185 1214q0 3 -1 6t-1 7q0 14 13 30q12 15 35 15h114q15 0 30 -10q14 -9 15 -23l131 -955q10 -34 37 -34t37 34l117 742q8 33 45 33h201z" />
    <glyph glyph-name="X" unicode="X" horiz-adv-x="1124" 
d="M125 0q-20 0 -31 14q-12 15 -12 33q0 16 4 23l358 559q7 14 7 24q0 13 -7 25l-358 561q-4 5 -4 23q0 45 43 45h133q26 0 39 -19l227 -354q15 -23 37 -23t39 23l225 354q13 19 37 19h133q17 0 33 -13q14 -11 14 -30q0 -12 -8 -25l-356 -561q-6 -10 -6 -25q0 -12 6 -24
l356 -559q8 -18 8 -25q0 -16 -15 -31q-14 -14 -32 -14h-133q-25 0 -37 23l-225 354q-6 10 -17 14t-22 4q-25 0 -37 -18l-227 -354q-12 -23 -39 -23h-133z" />
    <glyph glyph-name="Y" unicode="Y" horiz-adv-x="1083" 
d="M641 45q0 -18 -12 -32q-12 -13 -31 -13h-115q-20 0 -31 14q-12 15 -12 31v594q0 15 -6 25l-368 575q-5 7 -5 23q0 45 43 45h134q25 0 38 -19l228 -354q15 -23 37 -23t39 23l225 354q13 19 37 19h133q17 0 33 -13q14 -11 14 -30q0 -12 -8 -25l-367 -575q-6 -10 -6 -25
v-594z" />
    <glyph glyph-name="Z" unicode="Z" 
d="M770 1016q14 20 14 43q0 21 -13 33t-32 12h-569q-23 0 -35 15t-12 28v115q0 18 14 31q16 14 33 14h889q20 0 34 -14q13 -13 13 -31v-134q0 -9 -5 -22q-4 -11 -11 -23l-631 -792q-15 -23 -15 -45q0 -21 14 -33t31 -12h570q17 0 33 -13q14 -11 14 -30v-113q0 -16 -12 -31
q-11 -14 -35 -14h-889q-19 0 -33 13t-14 32v131q0 11 5 24q2 5 11 21z" />
    <glyph glyph-name="bracketleft" unicode="[" horiz-adv-x="737" 
d="M655 -291q0 -19 -13 -33t-32 -14h-401q-13 0 -29 12t-16 35v1890q0 22 16 34q17 12 29 12h401q18 0 32 -14q13 -13 13 -32v-110q0 -23 -13 -35q-14 -12 -32 -12h-196q-22 0 -34 -15q-11 -14 -11 -30v-1487q0 -18 11 -30q12 -13 34 -13h196q24 0 35 -17q10 -16 10 -28
v-113z" />
    <glyph glyph-name="backslash" unicode="\" horiz-adv-x="776" 
d="M702 -338q-26 0 -38 23l-738 1892q-8 13 -8 25q0 19 14 30q16 13 33 13h113q24 0 37 -19l739 -1894q4 -7 4 -23q0 -18 -12 -33q-11 -14 -31 -14h-113z" />
    <glyph glyph-name="bracketright" unicode="]" horiz-adv-x="737" 
d="M82 -178q0 12 10 28q11 17 35 17h197q21 0 33 13q12 14 12 30v1487q0 15 -12 30t-33 15h-197q-19 0 -32 12t-13 35v110q0 19 13 32q14 14 32 14h401q12 0 29 -12q16 -12 16 -34v-1890q0 -23 -16 -35q-17 -12 -29 -12h-401q-19 0 -32 14t-13 33v113z" />
    <glyph glyph-name="asciicircum" unicode="^" horiz-adv-x="1073" 
d="M537 1176q-25 0 -37 -21l-351 -395q-5 -5 -11 -6q-10 -2 -13 -2q-20 0 -31 14q-12 15 -12 33v137q0 8 5 25q4 13 13 22l400 432l18 19q8 8 19 8q10 0 18 -8l18 -19l400 -432q9 -9 13 -22q5 -17 5 -25v-137q0 -18 -12 -33q-11 -14 -31 -14q-3 0 -13 2q-6 1 -11 6l-351 395
q-12 21 -36 21z" />
    <glyph glyph-name="underscore" unicode="_" horiz-adv-x="983" 
d="M897 -174q25 0 35 -17t10 -28v-72q0 -19 -13 -33t-32 -14h-811q-22 0 -33 14q-12 15 -12 33v72q0 13 10 29t35 16h811z" />
    <glyph glyph-name="grave" unicode="`" 
d="M748 1487q12 -12 12 -31t-14 -31t-31 -12h-105q-23 0 -35 17l-174 206q-12 12 -12 31t12 31t33 12h105q22 0 34 -16z" />
    <glyph glyph-name="a" unicode="a" horiz-adv-x="1132" 
d="M109 0q-23 0 -35 15q-13 16 -13 32q0 4 2 12l328 1215q7 33 43 33h266q14 0 27 -10q12 -9 16 -23l326 -1215q2 -8 2 -14q0 -17 -14 -31t-31 -14h-117q-32 0 -43 35l-61 225q-6 35 -43 35h-391q-35 0 -41 -35l-62 -225q-11 -35 -45 -35h-114zM686 496q20 0 31 14
q12 15 12 31q0 6 -2 12l-115 434q-11 35 -45 35t-45 -35l-114 -434q-2 -6 -2 -12q0 -16 12 -31q11 -14 31 -14h237z" />
    <glyph glyph-name="b" unicode="b" horiz-adv-x="1187" 
d="M967 684q-13 -13 -13 -31q0 -20 13 -28q45 -51 70 -118q24 -64 24 -134q0 -78 -31 -148q-29 -65 -81 -117q-50 -50 -118 -79q-69 -29 -141 -29h-483q-16 0 -31 12q-14 11 -14 35v1215q0 21 14 32q16 13 31 13h483q72 0 141 -29q67 -29 118 -79q51 -51 81 -118
q31 -70 31 -147q0 -68 -24 -132q-25 -67 -70 -118zM410 1102q-22 0 -34 -15q-11 -14 -11 -30v-256q0 -20 11 -32q12 -13 34 -13h280q71 0 121 53q49 52 49 127q0 73 -49 119q-50 47 -121 47h-280zM410 551q-23 0 -34 -14t-11 -31v-258q0 -18 11 -30q12 -13 34 -13h280
q72 0 121 49t49 119q0 77 -49 127q-49 51 -121 51h-280z" />
    <glyph glyph-name="c" unicode="c" horiz-adv-x="1187" 
d="M1094 1079q8 -18 8 -26q0 -21 -17 -33l-86 -74q-11 -12 -36 -12q-21 4 -31 22q-46 70 -117 110t-153 40q-89 0 -152 -39t-103 -103t-60 -146q-19 -79 -19 -165q0 -84 18 -165t58 -145q39 -62 104 -104q62 -40 154 -40q82 0 153 40q73 41 117 109q5 14 16 18q13 5 23 5
q17 0 28 -13l86 -73q17 -17 17 -35q0 -7 -8 -25q-74 -107 -188 -167t-242 -60q-131 0 -232 53q-98 51 -169 144q-69 90 -103 207q-35 120 -35 249t35 251q35 121 102 209q69 91 169 142q105 54 235 54q128 0 241 -59q115 -60 187 -169z" />
    <glyph glyph-name="d" unicode="d" 
d="M1065 428q0 -89 -34 -166q-35 -78 -91 -136q-56 -57 -136 -92q-78 -34 -167 -34h-428q-19 0 -32 13t-13 32v1219q0 22 14 32q16 11 31 11h428q88 0 166 -33t136 -91q57 -57 92 -136q34 -77 34 -166v-453zM862 881q0 45 -18 86q-18 40 -49 71t-72 49q-43 19 -86 19h-223
q-24 0 -35 -15q-10 -14 -10 -30v-813q0 -19 11 -33t34 -14h223q47 0 88 18t72 49q29 29 48 72q17 38 17 88v453z" />
    <glyph glyph-name="e" unicode="e" horiz-adv-x="1187" 
d="M1065 47q0 -19 -13 -33t-32 -14h-811q-13 0 -29 12t-16 35v1215q0 21 16 33q17 12 29 12h811q18 0 32 -14q13 -13 13 -31v-111q0 -23 -13 -35q-14 -12 -32 -12h-606q-23 0 -34 -14t-11 -31v-258q0 -19 11 -33t34 -14h524q17 0 32 -13q13 -12 13 -30v-113q0 -17 -11 -31
t-34 -14h-524q-19 0 -32 -14t-13 -31v-260q0 -18 11 -30q12 -13 34 -13h606q24 0 35 -17q10 -16 10 -28v-113z" />
    <glyph glyph-name="f" unicode="f" horiz-adv-x="1187" 
d="M369 47q0 -17 -14 -33q-13 -14 -31 -14h-115q-13 0 -29 12t-16 35v1215q0 21 16 33q17 12 29 12h811q18 0 32 -14q13 -13 13 -31v-111q0 -23 -13 -35q-14 -12 -32 -12h-606q-23 0 -34 -14t-11 -31v-258q0 -19 11 -33t34 -14h524q17 0 32 -13q13 -12 13 -30v-113
q0 -17 -11 -31t-34 -14h-524q-19 0 -32 -14t-13 -31v-461z" />
    <glyph glyph-name="g" unicode="g" 
d="M889 295q5 6 7 13q1 3 1 14v186q0 17 -13 31t-32 14h-150q-22 0 -32 14q-11 16 -11 31v113q0 16 13 32q12 15 30 15h355q10 0 28 -13q17 -12 17 -34v-461q0 -7 -8 -25q-74 -107 -188 -167t-242 -60q-131 0 -232 53q-98 51 -169 144q-69 90 -103 207q-35 120 -35 249
t35 251q35 121 102 209q69 91 169 142q105 54 235 54q128 0 241 -59q115 -60 187 -169q8 -18 8 -26q0 -21 -17 -33l-86 -74q-11 -12 -36 -12q-21 4 -31 22q-46 70 -117 110t-153 40q-89 0 -152 -39t-103 -103t-60 -146q-19 -79 -19 -165q0 -84 18 -165t58 -145
q39 -62 104 -104q62 -40 154 -40q64 0 124 24q57 23 103 72z" />
    <glyph glyph-name="h" unicode="h" 
d="M1065 45q0 -19 -13 -32t-32 -13h-113q-22 0 -33 14q-12 15 -12 31v461q0 18 -12 32q-12 13 -35 13h-405q-15 0 -29 -11t-14 -34v-461q0 -18 -14 -32q-13 -13 -31 -13h-113q-22 0 -33 14q-12 15 -12 31v1219q0 16 12 29q12 14 33 14h113q16 0 31 -13q14 -12 14 -30v-465
q0 -21 13 -33q14 -12 30 -12h405q19 0 33 13t14 32v465q0 16 12 29q12 14 33 14h113q17 0 32 -13q13 -12 13 -30v-1219z" />
    <glyph glyph-name="i" unicode="i" horiz-adv-x="569" 
d="M385 45q0 -18 -12 -32q-12 -13 -31 -13h-115q-20 0 -31 14q-12 15 -12 31v1219q0 16 12 29q12 14 31 14h115q18 0 31 -13q12 -12 12 -30v-1219z" />
    <glyph glyph-name="j" unicode="j" horiz-adv-x="966" 
d="M823 381q0 -84 -31 -153q-31 -70 -85 -122q-51 -50 -122 -79q-70 -29 -145 -29q-64 0 -133 26q-70 27 -122 71q-55 48 -89 109q-35 64 -35 136q0 16 15 30q14 13 30 13h113q18 0 29 -10q13 -11 14 -27q14 -64 65 -105q49 -40 113 -40q76 0 127 53q51 52 51 125v885
q0 14 13 29q12 14 33 14h114q17 0 32 -13q13 -12 13 -30v-883z" />
    <glyph glyph-name="k" unicode="k" horiz-adv-x="1153" 
d="M369 47q0 -17 -14 -33q-13 -14 -33 -14h-111q-19 0 -33 14t-14 33v1215q0 18 14 31q16 14 33 14h111q16 0 32 -14q15 -13 15 -31v-394q0 -22 13 -34q15 -13 32 -13q15 0 32 17l381 452q12 17 35 17h146q16 0 31 -13q14 -12 14 -30t-13 -31l-362 -434q-10 -11 -10 -29
q0 -11 4 -22l393 -678q6 -12 6 -25q0 -17 -13 -31t-32 -14h-129q-22 0 -41 25l-405 702q-12 23 -39 23q-19 0 -31 -14t-12 -31v-658z" />
    <glyph glyph-name="l" unicode="l" horiz-adv-x="1085" 
d="M367 248q0 -17 10 -30t33 -13h528q24 0 35 -17q10 -16 10 -28v-113q0 -19 -13 -33t-32 -14h-729q-13 0 -29 12t-16 35v1215q0 21 16 33q17 12 29 12h113q17 0 31 -14t14 -31v-1014z" />
    <glyph glyph-name="m" unicode="m" horiz-adv-x="1409" 
d="M164 1262q0 18 13 31q14 14 32 14h131q26 0 41 -21l285 -459q14 -20 39 -20t36 20l287 459q15 21 37 21h133q17 0 33 -13q14 -11 14 -32v-1215q0 -19 -14 -33t-33 -14h-113q-11 0 -28 12t-17 35v719q0 20 -11 32q-12 13 -32 13q-25 0 -39 -20l-217 -347q-16 -26 -36 -26
q-12 0 -22 8q-10 9 -17 18l-217 347q-14 20 -39 20q-19 0 -32 -13t-13 -32v-719q0 -17 -13 -33q-11 -14 -30 -14h-113q-16 0 -31 12q-14 11 -14 35v1215z" />
    <glyph glyph-name="n" unicode="n" horiz-adv-x="1310" 
d="M449 791q-14 20 -39 20q-19 0 -32 -13t-13 -32v-719q0 -17 -13 -33q-11 -14 -30 -14h-113q-16 0 -31 12q-14 11 -14 35v1215q0 18 13 31q14 14 32 14h131q26 0 41 -21l479 -770q14 -20 39 -20q20 0 32 13q11 12 11 32v721q0 21 16 33t29 12h113q17 0 33 -14
q14 -13 14 -31v-1215q0 -21 -14 -34t-33 -13h-133q-22 0 -37 23z" />
    <glyph glyph-name="o" unicode="o" 
d="M614 -2q-129 0 -229 52q-101 53 -170 141t-105 208q-36 119 -36 252q0 135 36 254q36 120 105 208t170 141t229 53q129 0 230 -53t170 -141t105 -208q36 -118 36 -254q0 -133 -36 -252q-36 -120 -105 -208t-170 -141q-100 -52 -230 -52zM614 201q88 0 152 38t105 100
q43 64 63 144q20 79 20 170t-20 170q-21 82 -63 145q-40 61 -105 99q-62 37 -152 37q-87 0 -151 -38q-65 -39 -106 -100t-62 -145q-21 -83 -21 -168t21 -168t61 -145q40 -63 106 -101q65 -38 152 -38z" />
    <glyph glyph-name="p" unicode="p" horiz-adv-x="1146" 
d="M416 588q-23 0 -35 -15t-12 -30v-498q0 -17 -13 -32q-12 -13 -30 -13h-117q-17 0 -31 11t-14 34v1219q0 19 14 30q16 13 31 13h496q73 0 141 -28q64 -26 115 -77q49 -49 76 -115q28 -68 28 -139t-28 -139q-27 -66 -76 -115q-50 -50 -115 -78t-141 -28h-289zM705 788
q30 0 61 13q28 12 50 34q23 23 34 51q12 30 12 62q0 66 -46 112t-111 46h-291q-23 0 -34 -14t-11 -33v-223q0 -19 11 -33q12 -15 34 -15h291z" />
    <glyph glyph-name="q" unicode="q" 
d="M614 -2q-129 0 -229 52q-101 53 -170 141t-105 208q-36 119 -36 252q0 135 36 254q36 120 105 208t170 141t229 53q129 0 230 -53t170 -141t105 -208q36 -118 36 -254q0 -179 -62 -324q-63 -146 -180 -235l5 2l141 -317q4 -11 4 -19q0 -19 -11 -31q-12 -14 -32 -14h-127
q-27 0 -39 27l-121 270q-60 -12 -119 -12zM614 201q88 0 152 38t105 100q43 64 63 144q20 79 20 170t-20 170q-21 82 -63 145q-40 61 -105 99q-62 37 -152 37q-87 0 -151 -38q-65 -39 -106 -100t-62 -145q-21 -83 -21 -168t21 -168t61 -145q40 -63 106 -101q65 -38 152 -38z
" />
    <glyph glyph-name="r" unicode="r" horiz-adv-x="1187" 
d="M705 788q30 0 61 13q28 12 50 34q23 23 34 51q12 30 12 62q0 66 -46 112t-111 46h-291q-23 0 -34 -14t-11 -33v-223q0 -19 11 -33q12 -15 34 -15h291zM1053 74l8 -13q4 -5 4 -16q0 -19 -14 -32t-33 -13h-146q-18 0 -34 16l-389 680q-13 19 -33 19q-22 0 -35 -16
q-12 -15 -12 -29v-625q0 -17 -13 -32q-12 -13 -30 -13h-117q-17 0 -31 11t-14 34v1219q0 19 14 30q16 13 31 13h496q73 0 141 -28q64 -26 115 -77q49 -49 76 -115q28 -68 28 -139q0 -63 -19 -117q-19 -55 -54 -100q-36 -47 -80 -78q-46 -33 -101 -49q-17 -5 -31 -16t-14 -31
q0 -11 7 -19q5 -6 13 -20z" />
    <glyph glyph-name="s" unicode="s" horiz-adv-x="1056" 
d="M526 553q-74 0 -144 29t-122 78q-54 51 -85 119q-32 70 -32 149q0 80 32 152q31 70 85 122q53 52 122 80q70 29 144 29q64 0 133 -26q67 -25 122 -71q56 -47 89 -107q35 -64 35 -136q0 -17 -14 -31t-31 -14h-112q-18 0 -29 10q-13 11 -17 27q-12 64 -62 105
q-49 40 -114 40q-38 0 -69 -14q-35 -16 -58 -39t-39 -58q-14 -31 -14 -67q0 -40 14 -69q15 -31 39 -55q21 -21 58 -38q31 -14 69 -14q79 0 154 -29q71 -27 130 -79q54 -47 90 -119q34 -68 34 -148q0 -84 -34 -153q-36 -74 -90 -122q-56 -50 -130 -79q-75 -29 -154 -29
q-68 0 -141 26t-130 71t-95 109q-37 62 -37 136q0 17 14 30t31 13h113q16 0 30 -10q15 -11 15 -27q15 -66 71 -104q57 -39 129 -39q45 0 80 14q38 15 65 39t44 56q16 31 16 67q0 75 -59 125q-60 51 -146 51z" />
    <glyph glyph-name="t" unicode="t" horiz-adv-x="1024" 
d="M106 1106q-22 0 -33 14q-12 15 -12 31v113q0 13 12 28t33 15h812q14 0 30 -13q15 -12 15 -30v-113q0 -18 -14 -32q-13 -13 -31 -13h-261q-16 0 -30 -13q-15 -13 -15 -34v-1014q0 -18 -12 -32q-12 -13 -31 -13h-114q-23 0 -34 14t-11 31v1014q0 20 -14 34q-13 13 -31 13
h-259z" />
    <glyph glyph-name="u" unicode="u" 
d="M864 1264q0 14 13 29q12 14 32 14h113q15 0 31 -13q14 -11 14 -30v-840q0 -87 -35 -166q-34 -77 -96 -136q-60 -57 -144 -92q-81 -34 -178 -34t-178 34q-83 35 -143 92q-62 59 -96 136q-35 79 -35 166v840q0 16 12 29q12 14 33 14h112q17 0 32 -13q14 -12 14 -30v-840
q0 -49 19 -88q21 -45 53 -72q37 -32 79 -49q45 -18 98 -18q52 0 98 18q43 17 80 49q32 27 53 72q19 39 19 88v840z" />
    <glyph glyph-name="v" unicode="v" 
d="M913 1274q11 33 43 33h117q15 0 31 -14q14 -13 14 -29q0 -9 -2 -15l-325 -1214q-5 -17 -17 -26t-26 -9h-267q-37 0 -43 35l-327 1214q-2 6 -2 13q0 15 12 30t35 15h114q34 0 45 -33l254 -955q10 -34 45 -34q30 0 45 34z" />
    <glyph glyph-name="w" unicode="w" horiz-adv-x="1470" 
d="M836 1094q38 0 45 -33l116 -742q10 -34 37 -34t37 34l131 955q1 13 16 23t29 10h115q23 0 35 -15t12 -30q0 -6 -1 -8t-1 -5l-184 -1214q-6 -35 -43 -35h-271q-14 0 -26 9t-17 26l-94 692q-5 18 -14 26q-10 9 -23 9q-26 0 -37 -35l-94 -692q-5 -18 -16 -26q-12 -9 -27 -9
h-270q-37 0 -43 35l-185 1214q0 3 -1 6t-1 7q0 14 13 30q12 15 35 15h114q15 0 30 -10q14 -9 15 -23l131 -955q10 -34 37 -34t37 34l117 742q8 33 45 33h201z" />
    <glyph glyph-name="x" unicode="x" 
d="M176 0q-20 0 -31 14q-12 15 -12 33q0 16 4 23l359 559q6 12 6 24q0 15 -6 25l-359 561q-4 5 -4 23q0 45 43 45h133q26 0 39 -19l227 -354q15 -23 37 -23t39 23l226 354q13 19 36 19h134q16 0 32 -13q15 -12 15 -30q0 -11 -9 -25l-356 -561q-6 -10 -6 -25q0 -12 6 -24
l356 -559q9 -20 9 -25q0 -15 -16 -31q-14 -14 -31 -14h-134q-24 0 -36 23l-226 354q-6 10 -17 14t-22 4q-25 0 -37 -18l-227 -354q-12 -23 -39 -23h-133z" />
    <glyph glyph-name="y" unicode="y" horiz-adv-x="1036" 
d="M225 1307q31 0 43 -29l185 -512q6 -15 13 -21q10 -8 28 -8q19 0 27 7q9 8 14 20l231 516q12 27 43 27h123q18 0 31 -13q12 -12 12 -30q0 -11 -2 -19l-543 -1218q-15 -27 -39 -27h-127q-20 0 -32 13q-11 12 -11 32q0 7 4 18l142 318q2 6 2 14q0 11 -2 19l-304 835
q-2 6 -2 17q0 16 12 28q13 13 31 13h121z" />
    <glyph glyph-name="z" unicode="z" 
d="M770 1016q14 20 14 43q0 21 -13 33t-32 12h-569q-23 0 -35 15t-12 28v115q0 18 14 31q16 14 33 14h889q20 0 34 -14q13 -13 13 -31v-134q0 -9 -5 -22q-4 -11 -11 -23l-631 -792q-15 -23 -15 -45q0 -21 14 -33t31 -12h570q17 0 33 -13q14 -11 14 -30v-113q0 -16 -12 -31
q-11 -14 -35 -14h-889q-19 0 -33 13t-14 32v131q0 11 5 24q2 5 11 21z" />
    <glyph glyph-name="braceleft" unicode="{" horiz-adv-x="753" 
d="M106 551q-22 0 -33 14q-12 15 -12 31v117q0 17 13 30t32 13h41q28 0 51 22q22 20 41 62q15 33 27 90q10 49 10 108q0 98 31 188q29 84 81 150q50 64 118 100q66 35 141 35q19 0 32 -12t13 -31v-112q0 -17 -11 -31t-34 -14q-32 -1 -66 -24q-34 -22 -55 -58
q-21 -35 -35 -85t-14 -106q0 -98 -34 -188q-36 -95 -101 -166q-12 -12 -12 -31q0 -21 12 -28q66 -72 101 -165q34 -90 34 -190q0 -53 14 -104t35 -86q21 -36 55 -58q33 -22 66 -22q19 -5 32 -16q13 -12 13 -31v-113q0 -16 -11 -30q-12 -15 -34 -15q-74 0 -141 37
q-70 39 -118 100q-52 66 -81 151q-31 90 -31 187q0 62 -10 111q-12 57 -27 89q-19 40 -41 59q-25 22 -51 22h-41z" />
    <glyph glyph-name="bar" unicode="|" horiz-adv-x="569" 
d="M365 -293q0 -17 -13 -32q-12 -13 -30 -13h-74q-21 0 -32 14t-11 31v1895q0 17 11 29q12 14 32 14h74q14 0 29 -13q14 -12 14 -30v-1895z" />
    <glyph glyph-name="braceright" unicode="}" horiz-adv-x="753" 
d="M606 551q-25 0 -50 -22q-22 -19 -41 -59q-17 -35 -28 -89q-10 -49 -10 -111q0 -97 -31 -187q-30 -88 -80 -151q-48 -61 -118 -100q-67 -37 -142 -37q-21 0 -33 15t-12 30v113q0 19 14 31q13 11 31 16q35 0 66 22q31 21 54 58q24 37 37 86q13 48 13 104q0 100 34 190
q34 92 102 165q12 7 12 28q0 19 -12 31q-67 73 -102 166q-34 90 -34 188q0 60 -13 106q-14 49 -37 85q-23 37 -54 58q-32 23 -66 24q-22 0 -33 14q-12 15 -12 31v112q0 19 14 31t31 12q76 0 142 -35q68 -36 118 -100t80 -150q31 -90 31 -188q0 -59 10 -108q11 -53 28 -90
q19 -42 41 -62q23 -22 50 -22h41q20 0 33 -13q12 -12 12 -30v-117q0 -17 -11 -31t-34 -14h-41z" />
    <glyph glyph-name="asciitilde" unicode="~" horiz-adv-x="948" 
d="M709 827q7 7 18 7q16 0 24 -8l13 -13l55 -63q3 -3 5 -15q1 -10 -3 -14q-51 -63 -108 -99q-61 -38 -117 -38q-35 0 -64 13q-34 16 -59 31q-19 12 -55 30q-28 14 -49 14q-35 0 -67 -27q-35 -30 -60 -55q-8 -8 -19 -8q-16 0 -23 7q-10 10 -14 15l-55 64q-9 13 -2 28
q52 63 113 100q62 38 123 38q31 0 73 -13q40 -12 74 -39q23 -19 40 -27q20 -10 40 -10q31 0 61 27q40 36 56 55z" />
    <glyph glyph-name="exclamdown" unicode="&#xa1;" horiz-adv-x="569" 
d="M406 43q2 -19 -12 -31t-32 -12h-155q-21 0 -33 13t-10 30l41 891q1 16 12 31q10 14 31 14h74q38 0 43 -45zM385 1143q0 -19 -12 -31t-31 -12h-115q-19 0 -31 13t-12 30v119q0 15 12 30t31 15h115q19 0 31 -14q12 -13 12 -31v-119z" />
    <glyph glyph-name="cent" unicode="&#xa2;" horiz-adv-x="1187" 
d="M1094 1079q8 -18 8 -26q0 -21 -17 -33l-86 -74q-11 -12 -36 -12q-21 4 -31 22q-46 70 -117 110t-153 40q-89 0 -152 -39t-103 -103t-60 -146q-19 -79 -19 -165q0 -84 18 -165t58 -145q39 -62 104 -104q62 -40 154 -40q82 0 153 40q73 41 117 109q5 14 16 18q13 5 23 5
q17 0 28 -13l86 -73q17 -17 17 -35q0 -7 -8 -25q-60 -85 -146 -141q-85 -55 -184 -76v-168q0 -18 -12 -31q-12 -14 -31 -14h-115q-20 0 -32 15q-11 14 -11 30v166q-107 21 -188 80t-137 145q-55 84 -84 195q-29 110 -29 225t28 227q26 105 83 194t137 146t190 78v172
q0 18 11 30q12 13 32 13h115q19 0 31 -12t12 -31v-172q99 -18 184 -73q86 -56 146 -144z" />
    <glyph glyph-name="sterling" unicode="&#xa3;" horiz-adv-x="983" 
d="M420 381q-4 -98 -58 -176h549q24 0 35 -17q10 -16 10 -28v-113q0 -19 -13 -33t-32 -14h-819q-23 0 -34 14t-11 31v117q0 19 13 31t32 12q54 0 88 52q36 54 37 122v147q0 17 -13 31t-32 14h-80q-22 0 -34 15q-11 14 -11 30v72q0 19 13 31q14 12 32 12h80q23 0 34 14t11 33
v170q0 77 31 145q30 65 83 114q54 49 119 76q68 28 140 28q62 0 129 -26q66 -25 119 -71q54 -46 87 -107q33 -60 33 -136q0 -17 -14 -31t-31 -14h-112q-18 0 -29 10t-16 27q-10 64 -59 105q-47 40 -107 40q-71 0 -121 -47q-49 -46 -49 -111v-170q0 -18 11 -32q12 -15 34 -15
h319q18 0 32 -12q13 -12 13 -31v-72q0 -16 -11 -30q-12 -15 -34 -15h-319q-19 0 -32 -14t-13 -31v-147z" />
    <glyph glyph-name="yen" unicode="&#xa5;" horiz-adv-x="983" 
d="M877 471q20 0 32 -12q13 -13 13 -31v-72q0 -15 -12 -30t-33 -15h-242q-41 0 -41 -41v-225q0 -18 -12 -32q-12 -13 -31 -13h-115q-21 0 -32 14t-11 31v225q0 41 -41 41h-246q-21 0 -33 15t-12 30v72q0 18 13 31q12 12 32 12h771zM109 590q-23 0 -34 14q-12 15 -12 31v72
q0 17 13 30t33 13h182q40 0 18 34l-291 455q-4 5 -4 23q0 45 43 45h133q26 0 39 -19l228 -354q15 -23 37 -23q21 0 38 23l226 354q13 19 37 19h133q17 0 33 -13q14 -11 14 -30q0 -12 -8 -25l-289 -455q-22 -34 18 -34h181q19 0 32 -13t13 -30v-72q0 -16 -12 -31
q-11 -14 -33 -14h-768z" />
    <glyph glyph-name="brokenbar" unicode="&#xa6;" horiz-adv-x="569" 
d="M365 797q0 -17 -13 -32q-12 -13 -30 -13h-74q-21 0 -32 14t-11 31v805q0 17 11 29q12 14 32 14h74q14 0 29 -13q14 -12 14 -30v-805zM365 -291q0 -17 -13 -32q-12 -13 -30 -13h-74q-21 0 -32 14t-11 31v805q0 18 11 30q12 13 32 13h74q16 0 29 -12q14 -12 14 -31v-805z
" />
    <glyph glyph-name="dieresis" unicode="&#xa8;" 
d="M545 1491q0 -16 -14 -30q-13 -13 -29 -13h-113q-22 0 -34 13q-11 12 -11 30v92q0 17 11 31t34 14h113q16 0 29 -13q14 -14 14 -32v-92zM877 1491q0 -16 -14 -30q-13 -13 -29 -13h-113q-22 0 -34 13q-11 12 -11 30v92q0 17 11 31t34 14h113q16 0 29 -13q14 -14 14 -32v-92
z" />
    <glyph glyph-name="copyright" unicode="&#xa9;" horiz-adv-x="1327" 
d="M664 82q-130 0 -230 45q-101 45 -170 123q-70 79 -105 182q-36 105 -36 221q0 119 36 224q35 103 105 182q69 78 170 123q100 45 230 45q128 0 229 -45t170 -123q70 -79 105 -182q36 -105 36 -224q0 -116 -36 -221q-35 -103 -105 -182q-69 -78 -170 -123t-229 -45z
M664 164q110 0 195 39q84 38 143 105q60 68 90 156t30 189t-30 191q-29 87 -90 156q-61 68 -143 106q-85 39 -195 39t-196 -39q-82 -38 -143 -106q-59 -67 -89 -156q-31 -93 -31 -191t31 -189q31 -90 89 -156q59 -67 143 -105q86 -39 196 -39zM879 866q4 -7 4 -14t-9 -16
l-43 -37q-6 -6 -18 -6q-10 4 -16 12q-22 34 -59 54t-76 20q-43 0 -75 -20q-31 -19 -52 -51q-21 -31 -30 -73q-9 -41 -9 -82t9 -82q9 -38 29 -73q20 -34 51 -53t77 -19q41 0 76 19q36 19 59 55q6 12 20 12q8 0 14 -6l43 -37q9 -14 9 -18q0 -6 -4 -13q-38 -54 -94 -83
q-55 -29 -121 -29q-68 0 -116 26q-51 28 -85 71t-52 103t-18 125t18 125q19 63 51 105q34 44 85 71t117 27q64 0 121 -30q56 -29 94 -83z" />
    <glyph glyph-name="guillemotleft" unicode="&#xab;" horiz-adv-x="1282" 
d="M141 500q-1 2 -6 8.5t-7 9.5q-5 8 -5 19q0 10 5 18q2 3 7 9.5t6 8.5l404 484q12 16 35 16h125q17 0 31 -12t14 -31q0 -18 -13 -31l-362 -434q-10 -11 -10 -28q0 -18 10 -29l362 -434q13 -13 13 -31q0 -19 -14 -31t-31 -12h-125q-23 0 -35 16zM551 500q-1 2 -6 8.5t-7 9.5
q-6 10 -6 19q0 8 6 18q2 3 7 9.5t6 8.5l403 484q12 16 35 16h125q18 0 32 -12q13 -12 13 -31t-12 -31l-363 -434q-10 -11 -10 -28q0 -18 10 -29l363 -434q12 -12 12 -31t-13 -31q-14 -12 -32 -12h-125q-23 0 -35 16z" />
    <glyph glyph-name="registered" unicode="&#xae;" horiz-adv-x="1327" 
d="M664 246q-130 0 -230 45q-101 45 -170 123q-70 79 -105 182q-36 105 -36 221q0 118 36 223t105 183t170 123q100 45 230 45q128 0 229 -45t170 -123t105 -183t36 -223q0 -116 -36 -221q-35 -103 -105 -182q-69 -78 -170 -123t-229 -45zM729 887q33 0 55 22q23 23 23 58
q0 32 -23 55q-22 22 -55 22h-145q-23 0 -23 -22v-113q0 -22 23 -22h145zM903 528q0 -1 1 -2.5t2 -2.5t1 -2q2 -4 2 -7q0 -10 -7 -16q-8 -6 -17 -6h-72q-10 0 -18 8l-199 340q-6 10 -16 10q-11 0 -17 -8t-6 -15v-313q0 -22 -22 -22h-54q-22 0 -22 22v610q0 21 22 21h248
q76 0 128 -52t52 -126q0 -63 -36 -109q-36 -47 -91 -63q-22 -7 -22 -25q0 -4 3 -9q4 -6 7 -9zM664 328q110 0 195 39q84 38 143 105q60 68 90 156t30 189t-30 191q-29 87 -90 156q-61 68 -143 106q-85 39 -195 39t-196 -39q-82 -38 -143 -106q-59 -67 -89 -156
q-31 -93 -31 -191t31 -189q31 -90 89 -156q59 -67 143 -105q85 -39 196 -39z" />
    <glyph glyph-name="macron" unicode="&#xaf;" 
d="M938 1511q0 -16 -13 -29q-14 -14 -30 -14h-567q-22 0 -34 14q-11 12 -11 29v72q0 17 11 31t34 14h567q17 0 30 -13t13 -32v-72z" />
    <glyph glyph-name="degree" unicode="&#xb0;" horiz-adv-x="606" 
d="M504 1124q0 -85 -58 -143q-57 -57 -143 -57q-83 0 -142 57t-59 143t59 145q58 58 142 58q86 0 143 -58q58 -60 58 -145zM401 1124q0 42 -28 71q-29 30 -70 30t-70 -30q-28 -29 -28 -71q0 -41 28 -69q29 -29 70 -29t70 29q28 28 28 69z" />
    <glyph glyph-name="plusminus" unicode="&#xb1;" horiz-adv-x="983" 
d="M389 590q0 41 -41 41h-244q-18 0 -31 14q-14 16 -14 33v113q0 10 10 28q9 17 35 17h244q41 0 41 41v223q0 19 14 32t33 13h113q13 0 29 -10t16 -35v-223q0 -41 41 -41h244q17 0 31 -15q14 -16 14 -33v-112q0 -12 -11 -29q-10 -16 -34 -16h-244q-41 0 -41 -41v-223
q0 -19 -14 -32t-33 -13h-113q-12 0 -28 10q-17 11 -17 35v223zM104 2q-18 0 -31 14q-14 16 -14 33v113q0 10 10 28q9 17 35 17h775q18 0 31 -14q14 -16 14 -33v-113q0 -12 -11 -29q-10 -16 -34 -16h-775z" />
    <glyph glyph-name="acute" unicode="&#xb4;" 
d="M739 1694q12 16 35 16h105q20 0 32 -12q13 -13 13 -31t-13 -31l-174 -206q-12 -17 -35 -17h-104q-18 0 -32 12q-13 12 -13 31t12 31z" />
    <glyph glyph-name="periodcentered" unicode="&#xb7;" horiz-adv-x="454" 
d="M287 754q17 0 31 -15q14 -16 14 -32v-113q0 -13 -10 -29t-35 -16h-119q-19 0 -32 14t-13 33v113q0 12 10 28q11 17 35 17h119z" />
    <glyph glyph-name="cedilla" unicode="&#xb8;" horiz-adv-x="657" 
d="M410 104l143 -395q8 -23 -13 -35t-32 -12h-361q-21 0 -32 14q-13 16 -13 33v72q0 8 10 28q8 17 35 17h119q18 0 38 5q17 4 5 38l-86 235h187z" />
    <glyph glyph-name="guillemotright" unicode="&#xbb;" horiz-adv-x="1282" 
d="M737 16q-12 -16 -35 -16h-124q-18 0 -32 12t-14 31q0 18 13 31l362 434q11 13 11 29q0 15 -11 28l-362 434q-13 13 -13 31q0 19 14 31t32 12h124q23 0 35 -16l404 -484q1 -2 6 -8.5t7 -9.5q5 -8 5 -18q0 -11 -5 -19q-2 -3 -7 -9.5t-6 -8.5zM328 16q-12 -16 -35 -16h-125
q-18 0 -32 12q-13 12 -13 31t12 31l363 434q10 11 10 29q0 17 -10 28l-363 434q-12 12 -12 31t13 31q14 12 32 12h125q23 0 35 -16l403 -484q1 -2 6 -8.5t7 -9.5q6 -10 6 -18q0 -9 -6 -19q-2 -3 -7 -9.5t-6 -8.5z" />
    <glyph glyph-name="questiondown" unicode="&#xbf;" horiz-adv-x="1056" 
d="M526 555q-38 0 -69 -14q-37 -17 -58 -38q-24 -24 -39 -56q-14 -29 -14 -68q0 -37 14 -68q15 -33 39 -57q23 -23 58 -39q31 -14 69 -14q65 0 114 40q50 41 62 105q4 16 17 27q11 10 29 10h112q17 0 31 -14t14 -31q0 -72 -35 -136q-34 -62 -89 -108q-52 -44 -122 -70
q-69 -26 -133 -26q-74 0 -144 29q-71 29 -122 79q-54 52 -85 122q-32 72 -32 153q0 78 32 148q31 68 85 119t122 79q70 29 144 29q23 0 35 13t12 32v135q0 15 13 31q11 14 32 14h93q17 0 31 -12t14 -33l20 -338q0 -19 -13 -31t-32 -12h-205zM567 1264q0 16 13 31
q12 14 30 14h115q20 0 32 -15q11 -14 11 -30v-119q0 -18 -11 -30q-12 -13 -32 -13h-115q-18 0 -30 12q-13 13 -13 31v119z" />
    <glyph glyph-name="Agrave" unicode="&#xc0;" horiz-adv-x="1132" 
d="M109 0q-23 0 -35 15q-13 16 -13 32q0 4 2 12l328 1215q7 33 43 33h266q14 0 27 -10q12 -9 16 -23l326 -1215q2 -8 2 -14q0 -17 -14 -31t-31 -14h-117q-32 0 -43 35l-61 225q-6 35 -43 35h-391q-35 0 -41 -35l-62 -225q-11 -35 -45 -35h-114zM686 496q20 0 31 14
q12 15 12 31q0 6 -2 12l-115 434q-11 35 -45 35t-45 -35l-114 -434q-2 -6 -2 -12q0 -16 12 -31q11 -14 31 -14h237zM659 1487q13 -13 13 -31q0 -19 -14 -31t-31 -12h-105q-23 0 -35 17l-174 206q-12 12 -12 31t12 31t33 12h105q22 0 34 -16z" />
    <glyph glyph-name="Aacute" unicode="&#xc1;" horiz-adv-x="1132" 
d="M109 0q-23 0 -35 15q-13 16 -13 32q0 4 2 12l328 1215q7 33 43 33h266q14 0 27 -10q12 -9 16 -23l326 -1215q2 -8 2 -14q0 -17 -14 -31t-31 -14h-117q-32 0 -43 35l-61 225q-6 35 -43 35h-391q-35 0 -41 -35l-62 -225q-11 -35 -45 -35h-114zM686 496q20 0 31 14
q12 15 12 31q0 6 -2 12l-115 434q-11 35 -45 35t-45 -35l-114 -434q-2 -6 -2 -12q0 -16 12 -31q11 -14 31 -14h237zM651 1694q12 16 35 16h105q20 0 32 -12q13 -13 13 -31t-13 -31l-174 -206q-12 -17 -35 -17h-104q-18 0 -32 12q-13 12 -13 31t12 31z" />
    <glyph glyph-name="Acircumflex" unicode="&#xc2;" horiz-adv-x="1132" 
d="M109 0q-23 0 -35 15q-13 16 -13 32q0 4 2 12l328 1215q7 33 43 33h266q14 0 27 -10q12 -9 16 -23l326 -1215q2 -8 2 -14q0 -17 -14 -31t-31 -14h-117q-32 0 -43 35l-61 225q-6 35 -43 35h-391q-35 0 -41 -35l-62 -225q-11 -35 -45 -35h-114zM686 496q20 0 31 14
q12 15 12 31q0 6 -2 12l-115 434q-11 35 -45 35t-45 -35l-114 -434q-2 -6 -2 -12q0 -16 12 -31q11 -14 31 -14h237zM463 1430q-8 -17 -35 -17h-104q-18 0 -32 12q-13 12 -13 31t12 31l174 207q12 16 35 16h133q23 0 35 -16l174 -207q12 -12 12 -31t-13 -31t-32 -12h-104
q-27 0 -35 17l-66 141q-5 11 -15 15q-13 5 -22 5q-29 0 -39 -20z" />
    <glyph glyph-name="Atilde" unicode="&#xc3;" horiz-adv-x="1132" 
d="M109 0q-23 0 -35 15q-13 16 -13 32q0 4 2 12l328 1215q7 33 43 33h266q14 0 27 -10q12 -9 16 -23l326 -1215q2 -8 2 -14q0 -17 -14 -31t-31 -14h-117q-32 0 -43 35l-61 225q-6 35 -43 35h-391q-35 0 -41 -35l-62 -225q-11 -35 -45 -35h-114zM686 496q20 0 31 14
q12 15 12 31q0 6 -2 12l-115 434q-11 35 -45 35t-45 -35l-114 -434q-2 -6 -2 -12q0 -16 12 -31q11 -14 31 -14h237zM803 1647q6 6 18 6q17 0 24 -7l13 -14l55 -63q5 -5 6 -15q1 -9 -4 -14q-51 -63 -108 -99q-61 -38 -117 -38q-34 0 -63 13q-38 17 -60 31q-27 17 -55 31
q-26 13 -49 13q-35 0 -67 -27q-35 -30 -60 -55q-8 -8 -19 -8q-16 0 -23 7q-5 5 -13 15l-56 64q-10 14 -2 29q50 61 113 99q62 38 123 38q31 0 73 -13t74 -38q27 -21 40 -28q18 -9 40 -9q33 0 62 26q32 29 55 56z" />
    <glyph glyph-name="Adieresis" unicode="&#xc4;" horiz-adv-x="1132" 
d="M109 0q-23 0 -35 15q-13 16 -13 32q0 4 2 12l328 1215q7 33 43 33h266q14 0 27 -10q12 -9 16 -23l326 -1215q2 -8 2 -14q0 -17 -14 -31t-31 -14h-117q-32 0 -43 35l-61 225q-6 35 -43 35h-391q-35 0 -41 -35l-62 -225q-11 -35 -45 -35h-114zM686 496q20 0 31 14
q12 15 12 31q0 6 -2 12l-115 434q-11 35 -45 35t-45 -35l-114 -434q-2 -6 -2 -12q0 -16 12 -31q11 -14 31 -14h237zM504 1491q0 -16 -14 -30q-13 -13 -29 -13h-113q-22 0 -34 13q-11 12 -11 30v92q0 17 11 31t34 14h113q16 0 29 -13q14 -14 14 -32v-92zM836 1491
q0 -16 -14 -30q-13 -13 -29 -13h-113q-22 0 -34 13q-11 12 -11 30v92q0 17 11 31t34 14h113q16 0 29 -13q14 -14 14 -32v-92z" />
    <glyph glyph-name="Aring" unicode="&#xc5;" horiz-adv-x="1132" 
d="M385 1214q1 3 5 13q3 7 3 18q0 17 -10 27q-26 31 -40 68q-15 40 -15 87q0 54 19 96q19 43 52 76q34 34 77 52q44 18 93 18q53 0 96 -18q41 -17 76 -52t52 -76q18 -43 18 -96q0 -47 -15 -87q-14 -37 -40 -68q-11 -11 -11 -27q0 -8 4 -18t5 -13l315 -1155q2 -8 2 -14
q0 -17 -14 -31t-31 -14h-117q-32 0 -43 35l-61 225q-6 35 -43 35h-391q-35 0 -41 -35l-62 -225q-11 -35 -45 -35h-114q-23 0 -35 15q-13 16 -13 32q0 4 2 12zM686 1427q0 46 -35 83q-35 36 -82 36t-82 -36q-34 -35 -34 -83t34 -82t82 -34t82 34q35 35 35 82zM686 496
q20 0 31 14q12 15 12 31q0 6 -2 12l-115 434q-11 35 -45 35t-45 -35l-114 -434q-2 -6 -2 -12q0 -16 12 -31q11 -14 31 -14h237z" />
    <glyph glyph-name="AE" unicode="&#xc6;" horiz-adv-x="1501" 
d="M109 0q-23 0 -35 15q-13 16 -13 32q0 4 2 12l328 1215q7 33 43 33h899q18 0 32 -14q13 -13 13 -31v-111q0 -23 -13 -35t-32 -12h-504q-37 0 -30 -39l73 -272q8 -39 52 -39h327q17 0 32 -13q13 -12 13 -30v-113q0 -17 -11 -31t-34 -14h-274q-39 0 -31 -39l74 -270
q8 -39 51 -39h262q24 0 35 -17q10 -16 10 -28v-113q0 -19 -13 -33t-32 -14h-424q-32 0 -43 35l-61 225q-11 35 -43 35h-391q-35 0 -41 -35l-62 -225q-11 -35 -45 -35h-114zM682 496q22 0 34 13q11 12 11 34v10l-115 434q-15 35 -45 35q-34 0 -45 -35l-114 -434q-2 -6 -2 -12
q0 -16 12 -31q11 -14 31 -14h233z" />
    <glyph glyph-name="Ccedilla" unicode="&#xc7;" horiz-adv-x="1187" 
d="M1094 1079q8 -18 8 -26q0 -21 -17 -33l-86 -74q-16 -12 -36 -12q-21 0 -31 22q-40 71 -115 111q-73 39 -155 39q-89 0 -152 -39t-103 -103t-60 -146q-19 -79 -19 -165q0 -84 18 -165t58 -145q39 -62 104 -104q62 -40 154 -40q79 0 157 38q75 37 113 111q7 14 17 18
q13 5 22 5q11 0 16 -4l12 -9l86 -73q17 -17 17 -35q0 -7 -8 -25q-60 -84 -142 -139q-83 -56 -180 -78l109 -299q8 -23 -14 -35q-21 -12 -31 -12h-361q-22 0 -33 14q-12 15 -12 33v72q0 10 9 28q9 17 36 17h119q21 0 39 6q19 6 4 37l-49 133q-114 15 -200 73q-87 58 -145 145
q-57 85 -88 199q-30 111 -30 232q0 129 35 251q35 121 102 209q69 91 169 142q105 54 235 54q128 0 241 -59q115 -60 187 -169z" />
    <glyph glyph-name="Egrave" unicode="&#xc8;" horiz-adv-x="1187" 
d="M1065 47q0 -19 -13 -33t-32 -14h-811q-13 0 -29 12t-16 35v1215q0 21 16 33q17 12 29 12h811q18 0 32 -14q13 -13 13 -31v-111q0 -23 -13 -35q-14 -12 -32 -12h-606q-23 0 -34 -14t-11 -31v-258q0 -19 11 -33t34 -14h524q17 0 32 -13q13 -12 13 -30v-113q0 -17 -11 -31
t-34 -14h-524q-19 0 -32 -14t-13 -31v-260q0 -18 11 -30q12 -13 34 -13h606q24 0 35 -17q10 -16 10 -28v-113zM739 1487q13 -13 13 -31q0 -19 -14 -31t-31 -12h-105q-23 0 -35 17l-174 206q-12 12 -12 31t12 31t33 12h104q23 0 35 -16z" />
    <glyph glyph-name="Eacute" unicode="&#xc9;" horiz-adv-x="1187" 
d="M1065 47q0 -19 -13 -33t-32 -14h-811q-13 0 -29 12t-16 35v1215q0 21 16 33q17 12 29 12h811q18 0 32 -14q13 -13 13 -31v-111q0 -23 -13 -35q-14 -12 -32 -12h-606q-23 0 -34 -14t-11 -31v-258q0 -19 11 -33t34 -14h524q17 0 32 -13q13 -12 13 -30v-113q0 -17 -11 -31
t-34 -14h-524q-19 0 -32 -14t-13 -31v-260q0 -18 11 -30q12 -13 34 -13h606q24 0 35 -17q10 -16 10 -28v-113zM715 1694q12 16 35 16h104q21 0 33 -12t12 -31t-12 -31l-174 -206q-12 -17 -35 -17h-105q-17 0 -31 12t-14 31q0 18 13 31z" />
    <glyph glyph-name="Ecircumflex" unicode="&#xca;" horiz-adv-x="1187" 
d="M1065 47q0 -19 -13 -33t-32 -14h-811q-13 0 -29 12t-16 35v1215q0 21 16 33q17 12 29 12h811q18 0 32 -14q13 -13 13 -31v-111q0 -23 -13 -35q-14 -12 -32 -12h-606q-23 0 -34 -14t-11 -31v-258q0 -19 11 -33t34 -14h524q17 0 32 -13q13 -12 13 -30v-113q0 -17 -11 -31
t-34 -14h-524q-19 0 -32 -14t-13 -31v-260q0 -18 11 -30q12 -13 34 -13h606q24 0 35 -17q10 -16 10 -28v-113zM500 1430q-8 -17 -35 -17h-105q-18 0 -31 12q-14 12 -14 31q0 18 13 31l174 207q12 16 35 16h133q23 0 35 -16l174 -207q12 -12 12 -31t-13 -31t-32 -12h-105
q-26 0 -34 17l-66 141q-5 11 -15 15q-13 5 -22 5q-29 0 -39 -20z" />
    <glyph glyph-name="Edieresis" unicode="&#xcb;" horiz-adv-x="1187" 
d="M1065 47q0 -19 -13 -33t-32 -14h-811q-13 0 -29 12t-16 35v1215q0 21 16 33q17 12 29 12h811q18 0 32 -14q13 -13 13 -31v-111q0 -23 -13 -35q-14 -12 -32 -12h-606q-23 0 -34 -14t-11 -31v-258q0 -19 11 -33t34 -14h524q17 0 32 -13q13 -12 13 -30v-113q0 -17 -11 -31
t-34 -14h-524q-19 0 -32 -14t-13 -31v-260q0 -18 11 -30q12 -13 34 -13h606q24 0 35 -17q10 -16 10 -28v-113zM545 1491q0 -16 -14 -30q-13 -13 -29 -13h-113q-22 0 -34 13q-11 12 -11 30v92q0 17 11 31t34 14h113q16 0 29 -13q14 -14 14 -32v-92zM877 1491q0 -16 -14 -30
q-13 -13 -29 -13h-113q-22 0 -34 13q-11 12 -11 30v92q0 17 11 31t34 14h113q16 0 29 -13q14 -14 14 -32v-92z" />
    <glyph glyph-name="Igrave" unicode="&#xcc;" horiz-adv-x="569" 
d="M385 45q0 -18 -12 -32q-12 -13 -31 -13h-115q-20 0 -31 14q-12 15 -12 31v1219q0 16 12 29q12 14 31 14h115q18 0 31 -13q12 -12 12 -30v-1219zM381 1487q12 -12 12 -31t-13 -31t-32 -12h-104q-23 0 -35 17l-174 206q-12 12 -12 31t12 31t33 12h104q23 0 35 -16z" />
    <glyph glyph-name="Iacute" unicode="&#xcd;" horiz-adv-x="569" 
d="M385 45q0 -18 -12 -32q-12 -13 -31 -13h-115q-20 0 -31 14q-12 15 -12 31v1219q0 16 12 29q12 14 31 14h115q18 0 31 -13q12 -12 12 -30v-1219zM367 1694q12 16 34 16h105q21 0 33 -12t12 -31t-12 -31l-174 -206q-12 -17 -35 -17h-105q-17 0 -31 12t-14 31q0 18 13 31z
" />
    <glyph glyph-name="Icircumflex" unicode="&#xce;" horiz-adv-x="569" 
d="M385 45q0 -18 -12 -32q-12 -13 -31 -13h-115q-20 0 -31 14q-12 15 -12 31v1219q0 16 12 29q12 14 31 14h115q18 0 31 -13q12 -12 12 -30v-1219zM184 1430q-8 -17 -34 -17h-105q-18 0 -32 12q-13 12 -13 31t12 31l174 207q12 16 35 16h133q23 0 35 -16l174 -207
q12 -12 12 -31t-13 -31q-14 -12 -32 -12h-104q-27 0 -35 17l-65 141q-5 11 -16 15q-13 5 -21 5q-29 0 -39 -20z" />
    <glyph glyph-name="Idieresis" unicode="&#xcf;" horiz-adv-x="569" 
d="M385 45q0 -18 -12 -32q-12 -13 -31 -13h-115q-20 0 -31 14q-12 15 -12 31v1219q0 16 12 29q12 14 31 14h115q18 0 31 -13q12 -12 12 -30v-1219zM221 1491q0 -17 -13 -30t-30 -13h-112q-22 0 -34 13t-12 30v92q0 16 12 31q11 14 34 14h112q17 0 30 -13t13 -32v-92z
M553 1491q0 -17 -13 -30t-30 -13h-113q-21 0 -33 13t-12 30v92q0 16 12 31q11 14 33 14h113q17 0 30 -13t13 -32v-92z" />
    <glyph glyph-name="Eth" unicode="&#xd0;" horiz-adv-x="1249" 
d="M1085 428q0 -91 -33 -166q-35 -78 -91 -136q-55 -56 -137 -92q-78 -34 -167 -34h-428q-18 0 -31 13q-14 14 -14 32v463q0 41 -41 41h-77q-22 0 -33 14q-13 16 -13 33v113q0 11 11 28t35 17h77q41 0 41 41v469q0 22 15 32q16 11 30 11h428q88 0 166 -33t136 -91
q59 -59 93 -136q33 -75 33 -166v-453zM883 881q0 43 -19 86q-18 40 -49 71t-72 49q-43 19 -86 19h-223q-24 0 -35 -15q-10 -14 -10 -30v-266q0 -41 41 -41h246q21 0 33 -15t12 -32v-113q0 -13 -10 -29t-35 -16h-246q-41 0 -41 -41v-260q0 -19 11 -33t34 -14h223q47 0 88 18
t72 49q29 29 48 72q18 40 18 88v453z" />
    <glyph glyph-name="Ntilde" unicode="&#xd1;" horiz-adv-x="1310" 
d="M449 791q-14 20 -39 20q-19 0 -32 -13t-13 -32v-719q0 -17 -13 -33q-11 -14 -30 -14h-113q-16 0 -31 12q-14 11 -14 35v1215q0 18 13 31q14 14 32 14h131q26 0 41 -21l479 -770q14 -20 39 -20q20 0 32 13q11 12 11 32v721q0 21 16 33t29 12h113q17 0 33 -14
q14 -13 14 -31v-1215q0 -21 -14 -34t-33 -13h-133q-22 0 -37 23zM889 1647q6 6 18 6q17 0 24 -7l13 -14l55 -63q5 -5 6 -15q1 -9 -4 -14q-51 -63 -108 -99q-61 -38 -117 -38q-34 0 -63 13q-38 17 -60 31q-27 17 -55 31q-26 13 -49 13q-35 0 -67 -27q-35 -30 -60 -55
q-8 -8 -19 -8q-16 0 -23 7q-5 5 -13 15l-56 64q-10 14 -2 29q50 61 113 99q62 38 123 38q31 0 73 -13t74 -38q27 -21 40 -28q18 -9 40 -9q33 0 62 26q32 29 55 56z" />
    <glyph glyph-name="Ograve" unicode="&#xd2;" 
d="M614 -2q-129 0 -229 52q-101 53 -170 141t-105 208q-36 119 -36 252q0 135 36 254q36 120 105 208t170 141t229 53q129 0 230 -53t170 -141t105 -208q36 -118 36 -254q0 -133 -36 -252q-36 -120 -105 -208t-170 -141q-100 -52 -230 -52zM614 201q88 0 152 38t105 100
q43 64 63 144q20 79 20 170t-20 170q-21 82 -63 145q-40 61 -105 99q-62 37 -152 37q-87 0 -151 -38q-65 -39 -106 -100t-62 -145q-21 -83 -21 -168t21 -168t61 -145q40 -63 106 -101q65 -38 152 -38zM711 1487q12 -12 12 -31t-13 -31q-14 -12 -32 -12h-105q-22 0 -34 17
l-174 206q-13 13 -13 31t13 31q12 12 32 12h105q23 0 35 -16z" />
    <glyph glyph-name="Oacute" unicode="&#xd3;" 
d="M614 -2q-129 0 -229 52q-101 53 -170 141t-105 208q-36 119 -36 252q0 135 36 254q36 120 105 208t170 141t229 53q129 0 230 -53t170 -141t105 -208q36 -118 36 -254q0 -133 -36 -252q-36 -120 -105 -208t-170 -141q-100 -52 -230 -52zM614 201q88 0 152 38t105 100
q43 64 63 144q20 79 20 170t-20 170q-21 82 -63 145q-40 61 -105 99q-62 37 -152 37q-87 0 -151 -38q-65 -39 -106 -100t-62 -145q-21 -83 -21 -168t21 -168t61 -145q40 -63 106 -101q65 -38 152 -38zM707 1694q12 16 34 16h105q21 0 33 -12t12 -31t-12 -31l-174 -206
q-12 -17 -35 -17h-105q-17 0 -31 12t-14 31t12 31z" />
    <glyph glyph-name="Ocircumflex" unicode="&#xd4;" 
d="M614 -2q-129 0 -229 52q-101 53 -170 141t-105 208q-36 119 -36 252q0 135 36 254q36 120 105 208t170 141t229 53q129 0 230 -53t170 -141t105 -208q36 -118 36 -254q0 -133 -36 -252q-36 -120 -105 -208t-170 -141q-100 -52 -230 -52zM614 201q88 0 152 38t105 100
q43 64 63 144q20 79 20 170t-20 170q-21 82 -63 145q-40 61 -105 99q-62 37 -152 37q-87 0 -151 -38q-65 -39 -106 -100t-62 -145q-21 -83 -21 -168t21 -168t61 -145q40 -63 106 -101q65 -38 152 -38zM510 1430q-8 -17 -35 -17h-104q-19 0 -32 12t-13 31t12 31l174 207
q12 16 35 16h133q23 0 35 -16l174 -207q12 -12 12 -31t-13 -31q-14 -12 -32 -12h-104q-27 0 -35 17l-66 141q-5 11 -15 15q-13 5 -22 5q-29 0 -39 -20z" />
    <glyph glyph-name="Otilde" unicode="&#xd5;" 
d="M614 -2q-129 0 -229 52q-101 53 -170 141t-105 208q-36 119 -36 252q0 135 36 254q36 120 105 208t170 141t229 53q129 0 230 -53t170 -141t105 -208q36 -118 36 -254q0 -133 -36 -252q-36 -120 -105 -208t-170 -141q-100 -52 -230 -52zM614 201q88 0 152 38t105 100
q43 64 63 144q20 79 20 170t-20 170q-21 82 -63 145q-40 61 -105 99q-62 37 -152 37q-87 0 -151 -38q-65 -39 -106 -100t-62 -145q-21 -83 -21 -168t21 -168t61 -145q40 -63 106 -101q65 -38 152 -38zM852 1647q6 6 18 6q17 0 24 -7l13 -14l56 -63q3 -3 5 -15q1 -10 -3 -14
q-50 -62 -109 -99q-61 -38 -117 -38q-34 0 -63 13q-38 17 -60 31q-27 17 -55 31q-26 13 -49 13q-36 0 -67 -27q-35 -30 -60 -55q-8 -8 -18 -8q-17 0 -24 7q-5 5 -13 15l-56 64q-10 14 -2 29q50 61 113 99q62 38 123 38q32 0 74 -13q40 -12 73 -38q27 -21 40 -28q18 -9 40 -9
q33 0 62 26q32 29 55 56z" />
    <glyph glyph-name="Odieresis" unicode="&#xd6;" 
d="M614 -2q-129 0 -229 52q-101 53 -170 141t-105 208q-36 119 -36 252q0 135 36 254q36 120 105 208t170 141t229 53q129 0 230 -53t170 -141t105 -208q36 -118 36 -254q0 -133 -36 -252q-36 -120 -105 -208t-170 -141q-100 -52 -230 -52zM614 201q88 0 152 38t105 100
q43 64 63 144q20 79 20 170t-20 170q-21 82 -63 145q-40 61 -105 99q-62 37 -152 37q-87 0 -151 -38q-65 -39 -106 -100t-62 -145q-21 -83 -21 -168t21 -168t61 -145q40 -63 106 -101q65 -38 152 -38zM549 1491q0 -17 -13 -30t-30 -13h-113q-22 0 -34 13q-11 12 -11 30v92
q0 17 11 31t34 14h113q17 0 30 -13t13 -32v-92zM881 1491q0 -16 -14 -30q-13 -13 -29 -13h-113q-22 0 -34 13q-11 12 -11 30v92q0 17 11 31t34 14h113q16 0 29 -13q14 -14 14 -32v-92z" />
    <glyph glyph-name="multiply" unicode="&#xd7;" horiz-adv-x="983" 
d="M520 477q-28 29 -57 0l-158 -158q-14 -15 -34 -13q-19 1 -31 16l-80 79q-10 7 -15 27q-4 18 15 37l157 158q29 29 0 57l-157 158q-13 16 -13 33q0 20 15 32l80 80q7 10 26 13t37 -13l158 -158q29 -29 57 0l158 158q14 15 34 13t31 -15l80 -80q11 -8 14 -27q3 -18 -14 -36
l-157 -158q-28 -28 0 -57l157 -158q13 -16 13 -34q0 -20 -15 -32l-80 -80q-7 -10 -26 -13t-37 13z" />
    <glyph glyph-name="Oslash" unicode="&#xd8;" 
d="M1036 1081q59 -83 89 -196q30 -111 30 -234q0 -133 -36 -252q-36 -120 -105 -208t-170 -141q-100 -52 -230 -52q-162 0 -280 82l-105 -150q-10 -16 -27 -19q-18 -3 -32 7l-94 66q-18 11 -19 28q-1 18 9 33l124 178q-57 88 -87 197q-29 104 -29 231q0 135 36 254
q36 120 105 208t170 141t229 53q79 0 151 -22q67 -20 128 -60l106 153q10 14 27 19q16 4 33 -8l94 -66q34 -24 10 -59zM614 201q88 0 152 38t105 100q43 64 63 144q20 79 20 170q0 132 -47 246l-456 -653q34 -22 74 -34q37 -11 89 -11zM274 653q0 -66 12 -129
q13 -66 34 -116l456 651q-72 45 -162 45q-87 0 -151 -38q-65 -39 -106 -100t-62 -145q-21 -83 -21 -168z" />
    <glyph glyph-name="Ugrave" unicode="&#xd9;" 
d="M864 1264q0 14 13 29q12 14 32 14h113q15 0 31 -13q14 -11 14 -30v-840q0 -87 -35 -166q-34 -77 -96 -136q-60 -57 -144 -92q-81 -34 -178 -34t-178 34q-83 35 -143 92q-62 59 -96 136q-35 79 -35 166v840q0 16 12 29q12 14 33 14h112q17 0 32 -13q14 -12 14 -30v-840
q0 -49 19 -88q21 -45 53 -72q37 -32 79 -49q45 -18 98 -18q52 0 98 18q43 17 80 49q32 27 53 72q19 39 19 88v840zM702 1487q13 -13 13 -31q0 -19 -14 -31q-13 -12 -31 -12h-105q-23 0 -35 17l-174 206q-12 12 -12 31t12 31t33 12h105q22 0 34 -16z" />
    <glyph glyph-name="Uacute" unicode="&#xda;" 
d="M864 1264q0 14 13 29q12 14 32 14h113q15 0 31 -13q14 -11 14 -30v-840q0 -87 -35 -166q-34 -77 -96 -136q-60 -57 -144 -92q-81 -34 -178 -34t-178 34q-83 35 -143 92q-62 59 -96 136q-35 79 -35 166v840q0 16 12 29q12 14 33 14h112q17 0 32 -13q14 -12 14 -30v-840
q0 -49 19 -88q21 -45 53 -72q37 -32 79 -49q45 -18 98 -18q52 0 98 18q43 17 80 49q32 27 53 72q19 39 19 88v840zM618 1694q12 16 35 16h105q21 0 33 -12t12 -31t-12 -31l-175 -206q-12 -17 -34 -17h-105q-19 0 -32 12t-13 31t12 31z" />
    <glyph glyph-name="Ucircumflex" unicode="&#xdb;" 
d="M864 1264q0 14 13 29q12 14 32 14h113q15 0 31 -13q14 -11 14 -30v-840q0 -87 -35 -166q-34 -77 -96 -136q-60 -57 -144 -92q-81 -34 -178 -34t-178 34q-83 35 -143 92q-62 59 -96 136q-35 79 -35 166v840q0 16 12 29q12 14 33 14h112q17 0 32 -13q14 -12 14 -30v-840
q0 -49 19 -88q21 -45 53 -72q37 -32 79 -49q45 -18 98 -18q52 0 98 18q43 17 80 49q32 27 53 72q19 39 19 88v840zM510 1430q-8 -17 -35 -17h-104q-19 0 -32 12t-13 31t12 31l174 207q12 16 35 16h133q23 0 35 -16l174 -207q12 -12 12 -31t-13 -31q-14 -12 -32 -12h-104
q-27 0 -35 17l-66 141q-5 11 -15 15q-13 5 -22 5q-29 0 -39 -20z" />
    <glyph glyph-name="Udieresis" unicode="&#xdc;" 
d="M864 1264q0 14 13 29q12 14 32 14h113q15 0 31 -13q14 -11 14 -30v-840q0 -87 -35 -166q-34 -77 -96 -136q-60 -57 -144 -92q-81 -34 -178 -34t-178 34q-83 35 -143 92q-62 59 -96 136q-35 79 -35 166v840q0 16 12 29q12 14 33 14h112q17 0 32 -13q14 -12 14 -30v-840
q0 -49 19 -88q21 -45 53 -72q37 -32 79 -49q45 -18 98 -18q52 0 98 18q43 17 80 49q32 27 53 72q19 39 19 88v840zM549 1491q0 -17 -13 -30t-30 -13h-113q-22 0 -34 13q-11 12 -11 30v92q0 17 11 31t34 14h113q17 0 30 -13t13 -32v-92zM881 1491q0 -16 -14 -30
q-13 -13 -29 -13h-113q-22 0 -34 13q-11 12 -11 30v92q0 17 11 31t34 14h113q16 0 29 -13q14 -14 14 -32v-92z" />
    <glyph glyph-name="Yacute" unicode="&#xdd;" horiz-adv-x="1083" 
d="M641 45q0 -18 -12 -32q-12 -13 -31 -13h-115q-20 0 -31 14q-12 15 -12 31v594q0 15 -6 25l-368 575q-5 7 -5 23q0 45 43 45h134q25 0 38 -19l228 -354q15 -23 37 -23t39 23l225 354q13 19 37 19h133q17 0 33 -13q14 -11 14 -30q0 -12 -8 -25l-367 -575q-6 -10 -6 -25
v-594zM545 1694q12 16 35 16h104q21 0 33 -12t12 -31t-12 -31l-174 -206q-12 -17 -35 -17h-105q-17 0 -31 12t-14 31q0 18 13 31z" />
    <glyph glyph-name="Thorn" unicode="&#xde;" horiz-adv-x="1146" 
d="M705 496q32 0 61 12q28 12 50 34q23 23 34 51q12 30 12 62q0 66 -46 112t-111 46h-291q-23 0 -34 -14t-11 -33v-223q0 -19 11 -33t34 -14h291zM164 1264q0 22 14 33q15 12 31 12h117q18 0 30 -14q13 -15 13 -31v-205q0 -16 12 -31q11 -14 35 -14h289q73 0 141 -28
q64 -26 115 -77q50 -50 76 -114q28 -68 28 -140q0 -71 -28 -139q-27 -66 -76 -115q-48 -48 -115 -77t-141 -29h-289q-24 0 -35 -14q-12 -15 -12 -31v-205q0 -17 -13 -32q-12 -13 -30 -13h-117q-17 0 -31 11t-14 34v1219z" />
    <glyph glyph-name="germandbls" unicode="&#xdf;" horiz-adv-x="1349" 
d="M494 1104q-54 0 -91 -37q-36 -36 -36 -90v-930q0 -23 -15 -35t-30 -12h-113q-16 0 -31 12q-14 11 -14 35v928q0 72 26 130q27 60 72 105t106 71t126 26h122q66 0 95 -29q28 -28 28 -94v-291q0 -57 42 -98q43 -41 100 -41q71 0 138 -29t117 -79q52 -52 81 -119
q30 -69 30 -148q0 -83 -30 -153q-29 -69 -81 -122q-48 -49 -117 -79q-67 -29 -138 -29q-69 0 -142 26t-130 71t-95 109q-37 62 -37 136q0 16 15 30q14 13 30 13h113q17 0 31 -10t14 -27q15 -65 72 -104t129 -39q34 0 62 14q29 15 52 39q22 24 36 56q13 30 13 67
q0 74 -48 125t-115 51t-129 27q-63 28 -110 73q-49 47 -76 109q-27 61 -27 133v162q0 23 -15 35t-30 12z" />
    <glyph glyph-name="agrave" unicode="&#xe0;" horiz-adv-x="1132" 
d="M109 0q-23 0 -35 15q-13 16 -13 32q0 4 2 12l328 1215q7 33 43 33h266q14 0 27 -10q12 -9 16 -23l326 -1215q2 -8 2 -14q0 -17 -14 -31t-31 -14h-117q-32 0 -43 35l-61 225q-6 35 -43 35h-391q-35 0 -41 -35l-62 -225q-11 -35 -45 -35h-114zM686 496q20 0 31 14
q12 15 12 31q0 6 -2 12l-115 434q-11 35 -45 35t-45 -35l-114 -434q-2 -6 -2 -12q0 -16 12 -31q11 -14 31 -14h237zM657 1487q13 -13 13 -31q0 -19 -14 -31t-31 -12h-105q-23 0 -35 17l-174 206q-12 12 -12 31t12 31t33 12h105q22 0 34 -16z" />
    <glyph glyph-name="aacute" unicode="&#xe1;" horiz-adv-x="1132" 
d="M109 0q-23 0 -35 15q-13 16 -13 32q0 4 2 12l328 1215q7 33 43 33h266q14 0 27 -10q12 -9 16 -23l326 -1215q2 -8 2 -14q0 -17 -14 -31t-31 -14h-117q-32 0 -43 35l-61 225q-6 35 -43 35h-391q-35 0 -41 -35l-62 -225q-11 -35 -45 -35h-114zM686 496q20 0 31 14
q12 15 12 31q0 6 -2 12l-115 434q-11 35 -45 35t-45 -35l-114 -434q-2 -6 -2 -12q0 -16 12 -31q11 -14 31 -14h237zM647 1694q12 16 35 16h104q21 0 33 -12t12 -31t-12 -31l-174 -206q-12 -17 -35 -17h-104q-18 0 -32 12q-13 12 -13 31t12 31z" />
    <glyph glyph-name="acircumflex" unicode="&#xe2;" horiz-adv-x="1132" 
d="M109 0q-23 0 -35 15q-13 16 -13 32q0 4 2 12l328 1215q7 33 43 33h266q14 0 27 -10q12 -9 16 -23l326 -1215q2 -8 2 -14q0 -17 -14 -31t-31 -14h-117q-32 0 -43 35l-61 225q-6 35 -43 35h-391q-35 0 -41 -35l-62 -225q-11 -35 -45 -35h-114zM686 496q20 0 31 14
q12 15 12 31q0 6 -2 12l-115 434q-11 35 -45 35t-45 -35l-114 -434q-2 -6 -2 -12q0 -16 12 -31q11 -14 31 -14h237zM463 1430q-8 -17 -35 -17h-104q-18 0 -32 12q-13 12 -13 31t12 31l174 207q12 16 35 16h133q23 0 35 -16l174 -207q12 -12 12 -31t-13 -31t-32 -12h-104
q-27 0 -35 17l-66 141q-5 11 -15 15q-13 5 -22 5q-29 0 -39 -20z" />
    <glyph glyph-name="atilde" unicode="&#xe3;" horiz-adv-x="1132" 
d="M109 0q-23 0 -35 15q-13 16 -13 32q0 4 2 12l328 1215q7 33 43 33h266q14 0 27 -10q12 -9 16 -23l326 -1215q2 -8 2 -14q0 -17 -14 -31t-31 -14h-117q-32 0 -43 35l-61 225q-6 35 -43 35h-391q-35 0 -41 -35l-62 -225q-11 -35 -45 -35h-114zM686 496q20 0 31 14
q12 15 12 31q0 6 -2 12l-115 434q-11 35 -45 35t-45 -35l-114 -434q-2 -6 -2 -12q0 -16 12 -31q11 -14 31 -14h237zM803 1647q6 6 18 6q17 0 24 -7l13 -14l55 -63q5 -5 6 -15q1 -9 -4 -14q-51 -63 -108 -99q-61 -38 -117 -38q-34 0 -63 13q-38 17 -60 31q-27 17 -55 31
q-26 13 -49 13q-35 0 -67 -27q-35 -30 -60 -55q-8 -8 -19 -8q-16 0 -23 7q-5 5 -13 15l-56 64q-10 14 -2 29q50 61 113 99q62 38 123 38q31 0 73 -13t74 -38q27 -21 40 -28q18 -9 40 -9q33 0 62 26q32 29 55 56z" />
    <glyph glyph-name="adieresis" unicode="&#xe4;" horiz-adv-x="1132" 
d="M109 0q-23 0 -35 15q-13 16 -13 32q0 4 2 12l328 1215q7 33 43 33h266q14 0 27 -10q12 -9 16 -23l326 -1215q2 -8 2 -14q0 -17 -14 -31t-31 -14h-117q-32 0 -43 35l-61 225q-6 35 -43 35h-391q-35 0 -41 -35l-62 -225q-11 -35 -45 -35h-114zM686 496q20 0 31 14
q12 15 12 31q0 6 -2 12l-115 434q-11 35 -45 35t-45 -35l-114 -434q-2 -6 -2 -12q0 -16 12 -31q11 -14 31 -14h237zM504 1491q0 -16 -14 -30q-13 -13 -29 -13h-113q-22 0 -34 13q-11 12 -11 30v92q0 17 11 31t34 14h113q16 0 29 -13q14 -14 14 -32v-92zM836 1491
q0 -16 -14 -30q-13 -13 -29 -13h-113q-22 0 -34 13q-11 12 -11 30v92q0 17 11 31t34 14h113q16 0 29 -13q14 -14 14 -32v-92z" />
    <glyph glyph-name="aring" unicode="&#xe5;" horiz-adv-x="1132" 
d="M385 1214q1 3 5 13q3 7 3 18q0 17 -10 27q-26 31 -40 68q-15 40 -15 87q0 54 19 96q19 43 52 76q34 34 77 52q44 18 93 18q53 0 96 -18q41 -17 76 -52t52 -76q18 -43 18 -96q0 -47 -15 -87q-14 -37 -40 -68q-11 -11 -11 -27q0 -8 4 -18t5 -13l315 -1155q2 -8 2 -14
q0 -17 -14 -31t-31 -14h-117q-32 0 -43 35l-61 225q-6 35 -43 35h-391q-35 0 -41 -35l-62 -225q-11 -35 -45 -35h-114q-23 0 -35 15q-13 16 -13 32q0 4 2 12zM686 1427q0 46 -35 83q-35 36 -82 36t-82 -36q-34 -35 -34 -83t34 -82t82 -34t82 34q35 35 35 82zM686 496
q20 0 31 14q12 15 12 31q0 6 -2 12l-115 434q-11 35 -45 35t-45 -35l-114 -434q-2 -6 -2 -12q0 -16 12 -31q11 -14 31 -14h237z" />
    <glyph glyph-name="ae" unicode="&#xe6;" horiz-adv-x="1501" 
d="M109 0q-23 0 -35 15q-13 16 -13 32q0 4 2 12l328 1215q7 33 43 33h899q18 0 32 -14q13 -13 13 -31v-111q0 -23 -13 -35t-32 -12h-504q-37 0 -30 -39l73 -272q8 -39 52 -39h327q17 0 32 -13q13 -12 13 -30v-113q0 -17 -11 -31t-34 -14h-274q-39 0 -31 -39l74 -270
q8 -39 51 -39h262q24 0 35 -17q10 -16 10 -28v-113q0 -19 -13 -33t-32 -14h-424q-32 0 -43 35l-61 225q-11 35 -43 35h-391q-35 0 -41 -35l-62 -225q-11 -35 -45 -35h-114zM682 496q22 0 34 13q11 12 11 34v10l-115 434q-15 35 -45 35q-34 0 -45 -35l-114 -434q-2 -6 -2 -12
q0 -16 12 -31q11 -14 31 -14h233z" />
    <glyph glyph-name="ccedilla" unicode="&#xe7;" horiz-adv-x="1187" 
d="M1094 1079q8 -18 8 -26q0 -21 -17 -33l-86 -74q-16 -12 -36 -12q-21 0 -31 22q-40 71 -115 111q-73 39 -155 39q-89 0 -152 -39t-103 -103t-60 -146q-19 -79 -19 -165q0 -84 18 -165t58 -145q39 -62 104 -104q62 -40 154 -40q79 0 157 38q75 37 113 111q7 14 17 18
q13 5 22 5q11 0 16 -4l12 -9l86 -73q17 -17 17 -35q0 -7 -8 -25q-60 -84 -142 -139q-83 -56 -180 -78l109 -299q8 -23 -14 -35q-21 -12 -31 -12h-361q-22 0 -33 14q-12 15 -12 33v72q0 10 9 28q9 17 36 17h119q21 0 39 6q19 6 4 37l-49 133q-114 15 -200 73q-87 58 -145 145
q-57 85 -88 199q-30 111 -30 232q0 129 35 251q35 121 102 209q69 91 169 142q105 54 235 54q128 0 241 -59q115 -60 187 -169z" />
    <glyph glyph-name="egrave" unicode="&#xe8;" horiz-adv-x="1187" 
d="M1065 47q0 -19 -13 -33t-32 -14h-811q-13 0 -29 12t-16 35v1215q0 21 16 33q17 12 29 12h811q18 0 32 -14q13 -13 13 -31v-111q0 -23 -13 -35q-14 -12 -32 -12h-606q-23 0 -34 -14t-11 -31v-258q0 -19 11 -33t34 -14h524q17 0 32 -13q13 -12 13 -30v-113q0 -17 -11 -31
t-34 -14h-524q-19 0 -32 -14t-13 -31v-260q0 -18 11 -30q12 -13 34 -13h606q24 0 35 -17q10 -16 10 -28v-113zM766 1487q12 -12 12 -31t-13 -31t-32 -12h-104q-23 0 -35 17l-174 206q-12 12 -12 31t12 31t33 12h104q23 0 35 -16z" />
    <glyph glyph-name="eacute" unicode="&#xe9;" horiz-adv-x="1187" 
d="M1065 47q0 -19 -13 -33t-32 -14h-811q-13 0 -29 12t-16 35v1215q0 21 16 33q17 12 29 12h811q18 0 32 -14q13 -13 13 -31v-111q0 -23 -13 -35q-14 -12 -32 -12h-606q-23 0 -34 -14t-11 -31v-258q0 -19 11 -33t34 -14h524q17 0 32 -13q13 -12 13 -30v-113q0 -17 -11 -31
t-34 -14h-524q-19 0 -32 -14t-13 -31v-260q0 -18 11 -30q12 -13 34 -13h606q24 0 35 -17q10 -16 10 -28v-113zM707 1694q12 16 34 16h105q21 0 33 -12t12 -31t-12 -31l-174 -206q-12 -17 -35 -17h-105q-17 0 -31 12t-14 31t12 31z" />
    <glyph glyph-name="ecircumflex" unicode="&#xea;" horiz-adv-x="1187" 
d="M1065 47q0 -19 -13 -33t-32 -14h-811q-13 0 -29 12t-16 35v1215q0 21 16 33q17 12 29 12h811q18 0 32 -14q13 -13 13 -31v-111q0 -23 -13 -35q-14 -12 -32 -12h-606q-23 0 -34 -14t-11 -31v-258q0 -19 11 -33t34 -14h524q17 0 32 -13q13 -12 13 -30v-113q0 -17 -11 -31
t-34 -14h-524q-19 0 -32 -14t-13 -31v-260q0 -18 11 -30q12 -13 34 -13h606q24 0 35 -17q10 -16 10 -28v-113zM489 1430q-8 -17 -34 -17h-105q-18 0 -32 12q-13 12 -13 31t12 31l175 207q12 16 34 16h133q23 0 35 -16l174 -207q13 -13 13 -31q0 -19 -14 -31q-13 -12 -31 -12
h-105q-27 0 -35 17l-65 141q-5 11 -16 15q-13 5 -21 5q-29 0 -39 -20z" />
    <glyph glyph-name="edieresis" unicode="&#xeb;" horiz-adv-x="1187" 
d="M1065 47q0 -19 -13 -33t-32 -14h-811q-13 0 -29 12t-16 35v1215q0 21 16 33q17 12 29 12h811q18 0 32 -14q13 -13 13 -31v-111q0 -23 -13 -35q-14 -12 -32 -12h-606q-23 0 -34 -14t-11 -31v-258q0 -19 11 -33t34 -14h524q17 0 32 -13q13 -12 13 -30v-113q0 -17 -11 -31
t-34 -14h-524q-19 0 -32 -14t-13 -31v-260q0 -18 11 -30q12 -13 34 -13h606q24 0 35 -17q10 -16 10 -28v-113zM545 1491q0 -16 -14 -30q-13 -13 -29 -13h-113q-22 0 -34 13q-11 12 -11 30v92q0 17 11 31t34 14h113q16 0 29 -13q14 -14 14 -32v-92zM877 1491q0 -16 -14 -30
q-13 -13 -29 -13h-113q-22 0 -34 13q-11 12 -11 30v92q0 17 11 31t34 14h113q16 0 29 -13q14 -14 14 -32v-92z" />
    <glyph glyph-name="igrave" unicode="&#xec;" horiz-adv-x="569" 
d="M385 45q0 -18 -12 -32q-12 -13 -31 -13h-115q-20 0 -31 14q-12 15 -12 31v1219q0 16 12 29q12 14 31 14h115q18 0 31 -13q12 -12 12 -30v-1219zM365 1487q12 -12 12 -31t-13 -31t-32 -12h-105q-22 0 -34 17l-175 206q-12 12 -12 31t12 31t33 12h105q22 0 34 -16z" />
    <glyph glyph-name="iacute" unicode="&#xed;" horiz-adv-x="569" 
d="M385 45q0 -18 -12 -32q-12 -13 -31 -13h-115q-20 0 -31 14q-12 15 -12 31v1219q0 16 12 29q12 14 31 14h115q18 0 31 -13q12 -12 12 -30v-1219zM387 1694q12 16 35 16h104q21 0 33 -12t12 -31t-12 -31l-174 -206q-12 -17 -35 -17h-104q-18 0 -32 12q-13 12 -13 31t12 31z
" />
    <glyph glyph-name="icircumflex" unicode="&#xee;" horiz-adv-x="569" 
d="M385 45q0 -18 -12 -32q-12 -13 -31 -13h-115q-20 0 -31 14q-12 15 -12 31v1219q0 16 12 29q12 14 31 14h115q18 0 31 -13q12 -12 12 -30v-1219zM184 1430q-8 -17 -34 -17h-105q-18 0 -32 12q-13 12 -13 31t12 31l174 207q12 16 35 16h133q23 0 35 -16l174 -207
q12 -12 12 -31t-13 -31q-14 -12 -32 -12h-104q-27 0 -35 17l-65 141q-5 11 -16 15q-13 5 -21 5q-29 0 -39 -20z" />
    <glyph glyph-name="idieresis" unicode="&#xef;" horiz-adv-x="569" 
d="M385 45q0 -18 -12 -32q-12 -13 -31 -13h-115q-20 0 -31 14q-12 15 -12 31v1219q0 16 12 29q12 14 31 14h115q18 0 31 -13q12 -12 12 -30v-1219zM221 1491q0 -17 -13 -30t-30 -13h-112q-22 0 -34 13t-12 30v92q0 16 12 31q11 14 34 14h112q17 0 30 -13t13 -32v-92z
M553 1491q0 -17 -13 -30t-30 -13h-113q-21 0 -33 13t-12 30v92q0 16 12 31q11 14 33 14h113q17 0 30 -13t13 -32v-92z" />
    <glyph glyph-name="eth" unicode="&#xf0;" horiz-adv-x="1249" 
d="M1085 428q0 -91 -33 -166q-35 -78 -91 -136q-55 -56 -137 -92q-78 -34 -167 -34h-428q-18 0 -31 13q-14 14 -14 32v463q0 41 -41 41h-77q-22 0 -33 14q-13 16 -13 33v113q0 11 11 28t35 17h77q41 0 41 41v469q0 22 15 32q16 11 30 11h428q88 0 166 -33t136 -91
q59 -59 93 -136q33 -75 33 -166v-453zM883 881q0 43 -19 86q-18 40 -49 71t-72 49q-43 19 -86 19h-223q-24 0 -35 -15q-10 -14 -10 -30v-266q0 -41 41 -41h246q21 0 33 -15t12 -32v-113q0 -13 -10 -29t-35 -16h-246q-41 0 -41 -41v-260q0 -19 11 -33t34 -14h223q47 0 88 18
t72 49q29 29 48 72q18 40 18 88v453z" />
    <glyph glyph-name="ntilde" unicode="&#xf1;" horiz-adv-x="1310" 
d="M449 791q-14 20 -39 20q-19 0 -32 -13t-13 -32v-719q0 -17 -13 -33q-11 -14 -30 -14h-113q-16 0 -31 12q-14 11 -14 35v1215q0 18 13 31q14 14 32 14h131q26 0 41 -21l479 -770q14 -20 39 -20q20 0 32 13q11 12 11 32v721q0 21 16 33t29 12h113q17 0 33 -14
q14 -13 14 -31v-1215q0 -21 -14 -34t-33 -13h-133q-22 0 -37 23zM889 1647q6 6 18 6q17 0 24 -7l13 -14l55 -63q5 -5 6 -15q1 -9 -4 -14q-51 -63 -108 -99q-61 -38 -117 -38q-34 0 -63 13q-38 17 -60 31q-27 17 -55 31q-26 13 -49 13q-35 0 -67 -27q-35 -30 -60 -55
q-8 -8 -19 -8q-16 0 -23 7q-5 5 -13 15l-56 64q-10 14 -2 29q50 61 113 99q62 38 123 38q31 0 73 -13t74 -38q27 -21 40 -28q18 -9 40 -9q33 0 62 26q32 29 55 56z" />
    <glyph glyph-name="ograve" unicode="&#xf2;" 
d="M614 -2q-129 0 -229 52q-101 53 -170 141t-105 208q-36 119 -36 252q0 135 36 254q36 120 105 208t170 141t229 53q129 0 230 -53t170 -141t105 -208q36 -118 36 -254q0 -133 -36 -252q-36 -120 -105 -208t-170 -141q-100 -52 -230 -52zM614 201q88 0 152 38t105 100
q43 64 63 144q20 79 20 170t-20 170q-21 82 -63 145q-40 61 -105 99q-62 37 -152 37q-87 0 -151 -38q-65 -39 -106 -100t-62 -145q-21 -83 -21 -168t21 -168t61 -145q40 -63 106 -101q65 -38 152 -38zM786 1487q13 -13 13 -31q0 -19 -14 -31q-13 -12 -31 -12h-105
q-23 0 -35 17l-174 206q-12 12 -12 31t12 31t33 12h105q22 0 34 -16z" />
    <glyph glyph-name="oacute" unicode="&#xf3;" 
d="M614 -2q-129 0 -229 52q-101 53 -170 141t-105 208q-36 119 -36 252q0 135 36 254q36 120 105 208t170 141t229 53q129 0 230 -53t170 -141t105 -208q36 -118 36 -254q0 -133 -36 -252q-36 -120 -105 -208t-170 -141q-100 -52 -230 -52zM614 201q88 0 152 38t105 100
q43 64 63 144q20 79 20 170t-20 170q-21 82 -63 145q-40 61 -105 99q-62 37 -152 37q-87 0 -151 -38q-65 -39 -106 -100t-62 -145q-21 -83 -21 -168t21 -168t61 -145q40 -63 106 -101q65 -38 152 -38zM619 1694q12 16 34 16h105q21 0 33 -12t12 -31t-12 -31l-175 -206
q-12 -17 -34 -17h-105q-19 0 -32 12t-13 31t12 31z" />
    <glyph glyph-name="ocircumflex" unicode="&#xf4;" 
d="M614 -2q-129 0 -229 52q-101 53 -170 141t-105 208q-36 119 -36 252q0 135 36 254q36 120 105 208t170 141t229 53q129 0 230 -53t170 -141t105 -208q36 -118 36 -254q0 -133 -36 -252q-36 -120 -105 -208t-170 -141q-100 -52 -230 -52zM614 201q88 0 152 38t105 100
q43 64 63 144q20 79 20 170t-20 170q-21 82 -63 145q-40 61 -105 99q-62 37 -152 37q-87 0 -151 -38q-65 -39 -106 -100t-62 -145q-21 -83 -21 -168t21 -168t61 -145q40 -63 106 -101q65 -38 152 -38zM510 1430q-8 -17 -35 -17h-104q-19 0 -32 12t-13 31t12 31l174 207
q12 16 35 16h133q23 0 35 -16l174 -207q12 -12 12 -31t-13 -31q-14 -12 -32 -12h-104q-27 0 -35 17l-66 141q-5 11 -15 15q-13 5 -22 5q-29 0 -39 -20z" />
    <glyph glyph-name="otilde" unicode="&#xf5;" 
d="M614 -2q-129 0 -229 52q-101 53 -170 141t-105 208q-36 119 -36 252q0 135 36 254q36 120 105 208t170 141t229 53q129 0 230 -53t170 -141t105 -208q36 -118 36 -254q0 -133 -36 -252q-36 -120 -105 -208t-170 -141q-100 -52 -230 -52zM614 201q88 0 152 38t105 100
q43 64 63 144q20 79 20 170t-20 170q-21 82 -63 145q-40 61 -105 99q-62 37 -152 37q-87 0 -151 -38q-65 -39 -106 -100t-62 -145q-21 -83 -21 -168t21 -168t61 -145q40 -63 106 -101q65 -38 152 -38zM852 1647q6 6 18 6q17 0 24 -7l13 -14l56 -63q3 -3 5 -15q1 -10 -3 -14
q-50 -62 -109 -99q-61 -38 -117 -38q-34 0 -63 13q-38 17 -60 31q-27 17 -55 31q-26 13 -49 13q-36 0 -67 -27q-35 -30 -60 -55q-8 -8 -18 -8q-17 0 -24 7q-5 5 -13 15l-56 64q-10 14 -2 29q50 61 113 99q62 38 123 38q32 0 74 -13q40 -12 73 -38q27 -21 40 -28q18 -9 40 -9
q33 0 62 26q32 29 55 56z" />
    <glyph glyph-name="odieresis" unicode="&#xf6;" 
d="M614 -2q-129 0 -229 52q-101 53 -170 141t-105 208q-36 119 -36 252q0 135 36 254q36 120 105 208t170 141t229 53q129 0 230 -53t170 -141t105 -208q36 -118 36 -254q0 -133 -36 -252q-36 -120 -105 -208t-170 -141q-100 -52 -230 -52zM614 201q88 0 152 38t105 100
q43 64 63 144q20 79 20 170t-20 170q-21 82 -63 145q-40 61 -105 99q-62 37 -152 37q-87 0 -151 -38q-65 -39 -106 -100t-62 -145q-21 -83 -21 -168t21 -168t61 -145q40 -63 106 -101q65 -38 152 -38zM549 1491q0 -17 -13 -30t-30 -13h-113q-22 0 -34 13q-11 12 -11 30v92
q0 17 11 31t34 14h113q17 0 30 -13t13 -32v-92zM881 1491q0 -16 -14 -30q-13 -13 -29 -13h-113q-22 0 -34 13q-11 12 -11 30v92q0 17 11 31t34 14h113q16 0 29 -13q14 -14 14 -32v-92z" />
    <glyph glyph-name="oslash" unicode="&#xf8;" 
d="M1036 1081q59 -83 89 -196q30 -111 30 -234q0 -133 -36 -252q-36 -120 -105 -208t-170 -141q-100 -52 -230 -52q-162 0 -280 82l-105 -150q-10 -16 -27 -19q-18 -3 -32 7l-94 66q-18 11 -19 28q-1 18 9 33l124 178q-57 88 -87 197q-29 104 -29 231q0 135 36 254
q36 120 105 208t170 141t229 53q79 0 151 -22q67 -20 128 -60l106 153q10 14 27 19q16 4 33 -8l94 -66q34 -24 10 -59zM614 201q88 0 152 38t105 100q43 64 63 144q20 79 20 170q0 132 -47 246l-456 -653q34 -22 74 -34q37 -11 89 -11zM274 653q0 -66 12 -129
q13 -66 34 -116l456 651q-72 45 -162 45q-87 0 -151 -38q-65 -39 -106 -100t-62 -145q-21 -83 -21 -168z" />
    <glyph glyph-name="ugrave" unicode="&#xf9;" 
d="M864 1264q0 14 13 29q12 14 32 14h113q15 0 31 -13q14 -11 14 -30v-840q0 -87 -35 -166q-34 -77 -96 -136q-60 -57 -144 -92q-81 -34 -178 -34t-178 34q-83 35 -143 92q-62 59 -96 136q-35 79 -35 166v840q0 16 12 29q12 14 33 14h112q17 0 32 -13q14 -12 14 -30v-840
q0 -49 19 -88q21 -45 53 -72q37 -32 79 -49q45 -18 98 -18q52 0 98 18q43 17 80 49q32 27 53 72q19 39 19 88v840zM700 1487q13 -13 13 -31q0 -19 -14 -31q-13 -12 -31 -12h-105q-23 0 -35 17l-174 206q-12 12 -12 31t12 31t33 12h105q22 0 34 -16z" />
    <glyph glyph-name="uacute" unicode="&#xfa;" 
d="M864 1264q0 14 13 29q12 14 32 14h113q15 0 31 -13q14 -11 14 -30v-840q0 -87 -35 -166q-34 -77 -96 -136q-60 -57 -144 -92q-81 -34 -178 -34t-178 34q-83 35 -143 92q-62 59 -96 136q-35 79 -35 166v840q0 16 12 29q12 14 33 14h112q17 0 32 -13q14 -12 14 -30v-840
q0 -49 19 -88q21 -45 53 -72q37 -32 79 -49q45 -18 98 -18q52 0 98 18q43 17 80 49q32 27 53 72q19 39 19 88v840zM618 1694q12 16 35 16h105q21 0 33 -12t12 -31t-12 -31l-175 -206q-12 -17 -34 -17h-105q-19 0 -32 12t-13 31t12 31z" />
    <glyph glyph-name="ucircumflex" unicode="&#xfb;" 
d="M864 1264q0 14 13 29q12 14 32 14h113q15 0 31 -13q14 -11 14 -30v-840q0 -87 -35 -166q-34 -77 -96 -136q-60 -57 -144 -92q-81 -34 -178 -34t-178 34q-83 35 -143 92q-62 59 -96 136q-35 79 -35 166v840q0 16 12 29q12 14 33 14h112q17 0 32 -13q14 -12 14 -30v-840
q0 -49 19 -88q21 -45 53 -72q37 -32 79 -49q45 -18 98 -18q52 0 98 18q43 17 80 49q32 27 53 72q19 39 19 88v840zM510 1430q-8 -17 -35 -17h-104q-19 0 -32 12t-13 31t12 31l174 207q12 16 35 16h133q23 0 35 -16l174 -207q12 -12 12 -31t-13 -31q-14 -12 -32 -12h-104
q-27 0 -35 17l-66 141q-5 11 -15 15q-13 5 -22 5q-29 0 -39 -20z" />
    <glyph glyph-name="udieresis" unicode="&#xfc;" 
d="M864 1264q0 14 13 29q12 14 32 14h113q15 0 31 -13q14 -11 14 -30v-840q0 -87 -35 -166q-34 -77 -96 -136q-60 -57 -144 -92q-81 -34 -178 -34t-178 34q-83 35 -143 92q-62 59 -96 136q-35 79 -35 166v840q0 16 12 29q12 14 33 14h112q17 0 32 -13q14 -12 14 -30v-840
q0 -49 19 -88q21 -45 53 -72q37 -32 79 -49q45 -18 98 -18q52 0 98 18q43 17 80 49q32 27 53 72q19 39 19 88v840zM549 1491q0 -17 -13 -30t-30 -13h-113q-22 0 -34 13q-11 12 -11 30v92q0 17 11 31t34 14h113q17 0 30 -13t13 -32v-92zM881 1491q0 -16 -14 -30
q-13 -13 -29 -13h-113q-22 0 -34 13q-11 12 -11 30v92q0 17 11 31t34 14h113q16 0 29 -13q14 -14 14 -32v-92z" />
    <glyph glyph-name="yacute" unicode="&#xfd;" horiz-adv-x="1036" 
d="M225 1307q31 0 43 -29l185 -512q6 -15 13 -21q10 -8 28 -8q19 0 27 7q9 8 14 20l231 516q12 27 43 27h123q18 0 31 -13q12 -12 12 -30q0 -11 -2 -19l-543 -1218q-15 -27 -39 -27h-127q-20 0 -32 13q-11 12 -11 32q0 7 4 18l142 318q2 6 2 14q0 11 -2 19l-304 835
q-2 6 -2 17q0 16 12 28q13 13 31 13h121zM522 1694q12 16 35 16h105q20 0 32 -12q13 -13 13 -31t-13 -31l-174 -206q-12 -17 -35 -17h-104q-19 0 -32 12t-13 31t12 31z" />
    <glyph glyph-name="thorn" unicode="&#xfe;" horiz-adv-x="1146" 
d="M705 496q32 0 61 12q28 12 50 34q23 23 34 51q12 30 12 62q0 66 -46 112t-111 46h-291q-23 0 -34 -14t-11 -33v-223q0 -19 11 -33t34 -14h291zM164 1264q0 22 14 33q15 12 31 12h117q18 0 30 -14q13 -15 13 -31v-205q0 -16 12 -31q11 -14 35 -14h289q73 0 141 -28
q64 -26 115 -77q50 -50 76 -114q28 -68 28 -140q0 -71 -28 -139q-27 -66 -76 -115q-48 -48 -115 -77t-141 -29h-289q-24 0 -35 -14q-12 -15 -12 -31v-205q0 -17 -13 -32q-12 -13 -30 -13h-117q-17 0 -31 11t-14 34v1219z" />
    <glyph glyph-name="ydieresis" unicode="&#xff;" horiz-adv-x="1036" 
d="M225 1307q31 0 43 -29l185 -512q6 -15 13 -21q10 -8 28 -8q19 0 27 7q9 8 14 20l231 516q12 27 43 27h123q18 0 31 -13q12 -12 12 -30q0 -11 -2 -19l-543 -1218q-15 -27 -39 -27h-127q-20 0 -32 13q-11 12 -11 32q0 7 4 18l142 318q2 6 2 14q0 11 -2 19l-304 835
q-2 6 -2 17q0 16 12 28q13 13 31 13h121zM455 1491q0 -16 -14 -30q-13 -13 -29 -13h-113q-22 0 -34 13q-11 12 -11 30v92q0 17 11 31t34 14h113q16 0 29 -13q14 -14 14 -32v-92zM786 1491q0 -17 -13 -30t-30 -13h-112q-22 0 -34 13q-11 12 -11 30v92q0 17 11 31t34 14h112
q17 0 30 -13t13 -32v-92z" />
    <glyph glyph-name="Amacron" unicode="&#x100;" horiz-adv-x="1132" 
d="M109 0q-23 0 -35 15q-13 16 -13 32q0 4 2 12l328 1215q7 33 43 33h266q14 0 27 -10q12 -9 16 -23l326 -1215q2 -8 2 -14q0 -17 -14 -31t-31 -14h-117q-32 0 -43 35l-61 225q-6 35 -43 35h-391q-35 0 -41 -35l-62 -225q-11 -35 -45 -35h-114zM686 496q20 0 31 14
q12 15 12 31q0 6 -2 12l-115 434q-11 35 -45 35t-45 -35l-114 -434q-2 -6 -2 -12q0 -16 12 -31q11 -14 31 -14h237zM897 1511q0 -16 -13 -29q-14 -14 -30 -14h-567q-22 0 -34 14q-11 12 -11 29v72q0 17 11 31t34 14h567q17 0 30 -13t13 -32v-72z" />
    <glyph glyph-name="amacron" unicode="&#x101;" horiz-adv-x="1132" 
d="M109 0q-23 0 -35 15q-13 16 -13 32q0 4 2 12l328 1215q7 33 43 33h266q14 0 27 -10q12 -9 16 -23l326 -1215q2 -8 2 -14q0 -17 -14 -31t-31 -14h-117q-32 0 -43 35l-61 225q-6 35 -43 35h-391q-35 0 -41 -35l-62 -225q-11 -35 -45 -35h-114zM686 496q20 0 31 14
q12 15 12 31q0 6 -2 12l-115 434q-11 35 -45 35t-45 -35l-114 -434q-2 -6 -2 -12q0 -16 12 -31q11 -14 31 -14h237zM897 1511q0 -16 -13 -29q-14 -14 -30 -14h-567q-22 0 -34 14q-11 12 -11 29v72q0 17 11 31t34 14h567q17 0 30 -13t13 -32v-72z" />
    <glyph glyph-name="Abreve" unicode="&#x102;" horiz-adv-x="1132" 
d="M109 0q-23 0 -35 15q-13 16 -13 32q0 4 2 12l328 1215q7 33 43 33h266q14 0 27 -10q12 -9 16 -23l326 -1215q2 -8 2 -14q0 -17 -14 -31t-31 -14h-117q-32 0 -43 35l-61 225q-6 35 -43 35h-391q-35 0 -41 -35l-62 -225q-11 -35 -45 -35h-114zM686 496q20 0 31 14
q12 15 12 31q0 6 -2 12l-115 434q-11 35 -45 35t-45 -35l-114 -434q-2 -6 -2 -12q0 -16 12 -31q11 -14 31 -14h237zM565 1386q-47 0 -102 19q-51 18 -96 50q-43 31 -71 76t-28 95q0 16 15 30q14 13 30 13h62q17 0 28 -10q14 -12 15 -27q5 -25 18 -43q15 -20 35 -35
q20 -14 45 -22q26 -8 49 -8q47 0 92 30t56 78q5 18 15 27q11 10 28 10h61q17 0 31 -13t14 -30q0 -52 -27 -95q-28 -45 -71 -76q-45 -32 -96 -50q-55 -19 -103 -19z" />
    <glyph glyph-name="abreve" unicode="&#x103;" horiz-adv-x="1132" 
d="M109 0q-23 0 -35 15q-13 16 -13 32q0 4 2 12l328 1215q7 33 43 33h266q14 0 27 -10q12 -9 16 -23l326 -1215q2 -8 2 -14q0 -17 -14 -31t-31 -14h-117q-32 0 -43 35l-61 225q-6 35 -43 35h-391q-35 0 -41 -35l-62 -225q-11 -35 -45 -35h-114zM686 496q20 0 31 14
q12 15 12 31q0 6 -2 12l-115 434q-11 35 -45 35t-45 -35l-114 -434q-2 -6 -2 -12q0 -16 12 -31q11 -14 31 -14h237zM565 1386q-47 0 -102 19q-51 18 -96 50q-43 31 -71 76t-28 95q0 16 15 30q14 13 30 13h62q17 0 28 -10q14 -12 15 -27q5 -25 18 -43q15 -20 35 -35
q20 -14 45 -22q26 -8 49 -8q47 0 92 30t56 78q5 18 15 27q11 10 28 10h61q17 0 31 -13t14 -30q0 -52 -27 -95q-28 -45 -71 -76q-45 -32 -96 -50q-55 -19 -103 -19z" />
    <glyph glyph-name="Aogonek" unicode="&#x104;" horiz-adv-x="1132" 
d="M805 260q-6 35 -43 35h-391q-35 0 -41 -35l-62 -225q-11 -35 -45 -35h-114q-23 0 -35 15q-13 16 -13 32q0 4 2 12l328 1215q7 33 43 33h266q14 0 27 -10q12 -9 16 -23l326 -1215q2 -6 2 -19q0 -17 -4 -22l-61 -149q-6 -18 -5 -25t10 -12q6 -3 17 -5q7 -1 21 -1h118
q27 0 36 -17q9 -18 9 -28v-72q0 -18 -12 -33q-11 -14 -33 -14h-360q-13 0 -29 15q-17 15 -6 44l94 259q6 16 6 24q0 9 -6 31zM686 496q20 0 31 14q12 15 12 31q0 6 -2 12l-115 434q-11 35 -45 35t-45 -35l-114 -434q-2 -6 -2 -12q0 -16 12 -31q11 -14 31 -14h237z" />
    <glyph glyph-name="aogonek" unicode="&#x105;" horiz-adv-x="1132" 
d="M805 260q-6 35 -43 35h-391q-35 0 -41 -35l-62 -225q-11 -35 -45 -35h-114q-23 0 -35 15q-13 16 -13 32q0 4 2 12l328 1215q7 33 43 33h266q14 0 27 -10q12 -9 16 -23l326 -1215q2 -6 2 -19q0 -17 -4 -22l-61 -149q-6 -18 -5 -25t10 -12q6 -3 17 -5q7 -1 21 -1h118
q27 0 36 -17q9 -18 9 -28v-72q0 -18 -12 -33q-11 -14 -33 -14h-360q-13 0 -29 15q-17 15 -6 44l94 259q6 16 6 24q0 9 -6 31zM686 496q20 0 31 14q12 15 12 31q0 6 -2 12l-115 434q-11 35 -45 35t-45 -35l-114 -434q-2 -6 -2 -12q0 -16 12 -31q11 -14 31 -14h237z" />
    <glyph glyph-name="Cacute" unicode="&#x106;" horiz-adv-x="1187" 
d="M1094 1079q8 -18 8 -26q0 -21 -17 -33l-86 -74q-11 -12 -36 -12q-21 4 -31 22q-46 70 -117 110t-153 40q-89 0 -152 -39t-103 -103t-60 -146q-19 -79 -19 -165q0 -84 18 -165t58 -145q39 -62 104 -104q62 -40 154 -40q82 0 153 40q73 41 117 109q5 14 16 18q13 5 23 5
q17 0 28 -13l86 -73q17 -17 17 -35q0 -7 -8 -25q-74 -107 -188 -167t-242 -60q-131 0 -232 53q-98 51 -169 144q-69 90 -103 207q-35 120 -35 249t35 251q35 121 102 209q69 91 169 142q105 54 235 54q128 0 241 -59q115 -60 187 -169zM711 1694q12 16 34 16h105
q21 0 33 -12t12 -31t-12 -31l-174 -206q-12 -17 -35 -17h-105q-17 0 -31 12t-14 31q0 18 13 31z" />
    <glyph glyph-name="cacute" unicode="&#x107;" horiz-adv-x="1187" 
d="M1094 1079q8 -18 8 -26q0 -21 -17 -33l-86 -74q-11 -12 -36 -12q-21 4 -31 22q-46 70 -117 110t-153 40q-89 0 -152 -39t-103 -103t-60 -146q-19 -79 -19 -165q0 -84 18 -165t58 -145q39 -62 104 -104q62 -40 154 -40q82 0 153 40q73 41 117 109q5 14 16 18q13 5 23 5
q17 0 28 -13l86 -73q17 -17 17 -35q0 -7 -8 -25q-74 -107 -188 -167t-242 -60q-131 0 -232 53q-98 51 -169 144q-69 90 -103 207q-35 120 -35 249t35 251q35 121 102 209q69 91 169 142q105 54 235 54q128 0 241 -59q115 -60 187 -169zM711 1694q12 16 34 16h105
q21 0 33 -12t12 -31t-12 -31l-174 -206q-12 -17 -35 -17h-105q-17 0 -31 12t-14 31q0 18 13 31z" />
    <glyph glyph-name="Ccircumflex" unicode="&#x108;" horiz-adv-x="1187" 
d="M1094 1079q8 -18 8 -26q0 -21 -17 -33l-86 -74q-11 -12 -36 -12q-21 4 -31 22q-46 70 -117 110t-153 40q-89 0 -152 -39t-103 -103t-60 -146q-19 -79 -19 -165q0 -84 18 -165t58 -145q39 -62 104 -104q62 -40 154 -40q82 0 153 40q73 41 117 109q5 14 16 18q13 5 23 5
q17 0 28 -13l86 -73q17 -17 17 -35q0 -7 -8 -25q-74 -107 -188 -167t-242 -60q-131 0 -232 53q-98 51 -169 144q-69 90 -103 207q-35 120 -35 249t35 251q35 121 102 209q69 91 169 142q105 54 235 54q128 0 241 -59q115 -60 187 -169zM559 1430q-8 -17 -35 -17h-104
q-18 0 -32 12q-13 12 -13 31t12 31l174 207q12 16 35 16h133q23 0 35 -16l174 -207q12 -12 12 -31t-13 -31t-32 -12h-104q-27 0 -35 17l-66 141q-5 11 -15 15q-13 5 -21 5q-29 0 -39 -20z" />
    <glyph glyph-name="ccircumflex" unicode="&#x109;" horiz-adv-x="1187" 
d="M1094 1079q8 -18 8 -26q0 -21 -17 -33l-86 -74q-11 -12 -36 -12q-21 4 -31 22q-46 70 -117 110t-153 40q-89 0 -152 -39t-103 -103t-60 -146q-19 -79 -19 -165q0 -84 18 -165t58 -145q39 -62 104 -104q62 -40 154 -40q82 0 153 40q73 41 117 109q5 14 16 18q13 5 23 5
q17 0 28 -13l86 -73q17 -17 17 -35q0 -7 -8 -25q-74 -107 -188 -167t-242 -60q-131 0 -232 53q-98 51 -169 144q-69 90 -103 207q-35 120 -35 249t35 251q35 121 102 209q69 91 169 142q105 54 235 54q128 0 241 -59q115 -60 187 -169zM571 1430q-8 -17 -34 -17h-105
q-18 0 -32 12q-13 12 -13 31t12 31l174 207q12 16 35 16h133q23 0 35 -16l174 -207q13 -13 13 -31q0 -19 -14 -31q-13 -12 -31 -12h-105q-27 0 -35 17l-65 141q-5 11 -16 15q-13 5 -21 5q-29 0 -39 -20z" />
    <glyph glyph-name="Cdotaccent" unicode="&#x10a;" horiz-adv-x="1187" 
d="M1094 1079q8 -18 8 -26q0 -21 -17 -33l-86 -74q-11 -12 -36 -12q-21 4 -31 22q-46 70 -117 110t-153 40q-89 0 -152 -39t-103 -103t-60 -146q-19 -79 -19 -165q0 -84 18 -165t58 -145q39 -62 104 -104q62 -40 154 -40q82 0 153 40q73 41 117 109q5 14 16 18q13 5 23 5
q17 0 28 -13l86 -73q17 -17 17 -35q0 -7 -8 -25q-74 -107 -188 -167t-242 -60q-131 0 -232 53q-98 51 -169 144q-69 90 -103 207q-35 120 -35 249t35 251q35 121 102 209q69 91 169 142q105 54 235 54q128 0 241 -59q115 -60 187 -169zM774 1491q0 -17 -13 -30t-30 -13h-113
q-21 0 -33 13t-12 30v92q0 16 12 31q11 14 33 14h113q17 0 30 -13t13 -32v-92z" />
    <glyph glyph-name="cdotaccent" unicode="&#x10b;" horiz-adv-x="1187" 
d="M1094 1079q8 -18 8 -26q0 -21 -17 -33l-86 -74q-11 -12 -36 -12q-21 4 -31 22q-46 70 -117 110t-153 40q-89 0 -152 -39t-103 -103t-60 -146q-19 -79 -19 -165q0 -84 18 -165t58 -145q39 -62 104 -104q62 -40 154 -40q82 0 153 40q73 41 117 109q5 14 16 18q13 5 23 5
q17 0 28 -13l86 -73q17 -17 17 -35q0 -7 -8 -25q-74 -107 -188 -167t-242 -60q-131 0 -232 53q-98 51 -169 144q-69 90 -103 207q-35 120 -35 249t35 251q35 121 102 209q69 91 169 142q105 54 235 54q128 0 241 -59q115 -60 187 -169zM762 1491q0 -17 -13 -30t-30 -13h-113
q-22 0 -34 13q-11 12 -11 30v92q0 17 11 31t34 14h113q17 0 30 -13t13 -32v-92z" />
    <glyph glyph-name="Ccaron" unicode="&#x10c;" horiz-adv-x="1187" 
d="M1094 1079q8 -18 8 -26q0 -21 -17 -33l-86 -74q-11 -12 -36 -12q-21 4 -31 22q-46 70 -117 110t-153 40q-89 0 -152 -39t-103 -103t-60 -146q-19 -79 -19 -165q0 -84 18 -165t58 -145q39 -62 104 -104q62 -40 154 -40q82 0 153 40q73 41 117 109q5 14 16 18q13 5 23 5
q17 0 28 -13l86 -73q17 -17 17 -35q0 -7 -8 -25q-74 -107 -188 -167t-242 -60q-131 0 -232 53q-98 51 -169 144q-69 90 -103 207q-35 120 -35 249t35 251q35 121 102 209q69 91 169 142q105 54 235 54q128 0 241 -59q115 -60 187 -169zM637 1552q10 -20 39 -20q8 0 21 5
q11 4 16 15l65 142q7 16 35 16h105q18 0 31 -12q14 -12 14 -31q0 -18 -13 -31l-174 -206q-12 -17 -35 -17h-133q-23 0 -35 17l-174 206q-12 12 -12 31t13 31q14 12 32 12h105q27 0 34 -16z" />
    <glyph glyph-name="ccaron" unicode="&#x10d;" horiz-adv-x="1187" 
d="M1094 1079q8 -18 8 -26q0 -21 -17 -33l-86 -74q-11 -12 -36 -12q-21 4 -31 22q-46 70 -117 110t-153 40q-89 0 -152 -39t-103 -103t-60 -146q-19 -79 -19 -165q0 -84 18 -165t58 -145q39 -62 104 -104q62 -40 154 -40q82 0 153 40q73 41 117 109q5 14 16 18q13 5 23 5
q17 0 28 -13l86 -73q17 -17 17 -35q0 -7 -8 -25q-74 -107 -188 -167t-242 -60q-131 0 -232 53q-98 51 -169 144q-69 90 -103 207q-35 120 -35 249t35 251q35 121 102 209q69 91 169 142q105 54 235 54q128 0 241 -59q115 -60 187 -169zM637 1552q10 -20 39 -20q8 0 21 5
q11 4 16 15l65 142q7 16 35 16h105q18 0 31 -12q14 -12 14 -31q0 -18 -13 -31l-174 -206q-12 -17 -35 -17h-133q-23 0 -35 17l-174 206q-12 12 -12 31t13 31q14 12 32 12h105q27 0 34 -16z" />
    <glyph glyph-name="Dcaron" unicode="&#x10e;" 
d="M1065 428q0 -89 -34 -166q-35 -78 -91 -136q-56 -57 -136 -92q-78 -34 -167 -34h-428q-19 0 -32 13t-13 32v1219q0 22 14 32q16 11 31 11h428q88 0 166 -33t136 -91q57 -57 92 -136q34 -77 34 -166v-453zM862 881q0 45 -18 86q-18 40 -49 71t-72 49q-43 19 -86 19h-223
q-24 0 -35 -15q-10 -14 -10 -30v-813q0 -19 11 -33t34 -14h223q47 0 88 18t72 49q29 29 48 72q17 38 17 88v453zM520 1552q10 -20 39 -20q9 0 22 5q10 4 15 15l66 142q7 16 34 16h105q19 0 32 -12t13 -31t-12 -31l-175 -206q-12 -17 -34 -17h-133q-23 0 -35 17l-174 206
q-13 13 -13 31q0 19 14 31q13 12 31 12h105q28 0 35 -16z" />
    <glyph glyph-name="dcaron" unicode="&#x10f;" 
d="M1065 428q0 -89 -34 -166q-35 -78 -91 -136q-56 -57 -136 -92q-78 -34 -167 -34h-428q-19 0 -32 13t-13 32v1219q0 22 14 32q16 11 31 11h428q88 0 166 -33t136 -91q57 -57 92 -136q34 -77 34 -166v-453zM862 881q0 45 -18 86q-18 40 -49 71t-72 49q-43 19 -86 19h-223
q-24 0 -35 -15q-10 -14 -10 -30v-813q0 -19 11 -33t34 -14h223q47 0 88 18t72 49q29 29 48 72q17 38 17 88v453zM520 1552q10 -20 39 -20q9 0 22 5q10 4 15 15l66 142q7 16 34 16h105q19 0 32 -12t13 -31t-12 -31l-175 -206q-12 -17 -34 -17h-133q-23 0 -35 17l-174 206
q-13 13 -13 31q0 19 14 31q13 12 31 12h105q28 0 35 -16z" />
    <glyph glyph-name="Dcroat" unicode="&#x110;" horiz-adv-x="1249" 
d="M1085 428q0 -91 -33 -166q-35 -78 -91 -136q-55 -56 -137 -92q-78 -34 -167 -34h-428q-18 0 -31 13q-14 14 -14 32v463q0 41 -41 41h-77q-22 0 -33 14q-13 16 -13 33v113q0 11 11 28t35 17h77q41 0 41 41v469q0 22 15 32q16 11 30 11h428q88 0 166 -33t136 -91
q59 -59 93 -136q33 -75 33 -166v-453zM883 881q0 43 -19 86q-18 40 -49 71t-72 49q-43 19 -86 19h-223q-24 0 -35 -15q-10 -14 -10 -30v-266q0 -41 41 -41h246q21 0 33 -15t12 -32v-113q0 -13 -10 -29t-35 -16h-246q-41 0 -41 -41v-260q0 -19 11 -33t34 -14h223q47 0 88 18
t72 49q29 29 48 72q18 40 18 88v453z" />
    <glyph glyph-name="dcroat" unicode="&#x111;" horiz-adv-x="1249" 
d="M1085 428q0 -91 -33 -166q-35 -78 -91 -136q-55 -56 -137 -92q-78 -34 -167 -34h-428q-18 0 -31 13q-14 14 -14 32v463q0 41 -41 41h-77q-22 0 -33 14q-13 16 -13 33v113q0 11 11 28t35 17h77q41 0 41 41v469q0 22 15 32q16 11 30 11h428q88 0 166 -33t136 -91
q59 -59 93 -136q33 -75 33 -166v-453zM883 881q0 43 -19 86q-18 40 -49 71t-72 49q-43 19 -86 19h-223q-24 0 -35 -15q-10 -14 -10 -30v-266q0 -41 41 -41h246q21 0 33 -15t12 -32v-113q0 -13 -10 -29t-35 -16h-246q-41 0 -41 -41v-260q0 -19 11 -33t34 -14h223q47 0 88 18
t72 49q29 29 48 72q18 40 18 88v453z" />
    <glyph glyph-name="Emacron" unicode="&#x112;" horiz-adv-x="1187" 
d="M1065 47q0 -19 -13 -33t-32 -14h-811q-13 0 -29 12t-16 35v1215q0 21 16 33q17 12 29 12h811q18 0 32 -14q13 -13 13 -31v-111q0 -23 -13 -35q-14 -12 -32 -12h-606q-23 0 -34 -14t-11 -31v-258q0 -19 11 -33t34 -14h524q17 0 32 -13q13 -12 13 -30v-113q0 -17 -11 -31
t-34 -14h-524q-19 0 -32 -14t-13 -31v-260q0 -18 11 -30q12 -13 34 -13h606q24 0 35 -17q10 -16 10 -28v-113zM924 1511q0 -15 -14 -29t-29 -14h-568q-21 0 -33 14t-12 29v72q0 16 12 31q11 14 33 14h568q16 0 29 -13q14 -14 14 -32v-72z" />
    <glyph glyph-name="emacron" unicode="&#x113;" horiz-adv-x="1187" 
d="M1065 47q0 -19 -13 -33t-32 -14h-811q-13 0 -29 12t-16 35v1215q0 21 16 33q17 12 29 12h811q18 0 32 -14q13 -13 13 -31v-111q0 -23 -13 -35q-14 -12 -32 -12h-606q-23 0 -34 -14t-11 -31v-258q0 -19 11 -33t34 -14h524q17 0 32 -13q13 -12 13 -30v-113q0 -17 -11 -31
t-34 -14h-524q-19 0 -32 -14t-13 -31v-260q0 -18 11 -30q12 -13 34 -13h606q24 0 35 -17q10 -16 10 -28v-113zM924 1511q0 -15 -14 -29t-29 -14h-568q-21 0 -33 14t-12 29v72q0 16 12 31q11 14 33 14h568q16 0 29 -13q14 -14 14 -32v-72z" />
    <glyph glyph-name="Ebreve" unicode="&#x114;" horiz-adv-x="1187" 
d="M1065 47q0 -19 -13 -33t-32 -14h-811q-13 0 -29 12t-16 35v1215q0 21 16 33q17 12 29 12h811q18 0 32 -14q13 -13 13 -31v-111q0 -23 -13 -35q-14 -12 -32 -12h-606q-23 0 -34 -14t-11 -31v-258q0 -19 11 -33t34 -14h524q17 0 32 -13q13 -12 13 -30v-113q0 -17 -11 -31
t-34 -14h-524q-19 0 -32 -14t-13 -31v-260q0 -18 11 -30q12 -13 34 -13h606q24 0 35 -17q10 -16 10 -28v-113zM594 1386q-47 0 -102 19q-53 18 -97 50q-41 30 -70 76q-28 45 -28 95q0 17 14 30t31 13h61q18 0 29 -10q13 -11 14 -27q5 -23 19 -43q15 -20 35 -35
q20 -14 45 -22q26 -8 49 -8q47 0 92 30q44 29 55 78q5 17 16 27t27 10h62q17 0 31 -13t14 -30q0 -50 -28 -95q-29 -46 -70 -76q-44 -32 -97 -50q-55 -19 -102 -19z" />
    <glyph glyph-name="ebreve" unicode="&#x115;" horiz-adv-x="1187" 
d="M1065 47q0 -19 -13 -33t-32 -14h-811q-13 0 -29 12t-16 35v1215q0 21 16 33q17 12 29 12h811q18 0 32 -14q13 -13 13 -31v-111q0 -23 -13 -35q-14 -12 -32 -12h-606q-23 0 -34 -14t-11 -31v-258q0 -19 11 -33t34 -14h524q17 0 32 -13q13 -12 13 -30v-113q0 -17 -11 -31
t-34 -14h-524q-19 0 -32 -14t-13 -31v-260q0 -18 11 -30q12 -13 34 -13h606q24 0 35 -17q10 -16 10 -28v-113zM594 1386q-47 0 -102 19q-53 18 -97 50q-41 30 -70 76q-28 45 -28 95q0 17 14 30t31 13h61q18 0 29 -10q13 -11 14 -27q5 -23 19 -43q15 -20 35 -35
q20 -14 45 -22q26 -8 49 -8q47 0 92 30q44 29 55 78q5 17 16 27t27 10h62q17 0 31 -13t14 -30q0 -50 -28 -95q-29 -46 -70 -76q-44 -32 -97 -50q-55 -19 -102 -19z" />
    <glyph glyph-name="Edotaccent" unicode="&#x116;" horiz-adv-x="1187" 
d="M1065 47q0 -19 -13 -33t-32 -14h-811q-13 0 -29 12t-16 35v1215q0 21 16 33q17 12 29 12h811q18 0 32 -14q13 -13 13 -31v-111q0 -23 -13 -35q-14 -12 -32 -12h-606q-23 0 -34 -14t-11 -31v-258q0 -19 11 -33t34 -14h524q17 0 32 -13q13 -12 13 -30v-113q0 -17 -11 -31
t-34 -14h-524q-19 0 -32 -14t-13 -31v-260q0 -18 11 -30q12 -13 34 -13h606q24 0 35 -17q10 -16 10 -28v-113zM694 1491q0 -17 -13 -30t-30 -13h-112q-22 0 -34 13q-11 12 -11 30v92q0 17 11 31t34 14h112q17 0 30 -13t13 -32v-92z" />
    <glyph glyph-name="edotaccent" unicode="&#x117;" horiz-adv-x="1187" 
d="M1065 47q0 -19 -13 -33t-32 -14h-811q-13 0 -29 12t-16 35v1215q0 21 16 33q17 12 29 12h811q18 0 32 -14q13 -13 13 -31v-111q0 -23 -13 -35q-14 -12 -32 -12h-606q-23 0 -34 -14t-11 -31v-258q0 -19 11 -33t34 -14h524q17 0 32 -13q13 -12 13 -30v-113q0 -17 -11 -31
t-34 -14h-524q-19 0 -32 -14t-13 -31v-260q0 -18 11 -30q12 -13 34 -13h606q24 0 35 -17q10 -16 10 -28v-113zM694 1491q0 -17 -13 -30t-30 -13h-112q-22 0 -34 13q-11 12 -11 30v92q0 17 11 31t34 14h112q17 0 30 -13t13 -32v-92z" />
    <glyph glyph-name="Eogonek" unicode="&#x118;" horiz-adv-x="1187" 
d="M1065 47q0 -19 -13 -33t-32 -14h-74q-40 0 -55 -39l-33 -92q-12 -34 5 -38q20 -5 38 -5h119q28 0 36 -17q9 -18 9 -28v-72q0 -18 -12 -33q-11 -14 -33 -14h-361q-10 0 -31 12q-22 12 -14 35l91 252q15 39 -27 39h-469q-13 0 -29 12t-16 35v1215q0 21 16 33q17 12 29 12
h811q18 0 32 -14q13 -13 13 -31v-111q0 -23 -13 -35q-14 -12 -32 -12h-606q-23 0 -34 -14t-11 -31v-258q0 -19 11 -33t34 -14h524q17 0 32 -13q13 -12 13 -30v-113q0 -17 -11 -31t-34 -14h-524q-19 0 -32 -14t-13 -31v-260q0 -18 11 -30q12 -13 34 -13h606q24 0 35 -17
q10 -16 10 -28v-113z" />
    <glyph glyph-name="eogonek" unicode="&#x119;" horiz-adv-x="1187" 
d="M1065 47q0 -19 -13 -33t-32 -14h-74q-40 0 -55 -39l-33 -92q-12 -34 5 -38q20 -5 38 -5h119q28 0 36 -17q9 -18 9 -28v-72q0 -18 -12 -33q-11 -14 -33 -14h-361q-10 0 -31 12q-22 12 -14 35l91 252q15 39 -27 39h-469q-13 0 -29 12t-16 35v1215q0 21 16 33q17 12 29 12
h811q18 0 32 -14q13 -13 13 -31v-111q0 -23 -13 -35q-14 -12 -32 -12h-606q-23 0 -34 -14t-11 -31v-258q0 -19 11 -33t34 -14h524q17 0 32 -13q13 -12 13 -30v-113q0 -17 -11 -31t-34 -14h-524q-19 0 -32 -14t-13 -31v-260q0 -18 11 -30q12 -13 34 -13h606q24 0 35 -17
q10 -16 10 -28v-113z" />
    <glyph glyph-name="Ecaron" unicode="&#x11a;" horiz-adv-x="1187" 
d="M1065 47q0 -19 -13 -33t-32 -14h-811q-13 0 -29 12t-16 35v1215q0 21 16 33q17 12 29 12h811q18 0 32 -14q13 -13 13 -31v-111q0 -23 -13 -35q-14 -12 -32 -12h-606q-23 0 -34 -14t-11 -31v-258q0 -19 11 -33t34 -14h524q17 0 32 -13q13 -12 13 -30v-113q0 -17 -11 -31
t-34 -14h-524q-19 0 -32 -14t-13 -31v-260q0 -18 11 -30q12 -13 34 -13h606q24 0 35 -17q10 -16 10 -28v-113zM555 1552q10 -20 39 -20q8 0 21 5q11 4 16 15l65 142q7 16 35 16h105q18 0 31 -12q14 -12 14 -31q0 -18 -13 -31l-174 -206q-12 -17 -35 -17h-133q-22 0 -34 17
l-175 206q-12 12 -12 31t13 31t32 12h105q27 0 34 -16z" />
    <glyph glyph-name="ecaron" unicode="&#x11b;" horiz-adv-x="1187" 
d="M1065 47q0 -19 -13 -33t-32 -14h-811q-13 0 -29 12t-16 35v1215q0 21 16 33q17 12 29 12h811q18 0 32 -14q13 -13 13 -31v-111q0 -23 -13 -35q-14 -12 -32 -12h-606q-23 0 -34 -14t-11 -31v-258q0 -19 11 -33t34 -14h524q17 0 32 -13q13 -12 13 -30v-113q0 -17 -11 -31
t-34 -14h-524q-19 0 -32 -14t-13 -31v-260q0 -18 11 -30q12 -13 34 -13h606q24 0 35 -17q10 -16 10 -28v-113zM555 1552q10 -20 39 -20q8 0 21 5q11 4 16 15l65 142q7 16 35 16h105q18 0 31 -12q14 -12 14 -31q0 -18 -13 -31l-174 -206q-12 -17 -35 -17h-133q-22 0 -34 17
l-175 206q-12 12 -12 31t13 31t32 12h105q27 0 34 -16z" />
    <glyph glyph-name="Gcircumflex" unicode="&#x11c;" 
d="M889 295q5 6 7 13q1 3 1 14v186q0 17 -13 31t-32 14h-150q-22 0 -32 14q-11 16 -11 31v113q0 16 13 32q12 15 30 15h355q10 0 28 -13q17 -12 17 -34v-461q0 -7 -8 -25q-74 -107 -188 -167t-242 -60q-131 0 -232 53q-98 51 -169 144q-69 90 -103 207q-35 120 -35 249
t35 251q35 121 102 209q69 91 169 142q105 54 235 54q128 0 241 -59q115 -60 187 -169q8 -18 8 -26q0 -21 -17 -33l-86 -74q-11 -12 -36 -12q-21 4 -31 22q-46 70 -117 110t-153 40q-89 0 -152 -39t-103 -103t-60 -146q-19 -79 -19 -165q0 -84 18 -165t58 -145
q39 -62 104 -104q62 -40 154 -40q64 0 124 24q57 23 103 72zM510 1430q-8 -17 -35 -17h-104q-19 0 -32 12t-13 31t12 31l174 207q12 16 35 16h133q23 0 35 -16l174 -207q12 -12 12 -31t-13 -31q-14 -12 -32 -12h-104q-27 0 -35 17l-66 141q-5 11 -15 15q-13 5 -22 5
q-29 0 -39 -20z" />
    <glyph glyph-name="gcircumflex" unicode="&#x11d;" 
d="M889 295q5 6 7 13q1 3 1 14v186q0 17 -13 31t-32 14h-150q-22 0 -32 14q-11 16 -11 31v113q0 16 13 32q12 15 30 15h355q10 0 28 -13q17 -12 17 -34v-461q0 -7 -8 -25q-74 -107 -188 -167t-242 -60q-131 0 -232 53q-98 51 -169 144q-69 90 -103 207q-35 120 -35 249
t35 251q35 121 102 209q69 91 169 142q105 54 235 54q128 0 241 -59q115 -60 187 -169q8 -18 8 -26q0 -21 -17 -33l-86 -74q-11 -12 -36 -12q-21 4 -31 22q-46 70 -117 110t-153 40q-89 0 -152 -39t-103 -103t-60 -146q-19 -79 -19 -165q0 -84 18 -165t58 -145
q39 -62 104 -104q62 -40 154 -40q64 0 124 24q57 23 103 72zM510 1430q-8 -17 -35 -17h-104q-19 0 -32 12t-13 31t12 31l174 207q12 16 35 16h133q23 0 35 -16l174 -207q12 -12 12 -31t-13 -31q-14 -12 -32 -12h-104q-27 0 -35 17l-66 141q-5 11 -15 15q-13 5 -22 5
q-29 0 -39 -20z" />
    <glyph glyph-name="Gbreve" unicode="&#x11e;" 
d="M889 295q5 6 7 13q1 3 1 14v186q0 17 -13 31t-32 14h-150q-22 0 -32 14q-11 16 -11 31v113q0 16 13 32q12 15 30 15h355q10 0 28 -13q17 -12 17 -34v-461q0 -7 -8 -25q-74 -107 -188 -167t-242 -60q-131 0 -232 53q-98 51 -169 144q-69 90 -103 207q-35 120 -35 249
t35 251q35 121 102 209q69 91 169 142q105 54 235 54q128 0 241 -59q115 -60 187 -169q8 -18 8 -26q0 -21 -17 -33l-86 -74q-11 -12 -36 -12q-21 4 -31 22q-46 70 -117 110t-153 40q-89 0 -152 -39t-103 -103t-60 -146q-19 -79 -19 -165q0 -84 18 -165t58 -145
q39 -62 104 -104q62 -40 154 -40q64 0 124 24q57 23 103 72zM653 1386q-47 0 -102 19q-51 18 -96 50q-43 31 -71 76t-28 95q0 16 15 30q14 13 30 13h62q18 0 29 -10q13 -11 14 -27q5 -25 18 -43q15 -20 35 -35q20 -14 45 -22q26 -8 49 -8q47 0 92 30t56 78q5 18 15 27
q11 10 28 10h61q17 0 31 -13t14 -30q0 -52 -27 -95q-28 -45 -71 -76q-45 -32 -96 -50q-55 -19 -103 -19z" />
    <glyph glyph-name="gbreve" unicode="&#x11f;" 
d="M889 295q5 6 7 13q1 3 1 14v186q0 17 -13 31t-32 14h-150q-22 0 -32 14q-11 16 -11 31v113q0 16 13 32q12 15 30 15h355q10 0 28 -13q17 -12 17 -34v-461q0 -7 -8 -25q-74 -107 -188 -167t-242 -60q-131 0 -232 53q-98 51 -169 144q-69 90 -103 207q-35 120 -35 249
t35 251q35 121 102 209q69 91 169 142q105 54 235 54q128 0 241 -59q115 -60 187 -169q8 -18 8 -26q0 -21 -17 -33l-86 -74q-11 -12 -36 -12q-21 4 -31 22q-46 70 -117 110t-153 40q-89 0 -152 -39t-103 -103t-60 -146q-19 -79 -19 -165q0 -84 18 -165t58 -145
q39 -62 104 -104q62 -40 154 -40q64 0 124 24q57 23 103 72zM664 1386q-48 0 -103 19q-51 18 -96 50q-43 31 -71 76q-27 43 -27 95q0 17 14 30t31 13h61q18 0 29 -10q13 -11 14 -27q5 -23 19 -43q16 -22 34 -35q20 -14 45 -22q26 -8 50 -8q47 0 92 30q44 29 55 78
q5 18 15 27q11 10 28 10h61q17 0 31 -13q15 -14 15 -30q0 -50 -28 -95t-71 -76q-45 -32 -96 -50q-55 -19 -102 -19z" />
    <glyph glyph-name="Gdotaccent" unicode="&#x120;" 
d="M889 295q5 6 7 13q1 3 1 14v186q0 17 -13 31t-32 14h-150q-22 0 -32 14q-11 16 -11 31v113q0 16 13 32q12 15 30 15h355q10 0 28 -13q17 -12 17 -34v-461q0 -7 -8 -25q-74 -107 -188 -167t-242 -60q-131 0 -232 53q-98 51 -169 144q-69 90 -103 207q-35 120 -35 249
t35 251q35 121 102 209q69 91 169 142q105 54 235 54q128 0 241 -59q115 -60 187 -169q8 -18 8 -26q0 -21 -17 -33l-86 -74q-11 -12 -36 -12q-21 4 -31 22q-46 70 -117 110t-153 40q-89 0 -152 -39t-103 -103t-60 -146q-19 -79 -19 -165q0 -84 18 -165t58 -145
q39 -62 104 -104q62 -40 154 -40q64 0 124 24q57 23 103 72zM760 1491q0 -16 -14 -30q-13 -13 -29 -13h-113q-22 0 -34 13q-11 12 -11 30v92q0 17 11 31t34 14h113q16 0 29 -13q14 -14 14 -32v-92z" />
    <glyph glyph-name="gdotaccent" unicode="&#x121;" 
d="M889 295q5 6 7 13q1 3 1 14v186q0 17 -13 31t-32 14h-150q-22 0 -32 14q-11 16 -11 31v113q0 16 13 32q12 15 30 15h355q10 0 28 -13q17 -12 17 -34v-461q0 -7 -8 -25q-74 -107 -188 -167t-242 -60q-131 0 -232 53q-98 51 -169 144q-69 90 -103 207q-35 120 -35 249
t35 251q35 121 102 209q69 91 169 142q105 54 235 54q128 0 241 -59q115 -60 187 -169q8 -18 8 -26q0 -21 -17 -33l-86 -74q-11 -12 -36 -12q-21 4 -31 22q-46 70 -117 110t-153 40q-89 0 -152 -39t-103 -103t-60 -146q-19 -79 -19 -165q0 -84 18 -165t58 -145
q39 -62 104 -104q62 -40 154 -40q64 0 124 24q57 23 103 72zM715 1491q0 -16 -14 -30q-13 -13 -29 -13h-113q-22 0 -34 13q-11 12 -11 30v92q0 17 11 31t34 14h113q16 0 29 -13q14 -14 14 -32v-92z" />
    <glyph glyph-name="Gcommaaccent" unicode="&#x122;" 
d="M889 295q5 6 7 13q1 3 1 14v186q0 17 -13 31t-32 14h-150q-22 0 -32 14q-11 16 -11 31v113q0 16 13 32q12 15 30 15h355q10 0 28 -13q17 -12 17 -34v-461q0 -7 -8 -25q-74 -107 -188 -167t-242 -60q-131 0 -232 53q-98 51 -169 144q-69 90 -103 207q-35 120 -35 249
t35 251q35 121 102 209q69 91 169 142q105 54 235 54q128 0 241 -59q115 -60 187 -169q8 -18 8 -26q0 -21 -17 -33l-86 -74q-11 -12 -36 -12q-21 4 -31 22q-46 70 -117 110t-153 40q-89 0 -152 -39t-103 -103t-60 -146q-19 -79 -19 -165q0 -84 18 -165t58 -145
q39 -62 104 -104q62 -40 154 -40q64 0 124 24q57 23 103 72zM537 -106q5 12 10 18q6 8 20 8h146q37 0 37 -33q0 -13 -11 -24l-139 -187q-10 -14 -29 -14h-61q-33 0 -33 31q0 16 6 28z" />
    <glyph glyph-name="gcommaaccent" unicode="&#x123;" 
d="M889 295q5 6 7 13q1 3 1 14v186q0 17 -13 31t-32 14h-150q-22 0 -32 14q-11 16 -11 31v113q0 16 13 32q12 15 30 15h355q10 0 28 -13q17 -12 17 -34v-461q0 -7 -8 -25q-74 -107 -188 -167t-242 -60q-131 0 -232 53q-98 51 -169 144q-69 90 -103 207q-35 120 -35 249
t35 251q35 121 102 209q69 91 169 142q105 54 235 54q128 0 241 -59q115 -60 187 -169q8 -18 8 -26q0 -21 -17 -33l-86 -74q-11 -12 -36 -12q-21 4 -31 22q-46 70 -117 110t-153 40q-89 0 -152 -39t-103 -103t-60 -146q-19 -79 -19 -165q0 -84 18 -165t58 -145
q39 -62 104 -104q62 -40 154 -40q64 0 124 24q57 23 103 72zM598 -106q5 12 10 18q6 8 21 8h145q37 0 37 -33q0 -14 -10 -24l-139 -187q-10 -14 -29 -14h-62q-32 0 -32 31q0 16 6 28z" />
    <glyph glyph-name="Hcircumflex" unicode="&#x124;" 
d="M1065 45q0 -19 -13 -32t-32 -13h-113q-22 0 -33 14q-12 15 -12 31v461q0 18 -12 32q-12 13 -35 13h-405q-15 0 -29 -11t-14 -34v-461q0 -18 -14 -32q-13 -13 -31 -13h-113q-22 0 -33 14q-12 15 -12 31v1219q0 16 12 29q12 14 33 14h113q16 0 31 -13q14 -12 14 -30v-465
q0 -21 13 -33q14 -12 30 -12h405q19 0 33 13t14 32v465q0 16 12 29q12 14 33 14h113q17 0 32 -13q13 -12 13 -30v-1219zM510 1430q-8 -17 -35 -17h-104q-19 0 -32 12t-13 31t12 31l174 207q12 16 35 16h133q23 0 35 -16l174 -207q12 -12 12 -31t-13 -31q-14 -12 -32 -12
h-104q-27 0 -35 17l-66 141q-5 11 -15 15q-13 5 -22 5q-29 0 -39 -20z" />
    <glyph glyph-name="hcircumflex" unicode="&#x125;" 
d="M1065 45q0 -19 -13 -32t-32 -13h-113q-22 0 -33 14q-12 15 -12 31v461q0 18 -12 32q-12 13 -35 13h-405q-15 0 -29 -11t-14 -34v-461q0 -18 -14 -32q-13 -13 -31 -13h-113q-22 0 -33 14q-12 15 -12 31v1219q0 16 12 29q12 14 33 14h113q16 0 31 -13q14 -12 14 -30v-465
q0 -21 13 -33q14 -12 30 -12h405q19 0 33 13t14 32v465q0 16 12 29q12 14 33 14h113q17 0 32 -13q13 -12 13 -30v-1219zM510 1430q-8 -17 -35 -17h-104q-19 0 -32 12t-13 31t12 31l174 207q12 16 35 16h133q23 0 35 -16l174 -207q12 -12 12 -31t-13 -31q-14 -12 -32 -12
h-104q-27 0 -35 17l-66 141q-5 11 -15 15q-13 5 -22 5q-29 0 -39 -20z" />
    <glyph glyph-name="Hbar" unicode="&#x126;" 
d="M1065 1178q0 -41 41 -41h80q15 0 29 -14t14 -31v-72q0 -16 -14 -30q-13 -13 -29 -13h-80q-41 0 -41 -41v-891q0 -19 -13 -32t-32 -13h-113q-22 0 -33 14q-12 15 -12 31v461q0 18 -12 32q-12 13 -35 13h-405q-15 0 -29 -11t-14 -34v-461q0 -18 -14 -32q-13 -13 -31 -13
h-113q-22 0 -33 14q-12 15 -12 31v891q0 41 -41 41h-78q-22 0 -34 13q-11 12 -11 30v72q0 16 11 30q12 15 34 15h78q41 0 41 41v86q0 16 12 29q12 14 33 14h113q16 0 31 -13q14 -12 14 -30v-86q0 -41 41 -41h413q41 0 41 41v86q0 16 12 29q12 14 33 14h113q17 0 32 -13
q13 -12 13 -30v-86zM815 754q19 0 33 13t14 32v137q0 41 -41 41h-413q-41 0 -41 -41v-137q0 -21 13 -33q14 -12 30 -12h405z" />
    <glyph glyph-name="hbar" unicode="&#x127;" 
d="M1065 1178q0 -41 41 -41h80q15 0 29 -14t14 -31v-72q0 -16 -14 -30q-13 -13 -29 -13h-80q-41 0 -41 -41v-891q0 -19 -13 -32t-32 -13h-113q-22 0 -33 14q-12 15 -12 31v461q0 18 -12 32q-12 13 -35 13h-405q-15 0 -29 -11t-14 -34v-461q0 -18 -14 -32q-13 -13 -31 -13
h-113q-22 0 -33 14q-12 15 -12 31v891q0 41 -41 41h-78q-22 0 -34 13q-11 12 -11 30v72q0 16 11 30q12 15 34 15h78q41 0 41 41v86q0 16 12 29q12 14 33 14h113q16 0 31 -13q14 -12 14 -30v-86q0 -41 41 -41h413q41 0 41 41v86q0 16 12 29q12 14 33 14h113q17 0 32 -13
q13 -12 13 -30v-86zM815 754q19 0 33 13t14 32v137q0 41 -41 41h-413q-41 0 -41 -41v-137q0 -21 13 -33q14 -12 30 -12h405z" />
    <glyph glyph-name="Itilde" unicode="&#x128;" horiz-adv-x="569" 
d="M385 45q0 -18 -12 -32q-12 -13 -31 -13h-115q-20 0 -31 14q-12 15 -12 31v1219q0 16 12 29q12 14 31 14h115q18 0 31 -13q12 -12 12 -30v-1219zM522 1647q6 6 19 6q16 0 23 -7l14 -14l55 -63q3 -3 5 -15q1 -10 -3 -14q-50 -62 -109 -99q-61 -38 -116 -38q-35 0 -64 13
q-34 16 -59 31q-23 14 -56 31q-26 13 -49 13q-34 0 -66 -27q-42 -36 -61 -55q-8 -8 -18 -8q-17 0 -24 7q-5 5 -13 15l-55 64q-10 14 -2 29q52 62 112 99q62 38 123 38q32 0 74 -13t74 -38q27 -21 40 -28q18 -9 40 -9q32 0 61 26q32 29 55 56z" />
    <glyph glyph-name="itilde" unicode="&#x129;" horiz-adv-x="569" 
d="M385 45q0 -18 -12 -32q-12 -13 -31 -13h-115q-20 0 -31 14q-12 15 -12 31v1219q0 16 12 29q12 14 31 14h115q18 0 31 -13q12 -12 12 -30v-1219zM522 1647q6 6 19 6q16 0 23 -7l14 -14l55 -63q3 -3 5 -15q1 -10 -3 -14q-50 -62 -109 -99q-61 -38 -116 -38q-35 0 -64 13
q-34 16 -59 31q-23 14 -56 31q-26 13 -49 13q-34 0 -66 -27q-42 -36 -61 -55q-8 -8 -18 -8q-17 0 -24 7q-5 5 -13 15l-55 64q-10 14 -2 29q52 62 112 99q62 38 123 38q32 0 74 -13t74 -38q27 -21 40 -28q18 -9 40 -9q32 0 61 26q32 29 55 56z" />
    <glyph glyph-name="Imacron" unicode="&#x12a;" horiz-adv-x="569" 
d="M385 45q0 -18 -12 -32q-12 -13 -31 -13h-115q-20 0 -31 14q-12 15 -12 31v1219q0 16 12 29q12 14 31 14h115q18 0 31 -13q12 -12 12 -30v-1219zM614 1511q0 -16 -13 -29q-14 -14 -30 -14h-567q-22 0 -34 14q-11 12 -11 29v72q0 17 11 31t34 14h567q17 0 30 -13t13 -32
v-72z" />
    <glyph glyph-name="imacron" unicode="&#x12b;" horiz-adv-x="569" 
d="M385 45q0 -18 -12 -32q-12 -13 -31 -13h-115q-20 0 -31 14q-12 15 -12 31v1219q0 16 12 29q12 14 31 14h115q18 0 31 -13q12 -12 12 -30v-1219zM614 1511q0 -16 -13 -29q-14 -14 -30 -14h-567q-22 0 -34 14q-11 12 -11 29v72q0 17 11 31t34 14h567q17 0 30 -13t13 -32
v-72z" />
    <glyph glyph-name="Ibreve" unicode="&#x12c;" horiz-adv-x="569" 
d="M385 45q0 -18 -12 -32q-12 -13 -31 -13h-115q-20 0 -31 14q-12 15 -12 31v1219q0 16 12 29q12 14 31 14h115q18 0 31 -13q12 -12 12 -30v-1219zM287 1386q-48 0 -103 19q-51 18 -96 50q-43 31 -71 76q-27 43 -27 95q0 17 14 30t31 13h61q18 0 29 -10q13 -11 14 -27
q5 -23 19 -43q15 -20 35 -35q20 -14 45 -22q26 -8 49 -8q47 0 92 30q44 29 55 78q5 17 16 27t27 10h62q16 0 30 -13q15 -14 15 -30q0 -50 -28 -95t-71 -76q-45 -32 -96 -50q-55 -19 -102 -19z" />
    <glyph glyph-name="ibreve" unicode="&#x12d;" horiz-adv-x="569" 
d="M385 45q0 -18 -12 -32q-12 -13 -31 -13h-115q-20 0 -31 14q-12 15 -12 31v1219q0 16 12 29q12 14 31 14h115q18 0 31 -13q12 -12 12 -30v-1219zM287 1386q-48 0 -103 19q-51 18 -96 50q-43 31 -71 76q-27 43 -27 95q0 17 14 30t31 13h61q18 0 29 -10q13 -11 14 -27
q5 -23 19 -43q15 -20 35 -35q20 -14 45 -22q26 -8 49 -8q47 0 92 30q44 29 55 78q5 17 16 27t27 10h62q16 0 30 -13q15 -14 15 -30q0 -50 -28 -95t-71 -76q-45 -32 -96 -50q-55 -19 -102 -19z" />
    <glyph glyph-name="Iogonek" unicode="&#x12e;" horiz-adv-x="569" 
d="M385 45q0 -35 -33 -45l-47 -131q-12 -34 5 -38q20 -5 38 -5h119q27 0 36 -17q9 -18 9 -28v-72q0 -18 -12 -33q-11 -14 -33 -14h-361q-10 0 -31 12q-22 12 -14 35l123 338v1217q0 16 12 29q12 14 31 14h115q18 0 31 -13q12 -12 12 -30v-1219z" />
    <glyph glyph-name="iogonek" unicode="&#x12f;" horiz-adv-x="569" 
d="M385 45q0 -35 -33 -45l-47 -131q-12 -34 5 -38q20 -5 38 -5h119q27 0 36 -17q9 -18 9 -28v-72q0 -18 -12 -33q-11 -14 -33 -14h-361q-10 0 -31 12q-22 12 -14 35l123 338v1217q0 16 12 29q12 14 31 14h115q18 0 31 -13q12 -12 12 -30v-1219z" />
    <glyph glyph-name="Idotaccent" unicode="&#x130;" horiz-adv-x="569" 
d="M385 45q0 -18 -12 -32q-12 -13 -31 -13h-115q-20 0 -31 14q-12 15 -12 31v1219q0 16 12 29q12 14 31 14h115q18 0 31 -13q12 -12 12 -30v-1219zM385 1491q0 -17 -13 -30t-30 -13h-113q-21 0 -33 13t-12 30v92q0 16 12 31q11 14 33 14h113q17 0 30 -13t13 -32v-92z" />
    <glyph glyph-name="dotlessi" unicode="&#x131;" horiz-adv-x="569" 
d="M385 45q0 -18 -12 -32q-12 -13 -31 -13h-115q-20 0 -31 14q-12 15 -12 31v1219q0 16 12 29q12 14 31 14h115q18 0 31 -13q12 -12 12 -30v-1219z" />
    <glyph glyph-name="IJ" unicode="&#x132;" horiz-adv-x="1048" 
d="M905 381q0 -81 -32 -153q-31 -70 -85 -122q-52 -50 -121 -79q-70 -29 -145 -29q-64 0 -133 26q-70 27 -122 71q-55 48 -89 109q-35 64 -35 136q0 16 15 30q14 13 30 13h113q18 0 29 -10q13 -11 14 -27q14 -64 65 -105q49 -40 113 -40q76 0 127 53q51 52 51 125v885
q0 14 13 29q12 14 32 14h115q17 0 32 -13q13 -12 13 -30v-883zM344 537q0 -21 -12 -33t-31 -12h-115q-20 0 -31 14q-12 15 -12 31v727q0 16 12 29q12 14 31 14h115q18 0 31 -13q12 -12 12 -30v-727z" />
    <glyph glyph-name="ij" unicode="&#x133;" horiz-adv-x="1048" 
d="M905 381q0 -81 -32 -153q-31 -70 -85 -122q-52 -50 -121 -79q-70 -29 -145 -29q-64 0 -133 26q-70 27 -122 71q-55 48 -89 109q-35 64 -35 136q0 16 15 30q14 13 30 13h113q18 0 29 -10q13 -11 14 -27q14 -64 65 -105q49 -40 113 -40q76 0 127 53q51 52 51 125v885
q0 14 13 29q12 14 32 14h115q17 0 32 -13q13 -12 13 -30v-883zM344 537q0 -21 -12 -33t-31 -12h-115q-20 0 -31 14q-12 15 -12 31v727q0 16 12 29q12 14 31 14h115q18 0 31 -13q12 -12 12 -30v-727z" />
    <glyph glyph-name="Jcircumflex" unicode="&#x134;" horiz-adv-x="966" 
d="M823 381q0 -84 -31 -153q-31 -70 -85 -122q-51 -50 -122 -79q-70 -29 -145 -29q-64 0 -133 26q-70 27 -122 71q-55 48 -89 109q-35 64 -35 136q0 16 15 30q14 13 30 13h113q18 0 29 -10q13 -11 14 -27q14 -64 65 -105q49 -40 113 -40q76 0 127 53q51 52 51 125v885
q0 14 13 29q12 14 33 14h114q17 0 32 -13q13 -12 13 -30v-883zM616 1430q-8 -17 -34 -17h-105q-19 0 -32 12t-13 31t12 31l174 207q12 16 35 16h133q23 0 35 -16l174 -207q13 -13 13 -31q0 -19 -14 -31t-31 -12h-105q-27 0 -35 17l-65 141q-5 11 -16 15q-13 5 -21 5
q-29 0 -39 -20z" />
    <glyph glyph-name="jcircumflex" unicode="&#x135;" horiz-adv-x="966" 
d="M823 381q0 -84 -31 -153q-31 -70 -85 -122q-51 -50 -122 -79q-70 -29 -145 -29q-64 0 -133 26q-70 27 -122 71q-55 48 -89 109q-35 64 -35 136q0 16 15 30q14 13 30 13h113q18 0 29 -10q13 -11 14 -27q14 -64 65 -105q49 -40 113 -40q76 0 127 53q51 52 51 125v885
q0 14 13 29q12 14 33 14h114q17 0 32 -13q13 -12 13 -30v-883zM623 1430q-8 -17 -35 -17h-105q-17 0 -31 12t-14 31q0 18 13 31l174 207q12 16 34 16h134q22 0 34 -16l174 -207q13 -13 13 -31q0 -19 -14 -31t-31 -12h-105q-27 0 -35 17l-65 141q-5 11 -15 15q-13 5 -22 5
q-29 0 -39 -20z" />
    <glyph glyph-name="Kcommaaccent" unicode="&#x136;" horiz-adv-x="1153" 
d="M369 47q0 -17 -14 -33q-13 -14 -33 -14h-111q-19 0 -33 14t-14 33v1215q0 18 14 31q16 14 33 14h111q16 0 32 -14q15 -13 15 -31v-394q0 -22 13 -34q15 -13 32 -13q15 0 32 17l381 452q12 17 35 17h146q16 0 31 -13q14 -12 14 -30t-13 -31l-362 -434q-10 -11 -10 -29
q0 -11 4 -22l393 -678q6 -12 6 -25q0 -17 -13 -31t-32 -14h-129q-22 0 -41 25l-405 702q-12 23 -39 23q-19 0 -31 -14t-12 -31v-658zM500 -106q5 12 10 18q6 8 20 8h146q37 0 37 -33q0 -13 -11 -24l-139 -187q-10 -14 -28 -14h-62q-33 0 -33 31q0 16 6 28z" />
    <glyph glyph-name="kcommaaccent" unicode="&#x137;" horiz-adv-x="1153" 
d="M369 47q0 -17 -14 -33q-13 -14 -33 -14h-111q-19 0 -33 14t-14 33v1215q0 18 14 31q16 14 33 14h111q16 0 32 -14q15 -13 15 -31v-394q0 -22 13 -34q15 -13 32 -13q15 0 32 17l381 452q12 17 35 17h146q16 0 31 -13q14 -12 14 -30t-13 -31l-362 -434q-10 -11 -10 -29
q0 -11 4 -22l393 -678q6 -12 6 -25q0 -17 -13 -31t-32 -14h-129q-22 0 -41 25l-405 702q-12 23 -39 23q-19 0 -31 -14t-12 -31v-658zM500 -106q5 12 10 18q6 8 20 8h146q37 0 37 -33q0 -13 -11 -24l-139 -187q-10 -14 -28 -14h-62q-33 0 -33 31q0 16 6 28z" />
    <glyph glyph-name="kgreenlandic" unicode="&#x138;" horiz-adv-x="1153" 
d="M369 47q0 -17 -14 -33q-13 -14 -33 -14h-111q-19 0 -33 14t-14 33v1215q0 18 14 31q16 14 33 14h111q16 0 32 -14q15 -13 15 -31v-394q0 -22 13 -34q15 -13 32 -13q15 0 32 17l381 452q12 17 35 17h146q16 0 31 -13q14 -12 14 -30t-13 -31l-362 -434q-10 -11 -10 -29
q0 -11 4 -22l393 -678q6 -12 6 -25q0 -17 -13 -31t-32 -14h-129q-22 0 -41 25l-405 702q-12 23 -39 23q-19 0 -31 -14t-12 -31v-658z" />
    <glyph glyph-name="Lacute" unicode="&#x139;" horiz-adv-x="1085" 
d="M367 248q0 -17 10 -30t33 -13h528q24 0 35 -17q10 -16 10 -28v-113q0 -19 -13 -33t-32 -14h-729q-13 0 -29 12t-16 35v1215q0 21 16 33q17 12 29 12h113q17 0 31 -14t14 -31v-1014zM401 1694q12 16 35 16h105q20 0 32 -12q13 -13 13 -31t-13 -31l-174 -206
q-12 -17 -34 -17h-105q-18 0 -32 12q-13 12 -13 31t12 31z" />
    <glyph glyph-name="lacute" unicode="&#x13a;" horiz-adv-x="1085" 
d="M367 248q0 -17 10 -30t33 -13h528q24 0 35 -17q10 -16 10 -28v-113q0 -19 -13 -33t-32 -14h-729q-13 0 -29 12t-16 35v1215q0 21 16 33q17 12 29 12h113q17 0 31 -14t14 -31v-1014zM399 1694q12 16 35 16h105q20 0 32 -12q13 -13 13 -31t-13 -31l-174 -206
q-12 -17 -35 -17h-104q-18 0 -32 12q-13 12 -13 31t12 31z" />
    <glyph glyph-name="Lcommaaccent" unicode="&#x13b;" horiz-adv-x="1085" 
d="M367 248q0 -17 10 -30t33 -13h528q24 0 35 -17q10 -16 10 -28v-113q0 -19 -13 -33t-32 -14h-729q-13 0 -29 12t-16 35v1215q0 21 16 33q17 12 29 12h113q17 0 31 -14t14 -31v-1014zM465 -106q5 12 10 18q6 8 21 8h145q37 0 37 -33q0 -14 -10 -24l-140 -187
q-10 -14 -28 -14h-62q-32 0 -32 31q0 16 6 28z" />
    <glyph glyph-name="lcommaaccent" unicode="&#x13c;" horiz-adv-x="1085" 
d="M367 248q0 -17 10 -30t33 -13h528q24 0 35 -17q10 -16 10 -28v-113q0 -19 -13 -33t-32 -14h-729q-13 0 -29 12t-16 35v1215q0 21 16 33q17 12 29 12h113q17 0 31 -14t14 -31v-1014zM465 -106q5 12 10 18q6 8 21 8h145q37 0 37 -33q0 -14 -10 -24l-140 -187
q-10 -14 -28 -14h-62q-32 0 -32 31q0 16 6 28z" />
    <glyph glyph-name="Lcaron" unicode="&#x13d;" horiz-adv-x="1085" 
d="M367 248q0 -17 10 -30t33 -13h528q24 0 35 -17q10 -16 10 -28v-113q0 -19 -13 -33t-32 -14h-729q-13 0 -29 12t-16 35v1215q0 21 16 33q17 12 29 12h113q17 0 31 -14t14 -31v-1014zM856 823q16 0 29 13q58 73 83 157t25 185q0 54 -37 91q-38 38 -88 38q-51 0 -89 -38
t-38 -91q0 -30 12 -52q14 -26 28 -39q18 -16 38 -25q21 -9 39 -9q14 0 14 -15q0 -23 -23 -68t-46 -83q-5 -8 -9 -19q-3 -8 -3 -18q0 -12 9 -19q10 -8 21 -8h35z" />
    <glyph glyph-name="lcaron" unicode="&#x13e;" horiz-adv-x="1085" 
d="M367 248q0 -17 10 -30t33 -13h528q24 0 35 -17q10 -16 10 -28v-113q0 -19 -13 -33t-32 -14h-729q-13 0 -29 12t-16 35v1215q0 21 16 33q17 12 29 12h113q17 0 31 -14t14 -31v-1014zM856 823q16 0 29 13q58 73 83 157t25 185q0 54 -37 91q-38 38 -88 38q-51 0 -89 -38
t-38 -91q0 -30 12 -52q14 -26 28 -39q18 -16 38 -25q21 -9 39 -9q14 0 14 -15q0 -23 -23 -68t-46 -83q-5 -8 -9 -19q-3 -8 -3 -18q0 -12 9 -19q10 -8 21 -8h35z" />
    <glyph glyph-name="Ldot" unicode="&#x13f;" horiz-adv-x="1085" 
d="M367 248q0 -17 10 -30t33 -13h528q24 0 35 -17q10 -16 10 -28v-113q0 -19 -13 -33t-32 -14h-729q-13 0 -29 12t-16 35v1215q0 21 16 33q17 12 29 12h113q17 0 31 -14t14 -31v-1014zM901 754q19 0 32 -15q13 -14 13 -32v-113q0 -13 -10 -29t-35 -16h-119q-18 0 -31 14
q-14 16 -14 33v113q0 11 11 28t34 17h119z" />
    <glyph glyph-name="ldot" unicode="&#x140;" horiz-adv-x="1085" 
d="M367 248q0 -17 10 -30t33 -13h528q24 0 35 -17q10 -16 10 -28v-113q0 -19 -13 -33t-32 -14h-729q-13 0 -29 12t-16 35v1215q0 21 16 33q17 12 29 12h113q17 0 31 -14t14 -31v-1014zM901 754q19 0 32 -15q13 -14 13 -32v-113q0 -13 -10 -29t-35 -16h-119q-18 0 -31 14
q-14 16 -14 33v113q0 11 11 28t34 17h119z" />
    <glyph glyph-name="Lslash" unicode="&#x141;" horiz-adv-x="1150" 
d="M432 819q0 -38 37 -22l238 110q16 7 34 0q20 -8 27 -24l31 -64q4 -10 2 -32q-1 -18 -25 -29l-307 -144q-37 -16 -37 -59v-307q0 -17 10 -30t33 -13h529q23 0 34 -17t11 -28v-113q0 -17 -14 -33q-13 -14 -31 -14h-730q-12 0 -28 12q-17 12 -17 35v414q0 40 -36 24l-80 -36
q-17 -8 -35 0q-20 8 -27 24l-31 64q0 4 1.5 13.5t1.5 16.5q1 20 20 31l150 70q36 14 36 57v537q0 21 17 33t28 12h113q18 0 32 -14q13 -13 13 -31v-443z" />
    <glyph glyph-name="lslash" unicode="&#x142;" horiz-adv-x="1150" 
d="M432 819q0 -38 37 -22l238 110q16 7 34 0q20 -8 27 -24l31 -64q4 -10 2 -32q-1 -18 -25 -29l-307 -144q-37 -16 -37 -59v-307q0 -17 10 -30t33 -13h529q23 0 34 -17t11 -28v-113q0 -17 -14 -33q-13 -14 -31 -14h-730q-12 0 -28 12q-17 12 -17 35v414q0 40 -36 24l-80 -36
q-17 -8 -35 0q-20 8 -27 24l-31 64q0 4 1.5 13.5t1.5 16.5q1 20 20 31l150 70q36 14 36 57v537q0 21 17 33t28 12h113q18 0 32 -14q13 -13 13 -31v-443z" />
    <glyph glyph-name="Nacute" unicode="&#x143;" horiz-adv-x="1310" 
d="M449 791q-14 20 -39 20q-19 0 -32 -13t-13 -32v-719q0 -17 -13 -33q-11 -14 -30 -14h-113q-16 0 -31 12q-14 11 -14 35v1215q0 18 13 31q14 14 32 14h131q26 0 41 -21l479 -770q14 -20 39 -20q20 0 32 13q11 12 11 32v721q0 21 16 33t29 12h113q17 0 33 -14
q14 -13 14 -31v-1215q0 -21 -14 -34t-33 -13h-133q-22 0 -37 23zM659 1694q12 16 35 16h105q20 0 32 -12q13 -13 13 -31t-13 -31l-174 -206q-12 -17 -34 -17h-105q-18 0 -32 12q-13 12 -13 31t12 31z" />
    <glyph glyph-name="nacute" unicode="&#x144;" horiz-adv-x="1310" 
d="M449 791q-14 20 -39 20q-19 0 -32 -13t-13 -32v-719q0 -17 -13 -33q-11 -14 -30 -14h-113q-16 0 -31 12q-14 11 -14 35v1215q0 18 13 31q14 14 32 14h131q26 0 41 -21l479 -770q14 -20 39 -20q20 0 32 13q11 12 11 32v721q0 21 16 33t29 12h113q17 0 33 -14
q14 -13 14 -31v-1215q0 -21 -14 -34t-33 -13h-133q-22 0 -37 23zM659 1694q12 16 35 16h105q20 0 32 -12q13 -13 13 -31t-13 -31l-174 -206q-12 -17 -34 -17h-105q-18 0 -32 12q-13 12 -13 31t12 31z" />
    <glyph glyph-name="Ncommaaccent" unicode="&#x145;" horiz-adv-x="1310" 
d="M449 791q-14 20 -39 20q-19 0 -32 -13t-13 -32v-719q0 -17 -13 -33q-11 -14 -30 -14h-113q-16 0 -31 12q-14 11 -14 35v1215q0 18 13 31q14 14 32 14h131q26 0 41 -21l479 -770q14 -20 39 -20q20 0 32 13q11 12 11 32v721q0 21 16 33t29 12h113q17 0 33 -14
q14 -13 14 -31v-1215q0 -21 -14 -34t-33 -13h-133q-22 0 -37 23zM578 -106q5 12 10 18q6 8 20 8h146q37 0 37 -33q0 -13 -11 -24l-139 -187q-10 -14 -29 -14h-61q-33 0 -33 31q0 16 6 28z" />
    <glyph glyph-name="ncommaaccent" unicode="&#x146;" horiz-adv-x="1310" 
d="M449 791q-14 20 -39 20q-19 0 -32 -13t-13 -32v-719q0 -17 -13 -33q-11 -14 -30 -14h-113q-16 0 -31 12q-14 11 -14 35v1215q0 18 13 31q14 14 32 14h131q26 0 41 -21l479 -770q14 -20 39 -20q20 0 32 13q11 12 11 32v721q0 21 16 33t29 12h113q17 0 33 -14
q14 -13 14 -31v-1215q0 -21 -14 -34t-33 -13h-133q-22 0 -37 23zM578 -106q5 12 10 18q6 8 20 8h146q37 0 37 -33q0 -13 -11 -24l-139 -187q-10 -14 -29 -14h-61q-33 0 -33 31q0 16 6 28z" />
    <glyph glyph-name="Ncaron" unicode="&#x147;" horiz-adv-x="1310" 
d="M449 791q-14 20 -39 20q-19 0 -32 -13t-13 -32v-719q0 -17 -13 -33q-11 -14 -30 -14h-113q-16 0 -31 12q-14 11 -14 35v1215q0 18 13 31q14 14 32 14h131q26 0 41 -21l479 -770q14 -20 39 -20q20 0 32 13q11 12 11 32v721q0 21 16 33t29 12h113q17 0 33 -14
q14 -13 14 -31v-1215q0 -21 -14 -34t-33 -13h-133q-22 0 -37 23zM616 1552q10 -20 39 -20q9 0 22 5q10 4 15 15l66 142q7 16 35 16h104q19 0 32 -12t13 -31t-12 -31l-174 -206q-12 -17 -35 -17h-133q-23 0 -35 17l-174 206q-12 12 -12 31t13 31q14 12 32 12h104q28 0 35 -16
z" />
    <glyph glyph-name="ncaron" unicode="&#x148;" horiz-adv-x="1310" 
d="M449 791q-14 20 -39 20q-19 0 -32 -13t-13 -32v-719q0 -17 -13 -33q-11 -14 -30 -14h-113q-16 0 -31 12q-14 11 -14 35v1215q0 18 13 31q14 14 32 14h131q26 0 41 -21l479 -770q14 -20 39 -20q20 0 32 13q11 12 11 32v721q0 21 16 33t29 12h113q17 0 33 -14
q14 -13 14 -31v-1215q0 -21 -14 -34t-33 -13h-133q-22 0 -37 23zM616 1552q10 -20 39 -20q9 0 22 5q10 4 15 15l66 142q7 16 35 16h104q19 0 32 -12t13 -31t-12 -31l-174 -206q-12 -17 -35 -17h-133q-23 0 -35 17l-174 206q-12 12 -12 31t13 31q14 12 32 12h104q28 0 35 -16
z" />
    <glyph glyph-name="napostrophe" unicode="&#x149;" horiz-adv-x="1310" 
d="M449 791q-14 20 -39 20q-19 0 -32 -13t-13 -32v-719q0 -17 -13 -33q-11 -14 -30 -14h-113q-16 0 -31 12q-14 11 -14 35v1215q0 18 13 31q14 14 32 14h131q26 0 41 -21l479 -770q14 -20 39 -20q20 0 32 13q11 12 11 32v721q0 21 16 33t29 12h113q17 0 33 -14
q14 -13 14 -31v-1215q0 -21 -14 -34t-33 -13h-133q-22 0 -37 23zM166 1628q6 14 10 19q6 8 21 8h145q37 0 37 -33q0 -15 -10 -25l-140 -186q-10 -14 -28 -14h-62q-33 0 -33 30q0 15 7 29z" />
    <glyph glyph-name="Eng" unicode="&#x14a;" horiz-adv-x="1310" 
d="M449 791q-14 20 -39 20q-19 0 -32 -13t-13 -32v-719q0 -17 -13 -33q-11 -14 -30 -14h-113q-16 0 -31 12q-14 11 -14 35v1215q0 18 13 31q14 14 32 14h131q26 0 41 -21l479 -770q14 -20 39 -20q20 0 32 13q11 12 11 32v721q0 21 16 33t29 12h113q17 0 33 -14
q14 -13 14 -31v-1223q0 -81 -33 -150q-33 -70 -85 -120q-53 -52 -122 -80q-70 -29 -143 -29q-16 0 -30 12q-13 12 -13 33v115q0 18 12 32q11 13 31 11q66 0 116 44t60 103q-5 1 -10 13z" />
    <glyph glyph-name="eng" unicode="&#x14b;" horiz-adv-x="1310" 
d="M449 791q-14 20 -39 20q-19 0 -32 -13t-13 -32v-719q0 -17 -13 -33q-11 -14 -30 -14h-113q-16 0 -31 12q-14 11 -14 35v1215q0 18 13 31q14 14 32 14h131q26 0 41 -21l479 -770q14 -20 39 -20q20 0 32 13q11 12 11 32v721q0 21 16 33t29 12h113q17 0 33 -14
q14 -13 14 -31v-1223q0 -81 -33 -150q-33 -70 -85 -120q-53 -52 -122 -80q-70 -29 -143 -29q-16 0 -30 12q-13 12 -13 33v115q0 18 12 32q11 13 31 11q66 0 116 44t60 103q-5 1 -10 13z" />
    <glyph glyph-name="Omacron" unicode="&#x14c;" 
d="M614 -2q-129 0 -229 52q-101 53 -170 141t-105 208q-36 119 -36 252q0 135 36 254q36 120 105 208t170 141t229 53q129 0 230 -53t170 -141t105 -208q36 -118 36 -254q0 -133 -36 -252q-36 -120 -105 -208t-170 -141q-100 -52 -230 -52zM614 201q88 0 152 38t105 100
q43 64 63 144q20 79 20 170t-20 170q-21 82 -63 145q-40 61 -105 99q-62 37 -152 37q-87 0 -151 -38q-65 -39 -106 -100t-62 -145q-21 -83 -21 -168t21 -168t61 -145q40 -63 106 -101q65 -38 152 -38zM942 1511q0 -16 -13 -29q-14 -14 -30 -14h-567q-22 0 -34 14
q-11 12 -11 29v72q0 17 11 31t34 14h567q17 0 30 -13t13 -32v-72z" />
    <glyph glyph-name="omacron" unicode="&#x14d;" 
d="M614 -2q-129 0 -229 52q-101 53 -170 141t-105 208q-36 119 -36 252q0 135 36 254q36 120 105 208t170 141t229 53q129 0 230 -53t170 -141t105 -208q36 -118 36 -254q0 -133 -36 -252q-36 -120 -105 -208t-170 -141q-100 -52 -230 -52zM614 201q88 0 152 38t105 100
q43 64 63 144q20 79 20 170t-20 170q-21 82 -63 145q-40 61 -105 99q-62 37 -152 37q-87 0 -151 -38q-65 -39 -106 -100t-62 -145q-21 -83 -21 -168t21 -168t61 -145q40 -63 106 -101q65 -38 152 -38zM942 1511q0 -16 -13 -29q-14 -14 -30 -14h-567q-22 0 -34 14
q-11 12 -11 29v72q0 17 11 31t34 14h567q17 0 30 -13t13 -32v-72z" />
    <glyph glyph-name="Obreve" unicode="&#x14e;" 
d="M614 -2q-129 0 -229 52q-101 53 -170 141t-105 208q-36 119 -36 252q0 135 36 254q36 120 105 208t170 141t229 53q129 0 230 -53t170 -141t105 -208q36 -118 36 -254q0 -133 -36 -252q-36 -120 -105 -208t-170 -141q-100 -52 -230 -52zM614 201q88 0 152 38t105 100
q43 64 63 144q20 79 20 170t-20 170q-21 82 -63 145q-40 61 -105 99q-62 37 -152 37q-87 0 -151 -38q-65 -39 -106 -100t-62 -145q-21 -83 -21 -168t21 -168t61 -145q40 -63 106 -101q65 -38 152 -38zM614 1386q-47 0 -102 19q-51 18 -96 50q-43 31 -71 76t-28 95
q0 16 15 30q14 13 30 13h62q18 0 29 -10q13 -11 14 -27q5 -25 18 -43q15 -20 35 -35q20 -14 45 -22q26 -8 49 -8q48 0 93 30q44 29 55 78q5 18 15 27q11 10 28 10h61q17 0 31 -13t14 -30q0 -52 -27 -95q-28 -45 -71 -76q-45 -32 -96 -50q-55 -19 -103 -19z" />
    <glyph glyph-name="obreve" unicode="&#x14f;" 
d="M614 -2q-129 0 -229 52q-101 53 -170 141t-105 208q-36 119 -36 252q0 135 36 254q36 120 105 208t170 141t229 53q129 0 230 -53t170 -141t105 -208q36 -118 36 -254q0 -133 -36 -252q-36 -120 -105 -208t-170 -141q-100 -52 -230 -52zM614 201q88 0 152 38t105 100
q43 64 63 144q20 79 20 170t-20 170q-21 82 -63 145q-40 61 -105 99q-62 37 -152 37q-87 0 -151 -38q-65 -39 -106 -100t-62 -145q-21 -83 -21 -168t21 -168t61 -145q40 -63 106 -101q65 -38 152 -38zM614 1386q-47 0 -102 19q-51 18 -96 50q-43 31 -71 76t-28 95
q0 16 15 30q14 13 30 13h62q18 0 29 -10q13 -11 14 -27q5 -25 18 -43q15 -20 35 -35q20 -14 45 -22q26 -8 49 -8q48 0 93 30q44 29 55 78q5 18 15 27q11 10 28 10h61q17 0 31 -13t14 -30q0 -52 -27 -95q-28 -45 -71 -76q-45 -32 -96 -50q-55 -19 -103 -19z" />
    <glyph glyph-name="Ohungarumlaut" unicode="&#x150;" 
d="M614 -2q-129 0 -229 52q-101 53 -170 141t-105 208q-36 119 -36 252q0 135 36 254q36 120 105 208t170 141t229 53q129 0 230 -53t170 -141t105 -208q36 -118 36 -254q0 -133 -36 -252q-36 -120 -105 -208t-170 -141q-100 -52 -230 -52zM614 201q88 0 152 38t105 100
q43 64 63 144q20 79 20 170t-20 170q-21 82 -63 145q-40 61 -105 99q-62 37 -152 37q-87 0 -151 -38q-65 -39 -106 -100t-62 -145q-21 -83 -21 -168t21 -168t61 -145q40 -63 106 -101q65 -38 152 -38zM502 1694q12 16 35 16h104q21 0 33 -12t12 -31t-12 -31l-174 -206
q-12 -17 -35 -17h-64q-17 0 -31 12t-14 31q0 12 4 17q3 4 9 14zM827 1694q12 16 35 16h105q20 0 32 -12q13 -13 13 -31t-13 -31l-174 -206q-12 -17 -34 -17h-64q-19 0 -32 12t-13 31q0 12 4 17q2 2 4.5 7l3.5 7z" />
    <glyph glyph-name="ohungarumlaut" unicode="&#x151;" 
d="M614 -2q-129 0 -229 52q-101 53 -170 141t-105 208q-36 119 -36 252q0 135 36 254q36 120 105 208t170 141t229 53q129 0 230 -53t170 -141t105 -208q36 -118 36 -254q0 -133 -36 -252q-36 -120 -105 -208t-170 -141q-100 -52 -230 -52zM614 201q88 0 152 38t105 100
q43 64 63 144q20 79 20 170t-20 170q-21 82 -63 145q-40 61 -105 99q-62 37 -152 37q-87 0 -151 -38q-65 -39 -106 -100t-62 -145q-21 -83 -21 -168t21 -168t61 -145q40 -63 106 -101q65 -38 152 -38zM432 1694q12 16 35 16h104q21 0 33 -12t12 -31t-12 -31l-174 -206
q-12 -17 -35 -17h-63q-18 0 -32 12q-13 12 -13 31q0 12 4 17q2 2 4.5 7l3.5 7zM758 1694q12 16 35 16h104q21 0 33 -12t12 -31t-12 -31l-174 -206q-12 -17 -35 -17h-64q-17 0 -31 12t-14 31q0 12 4 17q3 4 9 14z" />
    <glyph glyph-name="OE" unicode="&#x152;" horiz-adv-x="1822" 
d="M1149 553q-11 -101 -42 -189q-31 -87 -85 -161l633 2q24 0 35 -17q10 -16 10 -28v-113q0 -19 -13 -33t-32 -14h-1041q-128 0 -229 51t-170 140q-69 88 -105 208q-36 119 -36 252q0 135 36 254q36 120 105 208t170 141t229 53h1041q18 0 32 -14q13 -13 13 -31v-111
q0 -23 -13 -35t-32 -12h-635q106 -147 129 -350h424q17 0 32 -13q13 -12 13 -30v-113q0 -17 -11 -31t-34 -14h-424zM614 201q88 0 152 38t105 100q43 64 63 144q20 79 20 170t-20 170q-21 82 -63 145q-40 61 -105 99q-62 37 -152 37q-87 0 -151 -38q-65 -39 -106 -100
t-62 -145q-21 -83 -21 -168t21 -168t61 -145q40 -63 106 -101q65 -38 152 -38z" />
    <glyph glyph-name="oe" unicode="&#x153;" horiz-adv-x="1822" 
d="M1149 553q-11 -101 -42 -189q-31 -87 -85 -161l633 2q24 0 35 -17q10 -16 10 -28v-113q0 -19 -13 -33t-32 -14h-1041q-128 0 -229 51t-170 140q-69 88 -105 208q-36 119 -36 252q0 135 36 254q36 120 105 208t170 141t229 53h1041q18 0 32 -14q13 -13 13 -31v-111
q0 -23 -13 -35t-32 -12h-635q106 -147 129 -350h424q17 0 32 -13q13 -12 13 -30v-113q0 -17 -11 -31t-34 -14h-424zM614 201q88 0 152 38t105 100q43 64 63 144q20 79 20 170t-20 170q-21 82 -63 145q-40 61 -105 99q-62 37 -152 37q-87 0 -151 -38q-65 -39 -106 -100
t-62 -145q-21 -83 -21 -168t21 -168t61 -145q40 -63 106 -101q65 -38 152 -38z" />
    <glyph glyph-name="Racute" unicode="&#x154;" horiz-adv-x="1187" 
d="M705 788q30 0 61 13q28 12 50 34q23 23 34 51q12 30 12 62q0 66 -46 112t-111 46h-291q-23 0 -34 -14t-11 -33v-223q0 -19 11 -33q12 -15 34 -15h291zM1053 74l8 -13q4 -5 4 -16q0 -19 -14 -32t-33 -13h-146q-18 0 -34 16l-389 680q-13 19 -33 19q-22 0 -35 -16
q-12 -15 -12 -29v-625q0 -17 -13 -32q-12 -13 -30 -13h-117q-17 0 -31 11t-14 34v1219q0 19 14 30q16 13 31 13h496q73 0 141 -28q64 -26 115 -77q49 -49 76 -115q28 -68 28 -139q0 -63 -19 -117q-19 -55 -54 -100q-36 -47 -80 -78q-46 -33 -101 -49q-17 -5 -31 -16t-14 -31
q0 -11 7 -19q5 -6 13 -20zM598 1694q12 16 35 16h104q21 0 33 -12t12 -31t-12 -31l-174 -206q-12 -17 -35 -17h-104q-19 0 -32 12t-13 31t12 31z" />
    <glyph glyph-name="racute" unicode="&#x155;" horiz-adv-x="1187" 
d="M705 788q30 0 61 13q28 12 50 34q23 23 34 51q12 30 12 62q0 66 -46 112t-111 46h-291q-23 0 -34 -14t-11 -33v-223q0 -19 11 -33q12 -15 34 -15h291zM1053 74l8 -13q4 -5 4 -16q0 -19 -14 -32t-33 -13h-146q-18 0 -34 16l-389 680q-13 19 -33 19q-22 0 -35 -16
q-12 -15 -12 -29v-625q0 -17 -13 -32q-12 -13 -30 -13h-117q-17 0 -31 11t-14 34v1219q0 19 14 30q16 13 31 13h496q73 0 141 -28q64 -26 115 -77q49 -49 76 -115q28 -68 28 -139q0 -63 -19 -117q-19 -55 -54 -100q-36 -47 -80 -78q-46 -33 -101 -49q-17 -5 -31 -16t-14 -31
q0 -11 7 -19q5 -6 13 -20zM647 1694q12 16 35 16h104q21 0 33 -12t12 -31t-12 -31l-174 -206q-12 -17 -35 -17h-104q-18 0 -32 12q-13 12 -13 31t12 31z" />
    <glyph glyph-name="Rcommaaccent" unicode="&#x156;" horiz-adv-x="1187" 
d="M705 788q30 0 61 13q28 12 50 34q23 23 34 51q12 30 12 62q0 66 -46 112t-111 46h-291q-23 0 -34 -14t-11 -33v-223q0 -19 11 -33q12 -15 34 -15h291zM1053 74l8 -13q4 -5 4 -16q0 -19 -14 -32t-33 -13h-146q-18 0 -34 16l-389 680q-13 19 -33 19q-22 0 -35 -16
q-12 -15 -12 -29v-625q0 -17 -13 -32q-12 -13 -30 -13h-117q-17 0 -31 11t-14 34v1219q0 19 14 30q16 13 31 13h496q73 0 141 -28q64 -26 115 -77q49 -49 76 -115q28 -68 28 -139q0 -63 -19 -117q-19 -55 -54 -100q-36 -47 -80 -78q-46 -33 -101 -49q-17 -5 -31 -16t-14 -31
q0 -11 7 -19q5 -6 13 -20zM516 -106q5 12 10 18q6 8 21 8h145q37 0 37 -33q0 -14 -10 -24l-139 -187q-10 -14 -29 -14h-62q-32 0 -32 31q0 16 6 28z" />
    <glyph glyph-name="rcommaaccent" unicode="&#x157;" horiz-adv-x="1187" 
d="M705 788q30 0 61 13q28 12 50 34q23 23 34 51q12 30 12 62q0 66 -46 112t-111 46h-291q-23 0 -34 -14t-11 -33v-223q0 -19 11 -33q12 -15 34 -15h291zM1053 74l8 -13q4 -5 4 -16q0 -19 -14 -32t-33 -13h-146q-18 0 -34 16l-389 680q-13 19 -33 19q-22 0 -35 -16
q-12 -15 -12 -29v-625q0 -17 -13 -32q-12 -13 -30 -13h-117q-17 0 -31 11t-14 34v1219q0 19 14 30q16 13 31 13h496q73 0 141 -28q64 -26 115 -77q49 -49 76 -115q28 -68 28 -139q0 -63 -19 -117q-19 -55 -54 -100q-36 -47 -80 -78q-46 -33 -101 -49q-17 -5 -31 -16t-14 -31
q0 -11 7 -19q5 -6 13 -20zM516 -106q5 12 10 18q6 8 21 8h145q37 0 37 -33q0 -14 -10 -24l-139 -187q-10 -14 -29 -14h-62q-32 0 -32 31q0 16 6 28z" />
    <glyph glyph-name="Rcaron" unicode="&#x158;" horiz-adv-x="1187" 
d="M705 788q30 0 61 13q28 12 50 34q23 23 34 51q12 30 12 62q0 66 -46 112t-111 46h-291q-23 0 -34 -14t-11 -33v-223q0 -19 11 -33q12 -15 34 -15h291zM1053 74l8 -13q4 -5 4 -16q0 -19 -14 -32t-33 -13h-146q-18 0 -34 16l-389 680q-13 19 -33 19q-22 0 -35 -16
q-12 -15 -12 -29v-625q0 -17 -13 -32q-12 -13 -30 -13h-117q-17 0 -31 11t-14 34v1219q0 19 14 30q16 13 31 13h496q73 0 141 -28q64 -26 115 -77q49 -49 76 -115q28 -68 28 -139q0 -63 -19 -117q-19 -55 -54 -100q-36 -47 -80 -78q-46 -33 -101 -49q-17 -5 -31 -16t-14 -31
q0 -11 7 -19q5 -6 13 -20zM510 1552q10 -20 39 -20q8 0 21 5q11 4 16 15l65 142q7 16 35 16h105q17 0 31 -12t14 -31q0 -18 -13 -31l-174 -206q-12 -17 -35 -17h-133q-23 0 -35 17l-174 206q-12 12 -12 31t13 31q14 12 32 12h105q27 0 34 -16z" />
    <glyph glyph-name="rcaron" unicode="&#x159;" horiz-adv-x="1187" 
d="M705 788q30 0 61 13q28 12 50 34q23 23 34 51q12 30 12 62q0 66 -46 112t-111 46h-291q-23 0 -34 -14t-11 -33v-223q0 -19 11 -33q12 -15 34 -15h291zM1053 74l8 -13q4 -5 4 -16q0 -19 -14 -32t-33 -13h-146q-18 0 -34 16l-389 680q-13 19 -33 19q-22 0 -35 -16
q-12 -15 -12 -29v-625q0 -17 -13 -32q-12 -13 -30 -13h-117q-17 0 -31 11t-14 34v1219q0 19 14 30q16 13 31 13h496q73 0 141 -28q64 -26 115 -77q49 -49 76 -115q28 -68 28 -139q0 -63 -19 -117q-19 -55 -54 -100q-36 -47 -80 -78q-46 -33 -101 -49q-17 -5 -31 -16t-14 -31
q0 -11 7 -19q5 -6 13 -20zM555 1552q10 -20 39 -20q8 0 21 5q11 4 16 15l65 142q7 16 35 16h105q18 0 31 -12q14 -12 14 -31q0 -18 -13 -31l-174 -206q-12 -17 -35 -17h-133q-22 0 -34 17l-175 206q-12 12 -12 31t13 31t32 12h105q27 0 34 -16z" />
    <glyph glyph-name="Sacute" unicode="&#x15a;" horiz-adv-x="1056" 
d="M526 553q-74 0 -144 29t-122 78q-54 51 -85 119q-32 70 -32 149q0 80 32 152q31 70 85 122q53 52 122 80q70 29 144 29q64 0 133 -26q67 -25 122 -71q56 -47 89 -107q35 -64 35 -136q0 -17 -14 -31t-31 -14h-112q-18 0 -29 10q-13 11 -17 27q-12 64 -62 105
q-49 40 -114 40q-38 0 -69 -14q-35 -16 -58 -39t-39 -58q-14 -31 -14 -67q0 -40 14 -69q15 -31 39 -55q21 -21 58 -38q31 -14 69 -14q79 0 154 -29q71 -27 130 -79q54 -47 90 -119q34 -68 34 -148q0 -84 -34 -153q-36 -74 -90 -122q-56 -50 -130 -79q-75 -29 -154 -29
q-68 0 -141 26t-130 71t-95 109q-37 62 -37 136q0 17 14 30t31 13h113q16 0 30 -10q15 -11 15 -27q15 -66 71 -104q57 -39 129 -39q45 0 80 14q38 15 65 39t44 56q16 31 16 67q0 75 -59 125q-60 51 -146 51zM571 1694q12 16 35 16h105q20 0 32 -12q13 -13 13 -31t-13 -31
l-174 -206q-12 -17 -34 -17h-105q-18 0 -32 12q-13 12 -13 31t12 31z" />
    <glyph glyph-name="sacute" unicode="&#x15b;" horiz-adv-x="1056" 
d="M526 553q-74 0 -144 29t-122 78q-54 51 -85 119q-32 70 -32 149q0 80 32 152q31 70 85 122q53 52 122 80q70 29 144 29q64 0 133 -26q67 -25 122 -71q56 -47 89 -107q35 -64 35 -136q0 -17 -14 -31t-31 -14h-112q-18 0 -29 10q-13 11 -17 27q-12 64 -62 105
q-49 40 -114 40q-38 0 -69 -14q-35 -16 -58 -39t-39 -58q-14 -31 -14 -67q0 -40 14 -69q15 -31 39 -55q21 -21 58 -38q31 -14 69 -14q79 0 154 -29q71 -27 130 -79q54 -47 90 -119q34 -68 34 -148q0 -84 -34 -153q-36 -74 -90 -122q-56 -50 -130 -79q-75 -29 -154 -29
q-68 0 -141 26t-130 71t-95 109q-37 62 -37 136q0 17 14 30t31 13h113q16 0 30 -10q15 -11 15 -27q15 -66 71 -104q57 -39 129 -39q45 0 80 14q38 15 65 39t44 56q16 31 16 67q0 75 -59 125q-60 51 -146 51zM571 1694q12 16 35 16h105q20 0 32 -12q13 -13 13 -31t-13 -31
l-174 -206q-12 -17 -34 -17h-105q-18 0 -32 12q-13 12 -13 31t12 31z" />
    <glyph glyph-name="Scircumflex" unicode="&#x15c;" horiz-adv-x="1056" 
d="M526 553q-74 0 -144 29t-122 78q-54 51 -85 119q-32 70 -32 149q0 80 32 152q31 70 85 122q53 52 122 80q70 29 144 29q64 0 133 -26q67 -25 122 -71q56 -47 89 -107q35 -64 35 -136q0 -17 -14 -31t-31 -14h-112q-18 0 -29 10q-13 11 -17 27q-12 64 -62 105
q-49 40 -114 40q-38 0 -69 -14q-35 -16 -58 -39t-39 -58q-14 -31 -14 -67q0 -40 14 -69q15 -31 39 -55q21 -21 58 -38q31 -14 69 -14q79 0 154 -29q71 -27 130 -79q54 -47 90 -119q34 -68 34 -148q0 -84 -34 -153q-36 -74 -90 -122q-56 -50 -130 -79q-75 -29 -154 -29
q-68 0 -141 26t-130 71t-95 109q-37 62 -37 136q0 17 14 30t31 13h113q16 0 30 -10q15 -11 15 -27q15 -66 71 -104q57 -39 129 -39q45 0 80 14q38 15 65 39t44 56q16 31 16 67q0 75 -59 125q-60 51 -146 51zM424 1430q-8 -17 -35 -17h-104q-19 0 -32 12t-13 31t12 31
l174 207q12 16 35 16h133q23 0 35 -16l174 -207q12 -12 12 -31t-13 -31q-14 -12 -32 -12h-104q-27 0 -35 17l-66 141q-5 11 -15 15q-13 5 -22 5q-29 0 -39 -20z" />
    <glyph glyph-name="scircumflex" unicode="&#x15d;" horiz-adv-x="1056" 
d="M526 553q-74 0 -144 29t-122 78q-54 51 -85 119q-32 70 -32 149q0 80 32 152q31 70 85 122q53 52 122 80q70 29 144 29q64 0 133 -26q67 -25 122 -71q56 -47 89 -107q35 -64 35 -136q0 -17 -14 -31t-31 -14h-112q-18 0 -29 10q-13 11 -17 27q-12 64 -62 105
q-49 40 -114 40q-38 0 -69 -14q-35 -16 -58 -39t-39 -58q-14 -31 -14 -67q0 -40 14 -69q15 -31 39 -55q21 -21 58 -38q31 -14 69 -14q79 0 154 -29q71 -27 130 -79q54 -47 90 -119q34 -68 34 -148q0 -84 -34 -153q-36 -74 -90 -122q-56 -50 -130 -79q-75 -29 -154 -29
q-68 0 -141 26t-130 71t-95 109q-37 62 -37 136q0 17 14 30t31 13h113q16 0 30 -10q15 -11 15 -27q15 -66 71 -104q57 -39 129 -39q45 0 80 14q38 15 65 39t44 56q16 31 16 67q0 75 -59 125q-60 51 -146 51zM424 1430q-8 -17 -35 -17h-104q-19 0 -32 12t-13 31t12 31
l174 207q12 16 35 16h133q23 0 35 -16l174 -207q12 -12 12 -31t-13 -31q-14 -12 -32 -12h-104q-27 0 -35 17l-66 141q-5 11 -15 15q-13 5 -22 5q-29 0 -39 -20z" />
    <glyph glyph-name="Scedilla" unicode="&#x15e;" horiz-adv-x="1056" 
d="M526 553q-74 0 -144 29t-122 78q-54 51 -85 119q-32 70 -32 149q0 80 32 152q31 70 85 122q53 52 122 80q70 29 144 29q64 0 133 -26q67 -25 122 -71q56 -47 89 -107q35 -64 35 -136q0 -17 -14 -31t-31 -14h-112q-18 0 -29 10q-13 11 -17 27q-12 64 -62 105
q-49 40 -114 40q-38 0 -69 -14q-35 -16 -58 -39t-39 -58q-14 -31 -14 -67q0 -40 14 -69q15 -31 39 -55q21 -21 58 -38q31 -14 69 -14q79 0 154 -29q71 -27 130 -79q54 -47 90 -119q34 -68 34 -148q0 -66 -23 -126q-24 -62 -62 -107q-39 -46 -92 -81q-54 -35 -114 -53
l111 -303q8 -23 -14 -35q-21 -12 -31 -12h-361q-22 0 -33 14q-12 15 -12 33v72q0 10 9 28q8 17 36 17h119q18 0 38 5q17 4 5 38l-49 131q-66 11 -124 40q-62 31 -109 75q-48 45 -76 101q-29 58 -29 122q0 17 14 30t31 13h113q16 0 30 -10q15 -11 15 -27q15 -66 71 -104
q57 -39 129 -39q45 0 80 14q38 15 65 39t44 56q16 31 16 67q0 75 -59 125q-60 51 -146 51z" />
    <glyph glyph-name="scedilla" unicode="&#x15f;" horiz-adv-x="1056" 
d="M526 553q-74 0 -144 29t-122 78q-54 51 -85 119q-32 70 -32 149q0 80 32 152q31 70 85 122q53 52 122 80q70 29 144 29q64 0 133 -26q67 -25 122 -71q56 -47 89 -107q35 -64 35 -136q0 -17 -14 -31t-31 -14h-112q-18 0 -29 10q-13 11 -17 27q-12 64 -62 105
q-49 40 -114 40q-38 0 -69 -14q-35 -16 -58 -39t-39 -58q-14 -31 -14 -67q0 -40 14 -69q15 -31 39 -55q21 -21 58 -38q31 -14 69 -14q79 0 154 -29q71 -27 130 -79q54 -47 90 -119q34 -68 34 -148q0 -66 -23 -126q-24 -62 -62 -107q-39 -46 -92 -81q-54 -35 -114 -53
l111 -303q8 -23 -14 -35q-21 -12 -31 -12h-361q-22 0 -33 14q-12 15 -12 33v72q0 10 9 28q8 17 36 17h119q18 0 38 5q17 4 5 38l-49 131q-66 11 -124 40q-62 31 -109 75q-48 45 -76 101q-29 58 -29 122q0 17 14 30t31 13h113q16 0 30 -10q15 -11 15 -27q15 -66 71 -104
q57 -39 129 -39q45 0 80 14q38 15 65 39t44 56q16 31 16 67q0 75 -59 125q-60 51 -146 51z" />
    <glyph glyph-name="Scaron" unicode="&#x160;" horiz-adv-x="1056" 
d="M526 553q-74 0 -144 29t-122 78q-54 51 -85 119q-32 70 -32 149q0 80 32 152q31 70 85 122q53 52 122 80q70 29 144 29q64 0 133 -26q67 -25 122 -71q56 -47 89 -107q35 -64 35 -136q0 -17 -14 -31t-31 -14h-112q-18 0 -29 10q-13 11 -17 27q-12 64 -62 105
q-49 40 -114 40q-38 0 -69 -14q-35 -16 -58 -39t-39 -58q-14 -31 -14 -67q0 -40 14 -69q15 -31 39 -55q21 -21 58 -38q31 -14 69 -14q79 0 154 -29q71 -27 130 -79q54 -47 90 -119q34 -68 34 -148q0 -84 -34 -153q-36 -74 -90 -122q-56 -50 -130 -79q-75 -29 -154 -29
q-68 0 -141 26t-130 71t-95 109q-37 62 -37 136q0 17 14 30t31 13h113q16 0 30 -10q15 -11 15 -27q15 -66 71 -104q57 -39 129 -39q45 0 80 14q38 15 65 39t44 56q16 31 16 67q0 75 -59 125q-60 51 -146 51zM489 1552q10 -20 39 -20q9 0 22 5q10 4 15 15l66 142q7 16 35 16
h104q18 0 32 -12q13 -12 13 -31t-12 -31l-174 -206q-12 -17 -35 -17h-133q-23 0 -35 17l-174 206q-12 12 -12 31t13 31q14 12 32 12h104q28 0 35 -16z" />
    <glyph glyph-name="scaron" unicode="&#x161;" horiz-adv-x="1056" 
d="M526 553q-74 0 -144 29t-122 78q-54 51 -85 119q-32 70 -32 149q0 80 32 152q31 70 85 122q53 52 122 80q70 29 144 29q64 0 133 -26q67 -25 122 -71q56 -47 89 -107q35 -64 35 -136q0 -17 -14 -31t-31 -14h-112q-18 0 -29 10q-13 11 -17 27q-12 64 -62 105
q-49 40 -114 40q-38 0 -69 -14q-35 -16 -58 -39t-39 -58q-14 -31 -14 -67q0 -40 14 -69q15 -31 39 -55q21 -21 58 -38q31 -14 69 -14q79 0 154 -29q71 -27 130 -79q54 -47 90 -119q34 -68 34 -148q0 -84 -34 -153q-36 -74 -90 -122q-56 -50 -130 -79q-75 -29 -154 -29
q-68 0 -141 26t-130 71t-95 109q-37 62 -37 136q0 17 14 30t31 13h113q16 0 30 -10q15 -11 15 -27q15 -66 71 -104q57 -39 129 -39q45 0 80 14q38 15 65 39t44 56q16 31 16 67q0 75 -59 125q-60 51 -146 51zM489 1552q10 -20 39 -20q9 0 22 5q10 4 15 15l66 142q7 16 35 16
h104q18 0 32 -12q13 -12 13 -31t-12 -31l-174 -206q-12 -17 -35 -17h-133q-23 0 -35 17l-174 206q-12 12 -12 31t13 31q14 12 32 12h104q28 0 35 -16z" />
    <glyph glyph-name="uni0162" unicode="&#x162;" horiz-adv-x="1024" 
d="M410 1059q0 20 -14 34q-13 13 -31 13h-259q-22 0 -33 14q-12 15 -12 31v113q0 13 12 28t33 15h812q14 0 30 -13q15 -12 15 -30v-113q0 -18 -14 -32q-13 -13 -31 -13h-261q-16 0 -30 -13q-15 -13 -15 -34v-1006l125 -344q8 -23 -13 -35t-32 -12h-360q-22 0 -33 14
q-12 15 -12 33v72q0 10 9 28q8 17 36 17h119q17 0 37 5q18 5 6 38l-50 131q-16 4 -25 16t-9 29v1014z" />
    <glyph glyph-name="uni0163" unicode="&#x163;" horiz-adv-x="1024" 
d="M410 1059q0 20 -14 34q-13 13 -31 13h-259q-22 0 -33 14q-12 15 -12 31v113q0 13 12 28t33 15h812q14 0 30 -13q15 -12 15 -30v-113q0 -18 -14 -32q-13 -13 -31 -13h-261q-16 0 -30 -13q-15 -13 -15 -34v-1006l125 -344q8 -23 -13 -35t-32 -12h-360q-22 0 -33 14
q-12 15 -12 33v72q0 10 9 28q8 17 36 17h119q17 0 37 5q18 5 6 38l-50 131q-16 4 -25 16t-9 29v1014z" />
    <glyph glyph-name="Tcaron" unicode="&#x164;" horiz-adv-x="1024" 
d="M106 1106q-22 0 -33 14q-12 15 -12 31v113q0 13 12 28t33 15h812q14 0 30 -13q15 -12 15 -30v-113q0 -18 -14 -32q-13 -13 -31 -13h-261q-16 0 -30 -13q-15 -13 -15 -34v-1014q0 -18 -12 -32q-12 -13 -31 -13h-114q-23 0 -34 14t-11 31v1014q0 20 -14 34q-13 13 -31 13
h-259zM473 1552q10 -20 39 -20q9 0 22 5q10 4 15 15l65 142q7 16 35 16h105q18 0 31 -12q14 -12 14 -31q0 -18 -13 -31l-174 -206q-12 -17 -34 -17h-134q-22 0 -34 17l-174 206q-13 13 -13 31q0 19 14 31t31 12h105q28 0 35 -16z" />
    <glyph glyph-name="tcaron" unicode="&#x165;" horiz-adv-x="1024" 
d="M106 1106q-22 0 -33 14q-12 15 -12 31v113q0 13 12 28t33 15h812q14 0 30 -13q15 -12 15 -30v-113q0 -18 -14 -32q-13 -13 -31 -13h-261q-16 0 -30 -13q-15 -13 -15 -34v-1014q0 -18 -12 -32q-12 -13 -31 -13h-114q-23 0 -34 14t-11 31v1014q0 20 -14 34q-13 13 -31 13
h-259zM475 1552q10 -20 39 -20q9 0 22 5q10 4 15 15l65 142q7 16 35 16h105q18 0 31 -12q14 -12 14 -31q0 -18 -13 -31l-174 -206q-12 -17 -34 -17h-134q-22 0 -34 17l-174 206q-13 13 -13 31q0 19 14 31q13 12 31 12h105q28 0 35 -16z" />
    <glyph glyph-name="Tbar" unicode="&#x166;" horiz-adv-x="1024" 
d="M840 657q0 -15 -14 -29t-29 -14h-144q-41 0 -41 -41v-528q0 -18 -12 -32q-12 -13 -31 -13h-114q-23 0 -34 14t-11 31v528q0 41 -41 41h-140q-21 0 -33 14t-12 29v72q0 16 12 31q11 14 33 14h140q41 0 41 41v244q0 20 -14 34q-13 13 -31 13h-259q-22 0 -33 14
q-12 15 -12 31v113q0 13 12 28t33 15h812q14 0 30 -13q15 -12 15 -30v-113q0 -18 -14 -32q-13 -13 -31 -13h-261q-16 0 -30 -13q-15 -13 -15 -34v-244q0 -41 41 -41h144q16 0 29 -13q14 -14 14 -32v-72z" />
    <glyph glyph-name="tbar" unicode="&#x167;" horiz-adv-x="1024" 
d="M840 657q0 -15 -14 -29t-29 -14h-144q-41 0 -41 -41v-528q0 -18 -12 -32q-12 -13 -31 -13h-114q-23 0 -34 14t-11 31v528q0 41 -41 41h-140q-21 0 -33 14t-12 29v72q0 16 12 31q11 14 33 14h140q41 0 41 41v244q0 20 -14 34q-13 13 -31 13h-259q-22 0 -33 14
q-12 15 -12 31v113q0 13 12 28t33 15h812q14 0 30 -13q15 -12 15 -30v-113q0 -18 -14 -32q-13 -13 -31 -13h-261q-16 0 -30 -13q-15 -13 -15 -34v-244q0 -41 41 -41h144q16 0 29 -13q14 -14 14 -32v-72z" />
    <glyph glyph-name="Utilde" unicode="&#x168;" 
d="M864 1264q0 14 13 29q12 14 32 14h113q15 0 31 -13q14 -11 14 -30v-840q0 -87 -35 -166q-34 -77 -96 -136q-60 -57 -144 -92q-81 -34 -178 -34t-178 34q-83 35 -143 92q-62 59 -96 136q-35 79 -35 166v840q0 16 12 29q12 14 33 14h112q17 0 32 -13q14 -12 14 -30v-840
q0 -49 19 -88q21 -45 53 -72q37 -32 79 -49q45 -18 98 -18q52 0 98 18q43 17 80 49q32 27 53 72q19 39 19 88v840zM852 1647q6 6 18 6q17 0 24 -7l13 -14l56 -63q3 -3 5 -15q1 -10 -3 -14q-50 -62 -109 -99q-61 -38 -117 -38q-34 0 -63 13q-38 17 -60 31q-27 17 -55 31
q-26 13 -49 13q-36 0 -67 -27q-35 -30 -60 -55q-8 -8 -18 -8q-17 0 -24 7q-5 5 -13 15l-56 64q-10 14 -2 29q50 61 113 99q62 38 123 38q32 0 74 -13q40 -12 73 -38q27 -21 40 -28q18 -9 40 -9q33 0 62 26q32 29 55 56z" />
    <glyph glyph-name="utilde" unicode="&#x169;" 
d="M864 1264q0 14 13 29q12 14 32 14h113q15 0 31 -13q14 -11 14 -30v-840q0 -87 -35 -166q-34 -77 -96 -136q-60 -57 -144 -92q-81 -34 -178 -34t-178 34q-83 35 -143 92q-62 59 -96 136q-35 79 -35 166v840q0 16 12 29q12 14 33 14h112q17 0 32 -13q14 -12 14 -30v-840
q0 -49 19 -88q21 -45 53 -72q37 -32 79 -49q45 -18 98 -18q52 0 98 18q43 17 80 49q32 27 53 72q19 39 19 88v840zM852 1647q6 6 18 6q17 0 24 -7l13 -14l56 -63q3 -3 5 -15q1 -10 -3 -14q-50 -62 -109 -99q-61 -38 -117 -38q-34 0 -63 13q-38 17 -60 31q-27 17 -55 31
q-26 13 -49 13q-36 0 -67 -27q-35 -30 -60 -55q-8 -8 -18 -8q-17 0 -24 7q-5 5 -13 15l-56 64q-10 14 -2 29q50 61 113 99q62 38 123 38q32 0 74 -13q40 -12 73 -38q27 -21 40 -28q18 -9 40 -9q33 0 62 26q32 29 55 56z" />
    <glyph glyph-name="Umacron" unicode="&#x16a;" 
d="M864 1264q0 14 13 29q12 14 32 14h113q15 0 31 -13q14 -11 14 -30v-840q0 -87 -35 -166q-34 -77 -96 -136q-60 -57 -144 -92q-81 -34 -178 -34t-178 34q-83 35 -143 92q-62 59 -96 136q-35 79 -35 166v840q0 16 12 29q12 14 33 14h112q17 0 32 -13q14 -12 14 -30v-840
q0 -49 19 -88q21 -45 53 -72q37 -32 79 -49q45 -18 98 -18q52 0 98 18q43 17 80 49q32 27 53 72q19 39 19 88v840zM942 1511q0 -16 -13 -29q-14 -14 -30 -14h-567q-22 0 -34 14q-11 12 -11 29v72q0 17 11 31t34 14h567q17 0 30 -13t13 -32v-72z" />
    <glyph glyph-name="umacron" unicode="&#x16b;" 
d="M864 1264q0 14 13 29q12 14 32 14h113q15 0 31 -13q14 -11 14 -30v-840q0 -87 -35 -166q-34 -77 -96 -136q-60 -57 -144 -92q-81 -34 -178 -34t-178 34q-83 35 -143 92q-62 59 -96 136q-35 79 -35 166v840q0 16 12 29q12 14 33 14h112q17 0 32 -13q14 -12 14 -30v-840
q0 -49 19 -88q21 -45 53 -72q37 -32 79 -49q45 -18 98 -18q52 0 98 18q43 17 80 49q32 27 53 72q19 39 19 88v840zM942 1511q0 -16 -13 -29q-14 -14 -30 -14h-567q-22 0 -34 14q-11 12 -11 29v72q0 17 11 31t34 14h567q17 0 30 -13t13 -32v-72z" />
    <glyph glyph-name="Ubreve" unicode="&#x16c;" 
d="M864 1264q0 14 13 29q12 14 32 14h113q15 0 31 -13q14 -11 14 -30v-840q0 -87 -35 -166q-34 -77 -96 -136q-60 -57 -144 -92q-81 -34 -178 -34t-178 34q-83 35 -143 92q-62 59 -96 136q-35 79 -35 166v840q0 16 12 29q12 14 33 14h112q17 0 32 -13q14 -12 14 -30v-840
q0 -49 19 -88q21 -45 53 -72q37 -32 79 -49q45 -18 98 -18q52 0 98 18q43 17 80 49q32 27 53 72q19 39 19 88v840zM614 1386q-47 0 -102 19q-51 18 -96 50q-43 31 -71 76t-28 95q0 16 15 30q14 13 30 13h62q18 0 29 -10q13 -11 14 -27q5 -25 18 -43q15 -20 35 -35
q20 -14 45 -22q26 -8 49 -8q48 0 93 30q44 29 55 78q5 18 15 27q11 10 28 10h61q17 0 31 -13t14 -30q0 -52 -27 -95q-28 -45 -71 -76q-45 -32 -96 -50q-55 -19 -103 -19z" />
    <glyph glyph-name="ubreve" unicode="&#x16d;" 
d="M864 1264q0 14 13 29q12 14 32 14h113q15 0 31 -13q14 -11 14 -30v-840q0 -87 -35 -166q-34 -77 -96 -136q-60 -57 -144 -92q-81 -34 -178 -34t-178 34q-83 35 -143 92q-62 59 -96 136q-35 79 -35 166v840q0 16 12 29q12 14 33 14h112q17 0 32 -13q14 -12 14 -30v-840
q0 -49 19 -88q21 -45 53 -72q37 -32 79 -49q45 -18 98 -18q52 0 98 18q43 17 80 49q32 27 53 72q19 39 19 88v840zM614 1386q-47 0 -102 19q-51 18 -96 50q-43 31 -71 76t-28 95q0 16 15 30q14 13 30 13h62q18 0 29 -10q13 -11 14 -27q5 -25 18 -43q15 -20 35 -35
q20 -14 45 -22q26 -8 49 -8q48 0 93 30q44 29 55 78q5 18 15 27q11 10 28 10h61q17 0 31 -13t14 -30q0 -52 -27 -95q-28 -45 -71 -76q-45 -32 -96 -50q-55 -19 -103 -19z" />
    <glyph glyph-name="Uring" unicode="&#x16e;" 
d="M864 1264q0 14 13 29q12 14 32 14h113q15 0 31 -13q14 -11 14 -30v-840q0 -87 -35 -166q-34 -77 -96 -136q-60 -57 -144 -92q-81 -34 -178 -34t-178 34q-83 35 -143 92q-62 59 -96 136q-35 79 -35 166v840q0 16 12 29q12 14 33 14h112q17 0 32 -13q14 -12 14 -30v-840
q0 -49 19 -88q21 -45 53 -72q37 -32 79 -49q45 -18 98 -18q52 0 98 18q43 17 80 49q32 27 53 72q19 39 19 88v840zM856 1530q0 -52 -18 -95t-52 -77q-33 -33 -76 -51q-46 -19 -96 -19q-47 0 -93 19q-44 18 -77 51q-32 32 -52 77q-19 42 -19 95t19 95q20 45 52 77
q33 33 77 51q46 19 93 19q50 0 96 -19q43 -18 76 -51q34 -34 52 -77t18 -95zM731 1530q0 46 -35 83q-34 36 -82 36t-82 -36q-34 -35 -34 -83q0 -49 34 -83t82 -34t82 34q35 35 35 83z" />
    <glyph glyph-name="uring" unicode="&#x16f;" 
d="M864 1264q0 14 13 29q12 14 32 14h113q15 0 31 -13q14 -11 14 -30v-840q0 -87 -35 -166q-34 -77 -96 -136q-60 -57 -144 -92q-81 -34 -178 -34t-178 34q-83 35 -143 92q-62 59 -96 136q-35 79 -35 166v840q0 16 12 29q12 14 33 14h112q17 0 32 -13q14 -12 14 -30v-840
q0 -49 19 -88q21 -45 53 -72q37 -32 79 -49q45 -18 98 -18q52 0 98 18q43 17 80 49q32 27 53 72q19 39 19 88v840zM856 1530q0 -52 -18 -95t-52 -77q-33 -33 -76 -51q-46 -19 -96 -19q-47 0 -93 19q-44 18 -77 51q-32 32 -52 77q-19 42 -19 95t19 95q20 45 52 77
q33 33 77 51q46 19 93 19q50 0 96 -19q43 -18 76 -51q34 -34 52 -77t18 -95zM731 1530q0 46 -35 83q-34 36 -82 36t-82 -36q-34 -35 -34 -83q0 -49 34 -83t82 -34t82 34q35 35 35 83z" />
    <glyph glyph-name="Uhungarumlaut" unicode="&#x170;" 
d="M864 1264q0 14 13 29q12 14 32 14h113q15 0 31 -13q14 -11 14 -30v-840q0 -87 -35 -166q-34 -77 -96 -136q-60 -57 -144 -92q-81 -34 -178 -34t-178 34q-83 35 -143 92q-62 59 -96 136q-35 79 -35 166v840q0 16 12 29q12 14 33 14h112q17 0 32 -13q14 -12 14 -30v-840
q0 -49 19 -88q21 -45 53 -72q37 -32 79 -49q45 -18 98 -18q52 0 98 18q43 17 80 49q32 27 53 72q19 39 19 88v840zM537 1694q12 16 34 16h105q21 0 33 -12t12 -31t-12 -31l-174 -206q-12 -17 -35 -17h-64q-18 0 -32 12q-13 12 -13 31q0 12 4 17q2 2 4.5 7l3.5 7zM862 1694
q12 16 35 16h104q21 0 33 -12q13 -13 13 -31t-13 -31l-174 -206q-12 -17 -35 -17h-63q-19 0 -32 12t-13 31q0 12 4 17q2 2 4.5 7l3.5 7z" />
    <glyph glyph-name="uhungarumlaut" unicode="&#x171;" 
d="M864 1264q0 14 13 29q12 14 32 14h113q15 0 31 -13q14 -11 14 -30v-840q0 -87 -35 -166q-34 -77 -96 -136q-60 -57 -144 -92q-81 -34 -178 -34t-178 34q-83 35 -143 92q-62 59 -96 136q-35 79 -35 166v840q0 16 12 29q12 14 33 14h112q17 0 32 -13q14 -12 14 -30v-840
q0 -49 19 -88q21 -45 53 -72q37 -32 79 -49q45 -18 98 -18q52 0 98 18q43 17 80 49q32 27 53 72q19 39 19 88v840zM432 1694q12 16 35 16h104q21 0 33 -12t12 -31t-12 -31l-174 -206q-12 -17 -35 -17h-63q-18 0 -32 12q-13 12 -13 31q0 12 4 17q2 2 4.5 7l3.5 7zM758 1694
q12 16 35 16h104q21 0 33 -12t12 -31t-12 -31l-174 -206q-12 -17 -35 -17h-64q-17 0 -31 12t-14 31q0 12 4 17q3 4 9 14z" />
    <glyph glyph-name="Uogonek" unicode="&#x172;" 
d="M864 1264q0 14 13 29q12 14 32 14h113q15 0 31 -13q14 -11 14 -30v-840q0 -97 -44 -183q-42 -83 -118 -145l-82 -227q-12 -34 5 -38q20 -5 38 -5h119q27 0 36 -17q9 -18 9 -28v-72q0 -18 -12 -33q-11 -14 -33 -14h-360q-11 0 -32 12t-13 35l104 291q-11 -1 -35 -3
q-12 -1 -35 -1q-97 0 -178 34q-83 35 -143 92q-62 59 -96 136q-35 79 -35 166v840q0 16 12 29q12 14 33 14h112q17 0 32 -13q14 -12 14 -30v-840q0 -49 19 -88q21 -45 53 -72q37 -32 79 -49q45 -18 98 -18q52 0 98 18q43 17 80 49q32 27 53 72q19 39 19 88v840z" />
    <glyph glyph-name="uogonek" unicode="&#x173;" 
d="M864 1264q0 14 13 29q12 14 32 14h113q15 0 31 -13q14 -11 14 -30v-840q0 -97 -44 -183q-42 -83 -118 -145l-82 -227q-12 -34 5 -38q20 -5 38 -5h119q27 0 36 -17q9 -18 9 -28v-72q0 -18 -12 -33q-11 -14 -33 -14h-360q-11 0 -32 12t-13 35l104 291q-11 -1 -35 -3
q-12 -1 -35 -1q-97 0 -178 34q-83 35 -143 92q-62 59 -96 136q-35 79 -35 166v840q0 16 12 29q12 14 33 14h112q17 0 32 -13q14 -12 14 -30v-840q0 -49 19 -88q21 -45 53 -72q37 -32 79 -49q45 -18 98 -18q52 0 98 18q43 17 80 49q32 27 53 72q19 39 19 88v840z" />
    <glyph glyph-name="Wcircumflex" unicode="&#x174;" horiz-adv-x="1470" 
d="M836 1094q38 0 45 -33l116 -742q10 -34 37 -34t37 34l131 955q1 13 16 23t29 10h115q23 0 35 -15t12 -30q0 -6 -1 -8t-1 -5l-184 -1214q-6 -35 -43 -35h-271q-14 0 -26 9t-17 26l-94 692q-5 18 -14 26q-10 9 -23 9q-26 0 -37 -35l-94 -692q-5 -18 -16 -26q-12 -9 -27 -9
h-270q-37 0 -43 35l-185 1214q0 3 -1 6t-1 7q0 14 13 30q12 15 35 15h114q15 0 30 -10q14 -9 15 -23l131 -955q10 -34 37 -34t37 34l117 742q8 33 45 33h201zM631 1430q-8 -17 -35 -17h-104q-18 0 -32 12t-14 31q0 18 13 31l174 207q12 16 35 16h133q23 0 35 -16l174 -207
q12 -12 12 -31t-13 -31t-32 -12h-105q-26 0 -34 17l-66 141q-5 11 -15 15q-13 5 -22 5q-29 0 -39 -20z" />
    <glyph glyph-name="wcircumflex" unicode="&#x175;" horiz-adv-x="1470" 
d="M836 1094q38 0 45 -33l116 -742q10 -34 37 -34t37 34l131 955q1 13 16 23t29 10h115q23 0 35 -15t12 -30q0 -6 -1 -8t-1 -5l-184 -1214q-6 -35 -43 -35h-271q-14 0 -26 9t-17 26l-94 692q-5 18 -14 26q-10 9 -23 9q-26 0 -37 -35l-94 -692q-5 -18 -16 -26q-12 -9 -27 -9
h-270q-37 0 -43 35l-185 1214q0 3 -1 6t-1 7q0 14 13 30q12 15 35 15h114q15 0 30 -10q14 -9 15 -23l131 -955q10 -34 37 -34t37 34l117 742q8 33 45 33h201zM631 1430q-8 -17 -35 -17h-104q-18 0 -32 12t-14 31q0 18 13 31l174 207q12 16 35 16h133q23 0 35 -16l174 -207
q12 -12 12 -31t-13 -31t-32 -12h-105q-26 0 -34 17l-66 141q-5 11 -15 15q-13 5 -22 5q-29 0 -39 -20z" />
    <glyph glyph-name="Ycircumflex" unicode="&#x176;" horiz-adv-x="1083" 
d="M641 45q0 -18 -12 -32q-12 -13 -31 -13h-115q-20 0 -31 14q-12 15 -12 31v594q0 15 -6 25l-368 575q-5 7 -5 23q0 45 43 45h134q25 0 38 -19l228 -354q15 -23 37 -23t39 23l225 354q13 19 37 19h133q17 0 33 -13q14 -11 14 -30q0 -12 -8 -25l-367 -575q-6 -10 -6 -25
v-594zM436 1430q-8 -17 -35 -17h-104q-19 0 -32 12t-13 31t12 31l174 207q12 16 35 16h133q23 0 35 -16l174 -207q12 -12 12 -31t-13 -31q-14 -12 -32 -12h-104q-27 0 -35 17l-65 141q-5 11 -16 15q-13 5 -21 5q-29 0 -39 -20z" />
    <glyph glyph-name="ycircumflex" unicode="&#x177;" horiz-adv-x="1036" 
d="M225 1307q31 0 43 -29l185 -512q6 -15 13 -21q10 -8 28 -8q19 0 27 7q9 8 14 20l231 516q12 27 43 27h123q18 0 31 -13q12 -12 12 -30q0 -11 -2 -19l-543 -1218q-15 -27 -39 -27h-127q-20 0 -32 13q-11 12 -11 32q0 7 4 18l142 318q2 6 2 14q0 11 -2 19l-304 835
q-2 6 -2 17q0 16 12 28q13 13 31 13h121zM414 1430q-8 -17 -35 -17h-105q-18 0 -31 12q-14 12 -14 31q0 18 13 31l174 207q12 16 35 16h133q22 0 34 -16l175 -207q12 -12 12 -31t-13 -31q-14 -12 -32 -12h-105q-26 0 -34 17l-66 141q-5 11 -15 15q-13 5 -22 5q-29 0 -39 -20
z" />
    <glyph glyph-name="Ydieresis" unicode="&#x178;" horiz-adv-x="1083" 
d="M641 45q0 -18 -12 -32q-12 -13 -31 -13h-115q-20 0 -31 14q-12 15 -12 31v594q0 15 -6 25l-368 575q-5 7 -5 23q0 45 43 45h134q25 0 38 -19l228 -354q15 -23 37 -23t39 23l225 354q13 19 37 19h133q17 0 33 -13q14 -11 14 -30q0 -12 -8 -25l-367 -575q-6 -10 -6 -25
v-594zM477 1491q0 -17 -13 -30t-30 -13h-112q-22 0 -34 13t-12 30v92q0 16 12 31q11 14 34 14h112q17 0 30 -13t13 -32v-92zM809 1491q0 -17 -13 -30t-30 -13h-113q-21 0 -33 13t-12 30v92q0 16 12 31q11 14 33 14h113q17 0 30 -13t13 -32v-92z" />
    <glyph glyph-name="Zacute" unicode="&#x179;" 
d="M770 1016q14 20 14 43q0 21 -13 33t-32 12h-569q-23 0 -35 15t-12 28v115q0 18 14 31q16 14 33 14h889q20 0 34 -14q13 -13 13 -31v-134q0 -9 -5 -22q-4 -11 -11 -23l-631 -792q-15 -23 -15 -45q0 -21 14 -33t31 -12h570q17 0 33 -13q14 -11 14 -30v-113q0 -16 -12 -31
q-11 -14 -35 -14h-889q-19 0 -33 13t-14 32v131q0 11 5 24q2 5 11 21zM662 1694q12 16 34 16h105q21 0 33 -12t12 -31t-12 -31l-175 -206q-12 -17 -34 -17h-105q-18 0 -32 12q-13 12 -13 31t12 31z" />
    <glyph glyph-name="zacute" unicode="&#x17a;" 
d="M770 1016q14 20 14 43q0 21 -13 33t-32 12h-569q-23 0 -35 15t-12 28v115q0 18 14 31q16 14 33 14h889q20 0 34 -14q13 -13 13 -31v-134q0 -9 -5 -22q-4 -11 -11 -23l-631 -792q-15 -23 -15 -45q0 -21 14 -33t31 -12h570q17 0 33 -13q14 -11 14 -30v-113q0 -16 -12 -31
q-11 -14 -35 -14h-889q-19 0 -33 13t-14 32v131q0 11 5 24q2 5 11 21zM662 1694q12 16 34 16h105q21 0 33 -12t12 -31t-12 -31l-175 -206q-12 -17 -34 -17h-105q-18 0 -32 12q-13 12 -13 31t12 31z" />
    <glyph glyph-name="Zdotaccent" unicode="&#x17b;" 
d="M770 1016q14 20 14 43q0 21 -13 33t-32 12h-569q-23 0 -35 15t-12 28v115q0 18 14 31q16 14 33 14h889q20 0 34 -14q13 -13 13 -31v-134q0 -9 -5 -22q-4 -11 -11 -23l-631 -792q-15 -23 -15 -45q0 -21 14 -33t31 -12h570q17 0 33 -13q14 -11 14 -30v-113q0 -16 -12 -31
q-11 -14 -35 -14h-889q-19 0 -33 13t-14 32v131q0 11 5 24q2 5 11 21zM715 1491q0 -16 -14 -30q-13 -13 -29 -13h-113q-22 0 -34 13q-11 12 -11 30v92q0 17 11 31t34 14h113q16 0 29 -13q14 -14 14 -32v-92z" />
    <glyph glyph-name="zdotaccent" unicode="&#x17c;" 
d="M770 1016q14 20 14 43q0 21 -13 33t-32 12h-569q-23 0 -35 15t-12 28v115q0 18 14 31q16 14 33 14h889q20 0 34 -14q13 -13 13 -31v-134q0 -9 -5 -22q-4 -11 -11 -23l-631 -792q-15 -23 -15 -45q0 -21 14 -33t31 -12h570q17 0 33 -13q14 -11 14 -30v-113q0 -16 -12 -31
q-11 -14 -35 -14h-889q-19 0 -33 13t-14 32v131q0 11 5 24q2 5 11 21zM715 1491q0 -16 -14 -30q-13 -13 -29 -13h-113q-22 0 -34 13q-11 12 -11 30v92q0 17 11 31t34 14h113q16 0 29 -13q14 -14 14 -32v-92z" />
    <glyph glyph-name="Zcaron" unicode="&#x17d;" 
d="M770 1016q14 20 14 43q0 21 -13 33t-32 12h-569q-23 0 -35 15t-12 28v115q0 18 14 31q16 14 33 14h889q20 0 34 -14q13 -13 13 -31v-134q0 -9 -5 -22q-4 -11 -11 -23l-631 -792q-15 -23 -15 -45q0 -21 14 -33t31 -12h570q17 0 33 -13q14 -11 14 -30v-113q0 -16 -12 -31
q-11 -14 -35 -14h-889q-19 0 -33 13t-14 32v131q0 11 5 24q2 5 11 21zM575 1552q10 -20 39 -20q9 0 22 5q10 4 15 15l66 142q7 16 35 16h104q18 0 32 -12q13 -12 13 -31t-12 -31l-174 -206q-12 -17 -35 -17h-133q-23 0 -35 17l-174 206q-12 12 -12 31t13 31t32 12h104
q28 0 35 -16z" />
    <glyph glyph-name="zcaron" unicode="&#x17e;" 
d="M770 1016q14 20 14 43q0 21 -13 33t-32 12h-569q-23 0 -35 15t-12 28v115q0 18 14 31q16 14 33 14h889q20 0 34 -14q13 -13 13 -31v-134q0 -9 -5 -22q-4 -11 -11 -23l-631 -792q-15 -23 -15 -45q0 -21 14 -33t31 -12h570q17 0 33 -13q14 -11 14 -30v-113q0 -16 -12 -31
q-11 -14 -35 -14h-889q-19 0 -33 13t-14 32v131q0 11 5 24q2 5 11 21zM575 1552q10 -20 39 -20q9 0 22 5q10 4 15 15l66 142q7 16 35 16h104q18 0 32 -12q13 -12 13 -31t-12 -31l-174 -206q-12 -17 -35 -17h-133q-23 0 -35 17l-174 206q-12 12 -12 31t13 31t32 12h104
q28 0 35 -16z" />
    <glyph glyph-name="uni0182" unicode="&#x182;" 
d="M410 541q-22 0 -34 -15q-11 -14 -11 -30v-248q0 -18 11 -30q12 -13 34 -13h329q72 0 121 49t49 119q0 72 -49 120q-50 48 -121 48h-329zM365 791q0 -18 11 -30q12 -13 34 -13h329q73 0 142 -29q66 -28 117 -79q52 -52 81 -119q31 -71 31 -148q0 -78 -31 -148
q-29 -65 -81 -117q-51 -51 -117 -79q-69 -29 -142 -29h-532q-16 0 -31 12q-14 11 -14 35v1215q0 21 15 33t30 12h811q19 0 31 -14t12 -31v-115q0 -14 -10 -28q-11 -15 -33 -15h-610q-23 0 -33 -14t-10 -31v-268z" />
    <glyph glyph-name="uni0183" unicode="&#x183;" 
d="M410 541q-22 0 -34 -15q-11 -14 -11 -30v-248q0 -18 11 -30q12 -13 34 -13h329q72 0 121 49t49 119q0 72 -49 120q-50 48 -121 48h-329zM207 0q-16 0 -31 12q-14 11 -14 35v1215q0 21 15 33t30 12h811q19 0 31 -14t12 -31v-115q0 -14 -10 -28q-11 -15 -33 -15h-610
q-23 0 -33 -14t-10 -31v-354q0 -18 11 -30q12 -13 34 -13q21 0 33 13t12 30t11 29q12 14 34 14h239q73 0 142 -29q66 -28 117 -79q52 -52 81 -119q31 -71 31 -148q0 -78 -31 -148q-29 -65 -81 -117q-51 -51 -117 -79q-69 -29 -142 -29h-239q-22 0 -34 13q-11 12 -11 30
q0 17 -12 30t-33 13q-22 0 -34 -13q-11 -12 -11 -30q0 -17 -12 -30t-34 -13h-112z" />
    <glyph glyph-name="uni0186" unicode="&#x186;" horiz-adv-x="1187" 
d="M94 1079q72 109 187 169q113 59 241 59q130 0 235 -54q100 -51 169 -142q67 -88 102 -209q35 -122 35 -251t-35 -249q-34 -117 -103 -207q-71 -93 -169 -144q-101 -53 -232 -53q-128 0 -242 60t-188 167q-8 18 -8 25q0 19 16 35l86 73q8 13 29 13q10 0 23 -5
q11 -4 16 -18q44 -68 117 -109q71 -40 153 -40q92 0 154 40q63 41 103 104q41 66 59 145q18 81 18 165q0 86 -19 165q-20 82 -60 146t-103 103t-152 39q-82 0 -153 -40t-117 -110q-10 -18 -31 -22q-27 0 -37 12l-86 74q-16 12 -16 33q0 8 8 26z" />
    <glyph glyph-name="uni0189" unicode="&#x189;" horiz-adv-x="1249" 
d="M1085 428q0 -91 -33 -166q-35 -78 -91 -136q-55 -56 -137 -92q-78 -34 -167 -34h-428q-18 0 -31 13q-14 14 -14 32v463q0 41 -41 41h-77q-22 0 -33 14q-13 16 -13 33v113q0 11 11 28t35 17h77q41 0 41 41v469q0 22 15 32q16 11 30 11h428q88 0 166 -33t136 -91
q59 -59 93 -136q33 -75 33 -166v-453zM883 881q0 43 -19 86q-18 40 -49 71t-72 49q-43 19 -86 19h-223q-24 0 -35 -15q-10 -14 -10 -30v-266q0 -41 41 -41h246q21 0 33 -15t12 -32v-113q0 -13 -10 -29t-35 -16h-246q-41 0 -41 -41v-260q0 -19 11 -33t34 -14h223q47 0 88 18
t72 49q29 29 48 72q18 40 18 88v453z" />
    <glyph glyph-name="uni018B" unicode="&#x18b;" 
d="M487 541q-71 0 -120 -48q-50 -48 -50 -120q0 -69 50 -119q49 -49 120 -49h330q22 0 34 13q11 12 11 30v248q0 16 -11 30q-12 15 -34 15h-330zM862 1059q0 17 -10 31t-33 14h-610q-23 0 -33 15q-10 14 -10 28v115q0 18 12 31q12 14 31 14h811q15 0 30 -12t15 -33v-1215
q0 -24 -14 -35q-15 -12 -31 -12h-533q-72 0 -141 29q-67 29 -118 79q-52 52 -81 117q-30 67 -30 148q0 79 30 148q29 67 81 119q51 50 118 79q69 29 141 29h330q22 0 34 13q11 12 11 30v268z" />
    <glyph glyph-name="uni018C" unicode="&#x18c;" 
d="M487 541q-71 0 -120 -48q-50 -48 -50 -120q0 -69 50 -119q49 -49 120 -49h330q22 0 34 13q11 12 11 30v248q0 16 -11 30q-12 15 -34 15h-330zM907 0q-22 0 -34 13q-11 12 -11 30t-11 30q-12 13 -34 13t-34 -13q-11 -12 -11 -30t-11 -30q-12 -13 -34 -13h-240
q-72 0 -141 29q-67 29 -118 79q-52 52 -81 117q-30 67 -30 148q0 79 30 148q29 67 81 119q51 50 118 79q69 29 141 29h240q22 0 34 -14q11 -12 11 -29q0 -18 11 -30q12 -13 34 -13t34 13q11 12 11 30v354q0 17 -10 31t-33 14h-610q-23 0 -33 15q-10 14 -10 28v115
q0 18 12 31q12 14 31 14h811q15 0 30 -12t15 -33v-1215q0 -24 -14 -35q-15 -12 -31 -12h-113z" />
    <glyph glyph-name="uni018E" unicode="&#x18e;" horiz-adv-x="1187" 
d="M123 160q0 12 10 28q11 17 35 17h606q22 0 34 13q11 12 11 30v260q0 17 -13 31t-32 14h-524q-23 0 -34 14t-11 31v113q0 18 13 30q15 13 32 13h524q23 0 34 14t11 33v258q0 17 -11 31t-34 14h-606q-18 0 -32 12q-13 12 -13 35v111q0 18 13 31q14 14 32 14h811
q13 0 29 -12t16 -33v-1215q0 -23 -16 -35t-29 -12h-811q-19 0 -32 14t-13 33v113z" />
    <glyph glyph-name="uni018F" unicode="&#x18f;" horiz-adv-x="1222" 
d="M373 553q-19 0 -32 -14t-13 -31q0 -71 13 -126q14 -57 46 -97q35 -42 85 -64q51 -22 132 -22q62 0 110 24q46 23 82 67q33 41 56 98q22 57 33 120q4 21 -12 34q-14 11 -33 11h-467zM836 758q19 0 33 11q16 13 12 34q-12 60 -38 117q-25 55 -66 97q-39 40 -93 65
q-52 24 -121 24q-163 0 -270 -150q-6 -10 -10 -13q-6 -5 -21 -9q-27 0 -37 12l-86 74q-16 12 -16 31q0 15 8 28q77 114 190 170q116 58 246 58q127 0 229 -54q100 -53 167 -144q68 -92 102 -212q35 -123 35 -258q0 -125 -29 -243q-28 -115 -88 -203q-61 -90 -153 -142
q-94 -53 -224 -53q-156 0 -249 40q-95 40 -147 126q-52 84 -70 221q-17 128 -17 326q0 22 16 34q18 13 29 13h668z" />
    <glyph glyph-name="uni0190" unicode="&#x190;" horiz-adv-x="1015" 
d="M514 197q74 0 141 42q70 43 109 113q7 16 31 21q23 0 36 -13l87 -73q14 -7 14 -31q0 -20 -6 -27q-72 -111 -178 -172t-230 -61q-78 0 -148 30q-72 31 -125 79q-54 50 -86 119q-32 70 -32 149q0 69 35 134q34 64 82 118q12 7 12 28q0 15 -12 31q-48 54 -82 118
q-35 65 -35 132q0 78 32 148q32 69 86 119q55 50 125 80t148 30q122 0 230 -61q106 -60 178 -171q6 -12 6 -26q0 -22 -14 -33l-87 -74q-12 -12 -36 -12q-21 4 -31 22q-41 70 -108 111t-138 41q-42 0 -75 -13t-60 -37q-25 -22 -41 -56q-14 -29 -14 -66q0 -74 44 -127t105 -53
h129q19 0 31 -14q12 -13 12 -31v-115q0 -16 -10 -30q-11 -15 -33 -15h-129q-61 0 -105 -51q-44 -52 -44 -127q0 -35 15 -67t41 -56q26 -25 59 -39q32 -14 71 -14z" />
    <glyph glyph-name="florin" unicode="&#x192;" horiz-adv-x="1259" 
d="M375 506q0 15 -14 31q-13 14 -31 14h-162q-23 0 -34 14t-11 31v113q0 18 13 30q15 13 32 13h162q23 0 34 14t11 33v129q0 80 32 152q31 70 85 122t121 80q70 29 145 29q64 0 133 -26q67 -25 122 -71q56 -47 89 -107q35 -64 35 -136q0 -16 -15 -31q-14 -14 -30 -14h-113
q-18 0 -29 10t-16 27q-11 63 -63 105q-49 40 -113 40q-39 0 -70 -14q-33 -15 -57 -39q-23 -23 -39 -58q-14 -31 -14 -67v-129q0 -19 11 -33t34 -14h319q17 0 32 -13q13 -12 13 -30v-113q0 -17 -11 -31t-34 -14h-319q-19 0 -32 -14t-13 -31v-461q0 -81 -35 -151
q-36 -72 -91 -121q-58 -52 -130 -80q-75 -29 -154 -29q-22 0 -34 15q-11 14 -11 30v117q0 19 13 31q14 12 32 12q46 0 81 14q40 16 65 38q28 25 44 55q17 32 17 67v461z" />
    <glyph glyph-name="uni019F" unicode="&#x19f;" 
d="M614 -2q-129 0 -229 52q-101 53 -170 141t-105 208q-36 119 -36 252q0 135 36 254q36 120 105 208t170 141t229 53q129 0 230 -53t170 -141t105 -208q36 -118 36 -254q0 -133 -36 -252q-36 -120 -105 -208t-170 -141q-100 -52 -230 -52zM895 754q17 0 33 10t12 33
q-16 65 -41 119q-29 61 -66 98q-41 41 -95 65q-56 25 -124 25t-124 -25q-52 -23 -94 -65q-37 -37 -66 -98q-25 -54 -41 -119q-5 -23 12 -33q16 -10 33 -10h561zM334 549q-17 0 -33 -10q-17 -11 -12 -33q16 -67 41 -120q28 -59 66 -97q44 -44 94 -66q54 -24 124 -24t124 24
q52 23 95 66q38 38 66 97q25 53 41 120q4 22 -12 33q-16 10 -33 10h-561z" />
    <glyph glyph-name="Ohorn" unicode="&#x1a0;" horiz-adv-x="1482" 
d="M614 -2q-129 0 -229 52q-101 53 -170 141t-105 208q-36 119 -36 252q0 135 36 254q36 120 105 208t170 141t229 53q133 0 240 -58q106 -58 174 -155q90 0 171 51q82 51 128 141q8 16 15 17q10 2 16 2q8 0 13 -3q3 -2 9 -8l70 -59q12 -12 12 -27q0 -12 -6 -20
q-62 -111 -150 -175q-93 -67 -198 -79q47 -132 47 -283q0 -133 -36 -252q-36 -120 -105 -208t-170 -141q-100 -52 -230 -52zM614 201q88 0 152 38t105 100q43 64 63 144q20 79 20 170t-20 170q-21 82 -63 145q-40 61 -105 99q-62 37 -152 37q-87 0 -151 -38
q-65 -39 -106 -100t-62 -145q-21 -83 -21 -168t21 -168t61 -145q40 -63 106 -101q65 -38 152 -38z" />
    <glyph glyph-name="ohorn" unicode="&#x1a1;" horiz-adv-x="1482" 
d="M614 -2q-129 0 -229 52q-101 53 -170 141t-105 208q-36 119 -36 252q0 135 36 254q36 120 105 208t170 141t229 53q133 0 240 -58q106 -58 174 -155q90 0 171 51q82 51 128 141q8 16 15 17q10 2 16 2q8 0 13 -3q3 -2 9 -8l70 -59q12 -12 12 -27q0 -12 -6 -20
q-62 -111 -150 -175q-93 -67 -198 -79q47 -132 47 -283q0 -133 -36 -252q-36 -120 -105 -208t-170 -141q-100 -52 -230 -52zM614 201q88 0 152 38t105 100q43 64 63 144q20 79 20 170t-20 170q-21 82 -63 145q-40 61 -105 99q-62 37 -152 37q-87 0 -151 -38
q-65 -39 -106 -100t-62 -145q-21 -83 -21 -168t21 -168t61 -145q40 -63 106 -101q65 -38 152 -38z" />
    <glyph glyph-name="uni01A7" unicode="&#x1a7;" horiz-adv-x="1056" 
d="M530 553q-85 0 -145 -51q-59 -50 -59 -125q0 -35 15 -67q15 -31 43 -56q26 -23 66 -39q35 -14 80 -14q72 0 129 39t72 104q0 17 14 27t31 10h113q17 0 31 -13t14 -30q0 -74 -37 -136q-38 -64 -95 -109t-130 -71t-142 -26q-78 0 -153 29q-74 29 -130 79q-54 48 -90 122
q-34 69 -34 153q0 80 34 148q36 72 90 119q59 52 130 79q75 29 153 29q39 0 70 14q35 16 57 38q24 24 39 55t15 69q0 34 -15 67q-16 35 -39 58q-24 24 -57 39q-31 14 -70 14q-64 0 -113 -40q-52 -42 -63 -105q-5 -17 -16 -27t-29 -10h-112q-17 0 -31 14t-14 31q0 74 34 136
q33 60 89 107q55 46 122 71q69 26 133 26q75 0 145 -29q69 -28 122 -80q54 -52 85 -122q31 -69 31 -152q0 -81 -31 -149t-85 -119q-52 -49 -122 -78t-145 -29z" />
    <glyph glyph-name="uni01A8" unicode="&#x1a8;" horiz-adv-x="1056" 
d="M530 553q-85 0 -145 -51q-59 -50 -59 -125q0 -35 15 -67q15 -31 43 -56q26 -23 66 -39q35 -14 80 -14q72 0 129 39t72 104q0 17 14 27t31 10h113q17 0 31 -13t14 -30q0 -74 -37 -136q-38 -64 -95 -109t-130 -71t-142 -26q-78 0 -153 29q-74 29 -130 79q-54 48 -90 122
q-34 69 -34 153q0 80 34 148q36 72 90 119q59 52 130 79q75 29 153 29q39 0 70 14q35 16 57 38q24 24 39 55t15 69q0 34 -15 67q-16 35 -39 58q-24 24 -57 39q-31 14 -70 14q-64 0 -113 -40q-52 -42 -63 -105q-5 -17 -16 -27t-29 -10h-112q-17 0 -31 14t-14 31q0 74 34 136
q33 60 89 107q55 46 122 71q69 26 133 26q75 0 145 -29q69 -28 122 -80q54 -52 85 -122q31 -69 31 -152q0 -81 -31 -149t-85 -119q-52 -49 -122 -78t-145 -29z" />
    <glyph glyph-name="Uhorn" unicode="&#x1af;" horiz-adv-x="1482" 
d="M864 1264q0 14 13 29q12 14 32 14h113q15 0 31 -13q14 -11 14 -30v-170q77 0 148 51q72 52 112 141q8 16 15 17q10 2 16 2q8 0 13 -3q3 -2 9 -8l70 -59q12 -12 12 -27q0 -12 -6 -20q-67 -120 -169 -188t-220 -68v-508q0 -87 -35 -166q-34 -77 -96 -136q-60 -57 -144 -92
q-81 -34 -178 -34t-178 34q-83 35 -143 92q-62 59 -96 136q-35 79 -35 166v840q0 16 12 29q12 14 33 14h112q17 0 32 -13q14 -12 14 -30v-840q0 -49 19 -88q21 -45 53 -72q37 -32 79 -49q45 -18 98 -18q52 0 98 18q43 17 80 49q32 27 53 72q19 39 19 88v840z" />
    <glyph glyph-name="uhorn" unicode="&#x1b0;" horiz-adv-x="1482" 
d="M864 1264q0 14 13 29q12 14 32 14h113q15 0 31 -13q14 -11 14 -30v-170q77 0 148 51q72 52 112 141q8 16 15 17q10 2 16 2q8 0 13 -3q3 -2 9 -8l70 -59q12 -12 12 -27q0 -12 -6 -20q-67 -120 -169 -188t-220 -68v-508q0 -87 -35 -166q-34 -77 -96 -136q-60 -57 -144 -92
q-81 -34 -178 -34t-178 34q-83 35 -143 92q-62 59 -96 136q-35 79 -35 166v840q0 16 12 29q12 14 33 14h112q17 0 32 -13q14 -12 14 -30v-840q0 -49 19 -88q21 -45 53 -72q37 -32 79 -49q45 -18 98 -18q52 0 98 18q43 17 80 49q32 27 53 72q19 39 19 88v840z" />
    <glyph glyph-name="uni01B7" unicode="&#x1b7;" horiz-adv-x="983" 
d="M492 199q36 0 68 15q31 15 56 40t38 57q14 34 14 68q0 77 -52 131q-51 53 -127 53h-45q-22 0 -34 14q-13 15 -13 29v144q0 8 3 15q2 5 8 11l192 256q10 14 10 29q0 19 -15 32q-14 13 -32 13h-389q-20 0 -34 12q-13 12 -13 31v115q0 13 12 28t35 15h629q17 0 33 -13
q14 -11 14 -30v-220q0 -4 -3 -11q-1 -3 -22 -34q-19 -28 -55 -76q-12 -15 -46 -62t-58 -79q-11 -16 -11 -28q0 -27 23 -39q91 -51 143 -142q51 -90 51 -192q0 -84 -31 -153q-31 -70 -85 -122q-51 -50 -122 -79q-70 -29 -145 -29q-128 0 -242 60t-188 167q-8 18 -8 25
q0 18 17 35l86 73q8 13 28 13q10 0 23 -5q11 -4 16 -18q44 -68 117 -109q71 -40 154 -40z" />
    <glyph glyph-name="uni01B8" unicode="&#x1b8;" horiz-adv-x="983" 
d="M492 199q82 0 153 40q73 41 117 109q5 14 16 18q13 5 23 5q17 0 28 -13l86 -73q17 -17 17 -35q0 -7 -8 -25q-74 -107 -188 -167t-242 -60q-75 0 -145 29q-71 29 -122 79q-54 52 -85 122q-31 69 -31 153q0 102 51 192q52 91 143 142q23 12 23 39q0 12 -11 28
q-24 32 -58 79t-46 62q-36 48 -55 76q-21 31 -22 34q-3 7 -3 11v220q0 19 14 30q16 13 33 13h629q23 0 35 -15t12 -28v-115q0 -19 -13 -31t-34 -12h-389q-18 0 -32 -13q-15 -13 -15 -32q0 -15 10 -29l192 -256q6 -6 8 -11q3 -7 3 -15v-144q0 -14 -13 -29q-12 -14 -34 -14
h-45q-76 0 -127 -53q-52 -54 -52 -131q0 -34 14 -68q13 -32 38 -57t56 -40t69 -15z" />
    <glyph glyph-name="uni01B9" unicode="&#x1b9;" horiz-adv-x="983" 
d="M492 199q82 0 153 40q73 41 117 109q5 14 16 18q13 5 23 5q17 0 28 -13l86 -73q17 -17 17 -35q0 -7 -8 -25q-74 -107 -188 -167t-242 -60q-75 0 -145 29q-71 29 -122 79q-54 52 -85 122q-31 69 -31 153q0 102 51 192q52 91 143 142q23 12 23 39q0 12 -11 28
q-24 32 -58 79t-46 62q-36 48 -55 76q-21 31 -22 34q-3 7 -3 11v220q0 19 14 30q16 13 33 13h629q23 0 35 -15t12 -28v-115q0 -19 -13 -31t-34 -12h-389q-18 0 -32 -13q-15 -13 -15 -32q0 -15 10 -29l192 -256q6 -6 8 -11q3 -7 3 -15v-144q0 -14 -13 -29q-12 -14 -34 -14
h-45q-76 0 -127 -53q-52 -54 -52 -131q0 -34 14 -68q13 -32 38 -57t56 -40t69 -15z" />
    <glyph glyph-name="uni01C7" unicode="&#x1c7;" horiz-adv-x="2052" 
d="M367 248q0 -17 10 -30t33 -13h528q24 0 35 -17q10 -16 10 -28v-113q0 -19 -13 -33t-32 -14h-729q-13 0 -29 12t-16 35v1215q0 21 16 33q17 12 29 12h113q17 0 31 -14t14 -31v-1014zM1909 381q0 -81 -32 -153q-31 -70 -85 -122q-51 -50 -122 -79q-70 -29 -144 -29
q-64 0 -133 26q-70 27 -122 71q-55 48 -89 109q-35 64 -35 136q0 17 14 30t31 13h113q17 0 28 -10q14 -12 15 -27q15 -65 64 -105t114 -40q76 0 127 53t51 125v885q0 16 12 29q12 14 33 14h115q16 0 31 -13q14 -12 14 -30v-883z" />
    <glyph glyph-name="uni01C8" unicode="&#x1c8;" horiz-adv-x="2052" 
d="M367 248q0 -17 10 -30t33 -13h528q24 0 35 -17q10 -16 10 -28v-113q0 -19 -13 -33t-32 -14h-729q-13 0 -29 12t-16 35v1215q0 21 16 33q17 12 29 12h113q17 0 31 -14t14 -31v-1014zM1909 381q0 -81 -32 -153q-31 -70 -85 -122q-51 -50 -122 -79q-70 -29 -144 -29
q-64 0 -133 26q-70 27 -122 71q-55 48 -89 109q-35 64 -35 136q0 17 14 30t31 13h113q17 0 28 -10q14 -12 15 -27q15 -65 64 -105t114 -40q76 0 127 53t51 125v885q0 16 12 29q12 14 33 14h115q16 0 31 -13q14 -12 14 -30v-883z" />
    <glyph glyph-name="uni01C9" unicode="&#x1c9;" horiz-adv-x="2052" 
d="M367 248q0 -17 10 -30t33 -13h528q24 0 35 -17q10 -16 10 -28v-113q0 -19 -13 -33t-32 -14h-729q-13 0 -29 12t-16 35v1215q0 21 16 33q17 12 29 12h113q17 0 31 -14t14 -31v-1014zM1909 381q0 -81 -32 -153q-31 -70 -85 -122q-51 -50 -122 -79q-70 -29 -144 -29
q-64 0 -133 26q-70 27 -122 71q-55 48 -89 109q-35 64 -35 136q0 17 14 30t31 13h113q17 0 28 -10q14 -12 15 -27q15 -65 64 -105t114 -40q76 0 127 53t51 125v885q0 16 12 29q12 14 33 14h115q16 0 31 -13q14 -12 14 -30v-883z" />
    <glyph glyph-name="uni01CA" unicode="&#x1ca;" horiz-adv-x="2277" 
d="M449 791q-14 20 -39 20q-19 0 -32 -13t-13 -32v-719q0 -17 -13 -33q-11 -14 -30 -14h-113q-16 0 -31 12q-14 11 -14 35v1215q0 18 13 31q14 14 32 14h131q26 0 41 -21l479 -770q14 -20 39 -20q20 0 32 13q11 12 11 32v721q0 21 16 33t29 12h113q17 0 33 -14
q14 -13 14 -31v-1215q0 -21 -14 -34t-33 -13h-133q-22 0 -37 23zM2134 381q0 -81 -32 -153q-31 -70 -85 -122q-51 -50 -122 -79q-70 -29 -144 -29q-64 0 -133 26q-70 27 -122 71q-55 48 -89 109q-35 64 -35 136q0 17 14 30t31 13h113q18 0 29 -10q13 -11 14 -27
q15 -65 64 -105t114 -40q76 0 127 53t51 125v885q0 14 13 29q12 14 32 14h115q17 0 32 -13q13 -12 13 -30v-883z" />
    <glyph glyph-name="uni01CB" unicode="&#x1cb;" horiz-adv-x="2277" 
d="M449 791q-14 20 -39 20q-19 0 -32 -13t-13 -32v-719q0 -17 -13 -33q-11 -14 -30 -14h-113q-16 0 -31 12q-14 11 -14 35v1215q0 18 13 31q14 14 32 14h131q26 0 41 -21l479 -770q14 -20 39 -20q20 0 32 13q11 12 11 32v721q0 21 16 33t29 12h113q17 0 33 -14
q14 -13 14 -31v-1215q0 -21 -14 -34t-33 -13h-133q-22 0 -37 23zM2134 381q0 -81 -32 -153q-31 -70 -85 -122q-51 -50 -122 -79q-70 -29 -144 -29q-64 0 -133 26q-70 27 -122 71q-55 48 -89 109q-35 64 -35 136q0 17 14 30t31 13h113q18 0 29 -10q13 -11 14 -27
q15 -65 64 -105t114 -40q76 0 127 53t51 125v885q0 14 13 29q12 14 32 14h115q17 0 32 -13q13 -12 13 -30v-883z" />
    <glyph glyph-name="uni01CC" unicode="&#x1cc;" horiz-adv-x="2277" 
d="M449 791q-14 20 -39 20q-19 0 -32 -13t-13 -32v-719q0 -17 -13 -33q-11 -14 -30 -14h-113q-16 0 -31 12q-14 11 -14 35v1215q0 18 13 31q14 14 32 14h131q26 0 41 -21l479 -770q14 -20 39 -20q20 0 32 13q11 12 11 32v721q0 21 16 33t29 12h113q17 0 33 -14
q14 -13 14 -31v-1215q0 -21 -14 -34t-33 -13h-133q-22 0 -37 23zM2134 381q0 -81 -32 -153q-31 -70 -85 -122q-51 -50 -122 -79q-70 -29 -144 -29q-64 0 -133 26q-70 27 -122 71q-55 48 -89 109q-35 64 -35 136q0 17 14 30t31 13h113q18 0 29 -10q13 -11 14 -27
q15 -65 64 -105t114 -40q76 0 127 53t51 125v885q0 14 13 29q12 14 32 14h115q17 0 32 -13q13 -12 13 -30v-883z" />
    <glyph glyph-name="uni01CD" unicode="&#x1cd;" horiz-adv-x="1132" 
d="M109 0q-23 0 -35 15q-13 16 -13 32q0 4 2 12l328 1215q7 33 43 33h266q14 0 27 -10q12 -9 16 -23l326 -1215q2 -8 2 -14q0 -17 -14 -31t-31 -14h-117q-32 0 -43 35l-61 225q-6 35 -43 35h-391q-35 0 -41 -35l-62 -225q-11 -35 -45 -35h-114zM686 496q20 0 31 14
q12 15 12 31q0 6 -2 12l-115 434q-11 35 -45 35t-45 -35l-114 -434q-2 -6 -2 -12q0 -16 12 -31q11 -14 31 -14h237zM528 1552q10 -20 39 -20q9 0 22 5q10 4 15 15l66 142q7 16 35 16h104q19 0 32 -12t13 -31t-12 -31l-174 -206q-12 -17 -35 -17h-133q-23 0 -35 17l-174 206
q-12 12 -12 31t13 31q14 12 32 12h104q28 0 35 -16z" />
    <glyph glyph-name="uni01CE" unicode="&#x1ce;" horiz-adv-x="1132" 
d="M109 0q-23 0 -35 15q-13 16 -13 32q0 4 2 12l328 1215q7 33 43 33h266q14 0 27 -10q12 -9 16 -23l326 -1215q2 -8 2 -14q0 -17 -14 -31t-31 -14h-117q-32 0 -43 35l-61 225q-6 35 -43 35h-391q-35 0 -41 -35l-62 -225q-11 -35 -45 -35h-114zM686 496q20 0 31 14
q12 15 12 31q0 6 -2 12l-115 434q-11 35 -45 35t-45 -35l-114 -434q-2 -6 -2 -12q0 -16 12 -31q11 -14 31 -14h237zM528 1552q10 -20 39 -20q9 0 22 5q10 4 15 15l66 142q7 16 35 16h104q19 0 32 -12t13 -31t-12 -31l-174 -206q-12 -17 -35 -17h-133q-23 0 -35 17l-174 206
q-12 12 -12 31t13 31q14 12 32 12h104q28 0 35 -16z" />
    <glyph glyph-name="uni01CF" unicode="&#x1cf;" horiz-adv-x="569" 
d="M385 45q0 -18 -12 -32q-12 -13 -31 -13h-115q-20 0 -31 14q-12 15 -12 31v1219q0 16 12 29q12 14 31 14h115q18 0 31 -13q12 -12 12 -30v-1219zM250 1552q10 -20 39 -20q8 0 21 5q11 4 16 15l65 142q7 16 35 16h104q18 0 32 -12q13 -12 13 -31t-12 -31l-174 -206
q-12 -17 -35 -17h-133q-23 0 -35 17l-174 206q-12 12 -12 31t13 31q14 12 32 12h105q27 0 34 -16z" />
    <glyph glyph-name="uni01D0" unicode="&#x1d0;" horiz-adv-x="569" 
d="M385 45q0 -18 -12 -32q-12 -13 -31 -13h-115q-20 0 -31 14q-12 15 -12 31v1219q0 16 12 29q12 14 31 14h115q18 0 31 -13q12 -12 12 -30v-1219zM250 1552q10 -20 39 -20q8 0 21 5q11 4 16 15l65 142q7 16 35 16h104q18 0 32 -12q13 -12 13 -31t-12 -31l-174 -206
q-12 -17 -35 -17h-133q-23 0 -35 17l-174 206q-12 12 -12 31t13 31q14 12 32 12h105q27 0 34 -16z" />
    <glyph glyph-name="uni01D1" unicode="&#x1d1;" 
d="M614 -2q-129 0 -229 52q-101 53 -170 141t-105 208q-36 119 -36 252q0 135 36 254q36 120 105 208t170 141t229 53q129 0 230 -53t170 -141t105 -208q36 -118 36 -254q0 -133 -36 -252q-36 -120 -105 -208t-170 -141q-100 -52 -230 -52zM614 201q88 0 152 38t105 100
q43 64 63 144q20 79 20 170t-20 170q-21 82 -63 145q-40 61 -105 99q-62 37 -152 37q-87 0 -151 -38q-65 -39 -106 -100t-62 -145q-21 -83 -21 -168t21 -168t61 -145q40 -63 106 -101q65 -38 152 -38zM575 1552q10 -20 39 -20q9 0 22 5q10 4 15 15l66 142q7 16 35 16h104
q18 0 32 -12q13 -12 13 -31t-12 -31l-174 -206q-12 -17 -35 -17h-133q-23 0 -35 17l-174 206q-12 12 -12 31t13 31t32 12h104q28 0 35 -16z" />
    <glyph glyph-name="uni01D2" unicode="&#x1d2;" 
d="M614 -2q-129 0 -229 52q-101 53 -170 141t-105 208q-36 119 -36 252q0 135 36 254q36 120 105 208t170 141t229 53q129 0 230 -53t170 -141t105 -208q36 -118 36 -254q0 -133 -36 -252q-36 -120 -105 -208t-170 -141q-100 -52 -230 -52zM614 201q88 0 152 38t105 100
q43 64 63 144q20 79 20 170t-20 170q-21 82 -63 145q-40 61 -105 99q-62 37 -152 37q-87 0 -151 -38q-65 -39 -106 -100t-62 -145q-21 -83 -21 -168t21 -168t61 -145q40 -63 106 -101q65 -38 152 -38zM575 1552q10 -20 39 -20q9 0 22 5q10 4 15 15l66 142q7 16 35 16h104
q18 0 32 -12q13 -12 13 -31t-12 -31l-174 -206q-12 -17 -35 -17h-133q-23 0 -35 17l-174 206q-12 12 -12 31t13 31t32 12h104q28 0 35 -16z" />
    <glyph glyph-name="uni01D3" unicode="&#x1d3;" 
d="M864 1264q0 14 13 29q12 14 32 14h113q15 0 31 -13q14 -11 14 -30v-840q0 -87 -35 -166q-34 -77 -96 -136q-60 -57 -144 -92q-81 -34 -178 -34t-178 34q-83 35 -143 92q-62 59 -96 136q-35 79 -35 166v840q0 16 12 29q12 14 33 14h112q17 0 32 -13q14 -12 14 -30v-840
q0 -49 19 -88q21 -45 53 -72q37 -32 79 -49q45 -18 98 -18q52 0 98 18q43 17 80 49q32 27 53 72q19 39 19 88v840zM575 1552q10 -20 39 -20q9 0 22 5q10 4 15 15l66 142q7 16 35 16h104q18 0 32 -12q13 -12 13 -31t-12 -31l-174 -206q-12 -17 -35 -17h-133q-23 0 -35 17
l-174 206q-12 12 -12 31t13 31t32 12h104q28 0 35 -16z" />
    <glyph glyph-name="uni01D4" unicode="&#x1d4;" 
d="M864 1264q0 14 13 29q12 14 32 14h113q15 0 31 -13q14 -11 14 -30v-840q0 -87 -35 -166q-34 -77 -96 -136q-60 -57 -144 -92q-81 -34 -178 -34t-178 34q-83 35 -143 92q-62 59 -96 136q-35 79 -35 166v840q0 16 12 29q12 14 33 14h112q17 0 32 -13q14 -12 14 -30v-840
q0 -49 19 -88q21 -45 53 -72q37 -32 79 -49q45 -18 98 -18q52 0 98 18q43 17 80 49q32 27 53 72q19 39 19 88v840zM575 1552q10 -20 39 -20q9 0 22 5q10 4 15 15l66 142q7 16 35 16h104q18 0 32 -12q13 -12 13 -31t-12 -31l-174 -206q-12 -17 -35 -17h-133q-23 0 -35 17
l-174 206q-12 12 -12 31t13 31t32 12h104q28 0 35 -16z" />
    <glyph glyph-name="uni01DD" unicode="&#x1dd;" horiz-adv-x="1222" 
d="M373 553q-19 0 -32 -14t-13 -31q0 -71 13 -126q14 -57 46 -97q35 -42 85 -64q51 -22 132 -22q62 0 110 24q46 23 82 67q33 41 56 98q22 57 33 120q4 21 -12 34q-14 11 -33 11h-467zM836 758q19 0 33 11q16 13 12 34q-12 60 -38 117q-25 55 -66 97q-39 40 -93 65
q-52 24 -121 24q-163 0 -270 -150q-6 -10 -10 -13q-6 -5 -21 -9q-27 0 -37 12l-86 74q-16 12 -16 31q0 15 8 28q77 114 190 170q116 58 246 58q127 0 229 -54q100 -53 167 -144q68 -92 102 -212q35 -123 35 -258q0 -125 -29 -243q-28 -115 -88 -203q-61 -90 -153 -142
q-94 -53 -224 -53q-156 0 -249 40q-95 40 -147 126q-52 84 -70 221q-17 128 -17 326q0 22 16 34q18 13 29 13h668z" />
    <glyph glyph-name="uni01E2" unicode="&#x1e2;" horiz-adv-x="1501" 
d="M109 0q-23 0 -35 15q-13 16 -13 32q0 4 2 12l328 1215q7 33 43 33h899q18 0 32 -14q13 -13 13 -31v-111q0 -23 -13 -35t-32 -12h-504q-37 0 -30 -39l73 -272q8 -39 52 -39h327q17 0 32 -13q13 -12 13 -30v-113q0 -17 -11 -31t-34 -14h-274q-39 0 -31 -39l74 -270
q8 -39 51 -39h262q24 0 35 -17q10 -16 10 -28v-113q0 -19 -13 -33t-32 -14h-424q-32 0 -43 35l-61 225q-11 35 -43 35h-391q-35 0 -41 -35l-62 -225q-11 -35 -45 -35h-114zM682 496q22 0 34 13q11 12 11 34v10l-115 434q-15 35 -45 35q-34 0 -45 -35l-114 -434q-2 -6 -2 -12
q0 -16 12 -31q11 -14 31 -14h233zM1077 1511q0 -16 -13 -29q-14 -14 -30 -14h-567q-22 0 -34 14q-11 12 -11 29v72q0 17 11 31t34 14h567q17 0 30 -13t13 -32v-72z" />
    <glyph glyph-name="uni01E3" unicode="&#x1e3;" horiz-adv-x="1501" 
d="M109 0q-23 0 -35 15q-13 16 -13 32q0 4 2 12l328 1215q7 33 43 33h899q18 0 32 -14q13 -13 13 -31v-111q0 -23 -13 -35t-32 -12h-504q-37 0 -30 -39l73 -272q8 -39 52 -39h327q17 0 32 -13q13 -12 13 -30v-113q0 -17 -11 -31t-34 -14h-274q-39 0 -31 -39l74 -270
q8 -39 51 -39h262q24 0 35 -17q10 -16 10 -28v-113q0 -19 -13 -33t-32 -14h-424q-32 0 -43 35l-61 225q-11 35 -43 35h-391q-35 0 -41 -35l-62 -225q-11 -35 -45 -35h-114zM682 496q22 0 34 13q11 12 11 34v10l-115 434q-15 35 -45 35q-34 0 -45 -35l-114 -434q-2 -6 -2 -12
q0 -16 12 -31q11 -14 31 -14h233zM1077 1511q0 -16 -13 -29q-14 -14 -30 -14h-567q-22 0 -34 14q-11 12 -11 29v72q0 17 11 31t34 14h567q17 0 30 -13t13 -32v-72z" />
    <glyph glyph-name="uni01E4" unicode="&#x1e4;" horiz-adv-x="1320" 
d="M1315 399q0 -16 -13 -29q-14 -14 -30 -14h-129q-41 0 -41 -41v-65q0 -7 -8 -25q-74 -107 -188 -167t-242 -60q-131 0 -232 53q-98 51 -169 144q-69 90 -103 207q-35 120 -35 249t35 251q35 121 102 209q69 91 169 142q105 54 235 54q128 0 241 -59q115 -60 187 -169
q8 -18 8 -26q0 -21 -17 -33l-86 -74q-11 -12 -36 -12q-21 4 -31 22q-46 70 -117 110t-153 40q-89 0 -152 -39t-103 -103t-60 -146q-19 -79 -19 -165q0 -84 18 -165t58 -145q39 -62 104 -104q62 -40 154 -40q64 0 124 24q57 23 103 72q5 6 7 13q1 3 1 14v-7q0 41 -41 41h-151
q-22 0 -34 14t-12 29v72q0 16 12 31q11 14 34 14h151q41 0 41 41v-8q0 17 -13 31t-32 14h-150q-22 0 -32 14q-11 16 -11 31v113q0 16 13 32q12 15 30 15h355q10 0 28 -13q17 -12 17 -34v-195q0 -41 41 -41h129q16 0 30 -12q13 -12 13 -33v-72z" />
    <glyph glyph-name="uni01E5" unicode="&#x1e5;" horiz-adv-x="1320" 
d="M1315 399q0 -16 -13 -29q-14 -14 -30 -14h-129q-41 0 -41 -41v-65q0 -7 -8 -25q-74 -107 -188 -167t-242 -60q-131 0 -232 53q-98 51 -169 144q-69 90 -103 207q-35 120 -35 249t35 251q35 121 102 209q69 91 169 142q105 54 235 54q128 0 241 -59q115 -60 187 -169
q8 -18 8 -26q0 -21 -17 -33l-86 -74q-11 -12 -36 -12q-21 4 -31 22q-46 70 -117 110t-153 40q-89 0 -152 -39t-103 -103t-60 -146q-19 -79 -19 -165q0 -84 18 -165t58 -145q39 -62 104 -104q62 -40 154 -40q64 0 124 24q57 23 103 72q5 6 7 13q1 3 1 14v-7q0 41 -41 41h-151
q-22 0 -34 14t-12 29v72q0 16 12 31q11 14 34 14h151q41 0 41 41v-8q0 17 -13 31t-32 14h-150q-22 0 -32 14q-11 16 -11 31v113q0 16 13 32q12 15 30 15h355q10 0 28 -13q17 -12 17 -34v-195q0 -41 41 -41h129q16 0 30 -12q13 -12 13 -33v-72z" />
    <glyph glyph-name="Gcaron" unicode="&#x1e6;" 
d="M889 295q5 6 7 13q1 3 1 14v186q0 17 -13 31t-32 14h-150q-22 0 -32 14q-11 16 -11 31v113q0 16 13 32q12 15 30 15h355q10 0 28 -13q17 -12 17 -34v-461q0 -7 -8 -25q-74 -107 -188 -167t-242 -60q-131 0 -232 53q-98 51 -169 144q-69 90 -103 207q-35 120 -35 249
t35 251q35 121 102 209q69 91 169 142q105 54 235 54q128 0 241 -59q115 -60 187 -169q8 -18 8 -26q0 -21 -17 -33l-86 -74q-11 -12 -36 -12q-21 4 -31 22q-46 70 -117 110t-153 40q-89 0 -152 -39t-103 -103t-60 -146q-19 -79 -19 -165q0 -84 18 -165t58 -145
q39 -62 104 -104q62 -40 154 -40q64 0 124 24q57 23 103 72zM623 1552q10 -20 39 -20q8 0 21 5q10 4 15 15l66 142q7 16 35 16h104q19 0 32 -12t13 -31t-12 -31l-174 -206q-12 -17 -35 -17h-133q-23 0 -35 17l-174 206q-12 12 -12 31t13 31q14 12 32 12h104q28 0 35 -16z
" />
    <glyph glyph-name="gcaron" unicode="&#x1e7;" 
d="M889 295q5 6 7 13q1 3 1 14v186q0 17 -13 31t-32 14h-150q-22 0 -32 14q-11 16 -11 31v113q0 16 13 32q12 15 30 15h355q10 0 28 -13q17 -12 17 -34v-461q0 -7 -8 -25q-74 -107 -188 -167t-242 -60q-131 0 -232 53q-98 51 -169 144q-69 90 -103 207q-35 120 -35 249
t35 251q35 121 102 209q69 91 169 142q105 54 235 54q128 0 241 -59q115 -60 187 -169q8 -18 8 -26q0 -21 -17 -33l-86 -74q-11 -12 -36 -12q-21 4 -31 22q-46 70 -117 110t-153 40q-89 0 -152 -39t-103 -103t-60 -146q-19 -79 -19 -165q0 -84 18 -165t58 -145
q39 -62 104 -104q62 -40 154 -40q64 0 124 24q57 23 103 72zM623 1552q10 -20 39 -20q8 0 21 5q10 4 15 15l66 142q7 16 35 16h104q19 0 32 -12t13 -31t-12 -31l-174 -206q-12 -17 -35 -17h-133q-23 0 -35 17l-174 206q-12 12 -12 31t13 31q14 12 32 12h104q28 0 35 -16z
" />
    <glyph glyph-name="uni01E8" unicode="&#x1e8;" horiz-adv-x="1153" 
d="M369 47q0 -17 -14 -33q-13 -14 -33 -14h-111q-19 0 -33 14t-14 33v1215q0 18 14 31q16 14 33 14h111q16 0 32 -14q15 -13 15 -31v-394q0 -22 13 -34q15 -13 32 -13q15 0 32 17l381 452q12 17 35 17h146q16 0 31 -13q14 -12 14 -30t-13 -31l-362 -434q-10 -11 -10 -29
q0 -11 4 -22l393 -678q6 -12 6 -25q0 -17 -13 -31t-32 -14h-129q-22 0 -41 25l-405 702q-12 23 -39 23q-19 0 -31 -14t-12 -31v-658zM539 1552q10 -20 39 -20q8 0 21 5q10 4 15 15l66 142q7 16 35 16h104q19 0 32 -12t13 -31t-12 -31l-174 -206q-12 -17 -35 -17h-133
q-23 0 -35 17l-174 206q-12 12 -12 31t13 31t32 12h104q28 0 35 -16z" />
    <glyph glyph-name="uni01E9" unicode="&#x1e9;" horiz-adv-x="1153" 
d="M369 47q0 -17 -14 -33q-13 -14 -33 -14h-111q-19 0 -33 14t-14 33v1215q0 18 14 31q16 14 33 14h111q16 0 32 -14q15 -13 15 -31v-394q0 -22 13 -34q15 -13 32 -13q15 0 32 17l381 452q12 17 35 17h146q16 0 31 -13q14 -12 14 -30t-13 -31l-362 -434q-10 -11 -10 -29
q0 -11 4 -22l393 -678q6 -12 6 -25q0 -17 -13 -31t-32 -14h-129q-22 0 -41 25l-405 702q-12 23 -39 23q-19 0 -31 -14t-12 -31v-658zM539 1552q10 -20 39 -20q8 0 21 5q10 4 15 15l66 142q7 16 35 16h104q19 0 32 -12t13 -31t-12 -31l-174 -206q-12 -17 -35 -17h-133
q-23 0 -35 17l-174 206q-12 12 -12 31t13 31t32 12h104q28 0 35 -16z" />
    <glyph glyph-name="uni01EA" unicode="&#x1ea;" 
d="M1155 651q0 -113 -23 -208q-24 -101 -70 -180q-46 -80 -114 -142t-153 -92l-58 -160q-12 -34 5 -38q20 -5 38 -5h119q27 0 36 -17q9 -18 9 -28v-72q0 -18 -12 -33q-11 -14 -33 -14h-360q-7 0 -16 3q-10 3 -17 9q-7 5 -12 16q-4 9 0 19l104 291q-123 1 -222 55
q-96 52 -165 142q-68 89 -102 204q-35 119 -35 250q0 135 36 254q36 120 105 208t170 141t229 53q129 0 230 -53t170 -141t105 -208q36 -118 36 -254zM614 201q88 0 152 38t105 100q43 64 63 144q20 79 20 170t-20 170q-21 82 -63 145q-40 61 -105 99q-62 37 -152 37
q-87 0 -151 -38q-65 -39 -106 -100t-62 -145q-21 -83 -21 -168t21 -168t61 -145q40 -63 106 -101q65 -38 152 -38z" />
    <glyph glyph-name="uni01EB" unicode="&#x1eb;" 
d="M1155 651q0 -113 -23 -208q-24 -101 -70 -180q-46 -80 -114 -142t-153 -92l-58 -160q-12 -34 5 -38q20 -5 38 -5h119q27 0 36 -17q9 -18 9 -28v-72q0 -18 -12 -33q-11 -14 -33 -14h-360q-7 0 -16 3q-10 3 -17 9q-7 5 -12 16q-4 9 0 19l104 291q-123 1 -222 55
q-96 52 -165 142q-68 89 -102 204q-35 119 -35 250q0 135 36 254q36 120 105 208t170 141t229 53q129 0 230 -53t170 -141t105 -208q36 -118 36 -254zM614 201q88 0 152 38t105 100q43 64 63 144q20 79 20 170t-20 170q-21 82 -63 145q-40 61 -105 99q-62 37 -152 37
q-87 0 -151 -38q-65 -39 -106 -100t-62 -145q-21 -83 -21 -168t21 -168t61 -145q40 -63 106 -101q65 -38 152 -38z" />
    <glyph glyph-name="uni01EC" unicode="&#x1ec;" 
d="M1155 651q0 -113 -23 -208q-24 -101 -70 -180q-46 -80 -114 -142t-153 -92l-58 -160q-12 -34 5 -38q20 -5 38 -5h119q27 0 36 -17q9 -18 9 -28v-72q0 -18 -12 -33q-11 -14 -33 -14h-360q-7 0 -16 3q-10 3 -17 9q-7 5 -12 16q-4 9 0 19l104 291q-123 1 -222 55
q-96 52 -165 142q-68 89 -102 204q-35 119 -35 250q0 135 36 254q36 120 105 208t170 141t229 53q129 0 230 -53t170 -141t105 -208q36 -118 36 -254zM614 201q88 0 152 38t105 100q43 64 63 144q20 79 20 170t-20 170q-21 82 -63 145q-40 61 -105 99q-62 37 -152 37
q-87 0 -151 -38q-65 -39 -106 -100t-62 -145q-21 -83 -21 -168t21 -168t61 -145q40 -63 106 -101q65 -38 152 -38zM942 1511q0 -16 -13 -29q-14 -14 -30 -14h-567q-22 0 -34 14q-11 12 -11 29v72q0 17 11 31t34 14h567q17 0 30 -13t13 -32v-72z" />
    <glyph glyph-name="uni01ED" unicode="&#x1ed;" 
d="M1155 651q0 -113 -23 -208q-24 -101 -70 -180q-46 -80 -114 -142t-153 -92l-58 -160q-12 -34 5 -38q20 -5 38 -5h119q27 0 36 -17q9 -18 9 -28v-72q0 -18 -12 -33q-11 -14 -33 -14h-360q-7 0 -16 3q-10 3 -17 9q-7 5 -12 16q-4 9 0 19l104 291q-123 1 -222 55
q-96 52 -165 142q-68 89 -102 204q-35 119 -35 250q0 135 36 254q36 120 105 208t170 141t229 53q129 0 230 -53t170 -141t105 -208q36 -118 36 -254zM614 201q88 0 152 38t105 100q43 64 63 144q20 79 20 170t-20 170q-21 82 -63 145q-40 61 -105 99q-62 37 -152 37
q-87 0 -151 -38q-65 -39 -106 -100t-62 -145q-21 -83 -21 -168t21 -168t61 -145q40 -63 106 -101q65 -38 152 -38zM942 1511q0 -16 -13 -29q-14 -14 -30 -14h-567q-22 0 -34 14q-11 12 -11 29v72q0 17 11 31t34 14h567q17 0 30 -13t13 -32v-72z" />
    <glyph glyph-name="uni01EE" unicode="&#x1ee;" horiz-adv-x="983" 
d="M492 199q36 0 68 15q31 15 56 40t38 57q14 34 14 68q0 77 -52 131q-51 53 -127 53h-45q-22 0 -34 14q-13 15 -13 29v144q0 8 3 15q2 5 8 11l192 256q10 14 10 29q0 19 -15 32q-14 13 -32 13h-389q-20 0 -34 12q-13 12 -13 31v115q0 13 12 28t35 15h629q17 0 33 -13
q14 -11 14 -30v-220q0 -4 -3 -11q-1 -3 -22 -34q-19 -28 -55 -76q-12 -15 -46 -62t-58 -79q-11 -16 -11 -28q0 -27 23 -39q91 -51 143 -142q51 -90 51 -192q0 -84 -31 -153q-31 -70 -85 -122q-51 -50 -122 -79q-70 -29 -145 -29q-128 0 -242 60t-188 167q-8 18 -8 25
q0 18 17 35l86 73q8 13 28 13q10 0 23 -5q11 -4 16 -18q44 -68 117 -109q71 -40 154 -40zM453 1552q10 -20 39 -20q8 0 21 5q10 4 15 15l66 142q7 16 35 16h104q19 0 32 -12t13 -31t-12 -31l-174 -206q-12 -17 -35 -17h-133q-23 0 -35 17l-174 206q-12 12 -12 31t13 31
q14 12 32 12h104q28 0 35 -16z" />
    <glyph glyph-name="uni01EF" unicode="&#x1ef;" horiz-adv-x="983" 
d="M453 1552q10 -20 39 -20q8 0 21 5q10 4 15 15l66 142q7 16 35 16h104q19 0 32 -12t13 -31t-12 -31l-174 -206q-12 -17 -35 -17h-133q-23 0 -35 17l-174 206q-12 12 -12 31t13 31q14 12 32 12h104q28 0 35 -16zM492 199q36 0 68 15q31 15 56 40t38 57q14 34 14 68
q0 77 -52 131q-51 53 -127 53h-45q-22 0 -34 14q-13 15 -13 29v144q0 8 3 15q2 5 8 11l192 256q10 14 10 29q0 19 -15 32q-14 13 -32 13h-389q-20 0 -34 12q-13 12 -13 31v115q0 13 12 28t35 15h629q17 0 33 -13q14 -11 14 -30v-220q0 -4 -3 -11q-1 -3 -22 -34
q-19 -28 -55 -76q-12 -15 -46 -62t-58 -79q-11 -16 -11 -28q0 -27 23 -39q91 -51 143 -142q51 -90 51 -192q0 -84 -31 -153q-31 -70 -85 -122q-51 -50 -122 -79q-70 -29 -145 -29q-128 0 -242 60t-188 167q-8 18 -8 25q0 18 17 35l86 73q8 13 28 13q10 0 23 -5q11 -4 16 -18
q44 -68 117 -109q71 -40 154 -40z" />
    <glyph glyph-name="uni01F0" unicode="&#x1f0;" horiz-adv-x="966" 
d="M823 381q0 -84 -31 -153q-31 -70 -85 -122q-51 -50 -122 -79q-70 -29 -145 -29q-64 0 -133 26q-70 27 -122 71q-55 48 -89 109q-35 64 -35 136q0 16 15 30q14 13 30 13h113q18 0 29 -10q13 -11 14 -27q14 -64 65 -105q49 -40 113 -40q76 0 127 53q51 52 51 125v885
q0 14 13 29q12 14 33 14h114q17 0 32 -13q13 -12 13 -30v-883zM688 1552q10 -20 39 -20q9 0 22 5q10 4 15 15l65 142q7 16 35 16h105q17 0 31 -12t14 -31q0 -18 -13 -31l-174 -206q-12 -17 -34 -17h-134q-22 0 -34 17l-174 206q-13 13 -13 31q0 19 14 31t31 12h105
q28 0 35 -16z" />
    <glyph glyph-name="uni01F1" unicode="&#x1f1;" horiz-adv-x="2349" 
d="M1065 428q0 -89 -34 -166q-35 -78 -91 -136q-56 -57 -136 -92q-78 -34 -167 -34h-428q-19 0 -32 13t-13 32v1219q0 22 14 32q16 11 31 11h428q88 0 166 -33t136 -91q57 -57 92 -136q34 -77 34 -166v-453zM862 881q0 45 -18 86q-18 40 -49 71t-72 49q-43 19 -86 19h-223
q-24 0 -35 -15q-10 -14 -10 -30v-813q0 -19 11 -33t34 -14h223q47 0 88 18t72 49q29 29 48 72q17 38 17 88v453zM1890 1016q15 21 15 43q0 21 -14 33t-31 12h-570q-23 0 -35 15t-12 28v115q0 18 14 31q16 14 33 14h889q20 0 34 -14q13 -13 13 -31v-134q0 -9 -5 -22
q-4 -11 -11 -23l-631 -792q-14 -21 -14 -45q0 -21 13 -33q14 -12 32 -12h569q17 0 33 -13q14 -11 14 -30v-113q0 -16 -12 -31q-11 -14 -35 -14h-889q-19 0 -33 13t-14 32v131q0 11 5 24q1 4 3 7.5t5 7.5t4 6z" />
    <glyph glyph-name="uni01F2" unicode="&#x1f2;" horiz-adv-x="2457" 
d="M1065 428q0 -89 -34 -166q-35 -78 -91 -136q-56 -57 -136 -92q-78 -34 -167 -34h-428q-19 0 -32 13t-13 32v1219q0 22 14 32q16 11 31 11h428q88 0 166 -33t136 -91q57 -57 92 -136q34 -77 34 -166v-453zM862 881q0 45 -18 86q-18 40 -49 71t-72 49q-43 19 -86 19h-223
q-24 0 -35 -15q-10 -14 -10 -30v-813q0 -19 11 -33t34 -14h223q47 0 88 18t72 49q29 29 48 72q17 38 17 88v453zM1999 1016q14 20 14 43q0 21 -13 33q-14 12 -32 12h-569q-23 0 -35 15t-12 28v115q0 18 14 31q16 14 33 14h889q19 0 33 -14t14 -31v-134q0 -9 -5 -22
q-2 -6 -12 -23l-630 -792q-15 -23 -15 -45q0 -21 14 -33q13 -12 31 -12h570q16 0 32 -13q15 -12 15 -30v-113q0 -15 -13 -31q-11 -14 -34 -14h-889q-19 0 -33 13t-14 32v131q0 11 5 24q2 5 11 21z" />
    <glyph glyph-name="uni01F3" unicode="&#x1f3;" horiz-adv-x="2349" 
d="M1065 428q0 -89 -34 -166q-35 -78 -91 -136q-56 -57 -136 -92q-78 -34 -167 -34h-428q-19 0 -32 13t-13 32v1219q0 22 14 32q16 11 31 11h428q88 0 166 -33t136 -91q57 -57 92 -136q34 -77 34 -166v-453zM862 881q0 45 -18 86q-18 40 -49 71t-72 49q-43 19 -86 19h-223
q-24 0 -35 -15q-10 -14 -10 -30v-813q0 -19 11 -33t34 -14h223q47 0 88 18t72 49q29 29 48 72q17 38 17 88v453zM1890 1016q15 21 15 43q0 21 -14 33t-31 12h-570q-23 0 -35 15t-12 28v115q0 18 14 31q16 14 33 14h889q20 0 34 -14q13 -13 13 -31v-134q0 -9 -5 -22
q-4 -11 -11 -23l-631 -792q-14 -21 -14 -45q0 -21 13 -33q14 -12 32 -12h569q17 0 33 -13q14 -11 14 -30v-113q0 -16 -12 -31q-11 -14 -35 -14h-889q-19 0 -33 13t-14 32v131q0 11 5 24q1 4 3 7.5t5 7.5t4 6z" />
    </font>
</defs>
</svg>
