<svg xmlns="http://www.w3.org/2000/svg" width="53.713" height="39.42"><g data-name="Векторный смарт-объект"><path data-name="Контур 282" d="M.165 11.753l2.853 24.622a3.336 3.336 0 003.259 3.043l44.367-.62a3.253 3.253 0 003.04-3.8l-4.25-32.013A3.286 3.286 0 0045.681.052L2.715 8.062a3.291 3.291 0 00-2.55 3.691z" fill="#d8d8d7"/><path data-name="Контур 283" d="M.024 11.731l2.776 24a3.253 3.253 0 003.176 2.967l43.237-.6a3.171 3.171 0 002.963-3.707l-4.142-31.2A3.2 3.2 0 0044.377.333L2.506 8.139a3.207 3.207 0 00-2.482 3.592z" fill="#e4e4e3"/><path data-name="Контур 284" d="M29.328 23.866c-3.741-1.553-6.552-4.538-9.534-7.24-3.3-2.989-6.661-6.139-8.973-10.043L2.505 8.134a3.207 3.207 0 00-2.482 3.6l2.776 24a3.253 3.253 0 003.176 2.967l43.237-.6a3.171 3.171 0 002.963-3.707l-2.353-17.722c-5.16 5.303-13.462 10.114-20.494 7.194z" fill="#e4e4e3" style="mix-blend-mode:multiply;isolation:isolate"/><path data-name="Контур 285" d="M24.818 10.54a1.5 1.5 0 01-1 1.817 1.412 1.412 0 01-1.858-.806 1.5 1.5 0 011-1.818 1.412 1.412 0 011.858.807z" fill="#fff"/></g></svg>