<svg xmlns="http://www.w3.org/2000/svg" xmlns:xlink="http://www.w3.org/1999/xlink" width="78" height="273"><defs><radialGradient id="a" cx=".5" cy=".5" r=".634" gradientTransform="matrix(.737 0 0 .855 .947 .072)" gradientUnits="objectBoundingBox"><stop offset="0" stop-color="#f29788"/><stop offset=".612" stop-color="#f2a288"/><stop offset=".92" stop-color="#f2ab88"/></radialGradient><radialGradient id="b" cx=".5" cy=".5" r=".634" gradientTransform="matrix(-.737 0 0 .855 54.039 .072)" xlink:href="#a"/></defs><g data-name="Векторный смарт-объект"><g data-name="Сгруппировать 93" transform="translate(-32.594 -31.042)"><path data-name="Контур 286" d="M82.241 285.514l8.231.716s5.693 7.418 7.116 8.49 10.586 3.217 10.23 4.915-2.58 3.664-6.049 3.306a51.292 51.292 0 01-7.739-1.072 85.9 85.9 0 00-13.147-2.887 1.793 1.793 0 01-1.49-1.328c1.292-3.503 1.646-7.147 2.848-12.14z" fill="#f2ab88"/><path data-name="Контур 287" d="M80.909 289.6c2.974 1.166 4.98 2.025 7.454 1.887a3.49 3.49 0 00.437-.059c2.257 2.1 4.364 3.527 3.662 2.215-.288-.537-1.116-1.775-1.59-2.791a16.915 16.915 0 002.512-1.313 36.291 36.291 0 005.679 5.19c1.6 1.208 11.922 3.624 11.522 5.536s-2.906 4.126-6.813 3.724a124.092 124.092 0 01-13.219-2.347 5.659 5.659 0 00-3.838-1.553 7.152 7.152 0 00-1.406.137 81.781 81.781 0 00-4.171-.7 2.023 2.023 0 01-1.741-1.876c-.127-1.899.87-5.13 1.512-8.05z" fill="#5c3f31"/><path data-name="Контур 288" d="M79.459 296.237c1.006.269 2.244.4 4.332.873 5.825 1.329 6.016 3.006 8.19 3.679a38.084 38.084 0 0012.343 1.919 7.571 7.571 0 006.264-2.578.564.564 0 01-.005.14c-.4 1.912-2.906 4.126-6.813 3.724a124.092 124.092 0 01-13.219-2.347 5.659 5.659 0 00-3.838-1.553 7.152 7.152 0 00-1.406.137 81.781 81.781 0 00-4.171-.7 2.023 2.023 0 01-1.741-1.876c-.005-.064.064-1.418.064-1.418z" fill="#371909"/><path data-name="Контур 289" d="M65.895 285.514l-8.232.716s-5.693 7.418-7.116 8.49-10.586 3.217-10.229 4.915 2.58 3.664 6.048 3.306a51.32 51.32 0 007.739-1.072 85.851 85.851 0 0113.147-2.887 1.793 1.793 0 001.489-1.328c-1.29-3.503-1.641-7.147-2.846-12.14z" fill="#f2ab88"/><path data-name="Контур 290" d="M67.227 289.6c-2.975 1.166-4.981 2.025-7.455 1.887a3.508 3.508 0 01-.437-.059c-2.257 2.1-4.364 3.527-3.662 2.215.288-.537 1.116-1.775 1.59-2.791a16.951 16.951 0 01-2.512-1.313 36.294 36.294 0 01-5.678 5.19c-1.6 1.208-11.922 3.624-11.522 5.536s2.905 4.126 6.812 3.724a124.058 124.058 0 0013.219-2.347 5.66 5.66 0 013.838-1.553 7.165 7.165 0 011.407.137c1.3-.253 2.693-.491 4.171-.7a2.022 2.022 0 001.741-1.876c.126-1.899-.871-5.13-1.512-8.05z" fill="#5c3f31"/><path data-name="Контур 291" d="M68.677 296.237c-1.006.269-2.244.4-4.332.873-5.825 1.329-6.016 3.006-8.19 3.679a38.088 38.088 0 01-12.344 1.919 7.568 7.568 0 01-6.263-2.578.531.531 0 00.005.14c.4 1.912 2.905 4.126 6.812 3.724a124.058 124.058 0 0013.219-2.347 5.66 5.66 0 013.838-1.553 7.165 7.165 0 011.407.137c1.3-.253 2.693-.491 4.171-.7a2.022 2.022 0 001.741-1.876 85.128 85.128 0 00-.064-1.418z" fill="#371909"/><path data-name="Контур 292" d="M94.3 226.136c1.544-47.522-.623-63.754-.623-63.754l-21.864-13.844-22.357 13.844s-1.721 20.127 2.085 64.425c0 0 1.489 43.868 1.528 62.009 0 0 10.088 2.711 15.672-.241 0 0-.484-47.893-.633-55.588-.118-6.142 1.276-33.952 2.558-46.874a.9.9 0 011.8 0c1.283 12.923 4.6 40.733 4.482 46.874-.148 7.695 3.022 55.588 3.022 55.588 5.584 2.953 15.4.241 15.4.241.03-18.141-1.07-62.68-1.07-62.68z" fill="#28567a"/><path data-name="Контур 293" d="M49.45 162.456l-.007.1c0 .04-.007.088-.01.143l-.009.119-.026.39v.037l-.017.274v.079c-.148 2.493-.426 8.869-.247 19.453q.023 1.387.058 2.873v.19q.018.751.039 1.527c3.446.319 11.894.746 16.305-.775 3-1.034 6.252-3.624 9.581-1.429 5.53 3.646 12.954 2.73 19.69 1.491-.221-17.725-1.13-24.544-1.13-24.544l-21.864-13.846-22.357 13.844v.038z" fill="#28567a" opacity=".35" style="mix-blend-mode:multiply;isolation:isolate"/><path data-name="Контур 294" d="M61.865 99.686a58.922 58.922 0 003.812 1.783l.045.015c1.563.52 3.137 1.006 4.735 1.4 2.97-.619 5.925-1.27 8.949-1.716l.034-.019c1.049-.622 2.1-1.251 3.109-1.943.107-.1.205-.192.289-.28 1.478-1.567 2.753-3.3 4.192-4.892 1.4-1.552 2.926-3.007 4.279-4.6.031-.06.06-.118.1-.186.082-.156.159-.314.237-.471a27.251 27.251 0 01-7.486-1.287c-5.665-2.319-5.665-13.491-5.665-13.491H65.9s0 11.173-5.665 13.491A28.483 28.483 0 0152.4 88.8c1.392 2.1 2.683 4.274 4.087 6.551.332.539.993 1.369 1.385 1.866.156.14.313.278.476.41l.179.141c.15.1.3.2.447.292.949.564 1.902 1.128 2.891 1.626z" fill="#f2ab88"/><path data-name="Контур 295" d="M84.827 93.52a9.011 9.011 0 00-3.092-2.347c-.668-.2-1.351-.383-2.039-.559a33.987 33.987 0 01-6.945.831 34.775 34.775 0 01-8.377-1.167c-.71.638-1.4 1.3-2.132 1.905a34.445 34.445 0 00-3.264 2.694c4.589 12.623 14.522 35.478 14.864 36.689l11.389-37.688a13.93 13.93 0 01-.404-.358z" fill="#394962"/><path data-name="Контур 296" d="M86.565 90.425l-5.258-3.356-8.973 4.446-9.176-4.446-5.258 3.356 9.6 12.455 4.737-7.124 4.737 7.124z" fill="#bcadb4" style="mix-blend-mode:multiply;isolation:isolate"/><path data-name="Контур 297" d="M96.9 139.442c2.151-20.788 8.8-45.018 7.729-47.259-1.917-4.022-11.861-2.676-18.282-4.162a42.47 42.47 0 01-3.721 1.721l-9.361 30.979C72.953 119.62 61.6 93.593 61 89.168a44.613 44.613 0 01-2.374-1.147c-6.422 1.486-18.267.288-20.184 4.31-1.142 2.4 7.139 24.12 9.326 46.213 1.85 18.728-2.368 42.52-2.756 44.456 0 0 10.821 2.577 18.81-.859 3.439-1.479 5.665-6.013 8.409-22.978 0 0 1.962 20.617 8.477 23.3 5.5 2.265 18.81.536 18.81.536-.418-2.083-4.718-23.272-2.618-43.557z" fill="#17899c"/><path data-name="Контур 298" d="M87.531 98.44l3.589-.846c-.026-.818-.041-7.166-.077-8.888a41.139 41.139 0 01-5.618-.685c-1.21.63-2.349 2.4-3.465 2.852l-8.29 31.673c-.294-1.031-11.417-28.062-11.987-32.21-.724-.324-1.307-1.5-2.068-1.9-1.878.435-5.22.229-7.649.4.062 1.188.833 7.987.91 9.573l3.723.878-2.593 2.868c1.108 2.289 19.343 27.552 19.343 27.552.47-.749 15.278-23.769 17.061-28.407z" fill="#17909c" opacity=".35" style="mix-blend-mode:multiply;isolation:isolate"/><path data-name="Контур 299" d="M82.335 87.069l8.008 1.367v8.34l-5.112 1.074 3.845 3.758-15.808 26.7v-7.589z" fill="#2e96a6"/><path data-name="Контур 300" d="M60.758 87.069l-7.818 2.215.882 8.293 5.2.522-3.426 4.147 17.755 25.926v-7.754z" fill="#2e96a6"/><path data-name="Контур 301" d="M96.347 149.346c0-.261.007-.521.012-.783.061-3.016.229-6.078.544-9.121 1.365-13.192 5.3-27.705 7.729-37.127a158.974 158.974 0 00-4.635 1.791 37.882 37.882 0 00-7.569 4.431c-2.2 1.558-3.347 4.834-4.976 6.97-3.485 4.569-7.523 11.508-13.3 12.658a14.1 14.1 0 01-5.221.084c-4.27-.112-8.12-6.023-10.995-9.32q-.478-.471-.947-.96a6.981 6.981 0 01-1.184-1.651c-1.151-1.485-2.225-2.956-3.255-4.232-1.781-2.209-3.6-4.551-5.315-6.424a50.83 50.83 0 01-2.554-2.188 21.289 21.289 0 00-1.981-1.507c-.392-.2-.788-.392-1.184-.585-.08-.017-.158-.044-.238-.057a5.045 5.045 0 01-1.3-.395c2.3 8.825 6.347 23.132 7.78 37.613.311 3.146.448 6.435.462 9.739v.429q0 1.461-.025 2.921A212.2 212.2 0 0145.012 183s.823.2 2.178.407c1.075-1.761 6.858-13.98 4.906-31.765 2.531-.131 3.546-.288 3.546-.288l1.1 3.414a161.963 161.963 0 0033.958-1.712 64.416 64.416 0 002.039 12.626c1.377 5.307 2.788 12.141 5.9 17.419.563-.062.885-.1.885-.1a171.731 171.731 0 01-3.187-31.259q-.009-1.192.01-2.396z" fill="#52acb5" opacity=".5" style="mix-blend-mode:multiply;isolation:isolate"/><path data-name="Контур 302" d="M71.641 86.2c5.671 0 8.236-1.855 8.973-2.3-2.122-4.109-2.124-9.912-2.124-9.912H65.9s0 6.233-2.362 10.353a25.256 25.256 0 008.103 1.859z" fill="#dcb890" opacity=".55" style="mix-blend-mode:multiply;isolation:isolate"/><g data-name="Сгруппировать 84"><path data-name="Контур 303" d="M53.763 61.432c2.071-2.819 6.766 1.772 6.766 1.772s2.915 3.422-.48 7.558c-1.7 2.068-3.657.5-4.969-1.954s-2.793-5.365-1.317-7.376z" fill="#f2ab88"/><path data-name="Контур 304" d="M56.742 69.093a1.951 1.951 0 001.725.713.689.689 0 00.479-.73c-.2-.612-2.137-1.7-1.653-3.408.488-1.724-1.691-3.375-2.37-2.427-.53.74.11 4.111 1.819 5.852z" fill="#db7a5b"/></g><g data-name="Сгруппировать 85"><path data-name="Контур 305" d="M90.611 61.432c-2.071-2.819-6.766 1.768-6.766 1.768s-2.915 3.422.479 7.558c1.7 2.068 3.658.5 4.969-1.954s2.793-5.361 1.318-7.372z" fill="#f2ab88"/><path data-name="Контур 306" d="M87.631 69.093a1.952 1.952 0 01-1.725.713.69.69 0 01-.479-.73c.2-.612 2.138-1.7 1.654-3.408-.489-1.724 1.691-3.375 2.37-2.427.53.74-.111 4.111-1.82 5.852z" fill="#db7a5b"/></g><path data-name="Контур 307" d="M87.515 48.063a10.076 10.076 0 00-3.966-5.849 18 18 0 00-22.633 0 10.076 10.076 0 00-3.966 5.849s-.973 18.124 3.526 25.073c3.486 5.384 7.875 8.3 11.756 8.3s8.27-2.92 11.756-8.3c4.5-6.948 3.527-25.073 3.527-25.073z" fill="#f2ab88"/><path data-name="Контур 308" d="M58.5 62.623c-.5-7.926.352-13.817.807-14.518a17.717 17.717 0 005.238-7S71.03 44.269 81.3 43c0 0 1.908 2.7 3.637 5.481.836 1.345 1.2 9.09.966 14.116a2.482 2.482 0 00.786 1.948l.337.308c1.267-2.575 2.52-13.42 1.879-17-1.806-10.1-9.079-11.172-16.318-11.172a20.5 20.5 0 00-8.72 2c-.557-.165-1.4-.362-1.388-.473-3.872.26-5.853 5.789-7 9.64-1.158 3.9.612 14.429 1.879 17l.012-.008a2.443 2.443 0 001.13-2.217z" fill="#995235"/><path data-name="Контур 309" d="M62.681 42.237q.548.239 1.078.5a16.663 16.663 0 00.781-1.631S71.03 44.269 81.3 43c0 0 1.619 2.294 3.226 4.828a14.51 14.51 0 003.948-1.867c-2.34-8.351-9.128-9.284-15.888-9.284a20.5 20.5 0 00-8.72 2c-.557-.165-1.4-.362-1.388-.473a4.717 4.717 0 00-3.037 1.515l.036.046a8.343 8.343 0 003.204 2.472z" fill="#995235" opacity=".35" style="mix-blend-mode:multiply;isolation:isolate"/><path data-name="Контур 310" d="M89.231 36.273c0 3.549-5.8 2.055-13.382-2.242-7.433-4.211-11.125-.556-12.625 1.866a15.422 15.422 0 011.74-4.855 5.242 5.242 0 00-3.082 6.715 5.681 5.681 0 00-5.02 1.085s3.926-.619 5.373.627c.188.161.794.446.864.511 4.066 4.495 8.082 6.679 16.454 6.07 4.626-.337 6.166-.876 8.364-3.238a6.889 6.889 0 001.314-6.539z" fill="#995235"/><path data-name="Контур 311" d="M79.552 46.049c4.358-.317 5.977-.816 7.988-2.847a12.1 12.1 0 01-8.684-3.1c-.077 1.16.5 2.705 2.04 4.484a20.752 20.752 0 01-10.054-4.256c.616 1.237 1.243 3.285 1.859 3.9-1.91 0-6.994-2.236-8.138-2.751 3.624 3.47 7.619 5.106 14.989 4.57z" fill="#995235" opacity=".5" style="mix-blend-mode:multiply;isolation:isolate"/><g data-name="Сгруппировать 87"><path data-name="Контур 312" d="M81.666 59.741a3.257 3.257 0 11-3.253-3.094 3.176 3.176 0 013.253 3.094z" fill="#fdfaee"/><path data-name="Контур 313" d="M79.6 61.972a8.456 8.456 0 01-1.716.189 3.146 3.146 0 01-2.431-1.132 3.32 3.32 0 005.954-.087 4.008 4.008 0 01-1.807 1.03z" fill="#e78660"/><g data-name="Сгруппировать 86"><path data-name="Контур 314" d="M80.321 59.9a1.907 1.907 0 11-1.907-1.89 1.9 1.9 0 011.907 1.89z" fill="#633837"/><path data-name="Контур 315" d="M79.572 59.9a1.158 1.158 0 11-1.159-1.148 1.153 1.153 0 011.159 1.148z" fill="#321413"/></g><path data-name="Контур 316" d="M76.276 58.8a6.694 6.694 0 012.319-.317 5.722 5.722 0 013.064 1.117c-.077-1.643-.7-3.451-3.224-3.618-2.433-.162-3.092 1.883-3.258 3.444a2.711 2.711 0 011.099-.626z" fill="#e78660"/></g><g data-name="Сгруппировать 89"><path data-name="Контур 317" d="M62.487 59.741a3.257 3.257 0 103.253-3.094 3.176 3.176 0 00-3.253 3.094z" fill="#fdfaee"/><path data-name="Контур 318" d="M64.549 61.972a8.456 8.456 0 001.716.189 3.146 3.146 0 002.435-1.133 3.32 3.32 0 01-5.954-.087 4.008 4.008 0 001.803 1.031z" fill="#e78660"/><g data-name="Сгруппировать 88"><path data-name="Контур 319" d="M63.833 59.9a1.907 1.907 0 101.907-1.89 1.9 1.9 0 00-1.907 1.89z" fill="#633837"/><path data-name="Контур 320" d="M64.582 59.9a1.158 1.158 0 101.159-1.148 1.153 1.153 0 00-1.159 1.148z" fill="#321413"/></g><path data-name="Контур 321" d="M67.878 58.8a6.694 6.694 0 00-2.319-.317 5.722 5.722 0 00-3.064 1.117c.077-1.643.7-3.451 3.224-3.618 2.433-.162 3.092 1.883 3.258 3.444a2.711 2.711 0 00-1.099-.626z" fill="#e78660"/></g><g data-name="Сгруппировать 90"><path data-name="Контур 322" d="M71.694 69.073a3.722 3.722 0 01-1.338-.25A1.826 1.826 0 0169.1 67.51c-.135-.8 2.353-11.751 2.344-11.8a.315.315 0 11.619-.116c.038.2-2.431 11.283-2.342 11.809a1.255 1.255 0 00.868.832 2.487 2.487 0 002.175-.081.314.314 0 01.441.061.318.318 0 01-.061.443 2.4 2.4 0 01-1.45.415z" fill="#ce7959"/></g><path data-name="Контур 323" d="M75.107 50.631s4.42-.263 5.484.19 3.338 2.276 3.193 2.966-3.692-.93-4.126-.848-4.629.293-4.962-.3c-.385-.686-.331-2.003.411-2.008z" fill="#884627"/><path data-name="Контур 324" d="M69.1 50.736s-4.413-.412-5.486 0S60.23 52.9 60.361 53.6s3.71-.8 4.142-.709 4.621.45 4.967-.132c.399-.674.372-1.992-.37-2.023z" fill="#884627"/><path data-name="Контур 325" d="M66.964 59.451a.374.374 0 11-.374-.376.375.375 0 01.374.376z" fill="#fdfaee"/><ellipse data-name="Эллипс 3" cx=".374" cy=".376" rx=".374" ry=".376" transform="translate(78.752 59.075)" fill="#fdfaee"/><path data-name="Контур 326" d="M78.6 70.039c-.353-.033-.489-.492-.492-.5a.315.315 0 10-.607.167 1.475 1.475 0 00.174.391c-5.489 4.355-10.847.587-11.657-.033a1.517 1.517 0 00.153-.358.315.315 0 00-.607-.167c0 .005-.137.47-.492.5a.316.316 0 00.028.631h.03a1.033 1.033 0 00.45-.15 11.522 11.522 0 006.536 2.252 9.418 9.418 0 006.011-2.23 1.045 1.045 0 00.415.128h.03a.316.316 0 00.028-.631z" fill="#ce7959"/><g data-name="Сгруппировать 91"><path data-name="Контур 327" d="M72.025 74.5a4.829 4.829 0 01-2.707-.835.21.21 0 01.255-.335 4.345 4.345 0 004.933-.011.208.208 0 01.289.067.211.211 0 01-.066.291 5.017 5.017 0 01-2.704.823z" fill="#ce7959"/></g><path data-name="Контур 328" d="M84.172 65.8c0 1.479-1.62 2.678-3.619 2.678s-3.62-1.2-3.62-2.678 1.621-2.679 3.62-2.679 3.619 1.196 3.619 2.679z" fill="url(#a)"/><path data-name="Контур 329" d="M60.22 65.8c0 1.479 1.621 2.678 3.62 2.678s3.619-1.2 3.619-2.678-1.62-2.679-3.619-2.679-3.62 1.196-3.62 2.679z" fill="url(#b)"/><path data-name="Контур 330" d="M58.36 56.578a10.222 10.222 0 01-2.95-.551 35.392 35.392 0 001.948 8.831l.012-.008a2.443 2.443 0 001.13-2.227 72.822 72.822 0 01-.14-6.045z" fill="#995235" opacity=".35" style="mix-blend-mode:multiply;isolation:isolate"/><path data-name="Контур 331" d="M85.929 56.734a81.166 81.166 0 01-.028 5.868 2.482 2.482 0 00.786 1.948l.337.308c.712-1.45 1.419-5.513 1.787-9.43a8.884 8.884 0 01-2.882 1.306z" fill="#995235" opacity=".35" style="mix-blend-mode:multiply;isolation:isolate"/><path data-name="Контур 332" d="M63.157 84.723L57.9 88.079l9.6 12.455 4.838-9.019z" fill="#394962"/><path data-name="Контур 333" d="M81.307 84.723l5.258 3.356-9.6 12.455-4.838-9.019z" fill="#394962"/><path data-name="Контур 334" d="M103.98 91.281a59.968 59.968 0 00-9.814 15.5 28.7 28.7 0 00-2.166 13.6c.283 3.588.558 8.5.072 9.762-.789 2.046-33.982 3.248-33.982 3.248l1.747 14.815s40.8.473 47.09-4.4c5.559-4.306-.057-51.474-2.947-52.525z" fill="#17899c"/><path data-name="Контур 335" d="M92.069 130.143a3.662 3.662 0 00.17-.825 5.165 5.165 0 01.1 1.97 3.129 3.129 0 01-.862 1.823c-.611.8-4.617 1.309-4.932 1.709-.79 1-.183 3.266.088 5.5-1.818 1.112-14.3 5.194-26.983 6.308l-1.56-13.234s33.19-1.205 33.979-3.251z" fill="#52acb5" opacity=".65" style="mix-blend-mode:multiply;isolation:isolate"/><path data-name="Контур 336" d="M88.152 132.919c1.633-.515 3.54-1.048 4.229-2.479.42-.873-.053-4.176-.053-4.176a24.14 24.14 0 00-2.84-.872c-2.124-.363-7.565 3.541-7.565 3.541a10.5 10.5 0 00.656 4.355c.118.354 2.614.108 2.957.1a10.071 10.071 0 002.616-.469z" fill="#f2ab88"/><path data-name="Контур 337" d="M92.327 126.263a9.772 9.772 0 00-.928-.331c.266 2.707.286 5.291-3.221 6.009-1.278.261-4.6.36-5.844.507.075.277.155.558.244.84.118.354 2.614.108 2.957.1a10.071 10.071 0 002.616-.465c1.633-.515 3.54-1.048 4.229-2.479.42-.878-.053-4.181-.053-4.181z" fill="#d49481" opacity=".35" style="mix-blend-mode:multiply;isolation:isolate"/><path data-name="Контур 338" d="M38.438 92.332s-9.963 36.987-3.871 49.917c5.35 11.355 49.648-3.357 49.648-3.357l-2.2-11.986s-34.242 4.592-34.242 2.412a35.632 35.632 0 01.645-6.179 25.832 25.832 0 00.076-10.886C46.9 104.6 43.537 92.332 38.438 92.332z" fill="#17899c"/><path data-name="Контур 339" d="M44.8 117.372c1.842-2.1 3.789.447 4.219.875a26.05 26.05 0 01-.6 4.893 40.078 40.078 0 00-.644 6.01c-.537-.412-7.417-6.709-2.975-11.778z" fill="#52acb5" opacity=".65" style="mix-blend-mode:multiply;isolation:isolate"/><g data-name="Сгруппировать 92"><path data-name="Контур 340" d="M45.6 122.294c-.912-.189-1.344.418-.959 1.333.216.512 2.306 2.925 4.552 6.124a25.058 25.058 0 007-.032c-.8-3.811-6.341-10.807-7.822-11.585-1.43-.752-1.788.363-1.788.363-2-.573-1.45 1.17-1.45 1.17-1.506.653.467 2.627.467 2.627z" fill="#f2ab88"/><path data-name="Контур 341" d="M45.554 122.286s3.339 3.7 3.735 4.466c.179.346.31.188-.09-.429a32.086 32.086 0 00-3.645-4.037z" fill="#d69c7c" opacity=".65" style="mix-blend-mode:multiply;isolation:isolate"/><path data-name="Контур 342" d="M45.154 119.668s3.881 3.453 5.154 5.675c.207.362.386.252-.129-.554a23.809 23.809 0 00-5.025-5.121z" fill="#d69c7c" opacity=".65" style="mix-blend-mode:multiply;isolation:isolate"/><path data-name="Контур 343" d="M46.569 118.476a42.659 42.659 0 015.053 6.011c.207.362.386.252-.13-.554a28.509 28.509 0 00-4.923-5.457z" fill="#d69c7c" opacity=".65" style="mix-blend-mode:multiply;isolation:isolate"/><path data-name="Контур 344" d="M55.761 128.353a11.273 11.273 0 01-2.014.363c-3.386.6-6.561-1.967-6.86-2.088.693.9 1.488 1.959 2.3 3.123a25.085 25.085 0 007-.032 8.7 8.7 0 00-.426-1.366z" fill="#d49481" opacity=".35" style="mix-blend-mode:multiply;isolation:isolate"/></g></g></g></svg>