<svg xmlns="http://www.w3.org/2000/svg" xmlns:xlink="http://www.w3.org/1999/xlink" width="113" height="270"><defs><radialGradient id="a" cx=".5" cy=".5" r=".633" gradientTransform="matrix(.737 0 0 .855 -1.371 .072)" gradientUnits="objectBoundingBox"><stop offset="0" stop-color="#f29788"/><stop offset=".612" stop-color="#f2a288"/><stop offset=".92" stop-color="#f2ab88"/></radialGradient><radialGradient id="b" cx=".5" cy=".5" r=".634" gradientTransform="matrix(-.737 0 0 .855 -132.162 .072)" xlink:href="#a"/></defs><g data-name="Векторный смарт-объект"><g data-name="Сгруппировать 83"><path data-name="Контур 195" d="M57.455 251.669l8.256.708s5.711 7.34 7.138 8.4 10.618 3.183 10.261 4.863-2.587 3.625-6.067 3.271a52.132 52.132 0 01-7.762-1.061 87.168 87.168 0 00-13.187-2.856 1.791 1.791 0 01-1.494-1.314c1.294-3.466 1.649-7.071 2.855-12.011z" fill="#f2ab88"/><path data-name="Контур 196" d="M56.118 255.716c2.983 1.154 5 2 7.477 1.867a3.576 3.576 0 00.439-.058c2.263 2.081 4.377 3.489 3.672 2.192-.289-.532-1.119-1.757-1.595-2.762a17.009 17.009 0 002.519-1.3 36.231 36.231 0 005.7 5.136c1.608 1.2 11.958 3.585 11.557 5.478s-2.914 4.083-6.834 3.685a126.021 126.021 0 01-13.26-2.322 5.716 5.716 0 00-3.849-1.537 7.271 7.271 0 00-1.411.136c-1.3-.25-2.7-.486-4.184-.688a2.014 2.014 0 01-1.746-1.856c-.128-1.889.872-5.086 1.515-7.971z" fill="#5c3f31"/><path data-name="Контур 197" d="M54.664 262.276c1.009.266 2.25.392 4.345.863 5.842 1.315 6.034 2.974 8.215 3.64a38.691 38.691 0 0012.381 1.9 7.647 7.647 0 006.283-2.55.55.55 0 01-.005.139c-.4 1.892-2.914 4.083-6.834 3.685a126.021 126.021 0 01-13.26-2.322 5.716 5.716 0 00-3.849-1.537 7.271 7.271 0 00-1.411.136c-1.3-.25-2.7-.486-4.184-.688a2.014 2.014 0 01-1.746-1.856 93.06 93.06 0 01.065-1.41z" fill="#371909"/><path data-name="Контур 198" d="M41.058 251.669l-8.257.708s-5.711 7.34-7.138 8.4-10.617 3.183-10.26 4.863 2.587 3.625 6.067 3.271a52.145 52.145 0 007.763-1.061 87.128 87.128 0 0113.186-2.856 1.79 1.79 0 001.494-1.314c-1.294-3.466-1.649-7.071-2.855-12.011z" fill="#f2ab88"/><path data-name="Контур 199" d="M42.395 255.716c-2.984 1.154-5 2-7.477 1.867a3.568 3.568 0 01-.438-.058c-2.264 2.081-4.378 3.489-3.673 2.192.289-.532 1.119-1.757 1.595-2.762a17.08 17.08 0 01-2.519-1.3 36.239 36.239 0 01-5.7 5.136c-1.608 1.2-11.959 3.585-11.557 5.478s2.914 4.083 6.833 3.685a125.983 125.983 0 0013.26-2.322 5.718 5.718 0 013.849-1.537 7.278 7.278 0 011.411.136c1.3-.25 2.7-.486 4.183-.688a2.012 2.012 0 001.746-1.856c.13-1.889-.87-5.086-1.513-7.971z" fill="#5c3f31"/><path data-name="Контур 200" d="M43.85 262.276c-1.009.266-2.251.392-4.346.863-5.842 1.315-6.034 2.974-8.214 3.64a38.7 38.7 0 01-12.382 1.9 7.644 7.644 0 01-6.282-2.55.518.518 0 00.005.139c.4 1.892 2.914 4.083 6.833 3.685a125.983 125.983 0 0013.26-2.322 5.718 5.718 0 013.849-1.537 7.278 7.278 0 011.411.136c1.3-.25 2.7-.486 4.183-.688a2.012 2.012 0 001.746-1.856c.005-.068-.063-1.41-.063-1.41z" fill="#371909"/><path data-name="Контур 201" d="M69.548 192.919c3.819-43.829-.625-63.079-.625-63.079l-21.928-13.7-22.425 13.7s-1.726 19.914 2.091 63.743c0 0 1.493 43.4 1.533 61.353 0 0 10.119 2.683 15.72-.239 0 0-.486-47.386-.635-55-.119-6.077 1.279-33.593 2.566-46.378a.906.906 0 011.8 0c1.287 12.786 4.614 40.3 4.5 46.378-.149 7.613 3.031 55 3.031 55 5.6 2.921 15.446.239 15.446.239.036-17.949-1.074-62.017-1.074-62.017z" fill="#28567a"/><path data-name="Контур 202" d="M24.341 154.829c3.457.315 11.93.739 16.355-.767 3.007-1.023 6.271-3.586 9.61-1.414 5.815 3.783 13.72 2.6 20.726 1.3-.358-16.506-2.11-24.106-2.11-24.106l-21.928-13.7-22.425 13.7s-.691 7.997-.228 24.987z" fill="#28567a" opacity=".35" style="mix-blend-mode:multiply;isolation:isolate"/><path data-name="Контур 203" d="M37.016 67.808a59.54 59.54 0 003.824 1.764l.045.015c1.567.514 3.147 1 4.75 1.381 2.98-.612 5.943-1.256 8.977-1.7l.034-.019c1.052-.616 2.108-1.238 3.119-1.922.107-.1.206-.19.289-.277 1.482-1.55 2.762-3.261 4.2-4.84 1.4-1.535 2.935-2.975 4.292-4.554.031-.06.06-.117.1-.184.082-.155.159-.311.238-.466a27.663 27.663 0 01-7.508-1.273c-5.683-2.294-5.683-13.349-5.683-13.349H41.065s0 11.055-5.683 13.349a28.927 28.927 0 01-7.861 1.3c1.4 2.079 2.691 4.229 4.1 6.482.333.533 1 1.354 1.389 1.846.156.139.314.275.478.405l.18.139c.151.094.3.2.448.289.952.562 1.909 1.121 2.9 1.614z" fill="#f2ab88"/><path data-name="Контур 204" d="M60.048 61.706a9.021 9.021 0 00-3.1-2.322c-.67-.2-1.355-.379-2.045-.553a34.527 34.527 0 01-6.967.822 35.333 35.333 0 01-8.4-1.155c-.712.631-1.408 1.287-2.139 1.885a34.452 34.452 0 00-3.274 2.665c4.6 12.487 14.563 35.1 14.91 36.3l11.423-37.289a10.643 10.643 0 01-.408-.353z" fill="#394962"/><path data-name="Контур 205" d="M61.792 58.644l-5.274-3.321-9 4.4-9.2-4.4-5.274 3.321 9.625 12.324 4.751-7.049 4.751 7.049z" fill="#bcadb4" style="mix-blend-mode:multiply;isolation:isolate"/><path data-name="Контур 206" d="M72.161 107.143c2.158-20.568 9.767-43.768 8.7-45.984-1.923-3.98-12.841-3.423-19.282-4.893a42.548 42.548 0 01-3.732 1.7l-9.391 30.651c-.315-1.089-11.7-26.84-12.309-31.219a44.36 44.36 0 01-2.382-1.135c-6.442 1.471-18.323.285-20.245 4.265-1.145 2.37 7.161 23.865 9.355 45.724 1.859 18.529-2.372 42.069-2.76 43.983 0 0 10.854 2.55 18.868-.85 3.449-1.463 5.682-5.95 8.435-22.735 0 0 1.968 20.4 8.5 23.054 5.517 2.241 18.868.531 18.868.531-.418-2.059-4.731-23.022-2.625-43.092z" fill="#17899c"/><path data-name="Контур 207" d="M48.454 94.34s-.4 25.252-1.074 32.528c.005-.001-.429-24.892 1.074-32.528z" fill="#1d5069" opacity=".65"/><path data-name="Контур 208" d="M62.761 66.576l3.6-.837c-.026-.809-.041-7.09-.077-8.794a41.78 41.78 0 01-5.634-.678c-1.214.624-2.357 2.376-3.476 2.822l-8.316 31.338c-.3-1.02-11.452-27.765-12.023-31.869-.726-.32-1.311-1.487-2.075-1.88-1.883.431-5.236.227-7.672.4.062 1.176.835 7.9.912 9.472l3.734.869-2.6 2.838c1.112 2.265 19.4 27.26 19.4 27.26.471-.741 15.325-23.517 17.113-28.106z" fill="#17909c" opacity=".35" style="mix-blend-mode:multiply;isolation:isolate"/><path data-name="Контур 209" d="M57.549 55.323l8.036 1.353v8.252l-5.128 1.062 3.857 3.718-15.856 26.419v-7.508z" fill="#2e96a6"/><path data-name="Контур 210" d="M35.906 55.323l-7.841 2.191.885 8.205 5.213.516-3.436 4.1 17.809 25.652v-7.672z" fill="#2e96a6"/><path data-name="Контур 211" d="M22.017 77.968c-.052.142-1.2.777-1.251.918a198.684 198.684 0 00-1.822 5.164c1.356 5.728 2.529 11.5 3.341 17.332a113.163 113.163 0 011.025 17.961 207.424 207.424 0 01-3.2 30.893s1.385.324 3.528.587c1.183-6.5 4.957-21.646 5.791-36.478-.1-4.769-5.65-30.993-7.412-36.377z" fill="#52acb5" opacity=".5" style="mix-blend-mode:multiply;isolation:isolate"/><path data-name="Контур 213" d="M71.693 113.682l.019-.471q.063-1.362.16-2.728l.039-.517c.072-.942.152-1.884.251-2.823.089-.847.193-1.7.3-2.554 1.357-10.615 4.211-21.8 6.429-30.274-2.484 1.809-9.893 15.747-11.043 21.562-4.207 21.279-.368 45.256 3.572 54.7a80.24 80.24 0 003.368-.336 167.692 167.692 0 01-3.2-30.89c-.003-1.869.026-3.763.105-5.669z" fill="#52acb5" opacity=".5" style="mix-blend-mode:multiply;isolation:isolate"/><path data-name="Контур 214" d="M46.822 54.463c5.688 0 8.261-1.835 9-2.272-2.128-4.066-2.13-9.807-2.13-9.807H41.065s0 6.167-2.369 10.244a25.62 25.62 0 008.126 1.835z" fill="#dcb890" opacity=".55" style="mix-blend-mode:multiply;isolation:isolate"/><path data-name="Контур 215" d="M38.313 53.002l-5.274 3.321 9.625 12.324 4.853-8.924z" fill="#394962"/><path data-name="Контур 216" d="M56.518 53.002l5.274 3.321-9.625 12.323-4.853-8.924z" fill="#394962"/><g data-name="Сгруппировать 72" transform="translate(-445.515 -30.824)"><g data-name="Сгруппировать 64"><path data-name="Контур 217" d="M474.481 60.827c2.072-2.783 6.771 1.749 6.771 1.749s2.917 3.377-.48 7.461c-1.7 2.042-3.66.5-4.973-1.928s-2.799-5.298-1.318-7.282z" fill="#f2ab88"/><path data-name="Контур 218" d="M477.463 68.389a1.968 1.968 0 001.726.7.682.682 0 00.479-.721c-.2-.6-2.14-1.679-1.655-3.364.489-1.7-1.692-3.332-2.372-2.4-.53.738.111 4.066 1.822 5.785z" fill="#db7a5b"/></g><g data-name="Сгруппировать 65"><path data-name="Контур 219" d="M511.358 60.827c-2.072-2.783-6.771 1.749-6.771 1.749s-2.917 3.377.48 7.461c1.7 2.042 3.66.5 4.973-1.928s2.796-5.298 1.318-7.282z" fill="#f2ab88"/><path data-name="Контур 220" d="M508.377 68.389a1.97 1.97 0 01-1.726.7.681.681 0 01-.479-.721c.2-.6 2.139-1.679 1.655-3.364-.489-1.7 1.693-3.332 2.372-2.4.529.738-.111 4.066-1.822 5.785z" fill="#db7a5b"/></g><path data-name="Контур 221" d="M508.259 47.629a9.942 9.942 0 00-3.969-5.774 18.206 18.206 0 00-22.65 0 9.94 9.94 0 00-3.969 5.774s-.971 17.892 3.529 24.752c3.489 5.315 7.881 8.2 11.766 8.2s8.276-2.883 11.765-8.2c4.503-6.86 3.528-24.752 3.528-24.752z" fill="#f2ab88"/><path data-name="Контур 222" d="M479.217 62c-.5-7.825.353-13.641.808-14.333a17.52 17.52 0 005.242-6.909s6.495 3.122 16.771 1.873c0 0 1.91 2.667 3.64 5.411.837 1.327 1.2 8.974.966 13.935a2.435 2.435 0 00.787 1.923l.337.3c1.268-2.542 2.522-13.248 1.881-16.787-1.808-9.975-9.087-11.029-16.332-11.029a20.743 20.743 0 00-8.727 1.98c-.557-.163-1.4-.357-1.389-.467-3.875.256-5.858 5.714-7 9.517-1.159 3.85.613 14.246 1.881 16.787l.012-.007A2.4 2.4 0 00479.217 62z" fill="#995235"/><path data-name="Контур 223" d="M483.406 41.877q.548.236 1.079.494a16.237 16.237 0 00.782-1.609s6.495 3.122 16.771 1.873c0 0 1.621 2.264 3.229 4.766a14.6 14.6 0 003.95-1.843c-2.341-8.244-9.135-9.166-15.9-9.166a20.743 20.743 0 00-8.727 1.98c-.557-.163-1.4-.357-1.389-.467a4.739 4.739 0 00-3.039 1.5l.036.046a8.33 8.33 0 003.208 2.426z" fill="#995235" opacity=".35" style="mix-blend-mode:multiply;isolation:isolate"/><path data-name="Контур 224" d="M509.978 35.988c0 3.5-5.8 2.029-13.394-2.213-7.438-4.157-11.134-.549-12.635 1.842a15.108 15.108 0 011.742-4.794c-3.854 1.8-3.6 4.906-3.085 6.629a5.749 5.749 0 00-5.024 1.07s3.93-.611 5.378.619c.188.16.8.44.865.5 4.068 4.437 8.089 6.593 16.466 5.992 4.63-.333 6.171-.866 8.371-3.2a6.725 6.725 0 001.316-6.445z" fill="#995235"/><path data-name="Контур 225" d="M500.291 45.641c4.362-.313 5.982-.805 7.994-2.81a12.213 12.213 0 01-8.69-3.065c-.077 1.144.5 2.671 2.041 4.426a20.911 20.911 0 01-10.062-4.2c.616 1.221 1.243 3.243 1.86 3.854-1.911 0-7-2.208-8.144-2.715 3.627 3.423 7.624 5.038 15.001 4.51z" fill="#995235" opacity=".5" style="mix-blend-mode:multiply;isolation:isolate"/><g data-name="Сгруппировать 66"><path data-name="Контур 226" d="M492.427 68.369a3.778 3.778 0 01-1.34-.246 1.814 1.814 0 01-1.257-1.3c-.135-.786 2.355-11.6 2.346-11.648a.315.315 0 01.619-.115c.038.2-2.433 11.14-2.344 11.659a1.249 1.249 0 00.868.821 2.52 2.52 0 002.177-.081.318.318 0 01.441.06.31.31 0 01-.06.437 2.421 2.421 0 01-1.45.413z" fill="#ce7959"/></g><path data-name="Контур 227" d="M497.043 49.424s4.395.567 5.356 1.2 2.856 2.828 2.585 3.47-3.456-1.588-3.9-1.59-4.6-.576-4.822-1.213c-.247-.733.051-1.999.781-1.867z" fill="#884627"/><path data-name="Контур 228" d="M488.205 49.534s-4.412.445-5.387 1.054-2.908 2.742-2.647 3.39 3.489-1.489 3.932-1.479 4.624-.448 4.852-1.078c.264-.727-.016-1.998-.75-1.887z" fill="#884627"/><ellipse data-name="Эллипс 2" cx="3.622" cy="2.644" rx="3.622" ry="2.644" transform="translate(497.67 62.491)" fill="url(#a)"/><path data-name="Контур 229" d="M480.943 65.135c0 1.461 1.622 2.645 3.622 2.645s3.622-1.184 3.622-2.645-1.622-2.644-3.622-2.644-3.622 1.184-3.622 2.644z" fill="url(#b)"/><path data-name="Контур 230" d="M479.082 56.035a10.383 10.383 0 01-2.952-.544 34.536 34.536 0 001.95 8.717l.012-.007a2.4 2.4 0 001.125-2.2 72.963 72.963 0 01-.135-5.966z" fill="#995235" opacity=".35" style="mix-blend-mode:multiply;isolation:isolate"/><path data-name="Контур 231" d="M506.672 56.188c.06 2 .054 4.059-.028 5.793a2.435 2.435 0 00.787 1.923l.337.3c.713-1.431 1.42-5.442 1.789-9.309a8.942 8.942 0 01-2.885 1.293z" fill="#995235" opacity=".35" style="mix-blend-mode:multiply;isolation:isolate"/><g data-name="Сгруппировать 67"><path data-name="Контур 232" d="M486 68.555s7.61 2.7 12.624-.716c0 0-.386 6-5.977 6.281-3.721.186-5.933-2.663-6.647-5.565z" fill="#9f1818"/><path data-name="Контур 233" d="M492.034 72a7.866 7.866 0 00-3.617.677 6.157 6.157 0 007.816.1 10.307 10.307 0 00-4.199-.777z" fill="#e34848"/><path data-name="Контур 234" d="M486.9 68.825c.093.364.238.825.321 1.085a.387.387 0 00.231.242c4.845 1.864 8.031.919 9.723-.219a.364.364 0 00.138-.169 11.683 11.683 0 00.5-1.434c-3.897 2.063-8.913 1.042-10.913.495z" fill="#fdfaee"/></g><g data-name="Сгруппировать 69"><path data-name="Контур 235" d="M501.941 58.527a3.262 3.262 0 11-3.256-3.054 3.16 3.16 0 013.256 3.054z" fill="#fdfaee"/><path data-name="Контур 236" d="M499.878 60.73a8.61 8.61 0 01-1.718.186 3.168 3.168 0 01-2.433-1.118 3.344 3.344 0 005.96-.086 4.028 4.028 0 01-1.809 1.018z" fill="#e78660"/><g data-name="Сгруппировать 68"><path data-name="Контур 237" d="M500.594 58.687a1.909 1.909 0 11-1.909-1.866 1.888 1.888 0 011.909 1.866z" fill="#633837"/><path data-name="Контур 238" d="M499.845 58.687a1.16 1.16 0 11-1.159-1.134 1.147 1.147 0 011.159 1.134z" fill="#321413"/></g><path data-name="Контур 239" d="M496.547 57.6a6.766 6.766 0 012.32-.313 5.769 5.769 0 013.067 1.1c-.077-1.622-.7-3.407-3.226-3.573-2.435-.16-3.1 1.86-3.261 3.4a2.724 2.724 0 011.1-.614z" fill="#e78660"/></g><g data-name="Сгруппировать 71"><path data-name="Контур 240" d="M482.747 58.527A3.262 3.262 0 10486 55.474a3.16 3.16 0 00-3.253 3.053z" fill="#fdfaee"/><path data-name="Контур 241" d="M484.81 60.73a8.616 8.616 0 001.718.186 3.168 3.168 0 002.432-1.116 3.344 3.344 0 01-5.96-.086 4.028 4.028 0 001.81 1.016z" fill="#e78660"/><g data-name="Сгруппировать 70"><path data-name="Контур 242" d="M484.094 58.687A1.909 1.909 0 10486 56.821a1.888 1.888 0 00-1.906 1.866z" fill="#633837"/><path data-name="Контур 243" d="M484.842 58.687A1.16 1.16 0 10486 57.554a1.147 1.147 0 00-1.158 1.133z" fill="#321413"/></g><path data-name="Контур 244" d="M488.141 57.6a6.773 6.773 0 00-2.321-.313 5.769 5.769 0 00-3.067 1.1c.078-1.622.7-3.407 3.226-3.573 2.435-.16 3.1 1.86 3.261 3.4a2.726 2.726 0 00-1.099-.614z" fill="#e78660"/></g><path data-name="Контур 245" d="M487.227 58.241a.374.374 0 11-.374-.371.373.373 0 01.374.371z" fill="#fdfaee"/><path data-name="Контур 246" d="M499.773 58.241a.374.374 0 11-.374-.371.373.373 0 01.374.371z" fill="#fdfaee"/></g><g data-name="Сгруппировать 75"><g data-name="Сгруппировать 73"><path data-name="Контур 247" d="M10.37 126.523l-4.611 21.673a3.048 3.048 0 002.01 3.547l39.563 12.74a2.965 2.965 0 003.8-2.307l5.51-28.34a3.033 3.033 0 00-2.48-3.6l-40.463-6.072a2.974 2.974 0 00-3.329 2.359z" fill="#d8d8d7"/><path data-name="Контур 248" d="M10.251 126.462l-4.494 21.12a2.973 2.973 0 001.959 3.458l38.555 12.415a2.889 2.889 0 003.7-2.248l5.371-27.617a2.956 2.956 0 00-2.418-3.51l-39.431-5.918a2.9 2.9 0 00-3.242 2.3z" fill="#e4e4e3"/><path data-name="Контур 249" d="M32.744 145.484c-2.87-2.432-4.5-5.8-6.363-8.973-2.061-3.513-4.132-7.183-5.053-11.175l-7.831-1.175a2.9 2.9 0 00-3.246 2.3l-4.494 21.12a2.973 2.973 0 001.959 3.458l38.555 12.415a2.889 2.889 0 003.7-2.248l3.051-15.689c-6.119 2.959-14.882 4.538-20.278-.033z" fill="#e4e4e3" style="mix-blend-mode:multiply;isolation:isolate"/><path data-name="Контур 250" d="M41.094 158.145c-.141-2-.458-2.723-3.5-4.493-2.591-1.026-7.629-7.539-8.379-8.271a68.878 68.878 0 01-5.772-6.3c-1.53-1.92-2.7-4.519-4.441-6.223-4.576-4.479-5.334 4.762-5.29 7.674.041 2.711-.108 5.508.163 8.207a21.767 21.767 0 001.3 4.7l24.12 7.767c.231-.83 1.87-2.065 1.799-3.061z" fill="#e4e4e3" opacity=".5" style="mix-blend-mode:multiply;isolation:isolate"/><path data-name="Контур 251" d="M32.606 132.868a1.428 1.428 0 11-1.416-1.238 1.336 1.336 0 011.416 1.238z" fill="#fff"/></g><path data-name="Контур 252" d="M16.363 152.626s12.324-1.4 14.009-6.3c-.001.001-14.559-9.069-14.009 6.3z" fill="#00475e"/><g data-name="Сгруппировать 74"><path data-name="Контур 253" d="M18.631 144.729a56.757 56.757 0 01-.113 8.869c-.241 1.845-.3 2.661 3.172 9.8a.676.676 0 00.752.364 2.743 2.743 0 001.794-1.041s1.665 2.728 2.7 1.593c.48-.524 1.015-1.232 1.015-1.232s.84 1.275 1.842 1.128c.666-.1 1.378-1.257 1.669-2.241 0 0 1.243.983 2 .732.405-.134.911-.633 1.8-2.016l-.993-.791s-1.657-.21-3.863-2.608c-1-1.083-.729-2.184.4-1.923 1.476.338 1.083 1.256 3.27 2.843 1.932 1.4 4.644 1.539 5.107.245.761-2.125-2.824-3.247-3.834-4.093-2.163-1.815-4.95-5.251-5.623-5.664-1.109-.68-5.284-2.022-5.366-4.308z" fill="#f2ab88"/><path data-name="Контур 254" d="M18.463 154.066c2.165-4.433 5.409-5.918 10.818-5.619-1.505-.737-4.831-2.023-4.9-4.062l-5.746.345a56.757 56.757 0 01-.113 8.869 8.52 8.52 0 00-.059.467z" fill="#dcb890" opacity=".55" style="mix-blend-mode:multiply;isolation:isolate"/><path data-name="Контур 255" d="M31.285 162.471a4.965 4.965 0 00.174-.477c-.194-.465-2.67-3.685-3.427-4.7a27.286 27.286 0 003.253 5.177z" fill="#d69c7c" opacity=".65" style="mix-blend-mode:multiply;isolation:isolate"/><path data-name="Контур 256" d="M27.632 163.503c.066-.16.277-.265.324-.422-.194-.464-2.82-3.739-3.577-4.751a27.3 27.3 0 003.253 5.173z" fill="#d69c7c" opacity=".65" style="mix-blend-mode:multiply;isolation:isolate"/><path data-name="Контур 257" d="M23.942 163.082a.975.975 0 00.287-.335c-.185-.443-2.019-2.584-2.741-3.55a15.91 15.91 0 002.454 3.885z" fill="#d69c7c" opacity=".65" style="mix-blend-mode:multiply;isolation:isolate"/><path data-name="Контур 258" d="M35.968 156.138c.855-1.067 2.782.559 2.807.668 0 0 .106 1.139-1.353 1.455a2.417 2.417 0 01-1.2-.752c-.514-.525-.502-1.062-.254-1.371z" fill="#ffd7c0"/></g><path data-name="Контур 259" d="M13.615 60.042S-1.332 108.629.096 114.075s15.046 35.77 16.267 38.551c0 0 4.447-6.423 14.009-6.3 0 0-16.39-30.678-16.757-32.01s8.759-24.79 8.963-28.736 3.067-18.753-8.963-25.538z" fill="#17899c"/><path data-name="Контур 260" d="M17.926 91.718c-5.349 13.071-4.348 19.279-4.647 22.219.112.041.229.076.339.118.325-2.862 8.763-24.681 8.96-28.474.072-1.386.465-4.117.429-7.366-.808 1.967-4.05 10.984-5.081 13.503z" fill="#52acb5" opacity=".5" style="mix-blend-mode:multiply;isolation:isolate"/></g><path data-name="Контур 261" d="M90.547 102.155s3.163-6.2 8.755-3.634 6.226 7.082 1.134 10.475-13.132-2.257-9.889-6.841z" fill="#00475e"/><path data-name="Контур 262" d="M88.185 105.486l7.621-5.613 7.861 3.9a22.333 22.333 0 01-9.6 6.6c-5.91 1.92-7.495-3.618-5.882-4.887z" fill="#d98967"/><path data-name="Контур 263" d="M80.929 61.405c.912 1.823 2.245 5.759 3.707 14.253 2.172 12.626.885 26.591.885 26.591l8.351-2.8s-5.191 3.663-.361 7.379c4.652 3.579 9.9 1.809 10.375-3.738 0 0 .7 5.087-2.049 6.726-4.733 2.826-23.059 11.753-24.529 11.453-3.873-.792-6.219-19.155-2.2-42.344 1.058-6.107 5.056-19.049 5.821-17.52z" fill="#17899c"/><path data-name="Контур 264" d="M76.831 109.602c1.534 5.36 11.669-.65 11.669-.65a12.889 12.889 0 013.971-3.093 7.068 7.068 0 001.041.968c4.652 3.579 9.9 1.809 10.375-3.738 0 0 .7 5.087-2.049 6.726-4.733 2.826-23.059 11.753-24.529 11.453-3.24-.663-5.92-14.5-3.147-36.117.89 6.125.982 18.559 2.669 24.451z" fill="#52acb5" opacity=".5" style="mix-blend-mode:multiply;isolation:isolate"/><path data-name="Контур 265" d="M98.226 96.331s-6.974 5.262-5.872 7.037a8.505 8.505 0 008.754 3.12c3.073-.889 6.643-10.268 6.547-11.156-.2-1.845-3.838-4.366-4.14-4.422s-5.289 5.421-5.289 5.421z" fill="#f2ab88"/><g data-name="Сгруппировать 77"><g data-name="Сгруппировать 76"><path data-name="Контур 266" d="M91.007 75.588L76.83 114.317l1.1.643 14.937-3.219 20.134-40.627-1.338-.484z" fill="#3e2d2c"/><path data-name="Контур 267" d="M92.105 76.23l-14.177 38.729 16.035-2.576L113 71.114z" fill="#594b4a"/><path data-name="Контур 268" d="M100.646 93.053a14.019 14.019 0 01-14.834.368l-7.885 21.539 16.036-2.576 10.274-22.273a21.427 21.427 0 01-3.591 2.942z" fill="#434036" opacity=".32" style="mix-blend-mode:multiply;isolation:isolate"/></g><path data-name="Контур 269" d="M87.6 98.99a1.709 1.709 0 01-.67-1.431c.15-1.256.949-1.348.949-1.348a2.423 2.423 0 01-.193-1.624 1.918 1.918 0 011.987-1.288c-.867-.824-.191-3.06 1.448-3.272 3.565-.462 8.982-.48 11.146 1.054a4.643 4.643 0 001.639.4c-4.482 2.924-10.033 6.611-15.456 10.378-1.36-.083-1.738-2.197-.85-2.869z" fill="#8a949a" opacity=".5" style="mix-blend-mode:multiply;isolation:isolate"/></g><g data-name="Сгруппировать 78"><path data-name="Контур 270" d="M100.135 97.827a4.393 4.393 0 00-1.956-.748 12.817 12.817 0 01-3.213-.638c-.514-.373-6.344 1.015-6.387-1.73a.86.86 0 01.577-.8c.9-.333 3.118-.873 7.533-.572 6.182.423 5.419.7 5.827.874s3.971 2.8 3.654 3.369c-.302.542-.485 4.056-6.035.245z" fill="#f2ab88"/><path data-name="Контур 271" d="M90.96 93.85a1.378 1.378 0 01.267 1.94c-.079.132-2.187.3-2.3-1.046-.057-.668 2.033-.894 2.033-.894z" fill="#ffd7c0"/></g><g data-name="Сгруппировать 79"><path data-name="Контур 272" d="M97.668 99.852s-2.66-.845-3.32-.927c-.631-.079-6.942.512-6.457-1.975a.685.685 0 01.469-.519 17.2 17.2 0 017.978-.362c4.812.885 7.444 2.285 7.5 3.223s.06 4.372-6.17.56z" fill="#f2ab88"/><path data-name="Контур 273" d="M89.844 96.409a.463.463 0 01.428.14 1.288 1.288 0 01.079 1.582c-.067.126-2.061.3-2.074-1-.003-.402 1.083-.637 1.567-.722z" fill="#ffd7c0"/></g><g data-name="Сгруппировать 80"><path data-name="Контур 274" d="M96.06 102.576a2.844 2.844 0 00-.845-.344c-.86-.194-2.683-.6-2.995-.654-.366-.062-3.446.105-4.061-1.525a.681.681 0 01.48-.9 16.344 16.344 0 016.089-.155 26.933 26.933 0 013.808 1.06c.734.4 3.342 1.533 3.169 2.205-.168.659-.355 3.486-5.645.313z" fill="#f2ab88"/><path data-name="Контур 275" d="M90.397 99.322a1.3 1.3 0 01-.1 1.524c-.094.1-2.132-.3-1.677-1.32.096-.212 1.777-.204 1.777-.204z" fill="#ffd7c0"/></g><g data-name="Сгруппировать 81"><path data-name="Контур 276" d="M102.723 94.918a4.9 4.9 0 00-1.7-.992c-1.093-.261-3.182-.762-3.839-.95-.835-.237-7.455 1.364-7.027-1.468a1.043 1.043 0 01.783-.874 28.1 28.1 0 0111.956-.06 2.823 2.823 0 011.142.54c1.17.916 3.879 3.172 3.62 4.218-.331 1.33-1.046 2.684-2.094 1.8-.767-.642-1.757-1.327-2.841-2.214z" fill="#f2ab88"/><path data-name="Контур 277" d="M92.511 90.529s1.392.53.564 2.163c-.078.155-2.631.352-2.65-1.167-.008-.723 2.086-.996 2.086-.996z" fill="#ffd7c0"/></g><g data-name="Сгруппировать 82" fill="#394962"><path data-name="Контур 278" d="M49.824 100.01a1.2 1.2 0 101.207-1.174 1.19 1.19 0 00-1.207 1.174z"/><path data-name="Контур 279" d="M49.748 107.841a1.2 1.2 0 101.207-1.174 1.191 1.191 0 00-1.207 1.174z"/><path data-name="Контур 280" d="M49.673 115.676a1.2 1.2 0 101.207-1.174 1.19 1.19 0 00-1.207 1.174z"/><path data-name="Контур 281" d="M49.597 123.504a1.2 1.2 0 101.207-1.174 1.191 1.191 0 00-1.207 1.174z"/></g></g></g></svg>