<svg xmlns="http://www.w3.org/2000/svg" width="101" height="270"><defs><clipPath id="a"><path data-name="Контур 93" d="M332.3-301.009l29.362 1.359.037-2.895-29.433.073z" fill="none"/></clipPath><clipPath id="b"><path data-name="Контур 105" d="M409.4-301.547l-29.3 2.385-.137-2.892 29.417-.956z" fill="none"/></clipPath></defs><g data-name="Векторный смарт-объект"><g data-name="Сгруппировать 43" fill="#ffc0b1"><path data-name="Контур 78" d="M44.022 61.214L18.164 72.281l-6.448-29.554c-3.276-.229-5.6 1.887-8.852 1.37.054 6.92 1.585 37.343 5.135 43.144 5.573 9.1 38.02-10.3 38.02-10.3z"/><path data-name="Контур 79" d="M2.695 43.812S-.949 34.539.238 34.436s2.909 4.242 2.909 4.242-2.277-7.293-1.4-7.519 4.45 6.5 4.45 6.5-2.244-8.643-1.5-8.708 4.284 8.018 4.284 8.018-.567-6.544.62-6.647 2.185 9.7 2.185 9.7 2.614-2.625 3.582-1.81-3.234 5.826-3.234 5.826l6.725 31.028L5.146 51.391z"/></g><path data-name="Контур 80" d="M92.752 79.75l4.645 68.183s1.463 5.643 1.817 7.3c.914 4.295-2.792 14.4-1.706 2.642 0 0-4.68 16.721-2.3-.805 0 0-5.692 14.421-3.11.313 0 0-5.689 11.589-2.128.188 0 0-.608-3.579-1.422-6.73s-11.117-65.888-9.643-70.809 13.847-.282 13.847-.282z" fill="#ffc0b1"/><path data-name="Контур 81" d="M68.064 54.791l.654-14.475-13.8 3.846-1 11.091c-2.139.9-3.48 2.172-3.521 3.624-.082 2.914 5.106 5.422 11.585 5.6s11.8-2.032 11.878-4.945c.057-1.963-2.284-3.741-5.796-4.741z" fill="#ffafa0"/><path data-name="Контур 82" d="M64.378 12.32c8.87 2.81 8.118 9.013 8.118 9.013a56.168 56.168 0 01-.381 9.393 2.981 2.981 0 013.787-.707c2.969 1.572-.1 11.1-4.709 9.874a25.014 25.014 0 01-2.21 6.586c-1.54 2.655-7.661 6.39-12.836 6.627s-11.531-3.894-11.518-9.967c.017-8.412 4.008-31.271 4.008-31.271s1.053-4.199 15.741.452z" fill="#ffc0b1"/><path data-name="Контур 83" d="M68.071 15.381c2.439.193 5.568 2.7 8.011 2.844-.009.017-.021.032-.03.049-.491 1.027-.856 11.542-.856 11.542a2.9 2.9 0 00-3.032 1.945l-.686 4.373-2.416-.455.621-9.329a4.868 4.868 0 01-2-2.551 72.89 72.89 0 00.388-8.418z" fill="#2a2138"/><path data-name="Контур 84" d="M54.644 27.678l-5.342 9.763 4.926 1.488" fill="none" stroke="#d8817b" stroke-miterlimit="10" stroke-width="1.229"/><path data-name="Контур 85" d="M65.695 24.591s-3.666-3.41-7.712-.555" fill="none" stroke="#2a2138" stroke-miterlimit="10" stroke-width="1.757"/><path data-name="Контур 86" d="M53.664 24.031s-2.965-3.883-6.5-.34" fill="none" stroke="#2a2138" stroke-miterlimit="10" stroke-width="1.757"/><path data-name="Контур 87" d="M93.264 268l-29.362-1.359-.037 2.895 29.433-.073z" fill="#fff"/><path data-name="Контур 88" d="M79.664 196.006l-6.184 63.7-8.6 5.06.028-50.652c4.985-.796 9.791-17.172 14.756-18.108z" fill="#ffafa0"/><path data-name="Контур 89" d="M73.999 254.372l5.665-58.366c-4.966.936-9.772 17.312-14.761 18.1l-.021 40.261z" fill="#201829" opacity=".2"/><path data-name="Контур 90" d="M73.194 257.802l-9.3 2.331-.021 7.035 29.4.832s-.694-3.038-20.079-10.198z" fill="#fff"/><path data-name="Контур 91" d="M84.708 263.891a5.748 5.748 0 00-1.194 3.833l-19.645-.555.021-7.035 9.3-2.331c5.539 2.045 9.546 3.752 12.451 5.151a5.664 5.664 0 00-.933.937z" fill="#2a2138"/><path data-name="Контур 92" d="M74.738 260.705s3.07-4.507 0-4.727c-1.468-.106-7.143.329-4.62 4.727s4.62 0 4.62 0z" fill="#2a2138"/><g data-name="Сгруппировать 45"><g data-name="Сгруппировать 44" clip-path="url(#a)" transform="rotate(180 212.782 -16.505)"><path data-name="Линия 1" fill="none" stroke="#2a2138" stroke-miterlimit="10" stroke-width=".878" d="M330.072-301.225l32.577.769"/></g></g><path data-name="Контур 94" d="M16.164 268.538l29.3-2.385.137 2.892-29.417.956z" fill="#fff"/><path data-name="Контур 95" d="M31.992 195.44l4.6 63.832 8.475 5.273 1.231-50.638c-4.966-.916-9.365-17.407-14.306-18.467z" fill="#ffafa0"/><path data-name="Контур 96" d="M45.374 251.88l.924-37.972c-4.966-.918-9.365-17.407-14.306-18.467l4.045 56.141a85.223 85.223 0 019.337.298z" fill="#201829" opacity=".2"/><path data-name="Контур 97" d="M35.864 257.645l9.379 2 .267 7.03-29.349 1.86s.577-3.058 19.703-10.89z" fill="#fff"/><path data-name="Контур 98" d="M24.564 264.133a5.738 5.738 0 011.327 3.788l19.615-1.243-.267-7.03-9.379-2c-5.463 2.237-9.408 4.084-12.265 5.582a5.611 5.611 0 01.969.903z" fill="#2a2138"/><path data-name="Контур 99" d="M33.244 258.598a21.85 21.85 0 012.587 3.29" fill="none" stroke="#fff" stroke-miterlimit="10" stroke-width=".166"/><path data-name="Контур 100" d="M31.285 259.255a21.984 21.984 0 012.587 3.29" fill="none" stroke="#fff" stroke-miterlimit="10" stroke-width=".166"/><path data-name="Контур 101" d="M29.14 260.075a21.85 21.85 0 012.587 3.29" fill="none" stroke="#fff" stroke-miterlimit="10" stroke-width=".166"/><path data-name="Контур 102" d="M57.093 154.383l4.694 94.315 15.356.439s8.774-123.054 3.07-141.521l-42.424 14.456s-4.609 44.763-6.363 66.749.7 58.876.7 58.876l14.479 1.759s1.813-30.162 5.181-56.808c1.742-13.757 3.428-29 5.307-38.265z" fill="#3080aa"/><path data-name="Контур 103" d="M79.122 245.135l-18.039 1.463-.242 5.03 17.918 1.052z" fill="#5893b1"/><path data-name="Контур 104" d="M34.147 258.63s.084-3.853 1.424-3.241 5.837.566 3.469 5.048-4.893-1.807-4.893-1.807z" fill="#2a2138"/><g data-name="Сгруппировать 47"><g data-name="Сгруппировать 46" clip-path="url(#b)" transform="rotate(180 212.782 -16.505)"><path data-name="Линия 2" fill="none" stroke="#2a2138" stroke-miterlimit="10" stroke-width=".878" d="M411.623-301.841l-32.53 1.908"/></g></g><path data-name="Контур 106" d="M76.087 258.873a21.823 21.823 0 00-2.957 2.96" fill="none" stroke="#fff" stroke-miterlimit="10" stroke-width=".166"/><path data-name="Контур 107" d="M77.825 259.252a21.781 21.781 0 00-2.471 3.378" fill="none" stroke="#fff" stroke-miterlimit="10" stroke-width=".166"/><path data-name="Контур 108" d="M79.998 259.991a21.91 21.91 0 00-2.471 3.378" fill="none" stroke="#fff" stroke-miterlimit="10" stroke-width=".166"/><path data-name="Контур 109" d="M32.699 133.126s33.3 6.167 52.448 1.718l-2.632-45.952-.181 5.971L101 89.973l-8.272-26.147-23.306-9.024s-5.735 6.29-17.885 1.257c0 0-7.643 1.113-13.238 3.934l-15.045 6.809 6.239 19.739 7.873-3.583z" fill="#fff"/><path data-name="Контур 110" d="M34.319 115.036l-1.62 18.09s33.3 6.167 52.448 1.718l-1.772-30.941c-16.056 3.981-32.911 7.552-49.056 11.133z" fill="#201829" opacity=".1"/><path data-name="Контур 111" d="M45.018 0s4.144 4.845 7.747 5.5c0 0-3.579-1.482-4.473-4.855 0 0 17.4-2.371 19.92 5.728 0 0-1.856-4.231-2.615-4.583s8.72 2.114 10.79 6.57-1.191 21.459-1.191 21.459L69.685 16.53s-10.718 2.67-19.053-1.413l6.289-1.253s-7.611 1.191-10.329-1.688C42.969 8.336 45.018.005 45.018.005" fill="#2a2138"/><g data-name="Сгруппировать 48"><path data-name="Контур 112" d="M50.6 41.513l11.282-.106s-2.161 4.494-6.919 4.614a4.468 4.468 0 01-4.363-4.508z" fill="#cc7171"/><path data-name="Контур 113" d="M60.377 43.491a11.589 11.589 0 00-3.921-.387 6.337 6.337 0 00-4.1 1.978 4.256 4.256 0 01-1.751-3.566l11.282-.106a9.37 9.37 0 01-1.51 2.081z" fill="#5f2626"/></g><path data-name="Контур 114" d="M35.376 145.853l21.716 8.53c-1.877 9.265-3.565 24.508-5.3 38.265-3.368 26.646-5.181 56.808-5.181 56.808l-14.479-1.759s-2.458-36.892-.7-58.876c.783-9.874 2.682-30.022 3.944-42.968z" fill="#201829" opacity=".2"/><path data-name="Контур 115" d="M31.092 241.541l17.564 4.377-.576 5-17.851-1.876z" fill="#5893b1"/><path data-name="Контур 116" d="M88.273 149.491s-6.151 11.9 1.061 3.614-1.061-3.614-1.061-3.614z" fill="#ffc0b1"/><g data-name="Сгруппировать 49" fill="none" stroke="#201829" stroke-miterlimit="10" stroke-width="1.274"><path data-name="Контур 117" d="M62.964 30.364a2.394 2.394 0 10-4.726-.651"/><path data-name="Контур 118" d="M52.04 29.408a2.394 2.394 0 10-4.726-.651"/></g></g></svg>