<svg xmlns="http://www.w3.org/2000/svg" width="108.788" height="269"><defs><clipPath id="a"><path data-name="Контур 135" d="M178.289-300.234l-29.471 1.356-.037-2.887 29.541.073z" fill="none"/></clipPath><clipPath id="b"><path data-name="Контур 149" d="M86.7-300.234l29.471 1.356.037-2.887-29.541.073z" fill="none"/></clipPath></defs><g data-name="Векторный смарт-объект копия"><g data-name="Сгруппировать 56"><path data-name="Контур 119" d="M79.411 79.349l.39 31.661 1.864 11.284-.3 37.3-15.755-49.12 2.928-30.772z" fill="#ffafa0"/><path data-name="Контур 120" d="M44.827 53.979l-.252-14.45 13.74 4.22.694 11.085c2.12.951 3.431 2.263 3.431 3.711 0 2.907-5.274 5.263-11.78 5.263s-11.779-2.357-11.779-5.263c0-1.954 2.397-3.66 5.946-4.566z" fill="#ffafa0"/><path data-name="Контур 121" d="M49.717 11.742c-8.978 2.555-8.4 8.761-8.4 8.761a55.66 55.66 0 00.119 9.375 3.005 3.005 0 00-3.779-.811c-3.023 1.485-.211 11.069 4.448 9.977a24.863 24.863 0 002.033 6.628c1.47 2.69 7.508 6.585 12.693 6.966s11.678-3.561 11.836-9.615c.217-8.389-3.146-31.291-3.146-31.291s-.937-4.218-15.804.01z" fill="#ffc0b1"/><path data-name="Контур 122" d="M52.605 28.705c.054 1.242-.457 2.274-1.143 2.3s-1.284-.952-1.339-2.194.457-2.274 1.143-2.3 1.289.951 1.339 2.194z" fill="#002938"/><path data-name="Контур 123" d="M63.814 28.534c.056 1.242-.457 2.274-1.141 2.3s-1.284-.952-1.339-2.194.457-2.274 1.141-2.3 1.285.947 1.339 2.194z" fill="#002938"/><path data-name="Контур 124" d="M51.148 41.034l12.685-.229s-3.42 7.399-12.685.229z" fill="#fff"/><path data-name="Контур 125" d="M45.926 14.691c-2.452.125-5.661 2.537-8.117 2.613.009.017.021.032.029.049.465 1.038.536 11.532.536 11.532a2.906 2.906 0 012.987 2.024l.567 4.378 2.435-.386-.362-9.319a4.854 4.854 0 002.078-2.487 72.45 72.45 0 01-.153-8.404z" fill="#2a2138"/><path data-name="Контур 126" d="M59.055 27.327l5.087 9.884-4.984 1.346" fill="none" stroke="#d8817b" stroke-miterlimit="10" stroke-width="1.229"/><path data-name="Контур 127" d="M48.055 23.941s3.774-3.3 7.753-.338" fill="none" stroke="#2a2138" stroke-miterlimit="10" stroke-width="1.758"/><path data-name="Контур 128" d="M60.141 23.718s3.081-3.789 6.534-.158" fill="none" stroke="#2a2138" stroke-miterlimit="10" stroke-width="1.758"/><g data-name="Сгруппировать 55"><path data-name="Контур 129" d="M17.166 267.468l29.471-1.356.037 2.887-29.541-.073z" fill="#fff"/><path data-name="Контур 130" d="M30.815 195.66l6.207 63.533 8.636 5.047-.028-50.522c-5.006-.791-9.83-17.125-14.815-18.058z" fill="#ffafa0"/><path data-name="Контур 131" d="M36.503 253.875l-5.687-58.216c4.984.934 9.808 17.267 14.815 18.058l.021 40.158z" fill="#201829" opacity=".2"/><path data-name="Контур 132" d="M37.31 257.296l9.338 2.325.021 7.017-29.5.83s.686-3.034 20.141-10.172z" fill="#fff"/><path data-name="Контур 133" d="M25.755 263.37a5.709 5.709 0 011.2 3.823l19.717-.554-.021-7.017-9.338-2.325c-5.559 2.04-9.581 3.743-12.5 5.138a5.67 5.67 0 01.942.935z" fill="#2a2138"/><path data-name="Контур 134" d="M35.761 260.193s-3.083-4.5 0-4.715c1.474-.105 7.169.328 4.637 4.715s-4.637 0-4.637 0z" fill="#2a2138"/><g data-name="Сгруппировать 51"><g data-name="Сгруппировать 50" clip-path="url(#a)" transform="rotate(180 97.728 -16.383)"><path data-name="Линия 3" fill="none" stroke="#2a2138" stroke-miterlimit="10" stroke-width=".879" d="M180.525-300.45l-32.697.767"/></g></g><path data-name="Контур 136" d="M108.755 267.468l-29.471-1.356-.037 2.887 29.541-.073z" fill="#fff"/><path data-name="Контур 137" d="M84.477 194.612l3.646 63.731-7.756 6.305-7.749-49.93c4.825-1.546 7.079-18.421 11.859-20.106z" fill="#ffafa0"/><path data-name="Контур 138" d="M78.428 252.16l-5.811-37.441c4.825-1.547 7.079-18.422 11.86-20.106l3.208 56.051a86.058 86.058 0 00-9.257 1.496z" fill="#201829" opacity=".2"/><path data-name="Контур 139" d="M88.61 257.296l-9.338 2.325-.021 7.017 29.5.83s-.684-3.034-20.141-10.172z" fill="#fff"/><path data-name="Контур 140" d="M100.167 263.37a5.709 5.709 0 00-1.2 3.823l-19.717-.554.021-7.017 9.338-2.325c5.558 2.04 9.579 3.743 12.5 5.138a5.67 5.67 0 00-.942.935z" fill="#2a2138"/><path data-name="Контур 141" d="M91.27 258.156a21.827 21.827 0 00-2.482 3.37" fill="none" stroke="#fff" stroke-miterlimit="10" stroke-width=".166"/><path data-name="Контур 142" d="M93.255 258.743a21.73 21.73 0 00-2.48 3.37" fill="none" stroke="#fff" stroke-miterlimit="10" stroke-width=".166"/><path data-name="Контур 143" d="M95.439 259.484a21.952 21.952 0 00-2.482 3.37" fill="none" stroke="#fff" stroke-miterlimit="10" stroke-width=".166"/><g data-name="Сгруппировать 52"><path data-name="Контур 144" d="M54.917 156.143l-6.158 92.073-15.412.438s-10.576-113.12-4.852-131.543l43.156.439s12.33 49.119 14.091 71.046 5.734 58.622 5.734 58.622l-14.532 1.754s-11.898-66.515-22.027-92.829z" fill="#3080aa"/><path data-name="Контур 145" d="M54.267 155.683c7.81-4.178 15.624-8.348 23.368-12.649 3.412 15.383 7.19 34.153 8.107 45.562 1.761 21.929 5.734 58.622 5.734 58.622l-14.532 1.754s-11.9-66.515-22.027-92.829l-.085 1.258a5.518 5.518 0 00-.565-1.718z" fill="#201829" opacity=".2"/><path data-name="Контур 146" d="M92.517 241.078l-17.628 4.366.578 4.99 17.917-1.871z" fill="#5893b1"/><path data-name="Контур 147" d="M31.361 244.662l18.106 1.459.243 5.017-17.984 1.049z" fill="#5893b1"/></g><path data-name="Контур 148" d="M90.366 258.218s-.22-3.838-1.541-3.18-5.834.768-3.3 5.154 4.841-1.974 4.841-1.974z" fill="#2a2138"/><g data-name="Сгруппировать 54"><g data-name="Сгруппировать 53" clip-path="url(#b)" transform="rotate(180 97.728 -16.383)"><path data-name="Линия 4" fill="none" stroke="#2a2138" stroke-miterlimit="10" stroke-width=".879" d="M84.465-300.45l32.697.767"/></g></g><path data-name="Контур 150" d="M34.406 258.365a21.834 21.834 0 012.968 2.953" fill="none" stroke="#fff" stroke-miterlimit="10" stroke-width=".166"/><path data-name="Контур 151" d="M32.662 258.743a21.729 21.729 0 012.48 3.37" fill="none" stroke="#fff" stroke-miterlimit="10" stroke-width=".166"/><path data-name="Контур 152" d="M30.482 259.484a21.859 21.859 0 012.48 3.37" fill="none" stroke="#fff" stroke-miterlimit="10" stroke-width=".166"/></g><path data-name="Контур 153" d="M76.531 128.498s-32 9.795-51.081 4.824l3.926-45.741-2.507 4.762-16.255-11.757 11.129-17.858 21.725-8.771s5.578 6.433 17.907 1.755c0 0 17.028 6.432 19.376 9.063l3.267 19.868-8.368 3.508z" fill="#fff"/><path data-name="Контур 154" d="M76.241 115.192l.29 13.307s-32 9.795-51.081 4.824l2.644-30.8q23.997 6.627 48.147 12.669z" fill="#201829" opacity=".1"/><path data-name="Контур 155" d="M25.841 91.662L15.32 103.501l10.518 25.317s.2-.21.514-.522a28.777 28.777 0 011.081-1.018 19.312 19.312 0 011.7-1.378 8.571 8.571 0 011.062-.657 1.76 1.76 0 011.568-.229 12.927 12.927 0 013.3 3.1c.11.138.216.276.319.413a12.4 12.4 0 011.523 2.5 1.351 1.351 0 01.138.628.169.169 0 01-.143.157.639.639 0 01-.351-.09 19.177 19.177 0 01-3.929-3.583 112.544 112.544 0 002.361 3.941q.155.273.3.543a45.002 45.002 0 01.828 1.56c.081.164.158.322.229.473s.128.28.183.409a5.789 5.789 0 01.26.707 1.922 1.922 0 01.045.216.543.543 0 010 .215.182.182 0 01-.028.058c-.072.095-.245.058-.548-.149-.05-.034-.1-.073-.162-.117a37.071 37.071 0 01-4.173-4.345c1.7 3.363 4.794 9.945-2.165.579l-.162.153c1.6 2.922 4.267 8.3-1.763 1.493a11.818 11.818 0 01-1.625 1.042c-.228.116-.456.22-.682.309a4.232 4.232 0 01-1.329.3 2.387 2.387 0 01-1.209-.247c-2.99-1.536-19.856-23.432-22.632-27.943s11.889-25.765 11.889-25.765z" fill="#ffc0b1"/><path data-name="Контур 156" d="M44.274 15.788s10.68 2.961 19.156-.877l-6.275-1.426s7.872-.165 10.678-2.961C71.577 6.797 69.486-.001 69.486-.001s-4.294 4.715-7.927 5.263c0 0 3.632-1.377 4.623-4.715 0 0-17.393-2.851-20.146 5.153 0 0 1.982-4.166 2.753-4.494s-8.807 1.863-11.009 6.25.595 21.428.595 21.428z" fill="#2a2138"/></g></g></svg>