<svg xmlns="http://www.w3.org/2000/svg" width="53.713" height="39.42" viewBox="0 0 53.713 39.42">
  <g id="Векторный_смарт-объект" data-name="Векторный смарт-объект" transform="translate(-862.282 -2520.225)">
    <path id="Контур_282" data-name="Контур 282" d="M862.447,2531.978,865.3,2556.6a3.336,3.336,0,0,0,3.259,3.043l44.367-.62a3.253,3.253,0,0,0,3.04-3.8l-4.25-32.013a3.286,3.286,0,0,0-3.753-2.933l-42.966,8.01A3.291,3.291,0,0,0,862.447,2531.978Z" fill="#d8d8d7"/>
    <path id="Контур_283" data-name="Контур 283" d="M862.306,2531.956l2.776,24a3.253,3.253,0,0,0,3.176,2.967l43.237-.6a3.171,3.171,0,0,0,2.963-3.707l-4.142-31.2a3.2,3.2,0,0,0-3.657-2.858l-41.871,7.806A3.207,3.207,0,0,0,862.306,2531.956Z" fill="#e4e4e3"/>
    <path id="Контур_284" data-name="Контур 284" d="M891.61,2544.091c-3.741-1.553-6.552-4.538-9.534-7.24-3.3-2.989-6.661-6.139-8.973-10.043l-8.316,1.551a3.207,3.207,0,0,0-2.482,3.6l2.776,24a3.253,3.253,0,0,0,3.176,2.967l43.237-.6a3.171,3.171,0,0,0,2.963-3.707l-2.353-17.722C906.944,2542.2,898.642,2547.011,891.61,2544.091Z" fill="#e4e4e3" style="mix-blend-mode: multiply;isolation: isolate"/>
    <path id="Контур_285" data-name="Контур 285" d="M887.1,2530.765a1.5,1.5,0,0,1-1,1.817,1.412,1.412,0,0,1-1.858-.806,1.5,1.5,0,0,1,1-1.818A1.412,1.412,0,0,1,887.1,2530.765Z" fill="#fff"/>
  </g>
</svg>
