<svg xmlns="http://www.w3.org/2000/svg" xmlns:xlink="http://www.w3.org/1999/xlink" width="113" height="270" viewBox="0 0 113 270">
  <defs>
    <radialGradient id="radial-gradient" cx="0.5" cy="0.5" r="0.633" gradientTransform="translate(-1.371 0.072) scale(0.737 0.855)" gradientUnits="objectBoundingBox">
      <stop offset="0" stop-color="#f29788"/>
      <stop offset="0.612" stop-color="#f2a288"/>
      <stop offset="0.92" stop-color="#f2ab88"/>
    </radialGradient>
    <radialGradient id="radial-gradient-2" cx="0.5" cy="0.5" r="0.634" gradientTransform="matrix(-0.737, 0, 0, 0.855, -132.162, 0.072)" xlink:href="#radial-gradient"/>
  </defs>
  <g id="Векторный_смарт-объект" data-name="Векторный смарт-объект" transform="translate(-445.515 -30.824)">
    <g id="Сгруппировать_83" data-name="Сгруппировать 83">
      <path id="Контур_195" data-name="Контур 195" d="M502.97,282.493l8.256.708s5.711,7.34,7.138,8.4,10.618,3.183,10.261,4.863-2.587,3.625-6.067,3.271a52.132,52.132,0,0,1-7.762-1.061,87.168,87.168,0,0,0-13.187-2.856,1.791,1.791,0,0,1-1.494-1.314C501.409,291.038,501.764,287.433,502.97,282.493Z" fill="#f2ab88"/>
      <path id="Контур_196" data-name="Контур 196" d="M501.633,286.54c2.983,1.154,5,2,7.477,1.867a3.576,3.576,0,0,0,.439-.058c2.263,2.081,4.377,3.489,3.672,2.192-.289-.532-1.119-1.757-1.595-2.762a17.009,17.009,0,0,0,2.519-1.3,36.231,36.231,0,0,0,5.7,5.136c1.608,1.2,11.958,3.585,11.557,5.478s-2.914,4.083-6.834,3.685a126.021,126.021,0,0,1-13.26-2.322,5.716,5.716,0,0,0-3.849-1.537,7.271,7.271,0,0,0-1.411.136c-1.3-.25-2.7-.486-4.184-.688a2.014,2.014,0,0,1-1.746-1.856C499.99,292.622,500.99,289.425,501.633,286.54Z" fill="#5c3f31"/>
      <path id="Контур_197" data-name="Контур 197" d="M500.179,293.1c1.009.266,2.25.392,4.345.863,5.842,1.315,6.034,2.974,8.215,3.64a38.691,38.691,0,0,0,12.381,1.9,7.647,7.647,0,0,0,6.283-2.55.55.55,0,0,1-.005.139c-.4,1.892-2.914,4.083-6.834,3.685a126.021,126.021,0,0,1-13.26-2.322,5.716,5.716,0,0,0-3.849-1.537,7.271,7.271,0,0,0-1.411.136c-1.3-.25-2.7-.486-4.184-.688a2.014,2.014,0,0,1-1.746-1.856C500.11,294.442,500.179,293.1,500.179,293.1Z" fill="#371909"/>
      <path id="Контур_198" data-name="Контур 198" d="M486.573,282.493l-8.257.708s-5.711,7.34-7.138,8.4-10.617,3.183-10.26,4.863,2.587,3.625,6.067,3.271a52.145,52.145,0,0,0,7.763-1.061,87.128,87.128,0,0,1,13.186-2.856,1.79,1.79,0,0,0,1.494-1.314C488.134,291.038,487.779,287.433,486.573,282.493Z" fill="#f2ab88"/>
      <path id="Контур_199" data-name="Контур 199" d="M487.91,286.54c-2.984,1.154-5,2-7.477,1.867a3.568,3.568,0,0,1-.438-.058c-2.264,2.081-4.378,3.489-3.673,2.192.289-.532,1.119-1.757,1.595-2.762a17.08,17.08,0,0,1-2.519-1.3,36.239,36.239,0,0,1-5.7,5.136c-1.608,1.2-11.959,3.585-11.557,5.478s2.914,4.083,6.833,3.685a125.983,125.983,0,0,0,13.26-2.322,5.718,5.718,0,0,1,3.849-1.537,7.278,7.278,0,0,1,1.411.136c1.3-.25,2.7-.486,4.183-.688a2.012,2.012,0,0,0,1.746-1.856C489.553,292.622,488.553,289.425,487.91,286.54Z" fill="#5c3f31"/>
      <path id="Контур_200" data-name="Контур 200" d="M489.365,293.1c-1.009.266-2.251.392-4.346.863-5.842,1.315-6.034,2.974-8.214,3.64a38.7,38.7,0,0,1-12.382,1.9,7.644,7.644,0,0,1-6.282-2.55.518.518,0,0,0,.005.139c.4,1.892,2.914,4.083,6.833,3.685a125.983,125.983,0,0,0,13.26-2.322,5.718,5.718,0,0,1,3.849-1.537,7.278,7.278,0,0,1,1.411.136c1.3-.25,2.7-.486,4.183-.688a2.012,2.012,0,0,0,1.746-1.856C489.433,294.442,489.365,293.1,489.365,293.1Z" fill="#371909"/>
      <path id="Контур_201" data-name="Контур 201" d="M515.063,223.743c3.819-43.829-.625-63.079-.625-63.079l-21.928-13.7-22.425,13.7s-1.726,19.914,2.091,63.743c0,0,1.493,43.4,1.533,61.353,0,0,10.119,2.683,15.72-.239,0,0-.486-47.386-.635-55-.119-6.077,1.279-33.593,2.566-46.378a.906.906,0,0,1,1.8,0c1.287,12.786,4.614,40.3,4.5,46.378-.149,7.613,3.031,55,3.031,55,5.6,2.921,15.446.239,15.446.239C516.173,267.811,515.063,223.743,515.063,223.743Z" fill="#28567a"/>
      <path id="Контур_202" data-name="Контур 202" d="M469.856,185.653c3.457.315,11.93.739,16.355-.767,3.007-1.023,6.271-3.586,9.61-1.414,5.815,3.783,13.72,2.6,20.726,1.3-.358-16.506-2.11-24.106-2.11-24.106l-21.928-13.7-22.425,13.7S469.393,168.663,469.856,185.653Z" fill="#28567a" opacity="0.35" style="mix-blend-mode: multiply;isolation: isolate"/>
      <path id="Контур_203" data-name="Контур 203" d="M482.531,98.632c1.257.625,2.525,1.229,3.824,1.764l.045.015c1.567.514,3.147,1,4.75,1.381,2.98-.612,5.943-1.256,8.977-1.7l.034-.019c1.052-.616,2.108-1.238,3.119-1.922.107-.1.206-.19.289-.277,1.482-1.55,2.762-3.261,4.2-4.84,1.4-1.535,2.935-2.975,4.292-4.554.031-.06.06-.117.1-.184.082-.155.159-.311.238-.466a27.663,27.663,0,0,1-7.508-1.273c-5.683-2.294-5.683-13.349-5.683-13.349H486.58s0,11.055-5.683,13.349a28.927,28.927,0,0,1-7.861,1.3c1.4,2.079,2.691,4.229,4.1,6.482.333.533,1,1.354,1.389,1.846.156.139.314.275.478.405l.18.139c.151.094.3.2.448.289C480.583,97.58,481.54,98.139,482.531,98.632Z" fill="#f2ab88"/>
      <path id="Контур_204" data-name="Контур 204" d="M505.563,92.53a9.021,9.021,0,0,0-3.1-2.322c-.67-.2-1.355-.379-2.045-.553a34.527,34.527,0,0,1-6.967.822,35.333,35.333,0,0,1-8.4-1.155c-.712.631-1.408,1.287-2.139,1.885a34.452,34.452,0,0,0-3.274,2.665c4.6,12.487,14.563,35.1,14.91,36.3l11.423-37.289C505.832,92.768,505.695,92.651,505.563,92.53Z" fill="#394962"/>
      <path id="Контур_205" data-name="Контур 205" d="M507.307,89.468l-5.274-3.321-9,4.4-9.2-4.4-5.274,3.321,9.625,12.324,4.751-7.049,4.751,7.049Z" fill="#bcadb4" style="mix-blend-mode: multiply;isolation: isolate"/>
      <path id="Контур_206" data-name="Контур 206" d="M517.676,137.967c2.158-20.568,9.767-43.768,8.7-45.984-1.923-3.98-12.841-3.423-19.282-4.893-1.3.666-2.538,1.227-3.732,1.7h0l-9.391,30.651c-.315-1.089-11.7-26.84-12.309-31.219h0c-.775-.342-1.567-.716-2.382-1.135-6.442,1.471-18.323.285-20.245,4.265-1.145,2.37,7.161,23.865,9.355,45.724,1.859,18.529-2.372,42.069-2.76,43.983,0,0,10.854,2.55,18.868-.85,3.449-1.463,5.682-5.95,8.435-22.735,0,0,1.968,20.4,8.5,23.054,5.517,2.241,18.868.531,18.868.531C519.883,179,515.57,158.037,517.676,137.967Z" fill="#17899c"/>
      <path id="Контур_207" data-name="Контур 207" d="M493.969,125.164s-.4,25.252-1.074,32.528C492.9,157.691,492.466,132.8,493.969,125.164Z" fill="#1d5069" opacity="0.65"/>
      <path id="Контур_208" data-name="Контур 208" d="M508.276,97.4l3.6-.837c-.026-.809-.041-7.09-.077-8.794a41.78,41.78,0,0,1-5.634-.678c-1.214.624-2.357,2.376-3.476,2.822l-8.316,31.338c-.3-1.02-11.452-27.765-12.023-31.869h0c-.726-.32-1.311-1.487-2.075-1.88-1.883.431-5.236.227-7.672.4.062,1.176.835,7.9.912,9.472l3.734.869-2.6,2.838c1.112,2.265,19.4,27.26,19.4,27.26.471-.741,15.325-23.517,17.113-28.106Z" fill="#17909c" opacity="0.35" style="mix-blend-mode: multiply;isolation: isolate"/>
      <path id="Контур_209" data-name="Контур 209" d="M503.064,86.147,511.1,87.5v8.252l-5.128,1.062,3.857,3.718-15.856,26.419v-7.508Z" fill="#2e96a6"/>
      <path id="Контур_210" data-name="Контур 210" d="M481.421,86.147l-7.841,2.191.885,8.205,5.213.516-3.436,4.1,17.809,25.652v-7.672Z" fill="#2e96a6"/>
      <path id="Контур_211" data-name="Контур 211" d="M467.532,108.792c-.052.142-1.2.777-1.251.918h0c-.637,1.71-1.232,3.436-1.822,5.164,1.356,5.728,2.529,11.5,3.341,17.332a113.163,113.163,0,0,1,1.025,17.961h0a207.424,207.424,0,0,1-3.2,30.893s1.385.324,3.528.587c1.183-6.5,4.957-21.646,5.791-36.478C474.844,140.4,469.294,114.176,467.532,108.792Z" fill="#52acb5" opacity="0.5" style="mix-blend-mode: multiply;isolation: isolate"/>
      <path id="Контур_212" data-name="Контур 212" d="M466.436,109.291Z" fill="#52acb5" opacity="0.5" style="mix-blend-mode: multiply;isolation: isolate"/>
      <path id="Контур_213" data-name="Контур 213" d="M517.208,144.506c.007-.157.012-.313.019-.471q.063-1.362.16-2.728c.012-.172.026-.345.039-.517.072-.942.152-1.884.251-2.823.089-.847.193-1.7.3-2.554,1.357-10.615,4.211-21.8,6.429-30.274-2.484,1.809-9.893,15.747-11.043,21.562-4.207,21.279-.368,45.256,3.572,54.7,2.017-.163,3.368-.336,3.368-.336a167.692,167.692,0,0,1-3.2-30.89C517.1,148.306,517.129,146.412,517.208,144.506Z" fill="#52acb5" opacity="0.5" style="mix-blend-mode: multiply;isolation: isolate"/>
      <path id="Контур_214" data-name="Контур 214" d="M492.337,85.287c5.688,0,8.261-1.835,9-2.272-2.128-4.066-2.13-9.807-2.13-9.807H486.58s0,6.167-2.369,10.244A25.62,25.62,0,0,0,492.337,85.287Z" fill="#dcb890" opacity="0.55" style="mix-blend-mode: multiply;isolation: isolate"/>
      <path id="Контур_215" data-name="Контур 215" d="M483.828,83.826l-5.274,3.321,9.625,12.324,4.853-8.924Z" fill="#394962"/>
      <path id="Контур_216" data-name="Контур 216" d="M502.033,83.826l5.274,3.321L497.682,99.47l-4.853-8.924Z" fill="#394962"/>
      <g id="Сгруппировать_72" data-name="Сгруппировать 72">
        <g id="Сгруппировать_64" data-name="Сгруппировать 64">
          <path id="Контур_217" data-name="Контур 217" d="M474.481,60.827c2.072-2.783,6.771,1.749,6.771,1.749s2.917,3.377-.48,7.461c-1.7,2.042-3.66.5-4.973-1.928S473,62.811,474.481,60.827Z" fill="#f2ab88"/>
          <path id="Контур_218" data-name="Контур 218" d="M477.463,68.389a1.968,1.968,0,0,0,1.726.7.682.682,0,0,0,.479-.721c-.2-.6-2.14-1.679-1.655-3.364.489-1.7-1.692-3.332-2.372-2.4C475.111,63.342,475.752,66.67,477.463,68.389Z" fill="#db7a5b"/>
        </g>
        <g id="Сгруппировать_65" data-name="Сгруппировать 65">
          <path id="Контур_219" data-name="Контур 219" d="M511.358,60.827c-2.072-2.783-6.771,1.749-6.771,1.749s-2.917,3.377.48,7.461c1.7,2.042,3.66.5,4.973-1.928S512.836,62.811,511.358,60.827Z" fill="#f2ab88"/>
          <path id="Контур_220" data-name="Контур 220" d="M508.377,68.389a1.97,1.97,0,0,1-1.726.7.681.681,0,0,1-.479-.721c.2-.6,2.139-1.679,1.655-3.364-.489-1.7,1.693-3.332,2.372-2.4C510.728,63.342,510.088,66.67,508.377,68.389Z" fill="#db7a5b"/>
        </g>
        <path id="Контур_221" data-name="Контур 221" d="M508.259,47.629a9.942,9.942,0,0,0-3.969-5.774,18.206,18.206,0,0,0-22.65,0,9.94,9.94,0,0,0-3.969,5.774S476.7,65.521,481.2,72.381c3.489,5.315,7.881,8.2,11.766,8.2s8.276-2.883,11.765-8.2C509.234,65.521,508.259,47.629,508.259,47.629Z" fill="#f2ab88"/>
        <path id="Контур_222" data-name="Контур 222" d="M479.217,62c-.5-7.825.353-13.641.808-14.333a17.52,17.52,0,0,0,5.242-6.909s6.495,3.122,16.771,1.873c0,0,1.91,2.667,3.64,5.411.837,1.327,1.2,8.974.966,13.935a2.435,2.435,0,0,0,.787,1.923l.337.3c1.268-2.542,2.522-13.248,1.881-16.787-1.808-9.975-9.087-11.029-16.332-11.029a20.743,20.743,0,0,0-8.727,1.98c-.557-.163-1.4-.357-1.389-.467-3.875.256-5.858,5.714-7,9.517-1.159,3.85.613,14.246,1.881,16.787l.012-.007A2.4,2.4,0,0,0,479.217,62Z" fill="#995235"/>
        <path id="Контур_223" data-name="Контур 223" d="M483.406,41.877q.548.236,1.079.494a16.237,16.237,0,0,0,.782-1.609s6.495,3.122,16.771,1.873c0,0,1.621,2.264,3.229,4.766a14.6,14.6,0,0,0,3.95-1.843c-2.341-8.244-9.135-9.166-15.9-9.166a20.743,20.743,0,0,0-8.727,1.98c-.557-.163-1.4-.357-1.389-.467a4.739,4.739,0,0,0-3.039,1.5l.036.046A8.33,8.33,0,0,0,483.406,41.877Z" fill="#995235" opacity="0.35" style="mix-blend-mode: multiply;isolation: isolate"/>
        <path id="Контур_224" data-name="Контур 224" d="M509.978,35.988c0,3.5-5.8,2.029-13.394-2.213-7.438-4.157-11.134-.549-12.635,1.842a15.108,15.108,0,0,1,1.742-4.794c-3.854,1.8-3.6,4.906-3.085,6.629a5.749,5.749,0,0,0-5.024,1.07s3.93-.611,5.378.619c.188.16.8.44.865.5,4.068,4.437,8.089,6.593,16.466,5.992,4.63-.333,6.171-.866,8.371-3.2A6.725,6.725,0,0,0,509.978,35.988Z" fill="#995235"/>
        <path id="Контур_225" data-name="Контур 225" d="M500.291,45.641c4.362-.313,5.982-.805,7.994-2.81a12.213,12.213,0,0,1-8.69-3.065c-.077,1.144.5,2.671,2.041,4.426a20.911,20.911,0,0,1-10.062-4.2c.616,1.221,1.243,3.243,1.86,3.854-1.911,0-7-2.208-8.144-2.715C488.917,44.554,492.914,46.169,500.291,45.641Z" fill="#995235" opacity="0.5" style="mix-blend-mode: multiply;isolation: isolate"/>
        <g id="Сгруппировать_66" data-name="Сгруппировать 66">
          <path id="Контур_226" data-name="Контур 226" d="M492.427,68.369a3.778,3.778,0,0,1-1.34-.246,1.814,1.814,0,0,1-1.257-1.3c-.135-.786,2.355-11.6,2.346-11.648a.315.315,0,0,1,.619-.115c.038.2-2.433,11.14-2.344,11.659a1.249,1.249,0,0,0,.868.821,2.52,2.52,0,0,0,2.177-.081.318.318,0,0,1,.441.06.31.31,0,0,1-.06.437A2.421,2.421,0,0,1,492.427,68.369Z" fill="#ce7959"/>
        </g>
        <path id="Контур_227" data-name="Контур 227" d="M497.043,49.424s4.395.567,5.356,1.2,2.856,2.828,2.585,3.47-3.456-1.588-3.9-1.59-4.6-.576-4.822-1.213C496.015,50.558,496.313,49.292,497.043,49.424Z" fill="#884627"/>
        <path id="Контур_228" data-name="Контур 228" d="M488.205,49.534s-4.412.445-5.387,1.054-2.908,2.742-2.647,3.39,3.489-1.489,3.932-1.479,4.624-.448,4.852-1.078C489.219,50.694,488.939,49.423,488.205,49.534Z" fill="#884627"/>
        <ellipse id="Эллипс_2" data-name="Эллипс 2" cx="3.622" cy="2.644" rx="3.622" ry="2.644" transform="translate(497.67 62.491)" fill="url(#radial-gradient)"/>
        <path id="Контур_229" data-name="Контур 229" d="M480.943,65.135c0,1.461,1.622,2.645,3.622,2.645s3.622-1.184,3.622-2.645-1.622-2.644-3.622-2.644S480.943,63.675,480.943,65.135Z" fill="url(#radial-gradient-2)"/>
        <path id="Контур_230" data-name="Контур 230" d="M479.082,56.035a10.383,10.383,0,0,1-2.952-.544,34.536,34.536,0,0,0,1.95,8.717l.012-.007a2.4,2.4,0,0,0,1.125-2.2C479.079,59.83,479.049,57.827,479.082,56.035Z" fill="#995235" opacity="0.35" style="mix-blend-mode: multiply;isolation: isolate"/>
        <path id="Контур_231" data-name="Контур 231" d="M506.672,56.188c.06,2,.054,4.059-.028,5.793a2.435,2.435,0,0,0,.787,1.923l.337.3c.713-1.431,1.42-5.442,1.789-9.309A8.942,8.942,0,0,1,506.672,56.188Z" fill="#995235" opacity="0.35" style="mix-blend-mode: multiply;isolation: isolate"/>
        <g id="Сгруппировать_67" data-name="Сгруппировать 67">
          <path id="Контур_232" data-name="Контур 232" d="M486,68.555s7.61,2.7,12.624-.716c0,0-.386,6-5.977,6.281C488.926,74.306,486.714,71.457,486,68.555Z" fill="#9f1818"/>
          <path id="Контур_233" data-name="Контур 233" d="M492.034,72a7.866,7.866,0,0,0-3.617.677,6.157,6.157,0,0,0,7.816.1A10.307,10.307,0,0,0,492.034,72Z" fill="#e34848"/>
          <path id="Контур_234" data-name="Контур 234" d="M486.9,68.825c.093.364.238.825.321,1.085a.387.387,0,0,0,.231.242c4.845,1.864,8.031.919,9.723-.219a.364.364,0,0,0,.138-.169,11.683,11.683,0,0,0,.5-1.434C493.916,70.393,488.9,69.372,486.9,68.825Z" fill="#fdfaee"/>
        </g>
        <g id="Сгруппировать_69" data-name="Сгруппировать 69">
          <path id="Контур_235" data-name="Контур 235" d="M501.941,58.527a3.262,3.262,0,1,1-3.256-3.054A3.16,3.16,0,0,1,501.941,58.527Z" fill="#fdfaee"/>
          <path id="Контур_236" data-name="Контур 236" d="M499.878,60.73a8.61,8.61,0,0,1-1.718.186,3.168,3.168,0,0,1-2.433-1.118,3.344,3.344,0,0,0,5.96-.086A4.028,4.028,0,0,1,499.878,60.73Z" fill="#e78660"/>
          <g id="Сгруппировать_68" data-name="Сгруппировать 68">
            <path id="Контур_237" data-name="Контур 237" d="M500.594,58.687a1.909,1.909,0,1,1-1.909-1.866A1.888,1.888,0,0,1,500.594,58.687Z" fill="#633837"/>
            <path id="Контур_238" data-name="Контур 238" d="M499.845,58.687a1.16,1.16,0,1,1-1.159-1.134A1.147,1.147,0,0,1,499.845,58.687Z" fill="#321413"/>
          </g>
          <path id="Контур_239" data-name="Контур 239" d="M496.547,57.6a6.766,6.766,0,0,1,2.32-.313,5.769,5.769,0,0,1,3.067,1.1c-.077-1.622-.7-3.407-3.226-3.573-2.435-.16-3.1,1.86-3.261,3.4A2.724,2.724,0,0,1,496.547,57.6Z" fill="#e78660"/>
        </g>
        <g id="Сгруппировать_71" data-name="Сгруппировать 71">
          <path id="Контур_240" data-name="Контур 240" d="M482.747,58.527A3.262,3.262,0,1,0,486,55.474,3.16,3.16,0,0,0,482.747,58.527Z" fill="#fdfaee"/>
          <path id="Контур_241" data-name="Контур 241" d="M484.81,60.73a8.616,8.616,0,0,0,1.718.186A3.168,3.168,0,0,0,488.96,59.8a3.344,3.344,0,0,1-5.96-.086A4.028,4.028,0,0,0,484.81,60.73Z" fill="#e78660"/>
          <g id="Сгруппировать_70" data-name="Сгруппировать 70">
            <path id="Контур_242" data-name="Контур 242" d="M484.094,58.687A1.909,1.909,0,1,0,486,56.821,1.888,1.888,0,0,0,484.094,58.687Z" fill="#633837"/>
            <path id="Контур_243" data-name="Контур 243" d="M484.842,58.687A1.16,1.16,0,1,0,486,57.554,1.147,1.147,0,0,0,484.842,58.687Z" fill="#321413"/>
          </g>
          <path id="Контур_244" data-name="Контур 244" d="M488.141,57.6a6.773,6.773,0,0,0-2.321-.313,5.769,5.769,0,0,0-3.067,1.1c.078-1.622.7-3.407,3.226-3.573,2.435-.16,3.1,1.86,3.261,3.4A2.726,2.726,0,0,0,488.141,57.6Z" fill="#e78660"/>
        </g>
        <path id="Контур_245" data-name="Контур 245" d="M487.227,58.241a.374.374,0,1,1-.374-.371A.373.373,0,0,1,487.227,58.241Z" fill="#fdfaee"/>
        <path id="Контур_246" data-name="Контур 246" d="M499.773,58.241a.374.374,0,1,1-.374-.371A.373.373,0,0,1,499.773,58.241Z" fill="#fdfaee"/>
      </g>
      <g id="Сгруппировать_75" data-name="Сгруппировать 75">
        <g id="Сгруппировать_73" data-name="Сгруппировать 73">
          <path id="Контур_247" data-name="Контур 247" d="M455.885,157.347l-4.611,21.673a3.048,3.048,0,0,0,2.01,3.547l39.563,12.74a2.965,2.965,0,0,0,3.8-2.307l5.51-28.34a3.033,3.033,0,0,0-2.48-3.6l-40.463-6.072A2.974,2.974,0,0,0,455.885,157.347Z" fill="#d8d8d7"/>
          <path id="Контур_248" data-name="Контур 248" d="M455.766,157.286l-4.494,21.12a2.973,2.973,0,0,0,1.959,3.458l38.555,12.415a2.889,2.889,0,0,0,3.7-2.248l5.371-27.617a2.956,2.956,0,0,0-2.418-3.51l-39.431-5.918A2.9,2.9,0,0,0,455.766,157.286Z" fill="#e4e4e3"/>
          <path id="Контур_249" data-name="Контур 249" d="M478.259,176.308c-2.87-2.432-4.5-5.8-6.363-8.973-2.061-3.513-4.132-7.183-5.053-11.175l-7.831-1.175a2.9,2.9,0,0,0-3.246,2.3l-4.494,21.12a2.973,2.973,0,0,0,1.959,3.458l38.555,12.415a2.889,2.889,0,0,0,3.7-2.248l3.051-15.689C492.418,179.3,483.655,180.879,478.259,176.308Z" fill="#e4e4e3" style="mix-blend-mode: multiply;isolation: isolate"/>
          <path id="Контур_250" data-name="Контур 250" d="M486.609,188.969c-.141-2-.458-2.723-3.5-4.493-2.591-1.026-7.629-7.539-8.379-8.271a68.878,68.878,0,0,1-5.772-6.3c-1.53-1.92-2.7-4.519-4.441-6.223-4.576-4.479-5.334,4.762-5.29,7.674.041,2.711-.108,5.508.163,8.207a21.767,21.767,0,0,0,1.3,4.7l24.12,7.767C485.041,191.2,486.68,189.965,486.609,188.969Z" fill="#e4e4e3" opacity="0.5" style="mix-blend-mode: multiply;isolation: isolate"/>
          <path id="Контур_251" data-name="Контур 251" d="M478.121,163.692a1.428,1.428,0,1,1-1.416-1.238A1.336,1.336,0,0,1,478.121,163.692Z" fill="#fff"/>
        </g>
        <path id="Контур_252" data-name="Контур 252" d="M461.878,183.45s12.324-1.4,14.009-6.3C475.886,177.151,461.328,168.081,461.878,183.45Z" fill="#00475e"/>
        <g id="Сгруппировать_74" data-name="Сгруппировать 74">
          <path id="Контур_253" data-name="Контур 253" d="M464.146,175.553a56.757,56.757,0,0,1-.113,8.869c-.241,1.845-.3,2.661,3.172,9.8a.676.676,0,0,0,.752.364,2.743,2.743,0,0,0,1.794-1.041s1.665,2.728,2.7,1.593c.48-.524,1.015-1.232,1.015-1.232s.84,1.275,1.842,1.128c.666-.1,1.378-1.257,1.669-2.241,0,0,1.243.983,2,.732.405-.134.911-.633,1.8-2.016l-.993-.791s-1.657-.21-3.863-2.608c-1-1.083-.729-2.184.4-1.923,1.476.338,1.083,1.256,3.27,2.843,1.932,1.4,4.644,1.539,5.107.245.761-2.125-2.824-3.247-3.834-4.093-2.163-1.815-4.95-5.251-5.623-5.664-1.109-.68-5.284-2.022-5.366-4.308Z" fill="#f2ab88"/>
          <path id="Контур_254" data-name="Контур 254" d="M463.978,184.89c2.165-4.433,5.409-5.918,10.818-5.619-1.505-.737-4.831-2.023-4.9-4.062l-5.746.345a56.757,56.757,0,0,1-.113,8.869C464.012,184.584,463.993,184.739,463.978,184.89Z" fill="#dcb890" opacity="0.55" style="mix-blend-mode: multiply;isolation: isolate"/>
          <path id="Контур_255" data-name="Контур 255" d="M476.8,193.295a4.965,4.965,0,0,0,.174-.477c-.194-.465-2.67-3.685-3.427-4.7A27.286,27.286,0,0,0,476.8,193.295Z" fill="#d69c7c" opacity="0.65" style="mix-blend-mode: multiply;isolation: isolate"/>
          <path id="Контур_256" data-name="Контур 256" d="M473.147,194.327c.066-.16.277-.265.324-.422-.194-.464-2.82-3.739-3.577-4.751A27.3,27.3,0,0,0,473.147,194.327Z" fill="#d69c7c" opacity="0.65" style="mix-blend-mode: multiply;isolation: isolate"/>
          <path id="Контур_257" data-name="Контур 257" d="M469.457,193.906a.975.975,0,0,0,.287-.335c-.185-.443-2.019-2.584-2.741-3.55A15.91,15.91,0,0,0,469.457,193.906Z" fill="#d69c7c" opacity="0.65" style="mix-blend-mode: multiply;isolation: isolate"/>
          <path id="Контур_258" data-name="Контур 258" d="M481.483,186.962c.855-1.067,2.782.559,2.807.668,0,0,.106,1.139-1.353,1.455a2.417,2.417,0,0,1-1.2-.752C481.223,187.808,481.235,187.271,481.483,186.962Z" fill="#ffd7c0"/>
        </g>
        <path id="Контур_259" data-name="Контур 259" d="M459.13,90.866s-14.947,48.587-13.519,54.033,15.046,35.77,16.267,38.551c0,0,4.447-6.423,14.009-6.3,0,0-16.39-30.678-16.757-32.01s8.759-24.79,8.963-28.736S471.16,97.651,459.13,90.866Z" fill="#17899c"/>
        <path id="Контур_260" data-name="Контур 260" d="M463.441,122.542c-5.349,13.071-4.348,19.279-4.647,22.219.112.041.229.076.339.118.325-2.862,8.763-24.681,8.96-28.474.072-1.386.465-4.117.429-7.366C467.714,111.006,464.472,120.023,463.441,122.542Z" fill="#52acb5" opacity="0.5" style="mix-blend-mode: multiply;isolation: isolate"/>
      </g>
      <path id="Контур_261" data-name="Контур 261" d="M536.062,132.979s3.163-6.2,8.755-3.634,6.226,7.082,1.134,10.475S532.819,137.563,536.062,132.979Z" fill="#00475e"/>
      <path id="Контур_262" data-name="Контур 262" d="M533.7,136.31l7.621-5.613,7.861,3.9a22.333,22.333,0,0,1-9.6,6.6C533.672,143.117,532.087,137.579,533.7,136.31Z" fill="#d98967"/>
      <path id="Контур_263" data-name="Контур 263" d="M526.444,92.229c.912,1.823,2.245,5.759,3.707,14.253,2.172,12.626.885,26.591.885,26.591l8.351-2.8s-5.191,3.663-.361,7.379c4.652,3.579,9.9,1.809,10.375-3.738,0,0,.7,5.087-2.049,6.726-4.733,2.826-23.059,11.753-24.529,11.453-3.873-.792-6.219-19.155-2.2-42.344C521.681,103.642,525.679,90.7,526.444,92.229Z" fill="#17899c"/>
      <path id="Контур_264" data-name="Контур 264" d="M522.346,140.426c1.534,5.36,11.669-.65,11.669-.65a12.889,12.889,0,0,1,3.971-3.093,7.068,7.068,0,0,0,1.041.968c4.652,3.579,9.9,1.809,10.375-3.738,0,0,.7,5.087-2.049,6.726-4.733,2.826-23.059,11.753-24.529,11.453-3.24-.663-5.92-14.5-3.147-36.117C520.567,122.1,520.659,134.534,522.346,140.426Z" fill="#52acb5" opacity="0.5" style="mix-blend-mode: multiply;isolation: isolate"/>
      <path id="Контур_265" data-name="Контур 265" d="M543.741,127.155s-6.974,5.262-5.872,7.037a8.505,8.505,0,0,0,8.754,3.12c3.073-.889,6.643-10.268,6.547-11.156-.2-1.845-3.838-4.366-4.14-4.422S543.741,127.155,543.741,127.155Z" fill="#f2ab88"/>
      <g id="Сгруппировать_77" data-name="Сгруппировать 77">
        <g id="Сгруппировать_76" data-name="Сгруппировать 76">
          <path id="Контур_266" data-name="Контур 266" d="M536.522,106.412l-14.177,38.729,1.1.643,14.937-3.219,20.134-40.627-1.338-.484Z" fill="#3e2d2c"/>
          <path id="Контур_267" data-name="Контур 267" d="M537.62,107.054l-14.177,38.729,16.035-2.576,19.037-41.269Z" fill="#594b4a"/>
          <path id="Контур_268" data-name="Контур 268" d="M546.161,123.877a14.019,14.019,0,0,1-14.834.368l-7.885,21.539,16.036-2.576,10.274-22.273A21.427,21.427,0,0,1,546.161,123.877Z" fill="#434036" opacity="0.32" style="mix-blend-mode: multiply;isolation: isolate"/>
        </g>
        <path id="Контур_269" data-name="Контур 269" d="M533.115,129.814a1.709,1.709,0,0,1-.67-1.431c.15-1.256.949-1.348.949-1.348a2.423,2.423,0,0,1-.193-1.624,1.918,1.918,0,0,1,1.987-1.288c-.867-.824-.191-3.06,1.448-3.272,3.565-.462,8.982-.48,11.146,1.054a4.643,4.643,0,0,0,1.639.4c-4.482,2.924-10.033,6.611-15.456,10.378C532.605,132.6,532.227,130.486,533.115,129.814Z" fill="#8a949a" opacity="0.5" style="mix-blend-mode: multiply;isolation: isolate"/>
      </g>
      <g id="Сгруппировать_78" data-name="Сгруппировать 78">
        <path id="Контур_270" data-name="Контур 270" d="M545.65,128.651a4.393,4.393,0,0,0-1.956-.748,12.817,12.817,0,0,1-3.213-.638c-.514-.373-6.344,1.015-6.387-1.73a.86.86,0,0,1,.577-.8c.9-.333,3.118-.873,7.533-.572,6.182.423,5.419.7,5.827.874s3.971,2.8,3.654,3.369C551.383,128.948,551.2,132.462,545.65,128.651Z" fill="#f2ab88"/>
        <path id="Контур_271" data-name="Контур 271" d="M536.475,124.674a1.378,1.378,0,0,1,.267,1.94c-.079.132-2.187.3-2.3-1.046C534.385,124.9,536.475,124.674,536.475,124.674Z" fill="#ffd7c0"/>
      </g>
      <g id="Сгруппировать_79" data-name="Сгруппировать 79">
        <path id="Контур_272" data-name="Контур 272" d="M543.183,130.676s-2.66-.845-3.32-.927c-.631-.079-6.942.512-6.457-1.975a.685.685,0,0,1,.469-.519,17.2,17.2,0,0,1,7.978-.362c4.812.885,7.444,2.285,7.5,3.223S549.413,134.488,543.183,130.676Z" fill="#f2ab88"/>
        <path id="Контур_273" data-name="Контур 273" d="M535.359,127.233a.463.463,0,0,1,.428.14,1.288,1.288,0,0,1,.079,1.582c-.067.126-2.061.3-2.074-1C533.789,127.553,534.875,127.318,535.359,127.233Z" fill="#ffd7c0"/>
      </g>
      <g id="Сгруппировать_80" data-name="Сгруппировать 80">
        <path id="Контур_274" data-name="Контур 274" d="M541.575,133.4a2.844,2.844,0,0,0-.845-.344c-.86-.194-2.683-.6-2.995-.654-.366-.062-3.446.105-4.061-1.525a.681.681,0,0,1,.48-.9,16.344,16.344,0,0,1,6.089-.155,26.933,26.933,0,0,1,3.808,1.06c.734.4,3.342,1.533,3.169,2.205C547.052,133.746,546.865,136.573,541.575,133.4Z" fill="#f2ab88"/>
        <path id="Контур_275" data-name="Контур 275" d="M535.912,130.146a1.3,1.3,0,0,1-.1,1.524c-.094.1-2.132-.3-1.677-1.32C534.231,130.138,535.912,130.146,535.912,130.146Z" fill="#ffd7c0"/>
      </g>
      <g id="Сгруппировать_81" data-name="Сгруппировать 81">
        <path id="Контур_276" data-name="Контур 276" d="M548.238,125.742a4.9,4.9,0,0,0-1.7-.992c-1.093-.261-3.182-.762-3.839-.95-.835-.237-7.455,1.364-7.027-1.468a1.043,1.043,0,0,1,.783-.874,28.1,28.1,0,0,1,11.956-.06,2.823,2.823,0,0,1,1.142.54c1.17.916,3.879,3.172,3.62,4.218-.331,1.33-1.046,2.684-2.094,1.8C550.312,127.314,549.322,126.629,548.238,125.742Z" fill="#f2ab88"/>
        <path id="Контур_277" data-name="Контур 277" d="M538.026,121.353s1.392.53.564,2.163c-.078.155-2.631.352-2.65-1.167C535.932,121.626,538.026,121.353,538.026,121.353Z" fill="#ffd7c0"/>
      </g>
      <g id="Сгруппировать_82" data-name="Сгруппировать 82">
        <path id="Контур_278" data-name="Контур 278" d="M495.339,130.834a1.2,1.2,0,1,0,1.207-1.174A1.19,1.19,0,0,0,495.339,130.834Z" fill="#394962"/>
        <path id="Контур_279" data-name="Контур 279" d="M495.263,138.665a1.2,1.2,0,1,0,1.207-1.174A1.191,1.191,0,0,0,495.263,138.665Z" fill="#394962"/>
        <path id="Контур_280" data-name="Контур 280" d="M495.188,146.5a1.2,1.2,0,1,0,1.207-1.174A1.19,1.19,0,0,0,495.188,146.5Z" fill="#394962"/>
        <path id="Контур_281" data-name="Контур 281" d="M495.112,154.328a1.2,1.2,0,1,0,1.207-1.174A1.191,1.191,0,0,0,495.112,154.328Z" fill="#394962"/>
      </g>
    </g>
  </g>
</svg>
