<svg xmlns="http://www.w3.org/2000/svg" xmlns:xlink="http://www.w3.org/1999/xlink" width="108.788" height="269" viewBox="0 0 108.788 269">
  <defs>
    <clipPath id="clip-path">
      <path id="Контур_135" data-name="Контур 135" d="M178.289-300.234l-29.471,1.356-.037-2.887,29.541.073Z" fill="none"/>
    </clipPath>
    <clipPath id="clip-path-2">
      <path id="Контур_149" data-name="Контур 149" d="M86.7-300.234l29.471,1.356.037-2.887-29.541.073Z" fill="none"/>
    </clipPath>
  </defs>
  <g id="Векторный_смарт-объект_копия" data-name="Векторный смарт-объект копия" transform="matrix(-1, 0, 0, -1, 195.455, -32.766)">
    <g id="Сгруппировать_56" data-name="Сгруппировать 56">
      <path id="Контур_119" data-name="Контур 119" d="M116.044-112.115l-.39-31.661L113.79-155.06l.3-37.3,15.755,49.12-2.928,30.772Z" fill="#ffafa0"/>
      <path id="Контур_120" data-name="Контур 120" d="M150.628-86.745l.252,14.45-13.74-4.22L136.446-87.6c-2.12-.951-3.431-2.263-3.431-3.711,0-2.907,5.274-5.263,11.78-5.263s11.779,2.357,11.779,5.263C156.574-89.357,154.177-87.651,150.628-86.745Z" fill="#ffafa0"/>
      <path id="Контур_121" data-name="Контур 121" d="M145.738-44.508c8.978-2.555,8.4-8.761,8.4-8.761a55.66,55.66,0,0,0-.119-9.375,3.005,3.005,0,0,0,3.779.811c3.023-1.485.211-11.069-4.448-9.977a24.863,24.863,0,0,0-2.033-6.628c-1.47-2.69-7.508-6.585-12.693-6.966s-11.678,3.561-11.836,9.615c-.217,8.389,3.146,31.291,3.146,31.291S130.871-40.28,145.738-44.508Z" fill="#ffc0b1"/>
      <path id="Контур_122" data-name="Контур 122" d="M142.85-61.471c-.054-1.242.457-2.274,1.143-2.3s1.284.952,1.339,2.194-.457,2.274-1.143,2.3S142.9-60.228,142.85-61.471Z" fill="#002938"/>
      <path id="Контур_123" data-name="Контур 123" d="M131.641-61.3c-.056-1.242.457-2.274,1.141-2.3s1.284.952,1.339,2.194-.457,2.274-1.141,2.3S131.695-60.053,131.641-61.3Z" fill="#002938"/>
      <path id="Контур_124" data-name="Контур 124" d="M144.307-73.8l-12.685.229S135.042-80.97,144.307-73.8Z" fill="#fff"/>
      <path id="Контур_125" data-name="Контур 125" d="M149.529-47.457c2.452-.125,5.661-2.537,8.117-2.613-.009-.017-.021-.032-.029-.049-.465-1.038-.536-11.532-.536-11.532a2.906,2.906,0,0,1-2.987-2.024l-.567-4.378-2.435.386.362,9.319a4.854,4.854,0,0,0-2.078,2.487A72.45,72.45,0,0,1,149.529-47.457Z" fill="#2a2138"/>
      <path id="Контур_126" data-name="Контур 126" d="M136.4-60.093l-5.087-9.884,4.984-1.346" fill="none" stroke="#d8817b" stroke-miterlimit="10" stroke-width="1.229"/>
      <path id="Контур_127" data-name="Контур 127" d="M147.4-56.707s-3.774,3.3-7.753.338" fill="none" stroke="#2a2138" stroke-miterlimit="10" stroke-width="1.758"/>
      <path id="Контур_128" data-name="Контур 128" d="M135.314-56.484s-3.081,3.789-6.534.158" fill="none" stroke="#2a2138" stroke-miterlimit="10" stroke-width="1.758"/>
      <g id="Сгруппировать_55" data-name="Сгруппировать 55">
        <path id="Контур_129" data-name="Контур 129" d="M178.289-300.234l-29.471,1.356-.037-2.887,29.541.073Z" fill="#fff"/>
        <path id="Контур_130" data-name="Контур 130" d="M164.64-228.426l-6.207-63.533-8.636-5.047.028,50.522C154.831-245.693,159.655-229.359,164.64-228.426Z" fill="#ffafa0"/>
        <path id="Контур_131" data-name="Контур 131" d="M158.952-286.641l5.687,58.216c-4.984-.934-9.808-17.267-14.815-18.058l-.021-40.158Z" fill="#201829" opacity="0.2"/>
        <path id="Контур_132" data-name="Контур 132" d="M158.145-290.062l-9.338-2.325-.021-7.017,29.5-.83S177.6-297.2,158.145-290.062Z" fill="#fff"/>
        <path id="Контур_133" data-name="Контур 133" d="M169.7-296.136a5.709,5.709,0,0,1-1.2-3.823l-19.717.554.021,7.017,9.338,2.325c5.559-2.04,9.581-3.743,12.5-5.138A5.67,5.67,0,0,1,169.7-296.136Z" fill="#2a2138"/>
        <path id="Контур_134" data-name="Контур 134" d="M159.694-292.959s3.083,4.5,0,4.715c-1.474.105-7.169-.328-4.637-4.715S159.694-292.959,159.694-292.959Z" fill="#2a2138"/>
        <g id="Сгруппировать_51" data-name="Сгруппировать 51">
          <g id="Сгруппировать_50" data-name="Сгруппировать 50" clip-path="url(#clip-path)">
            <line id="Линия_3" data-name="Линия 3" x1="32.697" y2="0.767" transform="translate(147.828 -300.45)" fill="none" stroke="#2a2138" stroke-miterlimit="10" stroke-width="0.879"/>
          </g>
        </g>
        <path id="Контур_136" data-name="Контур 136" d="M86.7-300.234l29.471,1.356.037-2.887-29.541.073Z" fill="#fff"/>
        <path id="Контур_137" data-name="Контур 137" d="M110.978-227.378l-3.646-63.731,7.756-6.305,7.749,49.93C118.012-245.938,115.758-229.063,110.978-227.378Z" fill="#ffafa0"/>
        <path id="Контур_138" data-name="Контур 138" d="M117.027-284.926l5.811,37.441c-4.825,1.547-7.079,18.422-11.86,20.106L107.77-283.43A86.058,86.058,0,0,0,117.027-284.926Z" fill="#201829" opacity="0.2"/>
        <path id="Контур_139" data-name="Контур 139" d="M106.845-290.062l9.338-2.325.021-7.017-29.5-.83S87.388-297.2,106.845-290.062Z" fill="#fff"/>
        <path id="Контур_140" data-name="Контур 140" d="M95.288-296.136a5.709,5.709,0,0,0,1.2-3.823l19.717.554-.021,7.017-9.338,2.325c-5.558-2.04-9.579-3.743-12.5-5.138A5.67,5.67,0,0,0,95.288-296.136Z" fill="#2a2138"/>
        <path id="Контур_141" data-name="Контур 141" d="M104.185-290.922a21.827,21.827,0,0,0,2.482-3.37" fill="none" stroke="#fff" stroke-miterlimit="10" stroke-width="0.166"/>
        <path id="Контур_142" data-name="Контур 142" d="M102.2-291.509a21.73,21.73,0,0,0,2.48-3.37" fill="none" stroke="#fff" stroke-miterlimit="10" stroke-width="0.166"/>
        <path id="Контур_143" data-name="Контур 143" d="M100.016-292.25a21.952,21.952,0,0,0,2.482-3.37" fill="none" stroke="#fff" stroke-miterlimit="10" stroke-width="0.166"/>
        <g id="Сгруппировать_52" data-name="Сгруппировать 52">
          <path id="Контур_144" data-name="Контур 144" d="M140.538-188.909l6.158-92.073,15.412-.438S172.684-168.3,166.96-149.877l-43.156-.439s-12.33-49.119-14.091-71.046-5.734-58.622-5.734-58.622l14.532-1.754S130.409-215.223,140.538-188.909Z" fill="#3080aa"/>
          <path id="Контур_145" data-name="Контур 145" d="M141.188-188.449c-7.81,4.178-15.624,8.348-23.368,12.649-3.412-15.383-7.19-34.153-8.107-45.562-1.761-21.929-5.734-58.622-5.734-58.622l14.532-1.754s11.9,66.515,22.027,92.829l.085-1.258A5.518,5.518,0,0,0,141.188-188.449Z" fill="#201829" opacity="0.2"/>
          <path id="Контур_146" data-name="Контур 146" d="M102.938-273.844l17.628-4.366-.578-4.99-17.917,1.871Z" fill="#5893b1"/>
          <path id="Контур_147" data-name="Контур 147" d="M164.094-277.428l-18.106-1.459-.243-5.017,17.984-1.049Z" fill="#5893b1"/>
        </g>
        <path id="Контур_148" data-name="Контур 148" d="M105.089-290.984s.22,3.838,1.541,3.18,5.834-.768,3.3-5.154S105.089-290.984,105.089-290.984Z" fill="#2a2138"/>
        <g id="Сгруппировать_54" data-name="Сгруппировать 54">
          <g id="Сгруппировать_53" data-name="Сгруппировать 53" clip-path="url(#clip-path-2)">
            <line id="Линия_4" data-name="Линия 4" x2="32.697" y2="0.767" transform="translate(84.465 -300.45)" fill="none" stroke="#2a2138" stroke-miterlimit="10" stroke-width="0.879"/>
          </g>
        </g>
        <path id="Контур_150" data-name="Контур 150" d="M161.049-291.131a21.834,21.834,0,0,1-2.968-2.953" fill="none" stroke="#fff" stroke-miterlimit="10" stroke-width="0.166"/>
        <path id="Контур_151" data-name="Контур 151" d="M162.793-291.509a21.729,21.729,0,0,1-2.48-3.37" fill="none" stroke="#fff" stroke-miterlimit="10" stroke-width="0.166"/>
        <path id="Контур_152" data-name="Контур 152" d="M164.973-292.25a21.859,21.859,0,0,1-2.48-3.37" fill="none" stroke="#fff" stroke-miterlimit="10" stroke-width="0.166"/>
      </g>
      <path id="Контур_153" data-name="Контур 153" d="M118.924-161.264s32-9.795,51.081-4.824l-3.926,45.741,2.507-4.762,16.255,11.757L173.712-95.494l-21.725,8.771s-5.578-6.433-17.907-1.755c0,0-17.028-6.432-19.376-9.063l-3.267-19.868,8.368-3.508Z" fill="#fff"/>
      <path id="Контур_154" data-name="Контур 154" d="M119.214-147.958l-.29-13.307s32-9.795,51.081-4.824l-2.644,30.8Q143.364-141.916,119.214-147.958Z" fill="#201829" opacity="0.1"/>
      <path id="Контур_155" data-name="Контур 155" d="M169.614-124.428l10.521-11.839-10.518-25.317s-.2.21-.514.522c-.128.127-.275.27-.441.429-.193.183-.408.382-.64.589a19.312,19.312,0,0,1-1.7,1.378,8.571,8.571,0,0,1-1.062.657,1.76,1.76,0,0,1-1.568.229,12.927,12.927,0,0,1-3.3-3.1c-.11-.138-.216-.276-.319-.413a12.4,12.4,0,0,1-1.523-2.5,1.351,1.351,0,0,1-.138-.628.169.169,0,0,1,.143-.157.639.639,0,0,1,.351.09,19.177,19.177,0,0,1,3.929,3.583s-.365-.579-.882-1.43c-.13-.212-.268-.442-.412-.684-.338-.563-.707-1.192-1.067-1.827q-.155-.273-.3-.543c-.2-.361-.395-.719-.572-1.06-.09-.17-.175-.336-.256-.5s-.158-.322-.229-.473-.128-.28-.183-.409a5.789,5.789,0,0,1-.26-.707,1.922,1.922,0,0,1-.045-.216.543.543,0,0,1,0-.215.182.182,0,0,1,.028-.058c.072-.095.245-.058.548.149.05.034.1.073.162.117a37.071,37.071,0,0,1,4.173,4.345c-1.7-3.363-4.794-9.945,2.165-.579.052-.05.107-.1.162-.153-1.6-2.922-4.267-8.3,1.763-1.493a11.818,11.818,0,0,1,1.625-1.042c.228-.116.456-.22.682-.309a4.232,4.232,0,0,1,1.329-.3,2.387,2.387,0,0,1,1.209.247c2.99,1.536,19.856,23.432,22.632,27.943s-11.889,25.765-11.889,25.765Z" fill="#ffc0b1"/>
      <path id="Контур_156" data-name="Контур 156" d="M151.181-48.554s-10.68-2.961-19.156.877l6.275,1.426s-7.872.165-10.678,2.961c-3.744,3.727-1.653,10.525-1.653,10.525s4.294-4.715,7.927-5.263c0,0-3.632,1.377-4.623,4.715,0,0,17.393,2.851,20.146-5.153,0,0-1.982,4.166-2.753,4.494s8.807-1.863,11.009-6.25-.595-21.428-.595-21.428Z" fill="#2a2138"/>
    </g>
  </g>
</svg>
