<svg xmlns="http://www.w3.org/2000/svg" xmlns:xlink="http://www.w3.org/1999/xlink" width="78" height="273" viewBox="0 0 78 273">
  <defs>
    <radialGradient id="radial-gradient" cx="0.5" cy="0.5" r="0.634" gradientTransform="translate(0.947 0.072) scale(0.737 0.855)" gradientUnits="objectBoundingBox">
      <stop offset="0" stop-color="#f29788"/>
      <stop offset="0.612" stop-color="#f2a288"/>
      <stop offset="0.92" stop-color="#f2ab88"/>
    </radialGradient>
    <radialGradient id="radial-gradient-2" cx="0.5" cy="0.5" r="0.634" gradientTransform="matrix(-0.737, 0, 0, 0.855, 54.039, 0.072)" xlink:href="#radial-gradient"/>
  </defs>
  <g id="Векторный_смарт-объект" data-name="Векторный смарт-объект" transform="translate(-32.594 -31.042)">
    <g id="Сгруппировать_93" data-name="Сгруппировать 93">
      <path id="Контур_286" data-name="Контур 286" d="M82.241,285.514l8.231.716s5.693,7.418,7.116,8.49,10.586,3.217,10.23,4.915-2.58,3.664-6.049,3.306a51.292,51.292,0,0,1-7.739-1.072,85.9,85.9,0,0,0-13.147-2.887,1.793,1.793,0,0,1-1.49-1.328C80.685,294.151,81.039,290.507,82.241,285.514Z" fill="#f2ab88"/>
      <path id="Контур_287" data-name="Контур 287" d="M80.909,289.6c2.974,1.166,4.98,2.025,7.454,1.887a3.49,3.49,0,0,0,.437-.059c2.257,2.1,4.364,3.527,3.662,2.215-.288-.537-1.116-1.775-1.59-2.791a16.915,16.915,0,0,0,2.512-1.313,36.291,36.291,0,0,0,5.679,5.19c1.6,1.208,11.922,3.624,11.522,5.536s-2.906,4.126-6.813,3.724a124.092,124.092,0,0,1-13.219-2.347,5.659,5.659,0,0,0-3.838-1.553,7.152,7.152,0,0,0-1.406.137c-1.3-.253-2.693-.491-4.171-.7a2.023,2.023,0,0,1-1.741-1.876C79.27,295.751,80.267,292.52,80.909,289.6Z" fill="#5c3f31"/>
      <path id="Контур_288" data-name="Контур 288" d="M79.459,296.237c1.006.269,2.244.4,4.332.873,5.825,1.329,6.016,3.006,8.19,3.679a38.084,38.084,0,0,0,12.343,1.919,7.571,7.571,0,0,0,6.264-2.578.564.564,0,0,1-.005.14c-.4,1.912-2.906,4.126-6.813,3.724a124.092,124.092,0,0,1-13.219-2.347,5.659,5.659,0,0,0-3.838-1.553,7.152,7.152,0,0,0-1.406.137c-1.3-.253-2.693-.491-4.171-.7a2.023,2.023,0,0,1-1.741-1.876C79.39,297.591,79.459,296.237,79.459,296.237Z" fill="#371909"/>
      <path id="Контур_289" data-name="Контур 289" d="M65.895,285.514l-8.232.716s-5.693,7.418-7.116,8.49-10.586,3.217-10.229,4.915,2.58,3.664,6.048,3.306a51.32,51.32,0,0,0,7.739-1.072,85.851,85.851,0,0,1,13.147-2.887,1.793,1.793,0,0,0,1.489-1.328C67.451,294.151,67.1,290.507,65.895,285.514Z" fill="#f2ab88"/>
      <path id="Контур_290" data-name="Контур 290" d="M67.227,289.6c-2.975,1.166-4.981,2.025-7.455,1.887a3.508,3.508,0,0,1-.437-.059c-2.257,2.1-4.364,3.527-3.662,2.215.288-.537,1.116-1.775,1.59-2.791a16.951,16.951,0,0,1-2.512-1.313,36.294,36.294,0,0,1-5.678,5.19c-1.6,1.208-11.922,3.624-11.522,5.536s2.905,4.126,6.812,3.724a124.058,124.058,0,0,0,13.219-2.347,5.66,5.66,0,0,1,3.838-1.553,7.165,7.165,0,0,1,1.407.137c1.3-.253,2.693-.491,4.171-.7a2.022,2.022,0,0,0,1.741-1.876C68.865,295.751,67.868,292.52,67.227,289.6Z" fill="#5c3f31"/>
      <path id="Контур_291" data-name="Контур 291" d="M68.677,296.237c-1.006.269-2.244.4-4.332.873-5.825,1.329-6.016,3.006-8.19,3.679a38.088,38.088,0,0,1-12.344,1.919,7.568,7.568,0,0,1-6.263-2.578.531.531,0,0,0,.005.14c.4,1.912,2.905,4.126,6.812,3.724a124.058,124.058,0,0,0,13.219-2.347,5.66,5.66,0,0,1,3.838-1.553,7.165,7.165,0,0,1,1.407.137c1.3-.253,2.693-.491,4.171-.7a2.022,2.022,0,0,0,1.741-1.876C68.746,297.591,68.677,296.237,68.677,296.237Z" fill="#371909"/>
      <path id="Контур_292" data-name="Контур 292" d="M94.3,226.136c1.544-47.522-.623-63.754-.623-63.754L71.813,148.538,49.456,162.382s-1.721,20.127,2.085,64.425c0,0,1.489,43.868,1.528,62.009,0,0,10.088,2.711,15.672-.241,0,0-.484-47.893-.633-55.588-.118-6.142,1.276-33.952,2.558-46.874a.9.9,0,0,1,1.8,0c1.283,12.923,4.6,40.733,4.482,46.874-.148,7.695,3.022,55.588,3.022,55.588,5.584,2.953,15.4.241,15.4.241C95.4,270.675,94.3,226.136,94.3,226.136Z" fill="#28567a"/>
      <path id="Контур_293" data-name="Контур 293" d="M49.45,162.456l-.007.1c0,.04-.007.088-.01.143l-.009.119c-.007.109-.016.239-.026.39l0,.037c-.005.084-.011.177-.017.274l0,.079c-.148,2.493-.426,8.869-.247,19.453h0q.023,1.387.058,2.873l0,.19q.018.751.039,1.527c3.446.319,11.894.746,16.305-.775,3-1.034,6.252-3.624,9.581-1.429,5.53,3.646,12.954,2.73,19.69,1.491-.221-17.725-1.13-24.544-1.13-24.544L71.813,148.538,49.456,162.382l0,.038Z" fill="#28567a" opacity="0.35" style="mix-blend-mode: multiply;isolation: isolate"/>
      <path id="Контур_294" data-name="Контур 294" d="M61.865,99.686c1.253.632,2.517,1.242,3.812,1.783l.045.015c1.563.52,3.137,1.006,4.735,1.4,2.97-.619,5.925-1.27,8.949-1.716l.034-.019c1.049-.622,2.1-1.251,3.109-1.943.107-.1.205-.192.289-.28,1.478-1.567,2.753-3.3,4.192-4.892,1.4-1.552,2.926-3.007,4.279-4.6.031-.06.06-.118.1-.186.082-.156.159-.314.237-.471a27.251,27.251,0,0,1-7.486-1.287c-5.665-2.319-5.665-13.491-5.665-13.491H65.9s0,11.173-5.665,13.491A28.483,28.483,0,0,1,52.4,88.8c1.392,2.1,2.683,4.274,4.087,6.551.332.539.993,1.369,1.385,1.866.156.14.313.278.476.41l.179.141c.15.1.3.2.447.292C59.923,98.624,60.876,99.188,61.865,99.686Z" fill="#f2ab88"/>
      <path id="Контур_295" data-name="Контур 295" d="M84.827,93.52a9.011,9.011,0,0,0-3.092-2.347c-.668-.2-1.351-.383-2.039-.559a33.987,33.987,0,0,1-6.945.831,34.775,34.775,0,0,1-8.377-1.167c-.71.638-1.4,1.3-2.132,1.905a34.445,34.445,0,0,0-3.264,2.694C63.567,107.5,73.5,130.355,73.842,131.566L85.231,93.878C85.094,93.76,84.958,93.642,84.827,93.52Z" fill="#394962"/>
      <path id="Контур_296" data-name="Контур 296" d="M86.565,90.425l-5.258-3.356-8.973,4.446-9.176-4.446L57.9,90.425l9.6,12.455,4.737-7.124,4.737,7.124Z" fill="#bcadb4" style="mix-blend-mode: multiply;isolation: isolate"/>
      <path id="Контур_297" data-name="Контур 297" d="M96.9,139.442c2.151-20.788,8.8-45.018,7.729-47.259-1.917-4.022-11.861-2.676-18.282-4.162-1.292.673-2.53,1.24-3.721,1.721h0l-9.361,30.979C72.953,119.62,61.6,93.593,61,89.168h0c-.772-.346-1.562-.724-2.374-1.147-6.422,1.486-18.267.288-20.184,4.31-1.142,2.4,7.139,24.12,9.326,46.213C49.618,157.272,45.4,181.064,45.012,183c0,0,10.821,2.577,18.81-.859,3.439-1.479,5.665-6.013,8.409-22.978,0,0,1.962,20.617,8.477,23.3,5.5,2.265,18.81.536,18.81.536C99.1,180.916,94.8,159.727,96.9,139.442Z" fill="#17899c"/>
      <path id="Контур_298" data-name="Контур 298" d="M87.531,98.44l3.589-.846c-.026-.818-.041-7.166-.077-8.888a41.139,41.139,0,0,1-5.618-.685c-1.21.63-2.349,2.4-3.465,2.852L73.67,122.546c-.294-1.031-11.417-28.062-11.987-32.21h0c-.724-.324-1.307-1.5-2.068-1.9-1.878.435-5.22.229-7.649.4.062,1.188.833,7.987.91,9.573l3.723.878-2.593,2.868c1.108,2.289,19.343,27.552,19.343,27.552.47-.749,15.278-23.769,17.061-28.407Z" fill="#17909c" opacity="0.35" style="mix-blend-mode: multiply;isolation: isolate"/>
      <path id="Контур_299" data-name="Контур 299" d="M82.335,87.069l8.008,1.367v8.34L85.231,97.85l3.845,3.758-15.808,26.7v-7.589Z" fill="#2e96a6"/>
      <path id="Контур_300" data-name="Контур 300" d="M60.758,87.069l-7.818,2.215.882,8.293,5.2.522-3.426,4.147,17.755,25.926v-7.754Z" fill="#2e96a6"/>
      <path id="Контур_301" data-name="Контур 301" d="M96.347,149.346c0-.261.007-.521.012-.783.061-3.016.229-6.078.544-9.121,1.365-13.192,5.3-27.705,7.729-37.127-1.608.585-3.168,1.205-4.635,1.791a37.882,37.882,0,0,0-7.569,4.431c-2.2,1.558-3.347,4.834-4.976,6.97-3.485,4.569-7.523,11.508-13.3,12.658a14.1,14.1,0,0,1-5.221.084c-4.27-.112-8.12-6.023-10.995-9.32q-.478-.471-.947-.96a6.981,6.981,0,0,1-1.184-1.651c-1.151-1.485-2.225-2.956-3.255-4.232-1.781-2.209-3.6-4.551-5.315-6.424-.874-.7-1.724-1.428-2.554-2.188a21.289,21.289,0,0,0-1.981-1.507c-.392-.2-.788-.392-1.184-.585-.08-.017-.158-.044-.238-.057a5.045,5.045,0,0,1-1.3-.395c2.3,8.825,6.347,23.132,7.78,37.613.311,3.146.448,6.435.462,9.739,0,.142,0,.286,0,.429q0,1.461-.025,2.921A212.2,212.2,0,0,1,45.012,183s.823.2,2.178.407c1.075-1.761,6.858-13.98,4.906-31.765,2.531-.131,3.546-.288,3.546-.288l1.1,3.414A161.963,161.963,0,0,0,90.7,153.056a64.416,64.416,0,0,0,2.039,12.626c1.377,5.307,2.788,12.141,5.9,17.419.563-.062.885-.1.885-.1a171.731,171.731,0,0,1-3.187-31.259Q96.328,150.55,96.347,149.346Z" fill="#52acb5" opacity="0.5" style="mix-blend-mode: multiply;isolation: isolate"/>
      <path id="Контур_302" data-name="Контур 302" d="M71.641,86.2c5.671,0,8.236-1.855,8.973-2.3-2.122-4.109-2.124-9.912-2.124-9.912H65.9s0,6.233-2.362,10.353A25.256,25.256,0,0,0,71.641,86.2Z" fill="#dcb890" opacity="0.55" style="mix-blend-mode: multiply;isolation: isolate"/>
      <g id="Сгруппировать_84" data-name="Сгруппировать 84">
        <path id="Контур_303" data-name="Контур 303" d="M53.763,61.432c2.071-2.819,6.766,1.772,6.766,1.772s2.915,3.422-.48,7.558c-1.7,2.068-3.657.5-4.969-1.954S52.287,63.443,53.763,61.432Z" fill="#f2ab88"/>
        <path id="Контур_304" data-name="Контур 304" d="M56.742,69.093a1.951,1.951,0,0,0,1.725.713.689.689,0,0,0,.479-.73c-.2-.612-2.137-1.7-1.653-3.408.488-1.724-1.691-3.375-2.37-2.427C54.393,63.981,55.033,67.352,56.742,69.093Z" fill="#db7a5b"/>
      </g>
      <g id="Сгруппировать_85" data-name="Сгруппировать 85">
        <path id="Контур_305" data-name="Контур 305" d="M90.611,61.432C88.54,58.613,83.845,63.2,83.845,63.2s-2.915,3.422.479,7.558c1.7,2.068,3.658.5,4.969-1.954S92.086,63.443,90.611,61.432Z" fill="#f2ab88"/>
        <path id="Контур_306" data-name="Контур 306" d="M87.631,69.093a1.952,1.952,0,0,1-1.725.713.69.69,0,0,1-.479-.73c.2-.612,2.138-1.7,1.654-3.408-.489-1.724,1.691-3.375,2.37-2.427C89.981,63.981,89.34,67.352,87.631,69.093Z" fill="#db7a5b"/>
      </g>
      <path id="Контур_307" data-name="Контур 307" d="M87.515,48.063a10.076,10.076,0,0,0-3.966-5.849,18,18,0,0,0-22.633,0,10.076,10.076,0,0,0-3.966,5.849s-.973,18.124,3.526,25.073c3.486,5.384,7.875,8.3,11.756,8.3s8.27-2.92,11.756-8.3C88.488,66.188,87.515,48.063,87.515,48.063Z" fill="#f2ab88"/>
      <path id="Контур_308" data-name="Контур 308" d="M58.5,62.623c-.5-7.926.352-13.817.807-14.518a17.717,17.717,0,0,0,5.238-7S71.03,44.269,81.3,43c0,0,1.908,2.7,3.637,5.481.836,1.345,1.2,9.09.966,14.116a2.482,2.482,0,0,0,.786,1.948l.337.308c1.267-2.575,2.52-13.42,1.879-17-1.806-10.1-9.079-11.172-16.318-11.172a20.5,20.5,0,0,0-8.72,2c-.557-.165-1.4-.362-1.388-.473-3.872.26-5.853,5.789-7,9.64-1.158,3.9.612,14.429,1.879,17l.012-.008A2.443,2.443,0,0,0,58.5,62.623Z" fill="#995235"/>
      <path id="Контур_309" data-name="Контур 309" d="M62.681,42.237q.548.239,1.078.5a16.663,16.663,0,0,0,.781-1.631S71.03,44.269,81.3,43c0,0,1.619,2.294,3.226,4.828a14.51,14.51,0,0,0,3.948-1.867c-2.34-8.351-9.128-9.284-15.888-9.284a20.5,20.5,0,0,0-8.72,2c-.557-.165-1.4-.362-1.388-.473a4.717,4.717,0,0,0-3.037,1.515l.036.046A8.343,8.343,0,0,0,62.681,42.237Z" fill="#995235" opacity="0.35" style="mix-blend-mode: multiply;isolation: isolate"/>
      <path id="Контур_310" data-name="Контур 310" d="M89.231,36.273c0,3.549-5.8,2.055-13.382-2.242-7.433-4.211-11.125-.556-12.625,1.866a15.422,15.422,0,0,1,1.74-4.855,5.242,5.242,0,0,0-3.082,6.715,5.681,5.681,0,0,0-5.02,1.085s3.926-.619,5.373.627c.188.161.794.446.864.511,4.066,4.495,8.082,6.679,16.454,6.07,4.626-.337,6.166-.876,8.364-3.238A6.889,6.889,0,0,0,89.231,36.273Z" fill="#995235"/>
      <path id="Контур_311" data-name="Контур 311" d="M79.552,46.049c4.358-.317,5.977-.816,7.988-2.847a12.1,12.1,0,0,1-8.684-3.1c-.077,1.16.5,2.705,2.04,4.484A20.752,20.752,0,0,1,70.842,40.33c.616,1.237,1.243,3.285,1.859,3.9-1.91,0-6.994-2.236-8.138-2.751C68.187,44.949,72.182,46.585,79.552,46.049Z" fill="#995235" opacity="0.5" style="mix-blend-mode: multiply;isolation: isolate"/>
      <g id="Сгруппировать_87" data-name="Сгруппировать 87">
        <path id="Контур_312" data-name="Контур 312" d="M81.666,59.741a3.257,3.257,0,1,1-3.253-3.094A3.176,3.176,0,0,1,81.666,59.741Z" fill="#fdfaee"/>
        <path id="Контур_313" data-name="Контур 313" d="M79.6,61.972a8.456,8.456,0,0,1-1.716.189,3.146,3.146,0,0,1-2.431-1.132,3.32,3.32,0,0,0,5.954-.087A4.008,4.008,0,0,1,79.6,61.972Z" fill="#e78660"/>
        <g id="Сгруппировать_86" data-name="Сгруппировать 86">
          <path id="Контур_314" data-name="Контур 314" d="M80.321,59.9a1.907,1.907,0,1,1-1.907-1.89A1.9,1.9,0,0,1,80.321,59.9Z" fill="#633837"/>
          <path id="Контур_315" data-name="Контур 315" d="M79.572,59.9a1.158,1.158,0,1,1-1.159-1.148A1.153,1.153,0,0,1,79.572,59.9Z" fill="#321413"/>
        </g>
        <path id="Контур_316" data-name="Контур 316" d="M76.276,58.8a6.694,6.694,0,0,1,2.319-.317A5.722,5.722,0,0,1,81.659,59.6c-.077-1.643-.7-3.451-3.224-3.618-2.433-.162-3.092,1.883-3.258,3.444A2.711,2.711,0,0,1,76.276,58.8Z" fill="#e78660"/>
      </g>
      <g id="Сгруппировать_89" data-name="Сгруппировать 89">
        <path id="Контур_317" data-name="Контур 317" d="M62.487,59.741a3.257,3.257,0,1,0,3.253-3.094A3.176,3.176,0,0,0,62.487,59.741Z" fill="#fdfaee"/>
        <path id="Контур_318" data-name="Контур 318" d="M64.549,61.972a8.456,8.456,0,0,0,1.716.189A3.146,3.146,0,0,0,68.7,61.028a3.32,3.32,0,0,1-5.954-.087A4.008,4.008,0,0,0,64.549,61.972Z" fill="#e78660"/>
        <g id="Сгруппировать_88" data-name="Сгруппировать 88">
          <path id="Контур_319" data-name="Контур 319" d="M63.833,59.9a1.907,1.907,0,1,0,1.907-1.89A1.9,1.9,0,0,0,63.833,59.9Z" fill="#633837"/>
          <path id="Контур_320" data-name="Контур 320" d="M64.582,59.9a1.158,1.158,0,1,0,1.159-1.148A1.153,1.153,0,0,0,64.582,59.9Z" fill="#321413"/>
        </g>
        <path id="Контур_321" data-name="Контур 321" d="M67.878,58.8a6.694,6.694,0,0,0-2.319-.317A5.722,5.722,0,0,0,62.495,59.6c.077-1.643.7-3.451,3.224-3.618,2.433-.162,3.092,1.883,3.258,3.444A2.711,2.711,0,0,0,67.878,58.8Z" fill="#e78660"/>
      </g>
      <g id="Сгруппировать_90" data-name="Сгруппировать 90">
        <path id="Контур_322" data-name="Контур 322" d="M71.694,69.073a3.722,3.722,0,0,1-1.338-.25A1.826,1.826,0,0,1,69.1,67.51c-.135-.8,2.353-11.751,2.344-11.8a.315.315,0,1,1,.619-.116c.038.2-2.431,11.283-2.342,11.809a1.255,1.255,0,0,0,.868.832,2.487,2.487,0,0,0,2.175-.081.314.314,0,0,1,.441.061.318.318,0,0,1-.061.443A2.4,2.4,0,0,1,71.694,69.073Z" fill="#ce7959"/>
      </g>
      <path id="Контур_323" data-name="Контур 323" d="M75.107,50.631s4.42-.263,5.484.19,3.338,2.276,3.193,2.966-3.692-.93-4.126-.848-4.629.293-4.962-.3C74.311,51.953,74.365,50.636,75.107,50.631Z" fill="#884627"/>
      <path id="Контур_324" data-name="Контур 324" d="M69.1,50.736s-4.413-.412-5.486,0S60.23,52.9,60.361,53.6s3.71-.8,4.142-.709,4.621.45,4.967-.132C69.869,52.085,69.842,50.767,69.1,50.736Z" fill="#884627"/>
      <path id="Контур_325" data-name="Контур 325" d="M66.964,59.451a.374.374,0,1,1-.374-.376A.375.375,0,0,1,66.964,59.451Z" fill="#fdfaee"/>
      <ellipse id="Эллипс_3" data-name="Эллипс 3" cx="0.374" cy="0.376" rx="0.374" ry="0.376" transform="translate(78.752 59.075)" fill="#fdfaee"/>
      <path id="Контур_326" data-name="Контур 326" d="M78.6,70.039c-.353-.033-.489-.492-.492-.5a.315.315,0,1,0-.607.167,1.475,1.475,0,0,0,.174.391c-5.489,4.355-10.847.587-11.657-.033a1.517,1.517,0,0,0,.153-.358.315.315,0,0,0-.607-.167c0,.005-.137.47-.492.5a.316.316,0,0,0,.028.631h.03a1.033,1.033,0,0,0,.45-.15,11.522,11.522,0,0,0,6.536,2.252,9.418,9.418,0,0,0,6.011-2.23,1.045,1.045,0,0,0,.415.128h.03a.316.316,0,0,0,.028-.631Z" fill="#ce7959"/>
      <g id="Сгруппировать_91" data-name="Сгруппировать 91">
        <path id="Контур_327" data-name="Контур 327" d="M72.025,74.5a4.829,4.829,0,0,1-2.707-.835.21.21,0,0,1,.255-.335,4.345,4.345,0,0,0,4.933-.011.208.208,0,0,1,.289.067.211.211,0,0,1-.066.291A5.017,5.017,0,0,1,72.025,74.5Z" fill="#ce7959"/>
      </g>
      <path id="Контур_328" data-name="Контур 328" d="M84.172,65.8c0,1.479-1.62,2.678-3.619,2.678s-3.62-1.2-3.62-2.678,1.621-2.679,3.62-2.679S84.172,64.317,84.172,65.8Z" fill="url(#radial-gradient)"/>
      <path id="Контур_329" data-name="Контур 329" d="M60.22,65.8c0,1.479,1.621,2.678,3.62,2.678s3.619-1.2,3.619-2.678-1.62-2.679-3.619-2.679S60.22,64.317,60.22,65.8Z" fill="url(#radial-gradient-2)"/>
      <path id="Контур_330" data-name="Контур 330" d="M58.36,56.578a10.222,10.222,0,0,1-2.95-.551,35.392,35.392,0,0,0,1.948,8.831l.012-.008A2.443,2.443,0,0,0,58.5,62.623C58.357,60.422,58.327,58.394,58.36,56.578Z" fill="#995235" opacity="0.35" style="mix-blend-mode: multiply;isolation: isolate"/>
      <path id="Контур_331" data-name="Контур 331" d="M85.929,56.734c.059,2.028.053,4.111-.028,5.868a2.482,2.482,0,0,0,.786,1.948l.337.308c.712-1.45,1.419-5.513,1.787-9.43A8.884,8.884,0,0,1,85.929,56.734Z" fill="#995235" opacity="0.35" style="mix-blend-mode: multiply;isolation: isolate"/>
      <path id="Контур_332" data-name="Контур 332" d="M63.157,84.723,57.9,88.079l9.6,12.455,4.838-9.019Z" fill="#394962"/>
      <path id="Контур_333" data-name="Контур 333" d="M81.307,84.723l5.258,3.356-9.6,12.455-4.838-9.019Z" fill="#394962"/>
      <path id="Контур_334" data-name="Контур 334" d="M103.98,91.281a59.968,59.968,0,0,0-9.814,15.5A28.7,28.7,0,0,0,92,120.381c.283,3.588.558,8.5.072,9.762-.789,2.046-33.982,3.248-33.982,3.248l1.747,14.815s40.8.473,47.09-4.4C112.486,139.5,106.87,92.332,103.98,91.281Z" fill="#17899c"/>
      <path id="Контур_335" data-name="Контур 335" d="M92.069,130.143a3.662,3.662,0,0,0,.17-.825,5.165,5.165,0,0,1,.1,1.97,3.129,3.129,0,0,1-.862,1.823c-.611.8-4.617,1.309-4.932,1.709-.79,1-.183,3.266.088,5.5-1.818,1.112-14.3,5.194-26.983,6.308l-1.56-13.234S91.28,132.189,92.069,130.143Z" fill="#52acb5" opacity="0.65" style="mix-blend-mode: multiply;isolation: isolate"/>
      <path id="Контур_336" data-name="Контур 336" d="M88.152,132.919c1.633-.515,3.54-1.048,4.229-2.479.42-.873-.053-4.176-.053-4.176a24.14,24.14,0,0,0-2.84-.872c-2.124-.363-7.565,3.541-7.565,3.541a10.5,10.5,0,0,0,.656,4.355c.118.354,2.614.108,2.957.1A10.071,10.071,0,0,0,88.152,132.919Z" fill="#f2ab88"/>
      <path id="Контур_337" data-name="Контур 337" d="M92.327,126.263a9.772,9.772,0,0,0-.928-.331c.266,2.707.286,5.291-3.221,6.009-1.278.261-4.6.36-5.844.507.075.277.155.558.244.84.118.354,2.614.108,2.957.1a10.071,10.071,0,0,0,2.616-.465c1.633-.515,3.54-1.048,4.229-2.479C92.8,129.566,92.327,126.263,92.327,126.263Z" fill="#d49481" opacity="0.35" style="mix-blend-mode: multiply;isolation: isolate"/>
      <path id="Контур_338" data-name="Контур 338" d="M38.438,92.332s-9.963,36.987-3.871,49.917c5.35,11.355,49.648-3.357,49.648-3.357l-2.2-11.986s-34.242,4.592-34.242,2.412a35.632,35.632,0,0,1,.645-6.179,25.832,25.832,0,0,0,.076-10.886C46.9,104.6,43.537,92.332,38.438,92.332Z" fill="#17899c"/>
      <path id="Контур_339" data-name="Контур 339" d="M44.8,117.372c1.842-2.1,3.789.447,4.219.875a26.05,26.05,0,0,1-.6,4.893,40.078,40.078,0,0,0-.644,6.01C47.238,128.738,40.358,122.441,44.8,117.372Z" fill="#52acb5" opacity="0.65" style="mix-blend-mode: multiply;isolation: isolate"/>
      <g id="Сгруппировать_92" data-name="Сгруппировать 92">
        <path id="Контур_340" data-name="Контур 340" d="M45.6,122.294c-.912-.189-1.344.418-.959,1.333.216.512,2.306,2.925,4.552,6.124a25.058,25.058,0,0,0,7-.032c-.8-3.811-6.341-10.807-7.822-11.585-1.43-.752-1.788.363-1.788.363-2-.573-1.45,1.17-1.45,1.17C43.627,120.32,45.6,122.294,45.6,122.294Z" fill="#f2ab88"/>
        <path id="Контур_341" data-name="Контур 341" d="M45.554,122.286s3.339,3.7,3.735,4.466c.179.346.31.188-.09-.429A32.086,32.086,0,0,0,45.554,122.286Z" fill="#d69c7c" opacity="0.65" style="mix-blend-mode: multiply;isolation: isolate"/>
        <path id="Контур_342" data-name="Контур 342" d="M45.154,119.668s3.881,3.453,5.154,5.675c.207.362.386.252-.129-.554A23.809,23.809,0,0,0,45.154,119.668Z" fill="#d69c7c" opacity="0.65" style="mix-blend-mode: multiply;isolation: isolate"/>
        <path id="Контур_343" data-name="Контур 343" d="M46.569,118.476a42.659,42.659,0,0,1,5.053,6.011c.207.362.386.252-.13-.554A28.509,28.509,0,0,0,46.569,118.476Z" fill="#d69c7c" opacity="0.65" style="mix-blend-mode: multiply;isolation: isolate"/>
        <path id="Контур_344" data-name="Контур 344" d="M55.761,128.353a11.273,11.273,0,0,1-2.014.363c-3.386.6-6.561-1.967-6.86-2.088.693.9,1.488,1.959,2.3,3.123a25.085,25.085,0,0,0,7-.032A8.7,8.7,0,0,0,55.761,128.353Z" fill="#d49481" opacity="0.35" style="mix-blend-mode: multiply;isolation: isolate"/>
      </g>
    </g>
  </g>
</svg>
