<svg xmlns="http://www.w3.org/2000/svg" xmlns:xlink="http://www.w3.org/1999/xlink" width="101" height="270" viewBox="0 0 101 270">
  <defs>
    <clipPath id="clip-path">
      <path id="Контур_93" data-name="Контур 93" d="M332.3-301.009l29.362,1.359.037-2.895-29.433.073Z" fill="none"/>
    </clipPath>
    <clipPath id="clip-path-2">
      <path id="Контур_105" data-name="Контур 105" d="M409.4-301.547l-29.3,2.385-.137-2.892,29.417-.956Z" fill="none"/>
    </clipPath>
  </defs>
  <g id="Векторный_смарт-объект" data-name="Векторный смарт-объект" transform="matrix(-1, 0, 0, -1, 425.564, -33.009)">
    <g id="Сгруппировать_43" data-name="Сгруппировать 43">
      <path id="Контур_78" data-name="Контур 78" d="M381.542-94.223,407.4-105.29l6.448,29.554c3.276.229,5.6-1.887,8.852-1.37-.054-6.92-1.585-37.343-5.135-43.144-5.573-9.1-38.02,10.3-38.02,10.3Z" fill="#ffc0b1"/>
      <path id="Контур_79" data-name="Контур 79" d="M422.869-76.821s3.644,9.273,2.457,9.376-2.909-4.242-2.909-4.242,2.277,7.293,1.4,7.519-4.45-6.5-4.45-6.5,2.244,8.643,1.5,8.708-4.284-8.018-4.284-8.018.567,6.544-.62,6.647-2.185-9.7-2.185-9.7-2.614,2.625-3.582,1.81,3.234-5.826,3.234-5.826l-6.725-31.028L420.418-84.4Z" fill="#ffc0b1"/>
    </g>
    <path id="Контур_80" data-name="Контур 80" d="M332.812-112.759l-4.645-68.183s-1.463-5.643-1.817-7.3c-.914-4.295,2.792-14.4,1.706-2.642,0,0,4.68-16.721,2.3.805,0,0,5.692-14.421,3.11-.313,0,0,5.689-11.589,2.128-.188,0,0,.608,3.579,1.422,6.73s11.117,65.888,9.643,70.809S332.812-112.759,332.812-112.759Z" fill="#ffc0b1"/>
    <path id="Контур_81" data-name="Контур 81" d="M357.5-87.8l-.654,14.475,13.8-3.846,1-11.091c2.139-.9,3.48-2.172,3.521-3.624.082-2.914-5.106-5.422-11.585-5.6s-11.8,2.032-11.878,4.945C351.647-90.578,353.988-88.8,357.5-87.8Z" fill="#ffafa0"/>
    <path id="Контур_82" data-name="Контур 82" d="M361.186-45.329c-8.87-2.81-8.118-9.013-8.118-9.013a56.168,56.168,0,0,1,.381-9.393,2.981,2.981,0,0,1-3.787.707c-2.969-1.572.1-11.1,4.709-9.874a25.014,25.014,0,0,1,2.21-6.586c1.54-2.655,7.661-6.39,12.836-6.627s11.531,3.894,11.518,9.967c-.017,8.412-4.008,31.271-4.008,31.271S375.874-40.678,361.186-45.329Z" fill="#ffc0b1"/>
    <path id="Контур_83" data-name="Контур 83" d="M357.493-48.39c-2.439-.193-5.568-2.7-8.011-2.844.009-.017.021-.032.03-.049.491-1.027.856-11.542.856-11.542a2.9,2.9,0,0,0,3.032-1.945l.686-4.373,2.416.455-.621,9.329a4.868,4.868,0,0,1,2,2.551A72.89,72.89,0,0,0,357.493-48.39Z" fill="#2a2138"/>
    <path id="Контур_84" data-name="Контур 84" d="M370.92-60.687l5.342-9.763-4.926-1.488" fill="none" stroke="#d8817b" stroke-miterlimit="10" stroke-width="1.229"/>
    <path id="Контур_85" data-name="Контур 85" d="M359.869-57.6s3.666,3.41,7.712.555" fill="none" stroke="#2a2138" stroke-miterlimit="10" stroke-width="1.757"/>
    <path id="Контур_86" data-name="Контур 86" d="M371.9-57.04s2.965,3.883,6.5.34" fill="none" stroke="#2a2138" stroke-miterlimit="10" stroke-width="1.757"/>
    <path id="Контур_87" data-name="Контур 87" d="M332.3-301.009l29.362,1.359.037-2.895-29.433.073Z" fill="#fff"/>
    <path id="Контур_88" data-name="Контур 88" d="M345.9-229.015l6.184-63.7,8.6-5.06-.028,50.652C355.671-246.327,350.865-229.951,345.9-229.015Z" fill="#ffafa0"/>
    <path id="Контур_89" data-name="Контур 89" d="M351.565-287.381,345.9-229.015c4.966-.936,9.772-17.312,14.761-18.1l.021-40.261Z" fill="#201829" opacity="0.2"/>
    <path id="Контур_90" data-name="Контур 90" d="M352.37-290.811l9.3-2.331.021-7.035-29.4-.832S332.985-297.971,352.37-290.811Z" fill="#fff"/>
    <path id="Контур_91" data-name="Контур 91" d="M340.856-296.9a5.748,5.748,0,0,0,1.194-3.833l19.645.555-.021,7.035-9.3,2.331c-5.539-2.045-9.546-3.752-12.451-5.151A5.664,5.664,0,0,0,340.856-296.9Z" fill="#2a2138"/>
    <path id="Контур_92" data-name="Контур 92" d="M350.826-293.714s-3.07,4.507,0,4.727c1.468.106,7.143-.329,4.62-4.727S350.826-293.714,350.826-293.714Z" fill="#2a2138"/>
    <g id="Сгруппировать_45" data-name="Сгруппировать 45">
      <g id="Сгруппировать_44" data-name="Сгруппировать 44" clip-path="url(#clip-path)">
        <line id="Линия_1" data-name="Линия 1" x2="32.577" y2="0.769" transform="translate(330.072 -301.225)" fill="none" stroke="#2a2138" stroke-miterlimit="10" stroke-width="0.878"/>
      </g>
    </g>
    <path id="Контур_94" data-name="Контур 94" d="M409.4-301.547l-29.3,2.385-.137-2.892,29.417-.956Z" fill="#fff"/>
    <path id="Контур_95" data-name="Контур 95" d="M393.572-228.449l-4.6-63.832-8.475-5.273-1.231,50.638C384.232-246,388.631-229.509,393.572-228.449Z" fill="#ffafa0"/>
    <path id="Контур_96" data-name="Контур 96" d="M380.19-284.889l-.924,37.972c4.966.918,9.365,17.407,14.306,18.467l-4.045-56.141A85.223,85.223,0,0,1,380.19-284.889Z" fill="#201829" opacity="0.2"/>
    <path id="Контур_97" data-name="Контур 97" d="M389.7-290.654l-9.379-2-.267-7.03,29.349-1.86S408.826-298.486,389.7-290.654Z" fill="#fff"/>
    <path id="Контур_98" data-name="Контур 98" d="M401-297.142a5.738,5.738,0,0,1-1.327-3.788l-19.615,1.243.267,7.03,9.379,2c5.463-2.237,9.408-4.084,12.265-5.582A5.611,5.611,0,0,1,401-297.142Z" fill="#2a2138"/>
    <path id="Контур_99" data-name="Контур 99" d="M392.32-291.607a21.85,21.85,0,0,1-2.587-3.29" fill="none" stroke="#fff" stroke-miterlimit="10" stroke-width="0.166"/>
    <path id="Контур_100" data-name="Контур 100" d="M394.279-292.264a21.984,21.984,0,0,1-2.587-3.29" fill="none" stroke="#fff" stroke-miterlimit="10" stroke-width="0.166"/>
    <path id="Контур_101" data-name="Контур 101" d="M396.424-293.084a21.85,21.85,0,0,1-2.587-3.29" fill="none" stroke="#fff" stroke-miterlimit="10" stroke-width="0.166"/>
    <path id="Контур_102" data-name="Контур 102" d="M368.471-187.392l-4.694-94.315-15.356-.439s-8.774,123.054-3.07,141.521l42.424-14.456s4.609-44.763,6.363-66.749-.7-58.876-.7-58.876l-14.479-1.759s-1.813,30.162-5.181,56.808C372.036-211.9,370.35-196.657,368.471-187.392Z" fill="#3080aa"/>
    <path id="Контур_103" data-name="Контур 103" d="M346.442-278.144l18.039-1.463.242-5.03-17.918-1.052Z" fill="#5893b1"/>
    <path id="Контур_104" data-name="Контур 104" d="M391.417-291.639s-.084,3.853-1.424,3.241-5.837-.566-3.469-5.048S391.417-291.639,391.417-291.639Z" fill="#2a2138"/>
    <g id="Сгруппировать_47" data-name="Сгруппировать 47">
      <g id="Сгруппировать_46" data-name="Сгруппировать 46" clip-path="url(#clip-path-2)">
        <line id="Линия_2" data-name="Линия 2" x1="32.53" y2="1.908" transform="translate(379.093 -301.841)" fill="none" stroke="#2a2138" stroke-miterlimit="10" stroke-width="0.878"/>
      </g>
    </g>
    <path id="Контур_106" data-name="Контур 106" d="M349.477-291.882a21.823,21.823,0,0,0,2.957-2.96" fill="none" stroke="#fff" stroke-miterlimit="10" stroke-width="0.166"/>
    <path id="Контур_107" data-name="Контур 107" d="M347.739-292.261a21.781,21.781,0,0,0,2.471-3.378" fill="none" stroke="#fff" stroke-miterlimit="10" stroke-width="0.166"/>
    <path id="Контур_108" data-name="Контур 108" d="M345.566-293a21.91,21.91,0,0,0,2.471-3.378" fill="none" stroke="#fff" stroke-miterlimit="10" stroke-width="0.166"/>
    <path id="Контур_109" data-name="Контур 109" d="M392.865-166.135s-33.3-6.167-52.448-1.718l2.632,45.952.181-5.971-18.666,4.89,8.272,26.147,23.306,9.024s5.735-6.29,17.885-1.257c0,0,7.643-1.113,13.238-3.934l15.045-6.809-6.239-19.739-7.873,3.583Z" fill="#fff"/>
    <path id="Контур_110" data-name="Контур 110" d="M391.245-148.045l1.62-18.09s-33.3-6.167-52.448-1.718l1.772,30.941C358.245-140.893,375.1-144.464,391.245-148.045Z" fill="#201829" opacity="0.1"/>
    <path id="Контур_111" data-name="Контур 111" d="M380.546-33.009s-4.144-4.845-7.747-5.5c0,0,3.579,1.482,4.473,4.855,0,0-17.4,2.371-19.92-5.728,0,0,1.856,4.231,2.615,4.583s-8.72-2.114-10.79-6.57,1.191-21.459,1.191-21.459l5.511,13.289s10.718-2.67,19.053,1.413l-6.289,1.253s7.611-1.191,10.329,1.688c3.623,3.84,1.574,12.171,1.574,12.171" fill="#2a2138"/>
    <g id="Сгруппировать_48" data-name="Сгруппировать 48">
      <path id="Контур_112" data-name="Контур 112" d="M374.964-74.522l-11.282.106s2.161-4.494,6.919-4.614A4.468,4.468,0,0,1,374.964-74.522Z" fill="#cc7171"/>
      <path id="Контур_113" data-name="Контур 113" d="M365.187-76.5a11.589,11.589,0,0,0,3.921.387,6.337,6.337,0,0,0,4.1-1.978,4.256,4.256,0,0,1,1.751,3.566l-11.282.106A9.37,9.37,0,0,1,365.187-76.5Z" fill="#5f2626"/>
    </g>
    <path id="Контур_114" data-name="Контур 114" d="M390.188-178.862l-21.716-8.53c1.877-9.265,3.565-24.508,5.3-38.265,3.368-26.646,5.181-56.808,5.181-56.808l14.479,1.759s2.458,36.892.7,58.876C393.349-211.956,391.45-191.808,390.188-178.862Z" fill="#201829" opacity="0.2"/>
    <path id="Контур_115" data-name="Контур 115" d="M394.472-274.55l-17.564-4.377.576-5,17.851,1.876Z" fill="#5893b1"/>
    <path id="Контур_116" data-name="Контур 116" d="M337.291-182.5s6.151-11.9-1.061-3.614S337.291-182.5,337.291-182.5Z" fill="#ffc0b1"/>
    <g id="Сгруппировать_49" data-name="Сгруппировать 49">
      <path id="Контур_117" data-name="Контур 117" d="M362.6-63.373a2.394,2.394,0,1,0,4.726.651" fill="none" stroke="#201829" stroke-miterlimit="10" stroke-width="1.274"/>
      <path id="Контур_118" data-name="Контур 118" d="M373.524-62.417a2.394,2.394,0,1,0,4.726.651" fill="none" stroke="#201829" stroke-miterlimit="10" stroke-width="1.274"/>
    </g>
  </g>
</svg>
